<?xml version="1.0" encoding="UTF-8"?>
<svg version="1.1" xmlns="http://www.w3.org/2000/svg" viewBox="100 820 2200 760" width="2200" height="760">
<path d="M0 0 C1.30751221 0.00346436 2.61502441 0.00692871 3.9621582 0.01049805 C14.00716412 0.12293055 23.47738416 1.03152543 33.25 3.3125 C34.30960938 3.55226563 35.36921875 3.79203125 36.4609375 4.0390625 C42.35737881 5.50913417 47.7901303 7.65671153 53.25 10.3125 C53.25 10.9725 53.25 11.6325 53.25 12.3125 C53.8275 12.42980469 54.405 12.54710937 55 12.66796875 C65.24205186 15.60188986 75.3601271 26.1916059 80.6875 35.21484375 C82.68795665 38.84812713 84.48442601 42.56012347 86.25 46.3125 C86.78238281 47.31925781 87.31476562 48.32601563 87.86328125 49.36328125 C96.6116957 67.96906408 95.65541565 96.38004537 89.23046875 115.6875 C85.86736243 124.69151375 82.23935036 133.56661653 78.25 142.3125 C77.59 142.3125 76.93 142.3125 76.25 142.3125 C75.98574219 143.04855469 75.72148438 143.78460937 75.44921875 144.54296875 C73.49801588 149.04916692 70.35483089 152.54505277 67.25 156.3125 C66.67765625 157.00988281 66.1053125 157.70726562 65.515625 158.42578125 C54.64597085 171.26493695 40.84004761 180.48636277 25.74609375 187.62109375 C22.34880723 189.18935757 22.34880723 189.18935757 19.6953125 190.8984375 C16.77667119 192.58621411 13.91218517 193.52474759 10.6875 194.5 C9.57246094 194.84417969 8.45742188 195.18835937 7.30859375 195.54296875 C4.25 196.3125 4.25 196.3125 0.25 196.3125 C0.25 201.9225 0.25 207.5325 0.25 213.3125 C22.69 213.3125 45.13 213.3125 68.25 213.3125 C68.25 235.7525 68.25 258.1925 68.25 281.3125 C45.81 281.3125 23.37 281.3125 0.25 281.3125 C0.25 292.5325 0.25 303.7525 0.25 315.3125 C7.54424019 316.93447877 7.54424019 316.93447877 14.84375 318.53125 C15.81183594 318.74136719 16.77992188 318.95148438 17.77734375 319.16796875 C18.75832031 319.38066406 19.73929688 319.59335938 20.75 319.8125 C22.71879536 320.23937416 24.68754599 320.66645472 26.65625 321.09375 C27.61249268 321.29782471 28.56873535 321.50189941 29.55395508 321.7121582 C31.19400473 322.07735625 32.82904485 322.46780652 34.4519043 322.90307617 C41.59161769 324.76782093 48.72103641 324.64318094 56.0625 324.625 C57.99706055 324.64916992 57.99706055 324.64916992 59.97070312 324.67382812 C71.02779652 324.67942099 80.58539926 322.49231044 90.875 318.625 C97.05530973 316.3125 97.05530973 316.3125 99.25 316.3125 C99.25 315.6525 99.25 314.9925 99.25 314.3125 C102.08642038 312.38236902 104.97697805 310.61027834 107.921875 308.85351562 C111.868299 306.42399835 114.44795594 304.0801133 117.25 300.3125 C118.24 299.6525 119.23 298.9925 120.25 298.3125 C120.55693741 295.79889391 120.66572678 293.52819355 120.64872742 291.01071167 C120.65869766 289.86883729 120.65869766 289.86883729 120.66886932 288.70389473 C120.68760066 286.13953945 120.68488731 283.57564659 120.68237305 281.01123047 C120.69138405 279.17843969 120.70170962 277.34565497 120.71325684 275.51287842 C120.74093083 270.52553688 120.75012541 265.53830934 120.75611091 260.55090094 C120.76546762 255.34314259 120.79166869 250.13547032 120.81611633 244.92776489 C120.85985966 235.06096 120.88835844 225.19417173 120.91143972 215.32729924 C120.9434964 201.9979272 120.9989813 188.66865431 121.05318546 175.33935738 C121.13799884 154.33043429 121.1914058 133.32155044 121.25 112.3125 C154.25 112.3125 187.25 112.3125 221.25 112.3125 C221.29898438 125.95851563 221.34796875 139.60453125 221.3984375 153.6640625 C221.43381194 162.29557935 221.4696839 170.92708935 221.5078125 179.55859375 C221.56827359 193.26674865 221.62667065 206.97489063 221.671875 220.68310547 C221.70480408 230.66601183 221.74464045 240.64886257 221.79279006 250.63170755 C221.81804586 255.91810071 221.83982993 261.20445702 221.85334396 266.49089432 C221.86617255 271.46652147 221.88823576 276.44202216 221.91738319 281.41757965 C221.92645269 283.24368549 221.93214774 285.06981168 221.93421364 286.89593887 C221.93754058 289.39004881 221.95302974 291.88380118 221.9715271 294.37783813 C221.96959237 295.09964126 221.96765763 295.82144439 221.96566427 296.56512034 C222.06207286 305.2663934 225.26852438 311.18660244 231.25 317.3125 C233.61060526 318.80417081 235.5411746 319.47901526 238.25 320.3125 C239.24 320.6425 240.23 320.9725 241.25 321.3125 C256.45707253 322.72993685 267.34490731 317.43570601 279.25 308.3125 C282.09360178 305.90242778 282.09360178 305.90242778 284.25 303.3125 C284.19811544 300.35508006 283.88229076 298.15546662 283.25 295.3125 C282.9083817 293.31389848 282.57555514 291.31378083 282.25 289.3125 C282.085 288.36375 281.92 287.415 281.75 286.4375 C280.74196456 280.13727853 280.11957582 274.07680971 280.08203125 267.69140625 C280.0778418 266.99368103 280.07365234 266.29595581 280.06933594 265.5770874 C280.05964493 263.34299943 280.05953123 261.10910532 280.0625 258.875 C280.06290787 257.73108292 280.06290787 257.73108292 280.06332397 256.5640564 C280.08122207 245.68272755 280.35107973 235.0532678 282.25 224.3125 C282.45625 223.03246094 282.6625 221.75242187 282.875 220.43359375 C284.38731185 211.91824692 286.94508462 204.28091113 290.25 196.3125 C291.19370011 193.87739372 292.13136648 191.43993911 293.0625 189 C293.79166667 187.10416667 294.52083333 185.20833333 295.25 183.3125 C295.91 183.3125 296.57 183.3125 297.25 183.3125 C297.39115234 182.260625 297.39115234 182.260625 297.53515625 181.1875 C300.4305977 169.54244584 312.13738284 155.5357388 321.25 148.3125 C322.59640274 146.65637343 323.93028422 144.98997006 325.25 143.3125 C337.79852349 131.59550518 355.92881256 118.27542411 373.25 116.3125 C373.25 115.6525 373.25 114.9925 373.25 114.3125 C407.89676514 103.01214779 449.4729146 101.7368585 483.25 116.3125 C484.31105957 116.76447754 484.31105957 116.76447754 485.39355469 117.22558594 C487.82905936 118.26594719 490.25886615 119.3187065 492.6875 120.375 C493.48164307 120.7155542 494.27578613 121.0561084 495.09399414 121.40698242 C495.84543701 121.73802979 496.59687988 122.06907715 497.37109375 122.41015625 C498.0458374 122.70414307 498.72058105 122.99812988 499.41577148 123.30102539 C501.40925789 124.40032183 502.69559355 125.663099 504.25 127.3125 C505.71389465 128.33472624 507.19514081 129.33229692 508.6875 130.3125 C526.24442417 142.45347242 539.11719511 158.65822152 547.25 178.3125 C547.5696875 179.01632812 547.889375 179.72015625 548.21875 180.4453125 C551.94944786 189.00895986 554.60809306 198.91255715 554.25 208.3125 C553.54875 208.43367188 552.8475 208.55484375 552.125 208.6796875 C551.17625 208.84726563 550.2275 209.01484375 549.25 209.1875 C548.321875 209.34992188 547.39375 209.51234375 546.4375 209.6796875 C544.16653351 210.13054114 541.91202071 210.66786935 539.67431641 211.26220703 C534.91686248 212.45900595 530.13328785 213.11719164 525.2734375 213.75 C523.3671809 214.00776367 521.4609311 214.26557767 519.5546875 214.5234375 C516.58160921 214.92004477 513.60828362 215.31471102 510.63476562 215.70800781 C507.74281327 216.09213991 504.85187054 216.48328164 501.9609375 216.875 C501.07642914 216.989646 500.19192078 217.10429199 499.28060913 217.22241211 C494.70568708 217.84465671 490.61941991 218.76721735 486.25 220.3125 C484.28705992 220.71298585 482.31458019 221.06897215 480.3359375 221.3828125 C479.24539063 221.55683594 478.15484375 221.73085937 477.03125 221.91015625 C475.9071875 222.08417969 474.783125 222.25820312 473.625 222.4375 C472.49320313 222.61925781 471.36140625 222.80101562 470.1953125 222.98828125 C465.81166443 223.67906939 461.69649828 224.3125 457.25 224.3125 C456.97736328 222.90097656 456.97736328 222.90097656 456.69921875 221.4609375 C456.44785156 220.21570312 456.19648437 218.97046875 455.9375 217.6875 C455.57205078 215.84285156 455.57205078 215.84285156 455.19921875 213.9609375 C453.20977078 206.3142527 449.22295614 200.42813909 443.25 195.3125 C434.10901079 190.01573502 424.53775546 189.45776997 414.25 189.3125 C414.25 189.9725 414.25 190.6325 414.25 191.3125 C413.6209375 191.52003906 412.991875 191.72757813 412.34375 191.94140625 C401.81831568 195.72992854 394.53662985 202.41183951 389.25 212.3125 C387.57241803 216.9114786 386.34471389 221.54452812 385.25 226.3125 C384.98401001 227.26648682 384.98401001 227.26648682 384.71264648 228.23974609 C382.84735818 235.38047149 382.91882533 242.46962082 382.9375 249.8125 C382.92138672 251.07964844 382.90527344 252.34679688 382.88867188 253.65234375 C382.88493225 260.83991059 383.48965109 266.67874387 386.25 273.3125 C386.53101563 274.23417969 386.81203125 275.15585938 387.1015625 276.10546875 C393.28315223 295.24342079 406.40416931 307.16244207 423.85644531 316.18115234 C429.42769205 318.81448133 435.19596132 320.21914936 441.25 321.3125 C442.08772949 321.48547607 442.92545898 321.65845215 443.78857422 321.83666992 C451.67229939 323.34928386 459.38283701 323.58913151 467.37548828 323.51831055 C469.4835238 323.500142 471.59111316 323.49780135 473.69921875 323.49804688 C487.94718062 323.46517015 501.64520656 322.94976206 515.5 319.25 C517.65003717 318.69272465 519.80104313 318.13916996 521.953125 317.58984375 C522.87770508 317.34484131 523.80228516 317.09983887 524.75488281 316.84741211 C527.25 316.3125 527.25 316.3125 531.25 316.3125 C531.25 315.6525 531.25 314.9925 531.25 314.3125 C531.82331055 314.13187012 532.39662109 313.95124023 532.98730469 313.76513672 C543.85434046 310.31497274 554.20216746 306.76440389 564.25 301.3125 C567.0737319 299.85576322 569.9112456 298.42718385 572.75 297 C573.43360596 296.6501001 574.11721191 296.3002002 574.8215332 295.93969727 C577.99509382 294.33571877 580.77786143 293.18053464 584.25 292.3125 C584.25 197.9325 584.25 103.5525 584.25 6.3125 C616.92 6.3125 649.59 6.3125 683.25 6.3125 C683.25 52.1825 683.25 98.0525 683.25 145.3125 C683.91 145.3125 684.57 145.3125 685.25 145.3125 C685.49363281 144.73757813 685.73726562 144.16265625 685.98828125 143.5703125 C692.74259519 131.48364545 711.50583836 121.43752677 724.25 117.3125 C724.91 117.3125 725.57 117.3125 726.25 117.3125 C726.25 116.6525 726.25 115.9925 726.25 115.3125 C757.57327467 103.92630964 794.88833132 101.38268923 826.25 114.3125 C826.25 114.9725 826.25 115.6325 826.25 116.3125 C828.044375 116.745625 828.044375 116.745625 829.875 117.1875 C837.23762748 119.62229295 843.17245117 124.64166472 849.25 129.3125 C850.30767578 130.10527344 850.30767578 130.10527344 851.38671875 130.9140625 C861.50906747 138.98362722 867.65597115 149.90830936 873.25 161.3125 C873.88421875 162.56740234 873.88421875 162.56740234 874.53125 163.84765625 C882.46233443 180.40079081 882.53393676 199.22551697 882.49382973 217.17532539 C882.48815331 220.45277618 882.49752811 223.72988388 882.5110321 227.00730896 C882.54782464 236.31437914 882.56670795 245.62132556 882.55541992 254.9284668 C882.54953516 260.651813 882.56798091 266.37466781 882.60130882 272.09791374 C882.60920047 274.26058515 882.60807173 276.42331102 882.59728432 278.58596992 C882.45431079 299.4018412 882.45431079 299.4018412 892.25 317.3125 C899.77551554 322.07047993 908.3605417 322.43348035 916.91796875 320.8046875 C922.20727476 319.37780495 926.76082022 317.13184276 931.4375 314.30078125 C933.25 313.3125 933.25 313.3125 935.25 313.3125 C935.07871582 312.74853516 934.90743164 312.18457031 934.73095703 311.60351562 C933.94363661 309.00711255 933.159302 306.40981637 932.375 303.8125 C932.10558594 302.925625 931.83617187 302.03875 931.55859375 301.125 C929.48490286 294.2464156 927.60430431 287.36080379 926.1875 280.3125 C925.95353516 279.1678125 925.95353516 279.1678125 925.71484375 278 C924.62383846 271.69233919 924.09857821 265.56389869 924.1171875 259.1640625 C924.11623077 258.4254599 924.11527405 257.6868573 924.11428833 256.9258728 C924.11361347 255.38140781 924.11541881 253.83693987 924.11962891 252.29248047 C924.12503355 249.9227879 924.11963692 247.55328088 924.11328125 245.18359375 C924.11394125 243.67708292 924.1152208 242.1705722 924.1171875 240.6640625 C924.11415115 239.60162827 924.11415115 239.60162827 924.11105347 238.51773071 C924.13500639 233.54248723 924.13500639 233.54248723 925.25 231.3125 C925.54829193 229.27466404 925.81335013 227.23192604 926.0625 225.1875 C927.18802995 217.04199809 929.09919825 209.24157511 931.25 201.3125 C931.51296875 200.24515625 931.7759375 199.1778125 932.046875 198.078125 C939.49879692 170.37947184 959.97116368 146.30460916 983.25 130.3125 C984.42949219 129.44625 984.42949219 129.44625 985.6328125 128.5625 C999.18833963 119.14772875 1015.91698808 112.53863856 1032.15429688 109.68603516 C1034.29519034 109.30444534 1036.41821037 108.86231556 1038.546875 108.41796875 C1066.38437952 103.03816328 1095.17442599 105.67001908 1122.25 113.3125 C1122.25 113.9725 1122.25 114.6325 1122.25 115.3125 C1124.044375 115.5909375 1124.044375 115.5909375 1125.875 115.875 C1140.63110089 119.19280256 1153.4035831 129.23089455 1164.25 139.3125 C1164.83265625 139.84230469 1165.4153125 140.37210938 1166.015625 140.91796875 C1176.98736092 151.32134898 1183.04286919 162.73463269 1186.25 177.3125 C1186.91 177.3125 1187.57 177.3125 1188.25 177.3125 C1192.9677658 200.76091929 1192.1472154 222.59397011 1178.98193359 243.30761719 C1176.03450415 247.57706349 1172.75907207 251.49635317 1169.25 255.3125 C1168.44304687 256.19164062 1167.63609375 257.07078125 1166.8046875 257.9765625 C1154.45708135 270.16933974 1138.37464296 277.94909542 1122.16845703 283.60839844 C1120.29318496 284.29665049 1118.45941384 285.09479492 1116.62890625 285.89453125 C1107.9467226 289.53803722 1098.59291396 290.76952504 1089.25 291.3125 C1089.25 291.9725 1089.25 292.6325 1089.25 293.3125 C1079.00637833 295.09653543 1069.23458359 295.56675093 1058.875 295.4375 C1057.4453189 295.42743182 1056.01563079 295.41831288 1054.5859375 295.41015625 C1051.14047521 295.3884886 1047.6952854 295.35417943 1044.25 295.3125 C1050.70995624 303.48347168 1058.78227184 309.02522687 1068.25 313.3125 C1068.25 313.9725 1068.25 314.6325 1068.25 315.3125 C1069.24 315.415625 1070.23 315.51875 1071.25 315.625 C1074.05037784 316.01871649 1075.99304854 316.60971942 1078.6875 317.6875 C1091.32447957 322.61365281 1105.00414616 322.89280446 1118.375 322.8125 C1119.2453891 322.80907593 1120.1157782 322.80565186 1121.01254272 322.80212402 C1144.57012678 322.64436695 1166.12884117 318.79206366 1188.4375 311.3125 C1189.59966537 310.92729187 1189.59966537 310.92729187 1190.78530884 310.53430176 C1192.98400223 309.79536265 1195.17068471 309.02898924 1197.35546875 308.25 C1198.01022186 308.02914734 1198.66497498 307.80829468 1199.33956909 307.58074951 C1202.3070352 306.4824931 1204.07240932 305.53729711 1206.04833984 303.03613281 C1207.39062832 299.99375772 1208.42447579 296.98572186 1209.37109375 293.796875 C1209.74943359 292.54519531 1210.12777344 291.29351563 1210.51757812 290.00390625 C1210.90825985 288.69031446 1211.2982296 287.37651071 1211.6875 286.0625 C1213.85651847 278.75335488 1215.98307557 271.59740997 1219.23413086 264.69042969 C1222.04487304 258.11109087 1223.87795228 251.09548958 1225.98242188 244.265625 C1226.36076172 243.0590625 1226.73910156 241.8525 1227.12890625 240.609375 C1227.4647876 239.51979492 1227.80066895 238.43021484 1228.14672852 237.30761719 C1229.23083939 234.36451646 1230.61298835 231.97560754 1232.25 229.3125 C1233.04087164 227.29410822 1233.04087164 227.29410822 1233.56640625 225.28125 C1233.77330078 224.55292969 1233.98019531 223.82460937 1234.19335938 223.07421875 C1234.39767578 222.32785156 1234.60199219 221.58148437 1234.8125 220.8125 C1236.09584079 216.21154446 1237.35657484 211.71013263 1239.25 207.3125 C1239.91 207.3125 1240.57 207.3125 1241.25 207.3125 C1241.34796875 206.65765625 1241.4459375 206.0028125 1241.546875 205.328125 C1242.84113496 197.42867627 1244.39120362 188.86676886 1248.7019043 181.99951172 C1250.30702493 179.21352248 1251.21343728 176.67409529 1252.1171875 173.59375 C1252.44275635 172.50344482 1252.7683252 171.41313965 1253.10375977 170.28979492 C1253.44076904 169.1422876 1253.77777832 167.99478027 1254.125 166.8125 C1256.4792808 158.97149794 1258.87622127 151.27438591 1261.953125 143.6875 C1265.03067862 135.67844479 1267.58239766 127.46562704 1270.25 119.3125 C1270.91 119.3125 1271.57 119.3125 1272.25 119.3125 C1272.58 117.6625 1272.91 116.0125 1273.25 114.3125 C1279.28523866 113.04682158 1285.34237226 111.92828008 1291.41796875 110.875 C1292.14694366 110.74834961 1292.87591858 110.62169922 1293.62698364 110.49121094 C1296.66586327 109.96402422 1299.70493912 109.43806858 1302.74487305 108.91699219 C1304.99067733 108.53140943 1307.2356101 108.14104546 1309.48046875 107.75 C1310.1566777 107.635354 1310.83288666 107.52070801 1311.52958679 107.40258789 C1315.86745476 106.64255326 1320.03077981 105.56636594 1324.25 104.3125 C1329.16836335 103.24329058 1334.23707662 102.62672435 1339.25 103.3125 C1341.3125 104.9375 1341.3125 104.9375 1343.25 107.3125 C1344.3735881 108.21588741 1345.52320189 109.0872242 1346.6875 109.9375 C1356.43126509 117.12760175 1365.91332372 124.60195021 1375.25 132.3125 C1377.14559553 133.85445905 1379.0414282 135.39612663 1380.9375 136.9375 C1388.57410015 143.19347187 1395.87565339 149.77098411 1403.125 156.46875 C1405.4258393 158.58013044 1407.76487229 160.64205493 1410.12109375 162.69140625 C1414.25890133 166.3000623 1418.30038413 170.00250477 1422.3125 173.75 C1422.98087891 174.36681641 1423.64925781 174.98363281 1424.33789062 175.61914062 C1428.4023356 179.41499254 1432.15829558 183.3571219 1435.76586914 187.59033203 C1438.40651095 190.65450168 1441.33033536 193.42709737 1444.2421875 196.23046875 C1453.64494829 205.42174876 1461.45096286 215.75761935 1469.25 226.3125 C1470.37535156 227.79363281 1470.37535156 227.79363281 1471.5234375 229.3046875 C1472.23757813 230.25601562 1472.95171875 231.20734375 1473.6875 232.1875 C1474.32558594 233.03054688 1474.96367187 233.87359375 1475.62109375 234.7421875 C1477.38233098 237.52131004 1478.33617971 240.16234563 1479.25 243.3125 C1479.91 243.3125 1480.57 243.3125 1481.25 243.3125 C1496.6770783 268.90718091 1505.38184143 293.18611867 1503.25 323.3125 C1505.91753628 323.02755863 1508.58382722 322.73472725 1511.25 322.4375 C1511.99378906 322.35886719 1512.73757813 322.28023437 1513.50390625 322.19921875 C1533.40999592 319.94896513 1546.98023361 309.73615912 1560.25 295.3125 C1560.58 294.6525 1560.91 293.9925 1561.25 293.3125 C1564.71535142 293.89509236 1566.34363754 295.04121649 1568.79003906 297.52783203 C1569.46464172 298.20588898 1570.13924438 298.88394592 1570.83428955 299.58255005 C1571.55413025 300.32101166 1572.27397095 301.05947327 1573.015625 301.8203125 C1573.76785339 302.57915741 1574.52008179 303.33800232 1575.29510498 304.11984253 C1577.7039233 306.55208104 1580.10239895 308.99420746 1582.5 311.4375 C1584.88494926 313.85768531 1587.27206759 316.27567065 1589.66204834 318.69088745 C1591.1479813 320.193585 1592.63080424 321.69936674 1594.10992432 323.20877075 C1598.0967932 327.25225436 1602.18082851 331.09726424 1606.49871826 334.78634644 C1608.87055499 336.85328233 1611.06055482 339.05463466 1613.25 341.3125 C1611.88846931 344.30654565 1610.32387579 346.56078197 1608.125 349 C1607.50238281 349.69351562 1606.87976562 350.38703125 1606.23828125 351.1015625 C1605.58214844 351.83117188 1604.92601563 352.56078125 1604.25 353.3125 C1603.60417969 354.06273437 1602.95835937 354.81296875 1602.29296875 355.5859375 C1601.63941406 356.34132813 1600.98585938 357.09671875 1600.3125 357.875 C1599.43271484 358.89787109 1599.43271484 358.89787109 1598.53515625 359.94140625 C1592.70334551 365.99253295 1586.12554617 371.04848146 1579.3125 375.9375 C1578.56548828 376.4840625 1577.81847656 377.030625 1577.04882812 377.59375 C1563.57510653 387.3125 1563.57510653 387.3125 1559.25 387.3125 C1559.25 387.9725 1559.25 388.6325 1559.25 389.3125 C1558.66734375 389.54324219 1558.0846875 389.77398438 1557.484375 390.01171875 C1546.23364268 394.22428932 1546.23364268 394.22428932 1535.3984375 399.33203125 C1532.14286906 400.8177543 1528.71943129 401.56175541 1525.25 402.375 C1524.55777344 402.54837891 1523.86554688 402.72175781 1523.15234375 402.90039062 C1499.63007917 408.47145329 1472.82498415 406.773837 1450.25 398.3125 C1449.26 397.6525 1448.27 396.9925 1447.25 396.3125 C1445.15676221 396.25010347 1445.15676221 396.25010347 1442.9375 396.625 C1442.14859375 396.73328125 1441.3596875 396.8415625 1440.546875 396.953125 C1436.39329284 397.60185076 1436.39329284 397.60185076 1432.25 398.3125 C1432.25 398.9725 1432.25 399.6325 1432.25 400.3125 C1429.56339217 400.96224205 1426.87581326 401.60738418 1424.1875 402.25 C1423.43533203 402.43240234 1422.68316406 402.61480469 1421.90820312 402.80273438 C1420.79155273 403.06860352 1420.79155273 403.06860352 1419.65234375 403.33984375 C1418.97679443 403.50218506 1418.30124512 403.66452637 1417.60522461 403.83178711 C1412.21729888 404.93148917 1406.99157355 405.43983229 1401.49609375 405.4453125 C1399.5944043 405.44724609 1399.5944043 405.44724609 1397.65429688 405.44921875 C1396.34525391 405.44535156 1395.03621094 405.44148438 1393.6875 405.4375 C1391.76454102 405.44330078 1391.76454102 405.44330078 1389.80273438 405.44921875 C1366.76800976 405.4259631 1366.76800976 405.4259631 1356.1875 402.375 C1354.97964844 402.03597656 1353.77179688 401.69695312 1352.52734375 401.34765625 C1349.6875378 400.45069728 1346.9473879 399.57458058 1344.25 398.3125 C1343.92 397.6525 1343.59 396.9925 1343.25 396.3125 C1341.58301853 395.41895106 1339.89073912 394.57233415 1338.1875 393.75 C1332.16727514 390.56006267 1328.42555568 386.60881053 1324.25 381.3125 C1323.5075 380.508125 1322.765 379.70375 1322 378.875 C1313.70117913 366.72315516 1312.78811505 350.70276449 1315 336.5625 C1317.78962836 323.2149032 1325.55815822 313.51362864 1336.25 305.3125 C1353.27037145 294.19123456 1377.62505084 293.67822956 1397.0625 297.75 C1400.19614077 298.48295326 1403.19797204 299.29515735 1406.25 300.3125 C1404.79208058 293.63384058 1402.6195288 287.49585718 1399.75 281.3125 C1399.45343506 280.66595459 1399.15687012 280.01940918 1398.85131836 279.35327148 C1397.31949093 276.13664576 1395.83995316 273.73206151 1393.25 271.3125 C1392.13475279 269.60374252 1391.05453363 267.8718793 1390 266.125 C1386.81944312 261.04679994 1383.2994954 256.7062478 1379.25 252.3125 C1378.10179429 250.9812091 1376.95597786 249.64785396 1375.8125 248.3125 C1370.7050424 242.48196414 1365.35429908 237.09695063 1359.25 232.3125 C1358.48300781 231.5390625 1357.71601562 230.765625 1356.92578125 229.96875 C1350.05565185 223.14876753 1342.21246682 217.44036165 1334.26953125 211.94140625 C1333.26986328 211.13509766 1333.26986328 211.13509766 1332.25 210.3125 C1332.25 209.6525 1332.25 208.9925 1332.25 208.3125 C1331.26 208.3125 1330.27 208.3125 1329.25 208.3125 C1328.86908203 209.99666016 1328.86908203 209.99666016 1328.48046875 211.71484375 C1326.72489332 219.3813698 1324.94217917 226.90900728 1322.25 234.3125 C1321.59 234.3125 1320.93 234.3125 1320.25 234.3125 C1319.87875 236.1378125 1319.87875 236.1378125 1319.5 238 C1317.74805131 245.84675611 1315.42398605 253.51724695 1312.34765625 260.9453125 C1309.99037722 266.76230966 1308.26713304 272.71507911 1306.5625 278.75 C1305.95478951 280.87380166 1305.3467329 282.99750431 1304.73828125 285.12109375 C1304.47571533 286.04720459 1304.21314941 286.97331543 1303.94262695 287.92749023 C1303.41787833 289.73442337 1302.84500995 291.52747014 1302.25 293.3125 C1301.59 293.3125 1300.93 293.3125 1300.25 293.3125 C1300.14187988 293.9111084 1300.03375977 294.5097168 1299.92236328 295.12646484 C1298.70974225 301.53709701 1297.05369659 307.70845598 1295.125 313.9375 C1294.84785156 314.84628906 1294.57070312 315.75507812 1294.28515625 316.69140625 C1293.61102123 318.89977959 1292.93260023 321.10673163 1292.25 323.3125 C1291.59 323.3125 1290.93 323.3125 1290.25 323.3125 C1290.12882812 324.04855469 1290.00765625 324.78460937 1289.8828125 325.54296875 C1289.71523437 326.51878906 1289.54765625 327.49460937 1289.375 328.5 C1289.21257812 329.46292969 1289.05015625 330.42585938 1288.8828125 331.41796875 C1288.26756077 334.23217575 1287.32870846 336.64970391 1286.25 339.3125 C1285.90839445 340.97749085 1285.57556432 342.64429834 1285.25 344.3125 C1284.58987941 346.42541609 1283.90131299 348.52961349 1283.1875 350.625 C1282.82527344 351.69363281 1282.46304687 352.76226563 1282.08984375 353.86328125 C1281.67412109 355.07564453 1281.67412109 355.07564453 1281.25 356.3125 C1280.59 356.3125 1279.93 356.3125 1279.25 356.3125 C1279.08673218 357.21367554 1279.08673218 357.21367554 1278.92016602 358.13305664 C1277.7185019 364.47595582 1276.09385342 370.5856601 1274.1875 376.75 C1273.91873047 377.63365234 1273.64996094 378.51730469 1273.37304688 379.42773438 C1272.36452679 382.73497605 1271.34342907 386.03221279 1270.25 389.3125 C1269.59 389.3125 1268.93 389.3125 1268.25 389.3125 C1268.12882812 389.95316406 1268.00765625 390.59382813 1267.8828125 391.25390625 C1266.89320773 396.36178933 1265.76489049 401.33500269 1264.25 406.3125 C1257.12292788 406.4743038 1250.18321101 405.90973604 1243.09381104 405.20132446 C1228.04136024 403.70946698 1212.96803448 402.61276836 1197.875 401.625 C1196.87941071 401.55856293 1195.88382141 401.49212585 1194.85806274 401.42367554 C1176.31686763 399.78611155 1176.31686763 399.78611155 1157.9375 401.6875 C1122.49464739 408.83203962 1079.28621396 408.84307634 1044.25 399.3125 C1044.25 398.6525 1044.25 397.9925 1044.25 397.3125 C1043.66476562 397.23773437 1043.07953125 397.16296875 1042.4765625 397.0859375 C1030.85682208 395.30633762 1018.498971 391.79066187 1008.41796875 385.61328125 C1003.86305488 382.88033293 999.01304288 380.65775461 994.25 378.3125 C994.25 377.6525 994.25 376.9925 994.25 376.3125 C993.1671875 375.9103125 993.1671875 375.9103125 992.0625 375.5 C989.25 374.3125 989.25 374.3125 986.75 372.625 C983.571562 370.95632005 982.64538713 371.25992999 979.25 372.3125 C977.07942071 373.6733295 975.05278469 375.04570157 973 376.5625 C959.37790698 386.3125 959.37790698 386.3125 955.25 386.3125 C955.25 386.9725 955.25 387.6325 955.25 388.3125 C954.095 388.725 952.94 389.1375 951.75 389.5625 C948.87473039 390.62629958 946.24110453 391.82755932 943.5625 393.3125 C938.15226927 396.1314579 932.1863862 397.11798327 926.25 398.3125 C926.25 398.9725 926.25 399.6325 926.25 400.3125 C923.27194722 400.96385437 920.29271741 401.60868739 917.3125 402.25 C916.48169922 402.43240234 915.65089844 402.61480469 914.79492188 402.80273438 C904.28830616 405.0512319 894.1166591 405.55007257 883.375 405.5625 C882.3486998 405.56450912 882.3486998 405.56450912 881.30166626 405.56655884 C870.04693308 405.5617919 859.25458206 404.77072605 848.25 402.3125 C847.32445312 402.11914062 846.39890625 401.92578125 845.4453125 401.7265625 C834.41760565 398.94251848 822.80929757 392.74986004 814.25 385.3125 C813.46496094 384.66925781 812.67992187 384.02601563 811.87109375 383.36328125 C802.64734646 375.51957554 794.57213454 365.75855479 790.25 354.3125 C790.25 353.3225 790.25 352.3325 790.25 351.3125 C789.59 351.3125 788.93 351.3125 788.25 351.3125 C786.91666667 345.97916667 785.58333333 340.64583333 784.25 335.3125 C784.0777934 334.70538366 783.9055868 334.09826733 783.72816181 333.47275352 C783.22240715 331.18784022 783.12249439 329.16432457 783.11869812 326.82559204 C783.11468994 325.93159698 783.11068176 325.03760193 783.10655212 324.11651611 C783.10708084 323.14301208 783.10760956 322.16950806 783.1081543 321.16650391 C783.10467987 320.13502228 783.10120544 319.10354065 783.09762573 318.040802 C783.09027296 315.79931807 783.08492502 313.55782688 783.08133507 311.31633377 C783.07415686 307.75838619 783.05847717 304.20057551 783.03999329 300.64266968 C782.98760766 290.52563424 782.93961572 280.40867187 782.92407227 270.29150391 C782.91393875 264.10107134 782.88447301 257.9109809 782.84275246 251.72068405 C782.83050827 249.37102228 782.82530905 247.02131202 782.82755089 244.67161942 C782.83994538 227.43089312 782.84603295 211.61816861 770.25 198.3125 C767.39721106 195.99223166 764.44990297 194.11283076 761.25 192.3125 C760.38375 191.735 759.5175 191.1575 758.625 190.5625 C749.7256523 185.87863279 739.52837081 186.1665887 729.75 186.25 C728.23019531 186.25676758 728.23019531 186.25676758 726.6796875 186.26367188 C724.20306173 186.27535407 721.72656343 186.29173418 719.25 186.3125 C719.25 186.9725 719.25 187.6325 719.25 188.3125 C718.115625 188.67601562 716.98125 189.03953125 715.8125 189.4140625 C702.28373822 193.87363215 694.41427729 199.16296351 685.25 210.3125 C683.75459468 213.30331063 684.0962273 216.3716132 684.09178162 219.6522522 C684.08684364 220.41758534 684.08190566 221.18291848 684.07681805 221.97144353 C684.0613954 224.54948223 684.05306957 227.12749593 684.04467773 229.70556641 C684.03510295 231.54820477 684.02509311 233.39084092 684.01467896 235.23347473 C683.98758048 240.24764506 683.96659773 245.26182486 683.94667697 250.27602816 C683.92484784 255.51178504 683.89744415 260.7475126 683.87062073 265.98324585 C683.82065219 275.90317566 683.77572883 285.82312171 683.73259836 295.74308336 C683.67404268 309.14417243 683.60773352 322.54522295 683.54184818 335.94627762 C683.43820842 357.0683258 683.34496254 378.1904069 683.25 399.3125 C650.58 399.3125 617.91 399.3125 584.25 399.3125 C584.25 392.0525 584.25 384.7925 584.25 377.3125 C582.93 377.3125 581.61 377.3125 580.25 377.3125 C580.25 377.9725 580.25 378.6325 580.25 379.3125 C576.64870379 380.65367853 573.04352141 381.9840839 569.4375 383.3125 C568.41333984 383.6940625 567.38917969 384.075625 566.33398438 384.46875 C565.35107422 384.8296875 564.36816406 385.190625 563.35546875 385.5625 C562.44949951 385.89765625 561.54353027 386.2328125 560.61010742 386.578125 C558.25 387.3125 558.25 387.3125 555.25 387.3125 C555.25 387.9725 555.25 388.6325 555.25 389.3125 C531.22969543 396.3125 531.22969543 396.3125 526.25 396.3125 C526.25 396.9725 526.25 397.6325 526.25 398.3125 C517.73984803 400.39210386 509.24385475 401.81444422 500.5625 402.9375 C499.61366943 403.06036377 498.66483887 403.18322754 497.68725586 403.30981445 C494.87669074 403.66238037 492.06429434 403.99117998 489.25 404.3125 C488.45907959 404.41111328 487.66815918 404.50972656 486.85327148 404.61132812 C476.84418033 405.71473938 466.74420125 405.55550675 456.6875 405.5625 C455.18491638 405.56401062 455.18491638 405.56401062 453.65197754 405.56555176 C428.93122511 405.54875038 404.67523727 403.80776352 381.25 395.3125 C379.82352806 394.82762467 378.39636986 394.34476625 376.96875 393.86328125 C375.39569034 393.32593926 373.82277524 392.78817391 372.25 392.25 C371.48236328 391.99234863 370.71472656 391.73469727 369.92382812 391.46923828 C364.3635663 389.53963259 364.3635663 389.53963259 363.25 387.3125 C361.44502991 386.47740832 359.60435359 385.71879615 357.75 385 C346.41957301 380.39826814 335.76859532 374.22823263 327.25 365.3125 C324.47731091 366.59494292 322.7795852 367.73064649 320.4375 369.8125 C316.74849536 373.060428 312.76804605 375.77599602 308.6875 378.5 C308.05030029 378.92796875 307.41310059 379.3559375 306.7565918 379.796875 C296.89762395 386.3125 296.89762395 386.3125 293.25 386.3125 C293.25 386.9725 293.25 387.6325 293.25 388.3125 C287.1700085 391.10097878 281.03658345 393.59316506 274.75 395.875 C273.95980469 396.16568359 273.16960938 396.45636719 272.35546875 396.75585938 C269.9912681 397.62066927 267.6225856 398.47098087 265.25 399.3125 C264.10229126 399.71988403 264.10229126 399.71988403 262.93139648 400.13549805 C240.11382708 408.00859832 209.57705923 408.63892343 186.25 402.3125 C185.48421631 402.11043945 184.71843262 401.90837891 183.92944336 401.70019531 C177.83466834 400.00206652 172.38435236 397.66861112 166.8125 394.6875 C165.99209229 394.25163574 165.17168457 393.81577148 164.32641602 393.36669922 C147.51778774 384.19051801 147.51778774 384.19051801 144.25 376.3125 C140.47702992 378.43479567 136.77015699 380.60210474 133.125 382.9375 C130.255329 384.75198069 127.47658355 386.2033619 124.25 387.3125 C124.25 387.9725 124.25 388.6325 124.25 389.3125 C101.95620889 398.97608007 80.91182012 405.73954935 56.375 405.75 C55.60095825 405.75306152 54.8269165 405.75612305 54.02941895 405.75927734 C38.05843718 405.77566036 22.8652792 403.59624999 7.25 400.3125 C7.25 399.6525 7.25 398.9925 7.25 398.3125 C4.94 398.3125 2.63 398.3125 0.25 398.3125 C0.25 434.6125 0.25 470.9125 0.25 508.3125 C-32.42 508.3125 -65.09 508.3125 -98.75 508.3125 C-98.75 468.0525 -98.75 427.7925 -98.75 386.3125 C-101.39 387.9625 -104.03 389.6125 -106.75 391.3125 C-109.64257812 392.56689453 -109.64257812 392.56689453 -112.28125 393.4453125 C-113.74498047 393.94224609 -113.74498047 393.94224609 -115.23828125 394.44921875 C-116.23214844 394.77535156 -117.22601562 395.10148437 -118.25 395.4375 C-120.23985981 396.10594837 -122.22944853 396.77520434 -124.21875 397.4453125 C-125.1667749 397.76105225 -126.1147998 398.07679199 -127.09155273 398.40209961 C-129.42049495 399.19965912 -131.71124346 400.05409432 -134.00390625 400.94921875 C-160.22135107 410.49029095 -197.20835832 407.86370714 -222.75 397.3125 C-224.43318279 396.34055686 -226.10133591 395.34190978 -227.75 394.3125 C-228.56597656 393.9103125 -229.38195312 393.508125 -230.22265625 393.09375 C-242.09914558 387.21820173 -252.41289858 377.31815212 -259.75 366.3125 C-262.38901835 367.34925721 -263.70931491 368.26164364 -265.5 370.5 C-275.96950347 383.58687934 -292.78673267 393.01335027 -308.42578125 398.171875 C-311.77757567 399.2636853 -311.77757567 399.2636853 -314.99389648 400.77978516 C-326.2269194 405.6214859 -338.96113244 405.82365912 -351 405.6875 C-351.71279114 405.6838443 -352.42558228 405.6801886 -353.15997314 405.67642212 C-364.88274891 405.60622096 -376.27040487 404.78196507 -387.75 402.3125 C-388.77996094 402.10753906 -389.80992187 401.90257812 -390.87109375 401.69140625 C-398.96545359 399.79998109 -406.35782818 396.01575085 -413.75 392.3125 C-415.22533203 391.58353516 -415.22533203 391.58353516 -416.73046875 390.83984375 C-427.83887955 385.08527019 -436.80664487 377.51045205 -445.625 368.75 C-446.33865723 368.04190186 -447.05231445 367.33380371 -447.78759766 366.60424805 C-453.72729636 360.58296391 -458.78906424 354.20994252 -463.125 346.9375 C-463.62773437 346.10476563 -464.13046875 345.27203125 -464.6484375 344.4140625 C-465.75 342.3125 -465.75 342.3125 -465.75 340.3125 C-466.41 340.3125 -467.07 340.3125 -467.75 340.3125 C-470.53889438 334.28848814 -473.05641716 328.17046394 -475.5 322 C-475.81783447 321.21125488 -476.13566895 320.42250977 -476.46313477 319.60986328 C-476.75889404 318.85560059 -477.05465332 318.10133789 -477.359375 317.32421875 C-477.62717773 316.64834717 -477.89498047 315.97247559 -478.17089844 315.27612305 C-478.75 313.3125 -478.75 313.3125 -478.75 309.3125 C-479.41 309.3125 -480.07 309.3125 -480.75 309.3125 C-482.12174771 303.50895198 -483.2640656 297.68154438 -484.3125 291.8125 C-484.43923096 291.11326416 -484.56596191 290.41402832 -484.6965332 289.69360352 C-485.0706623 287.56958743 -485.41832434 285.44354674 -485.75 283.3125 C-485.85078857 282.6716748 -485.95157715 282.03084961 -486.05541992 281.37060547 C-487.1179053 273.44334215 -486.94882623 265.4201857 -486.9375 257.4375 C-486.93689575 256.6562677 -486.9362915 255.8750354 -486.93566895 255.07012939 C-486.89340568 234.97085298 -485.92055803 214.97908257 -477.75 196.3125 C-476.91399062 193.84116192 -476.10171587 191.36167688 -475.3125 188.875 C-473.54546296 183.41196109 -471.52330238 178.34553025 -468.75 173.3125 C-468.09 173.3125 -467.43 173.3125 -466.75 173.3125 C-466.62044922 172.260625 -466.62044922 172.260625 -466.48828125 171.1875 C-463.64769427 160.12574331 -452.47481473 150.29806797 -444.75 142.3125 C-444.11191406 141.62285156 -443.47382813 140.93320313 -442.81640625 140.22265625 C-432.77510342 129.60343671 -419.02714844 120.62909422 -404.75 117.3125 C-404.75 116.6525 -404.75 115.9925 -404.75 115.3125 C-370.25881067 103.25540803 -329.74791066 101.16406386 -295.75 116.3125 C-295.75 116.9725 -295.75 117.6325 -295.75 118.3125 C-294.574375 118.60125 -293.39875 118.89 -292.1875 119.1875 C-284.60398384 121.65457337 -278.21468477 126.77274113 -271.75 131.3125 C-271.915 130.384375 -272.08 129.45625 -272.25 128.5 C-272.85053929 123.47048346 -272.75 118.37774274 -272.75 113.3125 C-240.08 113.3125 -207.41 113.3125 -173.75 113.3125 C-173.68941406 126.19023438 -173.62882812 139.06796875 -173.56640625 152.3359375 C-173.52591208 160.49349266 -173.48517795 168.65104545 -173.44335938 176.80859375 C-173.37702582 189.75698688 -173.31167274 202.70537964 -173.25268555 215.65380859 C-173.20971928 225.08445323 -173.16341044 234.51507458 -173.11312145 243.94568312 C-173.08662046 248.93709226 -173.06177045 253.92849708 -173.04092598 258.91993332 C-173.02123271 263.62303785 -172.99705245 268.32609846 -172.96950912 273.02916336 C-172.96020546 274.7503911 -172.95250671 276.47162842 -172.94658089 278.19287109 C-173.09977313 297.52063599 -173.09977313 297.52063599 -166 315.125 C-161.06848876 319.91952482 -156.44413581 321.57147652 -149.5625 321.8125 C-132.47498201 321.18181883 -118.50607635 312.21738744 -106.75 300.3125 C-105.56601937 298.97344498 -104.39699617 297.62086771 -103.25 296.25 C-102.425 295.280625 -101.6 294.31125 -100.75 293.3125 C-100.09 293.3125 -99.43 293.3125 -98.75 293.3125 C-98.75368717 292.19434937 -98.75737434 291.07619875 -98.76117325 289.92416477 C-98.85014199 262.66280602 -98.91578378 235.4014662 -98.95724869 208.13999271 C-98.977836 194.95631295 -99.00588319 181.77272935 -99.05175781 168.58911133 C-99.09174302 157.09249171 -99.11746063 145.59594177 -99.12635398 134.09925455 C-99.13154895 128.01708657 -99.1436788 121.93511784 -99.17292023 115.85301399 C-99.20027412 110.11648524 -99.20840493 104.38023593 -99.20243073 98.64364815 C-99.20352209 96.54961117 -99.21135589 94.45556386 -99.2268219 92.36158371 C-99.33158274 77.4327611 -97.60978906 64.47160945 -92.75 50.3125 C-92.09 50.3125 -91.43 50.3125 -90.75 50.3125 C-90.49992187 49.27480469 -90.24984375 48.23710938 -89.9921875 47.16796875 C-88.19116767 40.91154647 -83.88216946 36.21492035 -79.75 31.3125 C-79.32460938 30.80493164 -78.89921875 30.29736328 -78.4609375 29.77441406 C-58.8141072 6.93644441 -29.02451513 -0.12610353 0 0 Z " fill="#F0EBE1" transform="translate(630.75,1031.6875)"/>
<path d="M0 0 C1.49853516 0.59167969 1.49853516 0.59167969 3.02734375 1.1953125 C3.67832031 1.46085938 4.32929687 1.72640625 5 2 C5 2.66 5 3.32 5 4 C5.54269531 4.22945312 6.08539062 4.45890625 6.64453125 4.6953125 C9.70951149 6.39299642 12.08439811 8.53255584 14.6875 10.875 C15.66074219 11.73867188 16.63398437 12.60234375 17.63671875 13.4921875 C19.84580272 15.83637247 20.68658611 16.86586105 21 20 C21.66 20 22.32 20 23 20 C23.41958984 21.03060547 23.41958984 21.03060547 23.84765625 22.08203125 C26.38998078 28.229742 26.38998078 28.229742 31.5 32.0625 C36.23016896 33.32950954 40.62274813 34.12491194 45.51953125 34.31640625 C46.54111328 34.35830078 47.56269531 34.40019531 48.61523438 34.44335938 C49.67033203 34.48267578 50.72542969 34.52199219 51.8125 34.5625 C53.42415039 34.62727539 53.42415039 34.62727539 55.06835938 34.69335938 C57.71212082 34.79910983 60.3559711 34.90120233 63 35 C63 34.34 63 33.68 63 33 C63.56847656 32.84144531 64.13695312 32.68289063 64.72265625 32.51953125 C70.98318282 30.62778616 76.96353744 28.42924758 80.43359375 22.5859375 C84.67206431 15.58876166 93.40985009 8.60115221 101.359375 6.32421875 C102.8731446 6.0001929 104.39414145 5.70707397 105.921875 5.45703125 C108.03101947 5.09022117 108.03101947 5.09022117 109.86987305 4.00976562 C119.96438314 -0.7754371 139.67957251 0.4115755 150 4 C165.07518113 9.62757975 177.30317122 16.60634244 184.75 31.5 C189.76252121 45.53505937 190.4066415 62.299922 184 76 C176.70471954 89.66604381 165.53309884 98.05129711 151 103 C133.04586191 107.82473844 111.47842432 106.72402312 95.125 97.5 C89.33782869 93.64188579 85.01645535 88.98525168 80.49609375 83.78125 C74.68524573 77.30656488 68.95248669 73.4616632 60.16064453 72.77978516 C56.83374993 72.65872358 53.51652759 72.62877655 50.1875 72.625 C49.06279297 72.60050781 47.93808594 72.57601563 46.77929688 72.55078125 C39.46977321 72.52529773 33.4635681 73.43973414 27 77 C24.8614515 79.1385485 24.57344937 80.13275314 24 83 C23.34 83 22.68 83 22 83 C21.6596875 83.7734375 21.6596875 83.7734375 21.3125 84.5625 C17.95291114 90.80173645 14.21999586 95.14772405 8.4375 99.125 C7.82616211 99.55167969 7.21482422 99.97835938 6.58496094 100.41796875 C-7.57827084 110.01170628 -23.65002547 112.96059043 -40.484375 110.48828125 C-41.31453125 110.32714844 -42.1446875 110.16601562 -43 110 C-43 109.34 -43 108.68 -43 108 C-44.0725 107.95875 -45.145 107.9175 -46.25 107.875 C-57.77003836 106.33358642 -67.57226907 98.57739075 -75 90 C-77.15002885 86.90560084 -79.13680897 83.74417043 -81.12890625 80.546875 C-84.94594874 75.3512347 -89.89652723 74.07496281 -96 73 C-100.05982913 72.7342324 -104.11985858 72.72307704 -108.1875 72.6875 C-109.27353516 72.65849609 -110.35957031 72.62949219 -111.47851562 72.59960938 C-118.66724148 72.54348119 -124.67991664 73.39797053 -131 77 C-132.00415363 77.99582904 -133.00504768 78.99497767 -134 80 C-134.66 80 -135.32 80 -136 80 C-136.24105469 80.55558594 -136.48210937 81.11117188 -136.73046875 81.68359375 C-138.27648854 84.50448525 -140.16449289 86.66900636 -142.3125 89.0625 C-143.07175781 89.91972656 -143.83101562 90.77695313 -144.61328125 91.66015625 C-147.86877391 94.85171124 -150.35173991 97 -155 97 C-155.495 98.485 -155.495 98.485 -156 100 C-171.92859462 107.80346259 -194.43102236 107.07912403 -211 102 C-215.21791824 100.31183674 -219.10495783 98.33356816 -223 96 C-223.72703125 95.57074219 -224.4540625 95.14148437 -225.203125 94.69921875 C-234.88018268 88.24149719 -242.11417881 77.15273561 -244.453125 65.80078125 C-244.76384702 63.52351589 -244.91424297 61.29679688 -245 59 C-245.03996094 58.0615625 -245.07992187 57.123125 -245.12109375 56.15625 C-245.44485317 41.37758469 -242.26917736 29.99230046 -232.63671875 18.65625 C-226.82955568 12.80607091 -219.99550891 8.17469187 -212 6 C-210.68 6 -209.36 6 -208 6 C-208 5.34 -208 4.68 -208 4 C-192.66090493 -0.09042535 -171.87949281 -0.11541157 -157.375 7 C-156.26125 7.66 -155.1475 8.32 -154 9 C-153.04480469 9.44730469 -152.08960938 9.89460937 -151.10546875 10.35546875 C-143.97040822 14.13390961 -137.75479295 20.50178296 -133 27 C-133 27.66 -133 28.32 -133 29 C-132.113125 29.28875 -131.22625 29.5775 -130.3125 29.875 C-127 31 -127 31 -124.68652344 32.05151367 C-119.43495939 33.9055964 -113.7616632 33.32667609 -108.25 33.3125 C-107.0125 33.32861328 -105.775 33.34472656 -104.5 33.36132812 C-94.37183419 33.42834747 -94.37183419 33.42834747 -85 30 C-82.72382105 27.4402569 -82.72382105 27.4402569 -81.375 24.3125 C-74.71558908 11.648952 -64.96301915 3.1461185 -51.6640625 -2.1875 C-49 -3 -49 -3 -45 -3 C-45 -3.66 -45 -4.32 -45 -5 C-29.94721689 -9.21546437 -14.11197254 -5.58185269 0 0 Z " fill="#F0EBE1" transform="translate(988.0,1005.0)"/>
<path d="M0 0 C0.7115625 0.43054687 1.423125 0.86109375 2.15625 1.3046875 C3.6535699 2.25333196 5.12571759 3.24317649 6.56651306 4.27565002 C8.94827765 6.01252668 8.94827765 6.01252668 11.37599182 7.41026306 C15.6833247 10.39948015 17.71472948 12.66427526 18.82785034 17.87625122 C19.2598873 22.81181781 19.17290073 27.74266732 19.08984375 32.69140625 C19.08828584 34.52408342 19.0898471 36.35676563 19.09437561 38.18943787 C19.09410724 42.02053191 19.0629929 45.84972141 19.00854492 49.68041992 C18.9404286 54.57909335 18.93886489 59.47499221 18.95909786 64.37400913 C18.96914453 68.15500857 18.94917834 71.93538069 18.91971016 75.71626091 C18.90820372 77.52185721 18.90468894 79.32752347 18.9094677 81.1331501 C18.91058664 83.66115285 18.87255473 86.18566024 18.82397461 88.71313477 C18.83140686 89.45151077 18.83883911 90.18988678 18.84649658 90.95063782 C18.66507417 96.89524119 16.22026656 99.96531137 12 104 C0.88888889 114 0.88888889 114 -5 114 C-5.495 115.485 -5.495 115.485 -6 117 C-8.22265625 117.9140625 -8.22265625 117.9140625 -11.0625 118.625 C-11.98160156 118.86476563 -12.90070313 119.10453125 -13.84765625 119.3515625 C-21.51876991 120.92951153 -29.0016577 121.21082336 -36.8125 121.25 C-38.33713867 121.2809375 -38.33713867 121.2809375 -39.89257812 121.3125 C-48.93513634 121.3586061 -56.67046519 119.42975369 -65 116 C-65 115.34 -65 114.68 -65 114 C-65.825 113.835 -66.65 113.67 -67.5 113.5 C-76.87861448 109.48059379 -82.59788068 99.81402112 -87 91 C-88.62840289 86.38940364 -89.82753837 81.74208489 -91 77 C-91.3393457 76.07767578 -91.67869141 75.15535156 -92.02832031 74.20507812 C-93.74074982 68.55664231 -93.36907083 62.79848403 -93.375 56.9375 C-93.39949219 55.69033203 -93.42398438 54.44316406 -93.44921875 53.15820312 C-93.47646053 44.42721241 -92.0131374 37.17206639 -89 29 C-88.62182129 27.92766113 -88.24364258 26.85532227 -87.85400391 25.75048828 C-83.23776817 13.00552238 -73.97940591 3.255039 -62.1875 -3.25 C-43.71155457 -11.57314435 -17.42412801 -10.92829082 0 0 Z " fill="#152023" transform="translate(339.0,1231.0)"/>
<path d="M0 0 C0.89525391 -0.00386719 1.79050781 -0.00773438 2.71289062 -0.01171875 C11.70071679 0.00126006 19.81002729 0.21290636 28.0625 4 C29.20203125 4.51304687 30.3415625 5.02609375 31.515625 5.5546875 C33.14757812 6.33199219 33.14757812 6.33199219 34.8125 7.125 C35.80636719 7.56972656 36.80023437 8.01445313 37.82421875 8.47265625 C46.96291163 13.52581584 55.64458058 22.05607302 58.8125 32.125 C62.52734414 45.66135013 62.96240519 62.48641202 56.23046875 75.0859375 C54.5264035 77.8555076 52.72227929 80.49422539 50.8125 83.125 C49.7296875 84.7028125 49.7296875 84.7028125 48.625 86.3125 C35.30511639 99.63238361 19.15755942 103.19049258 0.9375 103.5 C-15.2658667 103.48447292 -29.99204853 98.78659441 -41.86328125 87.51171875 C-52.70251988 76.38100479 -56.45564935 65.42261115 -56.43408203 50.140625 C-56.23189373 36.38074201 -51.99821599 26.07379672 -42.6875 15.9375 C-35.26458675 8.82854683 -25.65670664 3.33438413 -15.1875 3.125 C-15.1875 2.465 -15.1875 1.805 -15.1875 1.125 C-10.16609414 -0.20140909 -5.15206482 -0.02178463 0 0 Z " fill="#F0EBE1" transform="translate(957.1875,861.875)"/>
<path d="M0 0 C5.02831328 3.56848039 9.22282643 6.9340351 11 13 C11.55024354 19.01221981 11.81399875 25.5201077 9 31 C7.515 31.495 7.515 31.495 6 32 C5.319375 32.721875 4.63875 33.44375 3.9375 34.1875 C-3.31680742 41.63554264 -14.11189792 46.19825848 -24.3828125 47.2421875 C-26.3125 47.25 -26.3125 47.25 -29 47 C-29 47.66 -29 48.32 -29 49 C-35.401594 49.82038591 -41.61302501 50.12754513 -48.0625 50.0625 C-49.3609082 50.05573242 -49.3609082 50.05573242 -50.68554688 50.04882812 C-52.79039539 50.03719913 -54.89520758 50.01927073 -57 50 C-57.42103347 41.45809062 -56.88627965 31.7725593 -53 24 C-52.34 24 -51.68 24 -51 24 C-50.95875 23.01 -50.9175 22.02 -50.875 21 C-49.73632629 13.35242114 -43.11303466 7.54445268 -37.46875 2.765625 C-27.05510283 -4.68211 -11.48670753 -5.83022803 0 0 Z " fill="#152023" transform="translate(1714.0,1224.0)"/>
<path d="M0 0 C4.94209246 2.19648554 7.13814486 5.07968209 9.25390625 9.890625 C10.45017164 13.27273657 10.8676161 16.44769875 11 20 C11.07734375 21.80210938 11.07734375 21.80210938 11.15625 23.640625 C11.58523238 38.42621757 8.57481909 50.98544313 -0.796875 62.6796875 C-4.97349801 67.07847131 -9.84513476 70.81212281 -15 74 C-15.99 74 -16.98 74 -18 74 C-18.06957011 65.48105385 -18.12284666 56.96222678 -18.15543652 48.4430666 C-18.17107957 44.48708866 -18.1922927 40.53130537 -18.22631836 36.57543945 C-18.25896078 32.75640645 -18.27686325 28.93756044 -18.28463173 25.11839867 C-18.29016651 23.66276291 -18.30097472 22.20713715 -18.31719017 20.75158119 C-18.33903021 18.70957097 -18.34196431 16.66832929 -18.34057617 14.6262207 C-18.34723801 13.46484085 -18.35389984 12.303461 -18.36076355 11.10688782 C-17.84937645 6.70283325 -16.23879903 4.08864157 -12.9375 1.1875 C-8.58332925 -0.57269669 -4.63009212 -0.64657787 0 0 Z " fill="#152023" transform="translate(649.0,1098.0)"/>
<path d="M0 0 C0 40.26 0 80.52 0 122 C-0.33 122 -0.66 122 -1 122 C-1.00331015 121.38854944 -1.00662029 120.77709888 -1.01003075 120.14711952 C-1.09117716 105.28353316 -1.18324192 90.42004476 -1.28752708 75.55660439 C-1.33769365 68.36881269 -1.38413598 61.18103264 -1.421875 53.99316406 C-1.45476968 47.72974637 -1.4945867 41.46641794 -1.54279006 35.20309865 C-1.5680804 31.88532258 -1.58882171 28.5676182 -1.60334396 25.24977493 C-1.62012481 21.5500114 -1.64913991 17.85053747 -1.68115234 14.15087891 C-1.68331253 13.04533157 -1.68547272 11.93978424 -1.68769836 10.80073547 C-1.70444359 9.29468498 -1.70444359 9.29468498 -1.7215271 7.75820923 C-1.72982324 6.44465423 -1.72982324 6.44465423 -1.73828697 5.10456276 C-1.80823797 2.78213418 -1.80823797 2.78213418 -4 1 C-2 0 -2 0 0 0 Z " fill="#F0EBE1" transform="translate(532.0,1418.0)"/>
<path d="M0 0 C0.33 0 0.66 0 1 0 C1 4.29 1 8.58 1 13 C9.58 13 18.16 13 27 13 C27 13.33 27 13.66 27 14 C20.598406 14.82038591 14.38697499 15.12754513 7.9375 15.0625 C6.6390918 15.05573242 6.6390918 15.05573242 5.31445312 15.04882812 C3.20960461 15.03719913 1.10479242 15.01927073 -1 15 C-1.18451025 4.44191344 -1.18451025 4.44191344 0 0 Z " fill="#F0EBE1" transform="translate(1658.0,1259.0)"/>
<path d="M0 0 C0.66 0.33 1.32 0.66 2 1 C-2.29 5.29 -6.58 9.58 -11 14 C-11.66 13.67 -12.32 13.34 -13 13 C-9.0580583 8.11950075 -4.88049925 3.9419417 0 0 Z " fill="#F0EBE1" transform="translate(924.0,1009.0)"/>
<path d="M0 0 C0.66 0.33 1.32 0.66 2 1 C-1.96 4.96 -5.92 8.92 -10 13 C-10.66 12.67 -11.32 12.34 -12 12 C-8.32167983 7.47384007 -4.58913637 3.60575001 0 0 Z " fill="#152023" transform="translate(271.0,1231.0)"/>
<path d="M0 0 C-1.38188453 3.21043882 -2.92421903 5.04936365 -5.625 7.25 C-6.57246094 8.03117187 -6.57246094 8.03117187 -7.5390625 8.828125 C-8.02117187 9.21484375 -8.50328125 9.6015625 -9 10 C-9 7 -9 7 -7.5390625 5.17578125 C-6.90742187 4.56089844 -6.27578125 3.94601562 -5.625 3.3125 C-4.68527344 2.37857422 -4.68527344 2.37857422 -3.7265625 1.42578125 C-2 0 -2 0 0 0 Z " fill="#F0EBE1" transform="translate(1078.0,1019.0)"/>
<path d="M0 0 C0.66 0.33 1.32 0.66 2 1 C-5.11389522 9.6309795 -5.11389522 9.6309795 -10 12 C-8.74993611 8.24980832 -7.06668123 7.42481772 -4 5 C-2.62631655 3.36643049 -1.28062485 1.7074998 0 0 Z " fill="#F0EBE1" transform="translate(956.0,1175.0)"/>
</svg>