<?xml version="1.0" standalone="no"?>
<!DOCTYPE svg PUBLIC "-//W3C//DTD SVG 20010904//EN"
 "http://www.w3.org/TR/2001/REC-SVG-20010904/DTD/svg10.dtd">
<svg version="1.0" xmlns="http://www.w3.org/2000/svg"
 width="3840.000000pt" height="2160.000000pt" viewBox="0 0 3840.000000 2160.000000"
 preserveAspectRatio="xMidYMid meet">

<g transform="translate(0.000000,2160.000000) scale(0.100000,-0.100000)"
fill="#000000" stroke="none">
<path d="M0 20900 l0 -700 19200 0 19200 0 0 700 0 700 -19200 0 -19200 0 0
-700z m19307 419 c43 -13 100 -79 109 -124 15 -82 -21 -161 -90 -198 -32 -17
-58 -22 -116 -22 -58 0 -84 5 -116 22 -74 39 -111 135 -85 216 16 48 80 104
128 112 21 4 43 8 48 10 14 5 83 -4 122 -16z m-17022 -68 c387 -68 635 -221
635 -391 0 -169 -245 -320 -635 -392 -103 -18 -156 -21 -375 -21 -219 0 -272
3 -375 21 -390 72 -635 223 -635 392 0 190 304 353 760 409 131 17 489 6 625
-18z m1818 -262 c35 -16 51 -47 35 -66 -11 -13 -15 -12 -34 12 -28 36 -79 33
-79 -5 0 -19 12 -31 55 -55 68 -38 87 -72 66 -113 -18 -34 -33 -42 -85 -42
-44 0 -91 31 -91 60 0 32 19 33 49 1 33 -35 31 -34 66 -21 44 17 30 50 -35 83
-30 15 -61 35 -67 44 -48 64 40 139 120 102z m256 -2 c17 -21 3 -27 -61 -27
l-58 0 0 -40 0 -40 51 0 c43 0 50 -3 47 -17 -2 -14 -15 -19 -51 -21 l-47 -3 0
-40 0 -39 59 0 c61 0 75 -7 62 -28 -5 -9 -32 -12 -87 -10 l-79 3 -3 124 c-2
82 1 128 9 137 16 19 142 19 158 1z m218 -21 c42 -49 19 -116 -43 -132 l-26
-7 42 -42 c40 -41 46 -65 16 -65 -8 0 -35 25 -61 55 -25 30 -51 55 -56 55 -5
0 -9 -25 -9 -56 0 -47 -3 -55 -17 -52 -16 3 -18 18 -21 128 -1 68 0 130 3 138
4 12 21 14 77 10 62 -5 75 -9 95 -32z m126 -89 l39 -119 40 121 c36 113 55
141 72 112 6 -9 -62 -210 -84 -252 -7 -13 -19 -19 -33 -17 -18 2 -30 25 -68
128 -46 125 -50 154 -21 148 10 -2 29 -45 55 -121z m235 -16 c2 -112 0 -132
-13 -137 -9 -4 -19 -3 -23 1 -13 12 -15 232 -2 255 25 47 35 16 38 -119z m237
127 c14 -6 25 -17 25 -25 0 -11 -11 -12 -48 -7 -87 11 -143 -41 -128 -120 10
-54 49 -79 114 -74 57 5 76 -7 47 -29 -25 -18 -99 -17 -136 2 -93 49 -91 209
4 250 39 17 88 19 122 3z m100 -129 c0 -119 -2 -134 -17 -137 -16 -3 -18 8
-18 131 0 73 3 137 7 141 22 21 28 -9 28 -135z m271 110 c55 -51 68 -112 37
-176 -46 -98 -207 -97 -249 2 -30 73 -6 153 57 187 46 26 120 20 155 -13z
m236 1 c25 -25 28 -33 17 -46 -11 -13 -15 -12 -39 11 -36 34 -74 31 -78 -6 -3
-23 4 -29 45 -49 67 -31 83 -48 83 -86 0 -47 -32 -74 -88 -74 -35 0 -49 6 -73
29 -18 18 -27 35 -23 45 9 23 23 20 55 -15 22 -24 33 -29 51 -23 56 17 47 52
-22 87 -30 15 -61 35 -67 44 -35 46 8 113 72 113 27 0 44 -8 67 -30z m1723 0
c19 -18 25 -34 25 -65 0 -58 -30 -84 -104 -92 l-56 -6 0 -44 c0 -37 -3 -44
-17 -41 -16 3 -18 18 -21 128 -1 68 0 130 3 138 9 25 140 11 170 -18z m262 10
c117 -71 80 -245 -55 -258 -89 -8 -152 48 -152 138 0 110 115 177 207 120z
m252 9 c76 -27 67 -135 -14 -155 l-25 -6 40 -39 c39 -38 52 -69 28 -69 -7 0
-38 26 -70 57 l-58 57 0 -52 c0 -39 -4 -54 -16 -59 -9 -3 -20 0 -25 8 -14 22
-11 243 3 257 15 15 95 16 137 1z m260 2 c22 -14 3 -31 -34 -31 l-34 0 -3
-117 c-3 -102 -5 -118 -20 -121 -16 -3 -18 9 -20 115 l-3 118 -37 3 c-35 3
-49 18 -31 35 10 10 166 8 182 -2z m200 -4 c17 -21 3 -27 -61 -27 l-58 0 0
-39 0 -40 53 -3 c38 -2 52 -7 52 -18 0 -11 -14 -16 -52 -18 l-52 -3 -3 -57
c-2 -45 -7 -58 -20 -60 -16 -3 -18 8 -18 131 0 73 3 137 7 140 13 13 140 8
152 -6z m226 -1 c46 -19 75 -69 75 -126 0 -57 -16 -88 -60 -118 -50 -34 -128
-28 -170 13 -118 113 5 293 155 231z m159 -2 c3 -9 6 -62 6 -119 l0 -104 58
-3 c43 -2 57 -7 57 -18 0 -12 -16 -15 -80 -15 l-80 0 -3 124 c-1 69 0 131 2
138 7 18 33 16 40 -3z m194 -128 c2 -127 1 -137 -15 -134 -16 3 -18 18 -21
128 -3 131 0 154 21 148 9 -3 13 -43 15 -142z m249 127 c46 -22 73 -67 73
-123 0 -84 -57 -140 -140 -140 -56 0 -96 26 -121 78 -60 123 63 245 188 185z
m1767 7 c14 -5 26 -16 26 -25 0 -12 -9 -14 -53 -9 -48 6 -56 4 -85 -21 -28
-23 -32 -33 -32 -76 0 -40 5 -55 26 -76 23 -23 31 -25 85 -20 46 4 59 2 59 -9
0 -37 -104 -46 -158 -14 -43 26 -66 81 -58 137 8 58 24 82 71 104 45 21 81 24
119 9z m253 -10 c67 -40 88 -112 54 -182 -25 -52 -65 -78 -121 -78 -83 0 -140
56 -140 140 0 110 115 177 207 120z m155 6 c7 -7 40 -52 73 -99 l60 -86 5 97
c4 77 8 97 20 97 13 0 15 -22 15 -135 0 -173 -6 -176 -101 -43 l-69 98 -3 -93
c-2 -73 -6 -94 -18 -99 -27 -10 -34 17 -34 130 0 131 15 171 52 133z m406 -8
c3 -15 -4 -18 -32 -18 l-36 0 0 -107 c0 -113 -7 -140 -34 -130 -13 5 -16 25
-16 122 l0 115 -35 0 c-22 0 -35 5 -35 13 0 25 13 28 99 25 72 -3 86 -6 89
-20z m120 9 c18 -21 93 -240 88 -254 -10 -25 -34 -13 -46 22 l-12 36 -56 -3
c-54 -3 -56 -4 -64 -35 -9 -33 -34 -45 -44 -20 -5 14 71 234 88 254 13 17 33
17 46 0z m297 1 c41 -19 23 -33 -43 -33 -82 0 -107 -23 -107 -96 0 -44 4 -54
29 -76 26 -22 36 -25 83 -20 58 6 78 -7 48 -30 -50 -36 -162 -2 -192 57 -19
38 -16 110 7 148 33 54 115 77 175 50z m233 -10 c3 -15 -4 -18 -32 -18 l-35 0
-3 -117 c-3 -110 -4 -118 -23 -118 -19 0 -20 8 -23 118 l-3 117 -34 0 c-23 0
-35 5 -35 13 0 25 13 28 99 25 72 -3 86 -6 89 -20z m229 -9 c100 -93 45 -249
-88 -249 -109 0 -173 112 -121 209 39 72 151 93 209 40z m17737 17 c41 -17 54
-57 31 -92 -14 -22 -14 -25 5 -44 25 -25 26 -71 1 -101 -17 -22 -27 -24 -98
-24 l-78 0 -3 124 c-1 69 0 131 2 138 7 18 97 17 140 -1z m130 -2 c3 -9 6 -54
6 -102 0 -99 13 -122 66 -122 51 0 64 27 64 138 0 76 3 94 16 99 25 9 34 -15
34 -92 0 -90 -14 -139 -47 -165 -45 -35 -133 -23 -163 23 -14 23 -27 194 -16
222 7 20 32 19 40 -1z m371 -9 c27 -26 32 -50 13 -61 -6 -4 -19 4 -30 19 -24
34 -73 37 -83 7 -9 -28 1 -39 61 -66 77 -34 96 -83 49 -129 -18 -19 -35 -25
-70 -25 -35 0 -52 6 -70 25 -14 13 -25 31 -25 39 0 28 23 30 44 4 27 -32 52
-41 77 -27 33 17 20 51 -32 79 -67 36 -79 49 -79 84 0 36 7 48 35 64 35 20 84
14 110 -13z m249 15 c14 -5 26 -16 26 -23 0 -11 -15 -14 -61 -13 -55 1 -63 -2
-85 -27 -36 -42 -33 -99 7 -139 28 -29 34 -30 85 -25 48 5 54 4 54 -13 0 -14
-10 -21 -36 -26 -114 -21 -199 61 -174 169 18 82 105 128 184 97z m194 -2 c17
-23 93 -241 88 -255 -10 -25 -34 -13 -46 22 -11 34 -13 35 -66 35 -52 0 -54
-1 -68 -35 -15 -34 -46 -49 -46 -21 0 20 79 237 92 253 13 16 33 17 46 1z
m304 -16 c25 -24 27 -86 3 -112 -9 -10 -28 -21 -42 -25 l-26 -6 37 -37 c36
-38 47 -72 23 -72 -7 0 -37 25 -67 55 l-55 56 -5 -53 c-4 -40 -9 -54 -22 -56
-16 -3 -18 8 -18 131 0 73 3 137 8 141 4 5 38 6 75 3 51 -3 74 -10 89 -25z
m-12443 -157 c14 -7 49 -38 77 -69 52 -56 52 -56 111 -56 62 0 75 6 135 63 96
90 287 65 344 -46 21 -39 21 -125 0 -165 -35 -68 -130 -109 -220 -97 -58 7
-121 37 -136 65 -17 32 -64 50 -129 50 -59 0 -60 0 -118 -59 -65 -66 -117 -87
-192 -77 -43 6 -131 49 -131 64 0 4 -13 22 -29 40 -27 29 -35 32 -91 32 -66 0
-113 -18 -130 -50 -15 -28 -78 -58 -137 -66 -95 -12 -184 30 -223 106 -18 34
-16 120 4 157 56 110 249 136 344 46 60 -57 73 -63 135 -63 l59 0 54 59 c51
55 78 72 129 85 31 7 115 -4 144 -19z m17731 -175 c0 -20 -7 -20 -3360 -20
-3353 0 -3360 0 -3360 20 0 20 7 20 3360 20 3353 0 3360 0 3360 -20z"/>
<path d="M1376 20985 c-8 -21 -8 -228 0 -249 3 -9 15 -16 25 -16 19 0 19 8 17
137 -3 118 -5 138 -19 141 -9 2 -19 -4 -23 -13z"/>
<path d="M1475 20988 c-3 -8 -4 -70 -3 -139 3 -116 4 -124 23 -124 19 0 20 7
20 93 0 50 2 92 5 92 3 -1 35 -42 71 -93 44 -62 72 -92 85 -92 18 0 19 8 19
135 0 113 -2 135 -15 135 -12 0 -16 -20 -20 -99 l-5 -98 -70 98 c-67 95 -99
121 -110 92z"/>
<path d="M1755 20988 c-3 -8 -4 -70 -3 -139 3 -116 4 -124 23 -124 19 0 20 7
20 135 0 120 -2 135 -18 138 -9 2 -19 -3 -22 -10z"/>
<path d="M1903 20980 c-64 -39 -86 -104 -58 -176 22 -58 62 -84 131 -84 52 0
92 19 80 38 -4 6 -27 8 -61 5 -50 -5 -56 -4 -84 25 -74 74 -12 183 94 167 50
-7 65 7 33 29 -31 22 -96 20 -135 -4z"/>
<path d="M2095 20988 c-3 -8 -4 -70 -3 -139 3 -116 4 -124 23 -124 19 0 20 7
20 135 0 120 -2 135 -18 138 -9 2 -19 -3 -22 -10z"/>
<path d="M2245 20982 c-40 -25 -51 -40 -63 -84 -15 -54 0 -107 42 -145 31 -28
43 -33 87 -33 69 0 112 27 135 85 22 58 12 106 -30 152 -28 31 -40 37 -87 40
-41 3 -61 0 -84 -15z m110 -34 c32 -14 55 -56 55 -98 0 -40 -47 -90 -85 -90
-90 0 -137 108 -72 167 37 34 62 39 102 21z"/>
<path d="M4444 20946 c-3 -8 -4 -29 -2 -48 3 -30 6 -33 40 -36 27 -2 43 3 57
17 26 26 26 36 1 61 -24 24 -88 28 -96 6z"/>
<path d="M5402 20935 c-36 -30 -47 -66 -32 -110 29 -87 147 -86 180 1 14 36 1
82 -32 109 -38 32 -78 32 -116 0z"/>
<path d="M7374 20946 c-3 -8 -4 -31 -2 -52 3 -36 6 -39 36 -42 69 -7 110 57
60 92 -28 20 -87 21 -94 2z"/>
<path d="M7649 20945 c-56 -31 -63 -125 -12 -165 62 -49 153 -3 153 79 0 75
-77 122 -141 86z"/>
<path d="M7920 20910 c0 -50 0 -50 33 -50 39 0 77 24 77 50 0 26 -38 50 -77
50 -33 0 -33 0 -33 -50z"/>
<path d="M8604 20950 c-60 -24 -73 -112 -25 -161 79 -79 196 12 149 116 -20
45 -76 65 -124 45z"/>
<path d="M9179 20931 c-23 -23 -29 -38 -29 -71 0 -102 129 -139 175 -50 19 38
19 65 -2 100 -33 56 -99 66 -144 21z"/>
<path d="M11211 20946 c-48 -27 -63 -84 -36 -136 30 -59 98 -68 146 -21 80 80
-12 211 -110 157z"/>
<path d="M11966 20901 c-23 -76 -22 -81 19 -81 41 0 43 9 16 85 l-18 50 -17
-54z"/>
<path d="M12622 20935 c-36 -30 -47 -66 -32 -110 22 -66 95 -85 149 -39 26 22
31 33 31 71 0 36 -6 50 -29 74 -37 37 -79 38 -119 4z"/>
<path d="M30400 20920 l0 -41 41 3 c49 3 71 27 53 56 -7 11 -26 18 -53 20
l-41 3 0 -41z"/>
<path d="M30400 20805 l0 -45 44 0 c45 0 76 18 76 45 0 22 -42 45 -82 45 l-38
0 0 -45z"/>
<path d="M31403 20893 c-12 -34 -19 -64 -15 -67 3 -3 20 -6 39 -6 39 0 40 10
14 85 l-18 50 -20 -62z"/>
<path d="M31620 20910 l0 -53 46 6 c46 5 64 18 64 47 0 29 -18 42 -64 47 l-46
6 0 -53z"/>
<path d="M0 10080 l0 -10080 669 0 668 0 7 71 c29 292 206 548 473 682 61 31
213 77 254 77 16 0 29 5 29 10 0 6 -13 10 -29 10 -41 0 -193 46 -254 77 -221
111 -371 291 -444 530 -23 78 -26 104 -26 233 0 129 3 155 26 233 73 239 223
419 444 530 61 31 213 77 254 77 16 0 29 5 29 10 0 6 -13 10 -29 10 -41 0
-193 46 -254 77 -221 111 -371 291 -444 530 -23 78 -26 104 -26 233 0 129 3
155 26 233 89 292 292 495 584 584 78 23 104 26 233 26 129 0 155 -3 233 -26
239 -73 419 -224 530 -444 34 -65 72 -198 83 -283 l8 -65 8 80 c29 276 223
541 482 661 87 40 209 74 270 75 71 1 89 18 20 18 -129 2 -309 69 -435 162
-242 179 -370 473 -338 771 38 350 291 638 637 729 97 26 275 29 378 6 272
-59 503 -255 609 -515 75 -186 75 -438 0 -624 -62 -154 -187 -306 -322 -395
-118 -78 -281 -132 -403 -133 -71 -2 -41 -15 55 -24 135 -14 297 -83 415 -179
177 -144 291 -356 309 -577 l6 -75 13 95 c51 379 328 670 697 735 110 19 180
19 290 0 302 -53 556 -268 656 -557 15 -45 31 -109 35 -140 7 -58 24 -71 24
-19 0 41 46 194 77 254 86 171 219 304 390 390 61 31 213 77 254 77 16 0 29 5
29 10 0 6 -13 10 -29 10 -41 0 -193 46 -254 77 -221 111 -371 291 -444 530
-23 78 -26 104 -26 233 0 129 3 155 26 233 73 239 223 419 444 530 61 31 213
77 254 77 16 0 29 5 29 10 0 6 -13 10 -29 10 -41 0 -193 46 -254 77 -221 111
-371 291 -444 530 -23 78 -26 104 -26 233 0 129 3 155 26 233 73 239 223 419
444 530 61 31 213 77 254 77 16 0 29 5 29 10 0 6 -13 10 -29 10 -41 0 -193 46
-254 77 -221 111 -371 291 -444 530 -23 78 -26 104 -26 233 0 129 3 155 26
233 89 292 292 495 584 584 78 23 104 26 233 26 129 0 155 -3 233 -26 291 -89
495 -293 584 -584 23 -78 26 -104 26 -233 0 -129 -3 -155 -26 -233 -73 -239
-224 -419 -444 -530 -61 -31 -213 -77 -254 -77 -16 0 -29 -4 -29 -10 0 -5 13
-10 29 -10 41 0 193 -46 254 -77 220 -111 371 -291 444 -530 23 -78 26 -104
26 -233 0 -129 -3 -155 -26 -233 -73 -239 -224 -419 -444 -530 -61 -31 -213
-77 -254 -77 -16 0 -29 -4 -29 -10 0 -5 13 -10 29 -10 41 0 193 -46 254 -77
220 -111 371 -291 444 -530 23 -78 26 -104 26 -233 0 -129 -3 -155 -26 -233
-73 -239 -224 -419 -444 -530 -61 -31 -213 -77 -254 -77 -16 0 -29 -4 -29 -10
0 -5 13 -10 29 -10 41 0 193 -46 254 -77 170 -86 304 -220 390 -390 34 -65 72
-198 83 -283 l8 -65 8 80 c28 263 213 527 455 649 531 267 1171 -86 1222 -674
l7 -75 8 74 c37 354 270 633 613 738 78 23 104 26 233 26 129 0 155 -3 233
-26 239 -73 419 -224 530 -444 31 -61 77 -213 77 -254 0 -16 5 -29 10 -29 6 0
10 13 10 29 0 41 46 193 77 254 111 220 291 371 530 444 78 23 104 26 233 26
129 0 155 -3 233 -26 291 -89 495 -293 584 -584 23 -78 26 -104 26 -233 0
-129 -3 -155 -26 -233 -73 -239 -224 -419 -444 -530 -61 -31 -213 -77 -254
-77 -16 0 -29 -4 -29 -10 0 -5 13 -10 29 -10 41 0 193 -46 254 -77 169 -85
305 -221 390 -390 31 -61 77 -213 77 -254 0 -16 5 -29 10 -29 6 0 10 13 10 29
0 41 46 193 77 254 111 220 291 371 530 444 78 23 104 26 233 26 129 0 155 -3
233 -26 238 -73 420 -225 530 -444 31 -60 77 -213 77 -254 0 -52 17 -39 24 19
24 207 179 445 374 573 127 84 311 139 462 139 151 0 335 -55 462 -139 195
-128 350 -366 374 -573 4 -32 10 -58 14 -58 4 0 10 26 14 58 24 207 179 445
374 573 127 84 311 139 462 139 151 0 335 -55 462 -139 195 -128 350 -366 374
-573 7 -58 24 -71 24 -19 0 41 46 194 77 254 111 220 291 371 530 444 78 23
104 26 233 26 129 0 155 -3 233 -26 238 -73 420 -225 530 -444 31 -61 77 -213
77 -254 0 -16 5 -29 10 -29 6 0 10 13 10 29 0 41 46 193 77 254 111 220 291
371 530 444 78 23 104 26 233 26 129 0 155 -3 233 -26 238 -73 420 -225 530
-444 31 -61 77 -213 77 -254 0 -16 5 -29 10 -29 6 0 10 13 10 29 0 41 46 193
77 254 111 220 291 371 530 444 78 23 104 26 233 26 129 0 155 -3 233 -26 238
-73 420 -225 530 -444 31 -61 77 -213 77 -254 0 -16 5 -29 10 -29 6 0 10 13
10 29 0 41 46 193 77 254 111 220 291 371 530 444 78 23 104 26 233 26 129 0
155 -3 233 -26 238 -73 420 -225 530 -444 31 -61 77 -213 77 -254 0 -16 5 -29
10 -29 6 0 10 13 10 29 0 41 46 193 77 254 86 171 219 304 390 390 61 31 213
77 254 77 16 0 29 5 29 10 0 6 -13 10 -29 10 -41 0 -193 46 -254 77 -221 111
-371 291 -444 530 -23 78 -26 104 -26 233 0 129 3 155 26 233 89 292 292 495
584 584 78 23 104 26 233 26 129 0 155 -3 233 -26 239 -73 419 -224 530 -444
31 -60 77 -213 77 -254 0 -52 17 -39 24 19 24 207 179 445 374 573 127 84 311
139 462 139 151 0 335 -55 462 -139 195 -128 350 -366 374 -573 4 -32 10 -58
14 -58 4 0 10 26 14 58 24 207 179 445 374 573 127 84 311 139 462 139 151 0
335 -55 462 -139 195 -128 350 -366 374 -573 7 -58 24 -71 24 -19 0 41 46 194
77 254 86 171 219 304 390 390 61 31 213 77 254 77 16 0 29 5 29 10 0 6 -13
10 -29 10 -41 0 -193 46 -254 77 -221 111 -371 291 -444 530 -23 78 -26 104
-26 233 0 129 3 155 26 233 89 292 292 495 584 584 78 23 104 26 233 26 129 0
155 -3 233 -26 239 -73 419 -224 530 -444 34 -65 72 -198 83 -283 l8 -65 8 80
c29 276 223 541 482 661 87 40 209 74 270 75 71 1 89 18 20 18 -129 2 -309 69
-435 162 -456 338 -456 1020 0 1358 117 87 304 160 415 162 71 1 89 18 20 18
-129 2 -309 69 -435 162 -456 338 -456 1020 0 1358 117 87 304 160 415 162 71
1 89 18 20 18 -129 2 -309 69 -435 162 -456 338 -456 1020 0 1358 146 109 308
162 491 163 245 1 437 -78 611 -252 143 -143 236 -349 240 -533 2 -49 2 -47
10 22 45 384 315 681 688 757 110 22 284 15 391 -16 225 -65 417 -222 525
-431 71 -138 90 -218 90 -389 0 -171 -19 -251 -90 -389 -108 -209 -300 -366
-525 -431 -107 -31 -281 -38 -391 -16 -373 76 -651 382 -686 756 l-7 75 -7
-75 c-9 -108 -33 -192 -85 -296 -126 -257 -392 -442 -662 -461 -95 -7 -87 -16
23 -27 258 -26 517 -212 639 -460 52 -104 76 -187 85 -298 14 -164 -13 -309
-85 -454 -126 -257 -392 -442 -662 -461 -95 -7 -87 -16 23 -27 258 -26 517
-212 639 -460 72 -145 99 -290 85 -454 -9 -111 -33 -194 -85 -298 -126 -257
-392 -442 -662 -461 -95 -7 -87 -16 23 -27 258 -26 517 -212 639 -460 72 -145
99 -290 85 -454 -9 -111 -33 -194 -85 -298 -126 -257 -392 -442 -662 -461 -95
-7 -87 -16 23 -27 258 -26 517 -212 639 -460 52 -104 76 -187 85 -298 14 -164
-13 -309 -85 -454 -126 -257 -392 -442 -662 -461 -95 -7 -87 -16 23 -27 258
-26 517 -212 639 -460 52 -104 76 -187 85 -298 14 -164 -13 -309 -85 -454
-126 -257 -386 -438 -661 -462 l-88 -8 74 -8 c297 -31 549 -206 684 -473 36
-71 74 -205 83 -292 l7 -71 847 0 847 0 7 71 c35 348 271 631 613 736 78 23
104 26 233 26 129 0 155 -3 233 -26 239 -73 419 -224 530 -444 36 -71 74 -205
83 -292 l7 -71 678 0 679 0 0 10080 0 10080 -19200 0 -19200 0 0 -10080z
m17444 3454 c120 -29 223 -110 274 -214 25 -50 27 -65 27 -170 0 -104 -3 -121
-27 -172 -37 -79 -70 -120 -131 -162 -79 -54 -156 -77 -277 -83 -275 -14 -461
113 -501 341 -12 71 -1 167 26 233 83 198 340 293 609 227z m-13364 -1000
c218 -65 389 -237 456 -459 25 -83 25 -267 0 -350 -52 -174 -173 -325 -322
-402 -103 -54 -169 -72 -279 -79 -119 -8 -213 12 -333 71 -217 108 -362 341
-362 585 0 244 145 477 362 585 51 25 122 52 158 60 80 18 242 13 320 -11z
m13301 -104 c77 -14 187 -71 238 -123 24 -25 62 -73 85 -108 50 -77 75 -87
207 -88 113 -1 186 17 222 57 128 136 165 160 284 188 97 23 277 15 355 -15
171 -66 268 -204 268 -380 -1 -256 -179 -411 -475 -411 -177 0 -280 42 -378
154 -82 92 -124 110 -257 111 -143 0 -187 -17 -239 -93 -53 -78 -121 -138
-194 -173 -226 -105 -498 -36 -623 160 -57 88 -97 106 -239 106 -149 -1 -199
-24 -282 -131 -37 -47 -124 -97 -208 -119 -83 -21 -243 -20 -326 3 -212 59
-331 238 -300 450 33 223 206 352 471 352 174 0 287 -45 383 -151 82 -92 111
-104 262 -104 146 0 174 10 211 74 76 129 192 213 339 244 39 9 143 7 196 -3z
m-2551 -265 c170 -39 321 -137 402 -262 102 -155 123 -255 115 -547 -9 -370
-75 -664 -212 -953 -117 -248 -319 -481 -499 -578 l-37 -20 3 -95 3 -95 130
-34 c125 -33 137 -35 315 -35 180 -1 187 0 260 28 84 32 188 97 237 148 l33
34 2 754 3 755 405 0 405 0 5 -780 c5 -774 5 -780 26 -820 40 -75 95 -105 186
-105 93 1 203 51 289 133 26 25 26 27 13 77 -51 197 -44 492 17 710 102 365
362 642 719 768 158 55 235 67 445 66 172 0 199 -3 286 -26 263 -71 464 -207
594 -403 68 -103 129 -266 137 -364 l3 -34 -385 -63 c-212 -35 -388 -64 -392
-64 -4 0 -12 19 -18 43 -42 166 -139 246 -284 235 -34 -3 -83 -15 -108 -26
-90 -39 -167 -149 -199 -282 -18 -77 -16 -260 4 -343 58 -235 245 -393 519
-437 111 -18 375 -8 503 20 150 32 325 94 473 166 l132 65 0 1165 0 1164 405
0 405 0 0 -566 0 -566 57 52 c121 110 273 192 441 237 87 24 116 27 272 27
152 0 186 -2 259 -22 313 -85 507 -290 577 -607 15 -67 18 -153 23 -530 6
-430 7 -452 27 -489 11 -22 37 -54 58 -70 36 -29 43 -31 124 -31 74 0 95 4
142 27 89 43 85 36 56 121 -44 128 -57 204 -62 382 -5 130 -2 193 10 267 80
485 394 819 876 929 122 28 374 36 505 16 374 -58 638 -254 742 -553 24 -69
27 -94 27 -204 1 -106 -3 -136 -23 -199 -108 -329 -500 -548 -1014 -568 l-158
-6 40 -41 c120 -123 317 -187 571 -189 216 -1 479 50 651 126 52 23 57 28 77
83 12 33 136 380 276 772 139 392 256 715 258 717 3 3 114 25 249 50 134 25
251 48 259 50 37 11 502 -376 750 -625 260 -259 402 -443 509 -657 74 -147
103 -252 109 -401 l4 -124 62 7 c138 15 265 82 367 192 l54 59 207 -199 c188
-181 206 -201 196 -220 -23 -43 -207 -214 -293 -273 -238 -163 -456 -230 -720
-222 -130 4 -147 7 -248 42 l-108 37 -76 -26 c-43 -14 -115 -32 -161 -40 -112
-20 -322 -19 -420 1 -331 66 -494 350 -363 631 53 113 158 193 301 229 78 20
283 15 368 -9 53 -15 53 -15 47 6 -15 51 -89 194 -137 265 -63 92 -291 322
-406 410 l-82 63 -11 -28 c-35 -90 -356 -1062 -352 -1066 2 -3 -2 -16 -10 -29
-8 -12 -49 -128 -92 -255 -42 -128 -80 -235 -84 -237 -4 -3 -173 9 -376 26
l-370 30 -130 -23 c-181 -31 -522 -38 -686 -14 -263 38 -479 113 -661 231
l-68 43 -97 -66 c-158 -107 -318 -173 -509 -209 -137 -25 -379 -16 -497 20
-219 65 -367 184 -451 361 -67 140 -69 151 -75 665 l-6 465 -33 67 c-62 126
-163 186 -327 195 -175 10 -326 -56 -417 -181 l-28 -39 0 -759 0 -758 -405 0
-405 0 0 91 c0 69 -3 90 -12 86 -7 -3 -49 -21 -94 -40 -183 -79 -426 -143
-654 -173 -162 -21 -509 -15 -650 11 -249 45 -468 135 -635 260 -57 43 -59 44
-80 27 -201 -157 -343 -228 -565 -285 -73 -19 -111 -22 -280 -22 -184 1 -200
3 -285 29 -110 34 -203 82 -284 147 -33 27 -63 49 -65 49 -2 0 -28 -16 -57
-36 -86 -59 -249 -132 -356 -161 -90 -25 -113 -27 -298 -27 -196 -1 -269 8
-422 50 l-23 6 0 -451 0 -451 -410 0 -410 0 0 494 0 495 -72 -34 c-94 -43
-213 -80 -324 -101 -124 -23 -366 -15 -479 15 -161 43 -308 133 -391 240 l-46
59 -64 -64 c-111 -111 -257 -192 -429 -240 -82 -22 -342 -30 -443 -14 -329 52
-606 253 -759 547 -61 117 -94 211 -124 353 -31 143 -33 444 -5 595 61 330
223 591 467 754 357 240 896 241 1223 3 38 -28 47 -32 43 -16 -3 10 -7 46 -8
79 l-3 60 405 0 404 0 5 -780 c5 -774 5 -780 26 -820 40 -75 95 -105 186 -105
107 1 221 60 330 173 l57 58 3 902 c4 1011 -1 942 80 1107 32 66 58 101 117
160 42 41 102 90 134 109 79 46 203 89 307 106 109 18 310 13 410 -10z
m-12495 -1140 c370 -65 649 -360 697 -738 15 -121 1 -253 -41 -375 -98 -284
-361 -509 -647 -555 -41 -6 -74 -14 -74 -17 0 -3 33 -11 74 -17 286 -46 549
-271 647 -555 105 -304 29 -642 -195 -870 -127 -128 -290 -215 -452 -241 -41
-6 -74 -14 -74 -17 0 -3 33 -11 74 -17 286 -46 549 -271 647 -555 170 -494
-142 -1023 -656 -1113 -110 -19 -180 -19 -290 0 -178 31 -331 112 -461 243
-224 228 -300 566 -195 870 98 284 361 509 647 555 41 6 74 14 74 17 0 3 -33
11 -74 17 -286 46 -549 271 -647 555 -105 304 -29 642 195 870 127 128 290
215 452 241 41 6 74 14 74 17 0 3 -33 11 -74 17 -286 46 -549 271 -647 555
-210 609 312 1223 946 1113z m1745 -191 c218 -65 389 -237 456 -459 25 -83 25
-267 0 -350 -52 -174 -173 -325 -322 -402 -103 -54 -169 -72 -279 -79 -119 -8
-213 12 -333 71 -217 108 -362 341 -362 585 0 244 145 477 362 585 51 25 122
52 158 60 80 18 242 13 320 -11z m1601 -485 c126 -64 124 -255 -4 -320 -142
-73 -307 53 -266 203 19 74 59 114 139 139 33 10 85 2 131 -22z m30739 -1039
c284 -82 509 -309 592 -596 33 -114 33 -334 0 -448 -67 -231 -222 -422 -432
-531 -119 -61 -212 -86 -351 -92 -400 -19 -748 233 -861 623 -33 114 -33 334
0 448 89 309 335 541 647 610 100 22 304 15 405 -14z m-32340 -196 c218 -65
389 -237 456 -459 25 -83 25 -267 0 -350 -52 -174 -173 -325 -322 -402 -103
-54 -169 -72 -279 -79 -119 -8 -213 12 -333 71 -217 108 -362 341 -362 585 0
244 145 477 362 585 51 25 122 52 158 60 80 18 242 13 320 -11z m1601 -465
c126 -64 124 -255 -4 -320 -142 -73 -307 53 -266 203 19 74 59 114 139 139 33
10 85 2 131 -22z m28900 -20 c126 -64 124 -255 -4 -320 -142 -73 -307 53 -266
203 19 74 59 114 139 139 33 10 85 2 131 -22z m-30501 -1215 c218 -65 389
-237 456 -459 25 -83 25 -267 0 -350 -52 -174 -173 -325 -322 -402 -103 -54
-169 -72 -279 -79 -119 -8 -213 12 -333 71 -217 108 -362 341 -362 585 0 244
145 477 362 585 51 25 122 52 158 60 80 18 242 13 320 -11z m30501 -485 c126
-64 124 -255 -4 -320 -142 -73 -307 53 -266 203 19 74 59 114 139 139 33 10
85 2 131 -22z m1700 0 c126 -64 124 -255 -4 -320 -142 -73 -307 53 -266 203
19 74 59 114 139 139 33 10 85 2 131 -22z"/>
<path d="M14661 11637 c-13 -6 -32 -23 -43 -37 -17 -24 -18 -53 -16 -590 l3
-565 42 76 c85 154 145 328 179 514 25 141 26 428 1 507 -28 92 -96 131 -166
95z"/>
<path d="M23243 10640 c-147 -30 -242 -161 -268 -367 l-7 -53 34 -1 c79 -4
178 4 243 18 214 48 317 164 261 298 -18 41 -86 92 -135 100 -73 12 -87 13
-128 5z"/>
<path d="M11813 10616 c-126 -29 -230 -109 -290 -223 -86 -160 -89 -413 -8
-590 86 -188 316 -275 559 -213 99 25 166 62 233 127 l53 51 0 340 0 340 -47
40 c-141 116 -334 165 -500 128z"/>
<path d="M36115 8661 c-154 -71 -150 -280 7 -346 92 -38 195 5 239 100 45 96
-1 207 -103 250 -49 20 -94 19 -143 -4z"/>
<path d="M34415 10361 c-154 -71 -150 -280 7 -346 92 -38 195 5 239 100 45 96
-1 207 -103 250 -49 20 -94 19 -143 -4z"/>
<path d="M31936 5000 c-37 -294 -210 -540 -473 -673 -61 -31 -213 -77 -254
-77 -16 0 -29 -4 -29 -10 0 -5 13 -10 29 -10 41 0 193 -46 254 -77 170 -86
304 -220 390 -390 34 -65 72 -198 83 -283 l8 -65 8 80 c29 276 223 541 482
661 87 40 209 74 270 75 71 1 89 18 20 18 -129 2 -309 69 -435 162 -184 136
-314 357 -337 574 l-8 80 -8 -65z"/>
<path d="M10615 3561 c-154 -71 -150 -280 7 -346 92 -38 195 5 239 100 45 96
-1 207 -103 250 -49 20 -94 19 -143 -4z"/>
<path d="M12315 3561 c-154 -71 -150 -280 7 -346 92 -38 195 5 239 100 45 96
-1 207 -103 250 -49 20 -94 19 -143 -4z"/>
<path d="M4728 3305 c-9 -109 -30 -183 -84 -291 -126 -257 -392 -442 -662
-461 -95 -7 -87 -16 23 -27 135 -14 297 -83 415 -179 177 -144 291 -356 309
-577 l6 -75 13 95 c7 52 26 132 41 178 98 284 361 509 647 555 41 6 74 14 74
17 0 3 -33 11 -74 17 -162 26 -325 113 -451 241 -130 132 -210 300 -238 497
l-13 90 -6 -80z"/>
<path d="M9828 3305 c-9 -109 -30 -183 -84 -291 -126 -257 -392 -442 -662
-461 -95 -7 -87 -16 23 -27 258 -26 517 -212 639 -460 52 -104 76 -187 85
-298 14 -164 -13 -309 -85 -454 -126 -257 -392 -442 -662 -461 -95 -7 -87 -16
23 -27 258 -26 517 -212 639 -460 54 -108 75 -183 83 -288 l6 -78 1702 0 1701
0 13 93 c49 369 331 670 686 730 73 12 92 27 34 27 -40 0 -192 46 -252 77
-171 86 -304 219 -390 390 -31 61 -77 213 -77 254 0 16 -4 29 -10 29 -5 0 -10
-13 -10 -29 0 -41 -46 -193 -77 -254 -111 -220 -291 -371 -530 -444 -78 -23
-104 -26 -233 -26 -129 0 -155 3 -233 26 -292 89 -495 292 -584 584 -23 78
-26 104 -26 233 0 129 3 155 26 233 73 239 224 419 444 530 61 31 213 77 254
77 16 0 29 5 29 10 0 6 -13 10 -29 10 -41 0 -193 46 -254 77 -171 86 -304 219
-390 390 -31 61 -77 213 -77 254 0 16 -4 29 -10 29 -5 0 -10 -13 -10 -29 0
-41 -46 -193 -77 -254 -111 -220 -291 -371 -530 -444 -78 -23 -104 -26 -233
-26 -129 0 -155 3 -233 26 -341 104 -563 367 -611 726 l-12 86 -6 -80z"/>
<path d="M3036 3300 c-37 -294 -210 -540 -473 -673 -61 -31 -213 -77 -254 -77
-16 0 -29 -4 -29 -10 0 -5 13 -10 29 -10 41 0 193 -46 254 -77 170 -86 304
-220 390 -390 34 -65 72 -198 83 -283 l8 -65 8 80 c29 276 223 541 482 661 87
40 209 74 270 75 71 1 89 18 20 18 -129 2 -309 69 -435 162 -184 136 -314 357
-337 574 l-8 80 -8 -65z"/>
<path d="M8136 3300 c-37 -294 -210 -540 -473 -673 -61 -31 -213 -77 -254 -77
-16 0 -29 -4 -29 -10 0 -5 13 -10 29 -10 41 0 193 -46 254 -77 170 -86 304
-220 390 -390 34 -65 72 -198 83 -283 l8 -65 8 80 c29 276 223 541 482 661 87
40 209 74 270 75 71 1 89 18 20 18 -129 2 -309 69 -435 162 -184 136 -314 357
-337 574 l-8 80 -8 -65z"/>
<path d="M31936 3300 c-37 -294 -210 -540 -473 -673 -61 -31 -213 -77 -254
-77 -16 0 -29 -4 -29 -10 0 -5 13 -10 29 -10 41 0 193 -46 254 -77 170 -86
304 -220 390 -390 34 -65 72 -198 83 -283 l8 -65 8 80 c29 276 223 541 482
661 87 40 209 74 270 75 71 1 89 18 20 18 -129 2 -309 69 -435 162 -184 136
-314 357 -337 574 l-8 80 -8 -65z"/>
<path d="M6426 3252 c-4 -31 -20 -95 -35 -140 -99 -284 -361 -509 -647 -555
-41 -6 -74 -14 -74 -17 0 -3 33 -11 74 -17 286 -46 548 -271 647 -555 15 -45
31 -109 35 -140 7 -58 24 -71 24 -19 0 41 46 194 77 254 86 171 219 304 390
390 61 31 213 77 254 77 16 0 29 5 29 10 0 6 -13 10 -29 10 -41 0 -193 46
-254 77 -171 86 -304 219 -390 390 -31 60 -77 213 -77 254 0 52 -17 39 -24
-19z"/>
<path d="M26837 3304 c-4 -4 -7 -20 -7 -35 0 -40 -46 -192 -77 -252 -86 -170
-220 -304 -390 -390 -61 -31 -213 -77 -254 -77 -16 0 -29 -4 -29 -10 0 -5 13
-10 29 -10 41 0 193 -46 254 -77 170 -86 304 -220 390 -390 31 -60 77 -213 77
-254 0 -52 17 -39 24 19 4 31 20 95 35 140 99 284 361 509 647 555 41 6 74 14
74 17 0 3 -33 11 -74 17 -332 53 -622 343 -679 678 -7 42 -16 73 -20 69z"/>
<path d="M28526 3253 c-4 -32 -20 -96 -35 -141 -99 -284 -361 -509 -647 -555
-41 -6 -74 -14 -74 -17 0 -3 33 -11 74 -17 286 -46 548 -271 647 -555 15 -45
31 -109 35 -140 4 -32 10 -58 14 -58 4 0 10 26 14 58 4 31 20 95 35 140 99
284 361 509 647 555 41 6 74 14 74 17 0 3 -33 11 -74 17 -286 46 -548 271
-647 555 -15 45 -31 109 -35 141 -4 31 -10 57 -14 57 -4 0 -10 -26 -14 -57z"/>
<path d="M30226 3252 c-4 -31 -20 -95 -35 -140 -99 -284 -361 -509 -647 -555
-41 -6 -74 -14 -74 -17 0 -3 33 -11 74 -17 286 -46 548 -271 647 -555 15 -45
31 -109 35 -140 7 -58 24 -71 24 -19 0 41 46 194 77 254 86 171 219 304 390
390 61 31 213 77 254 77 16 0 29 5 29 10 0 6 -13 10 -29 10 -41 0 -193 46
-254 77 -171 86 -304 219 -390 390 -31 60 -77 213 -77 254 0 52 -17 39 -24
-19z"/>
<path d="M12315 1841 c-98 -45 -140 -152 -96 -246 70 -151 272 -151 342 0 45
96 -1 207 -103 250 -49 20 -94 19 -143 -4z"/>
<path d="M4728 1605 c-9 -109 -30 -183 -84 -291 -126 -256 -386 -438 -661
-462 l-88 -8 74 -8 c297 -31 550 -206 684 -473 31 -60 77 -213 77 -254 0 -52
17 -39 24 19 4 31 20 95 35 140 99 284 361 509 647 555 41 6 74 14 74 17 0 3
-33 11 -74 17 -162 26 -325 113 -451 241 -130 132 -210 300 -238 497 l-13 90
-6 -80z"/>
<path d="M3036 1600 c-37 -294 -210 -540 -473 -673 -61 -31 -213 -77 -254 -77
-16 0 -29 -4 -29 -10 0 -5 13 -10 29 -10 41 0 193 -46 254 -77 169 -85 305
-221 390 -390 31 -61 77 -213 77 -254 0 -16 5 -29 10 -29 6 0 10 13 10 29 0
41 46 193 77 254 134 265 365 428 672 472 l86 13 -61 1 c-131 2 -310 69 -435
162 -184 136 -314 357 -337 574 l-8 80 -8 -65z"/>
<path d="M8136 1600 c-37 -294 -210 -540 -473 -673 -61 -31 -213 -77 -254 -77
-16 0 -29 -4 -29 -10 0 -5 13 -10 29 -10 41 0 193 -46 254 -77 169 -85 305
-221 390 -390 34 -65 72 -198 83 -283 l8 -65 8 80 c29 276 223 541 482 661 87
40 209 74 270 75 71 1 89 18 20 18 -129 2 -309 69 -435 162 -184 136 -314 357
-337 574 l-8 80 -8 -65z"/>
<path d="M31936 1600 c-37 -294 -210 -540 -473 -673 -61 -31 -213 -77 -254
-77 -16 0 -29 -4 -29 -10 0 -5 13 -10 29 -10 41 0 193 -46 254 -77 170 -86
304 -220 390 -390 31 -61 77 -213 77 -254 0 -16 5 -29 10 -29 6 0 10 13 10 29
0 41 46 193 77 254 134 266 364 428 672 472 l86 13 -61 1 c-131 2 -310 69
-435 162 -184 136 -314 357 -337 574 l-8 80 -8 -65z"/>
<path d="M6426 1552 c-4 -31 -20 -95 -35 -140 -99 -284 -361 -509 -647 -555
-41 -6 -74 -14 -74 -17 0 -3 33 -11 74 -17 286 -46 548 -271 647 -555 15 -45
31 -109 35 -140 7 -58 24 -71 24 -19 0 41 46 194 77 254 86 170 220 304 390
390 61 31 213 77 254 77 16 0 29 5 29 10 0 6 -13 10 -29 10 -41 0 -193 46
-254 77 -171 86 -304 219 -390 390 -31 60 -77 213 -77 254 0 52 -17 39 -24
-19z"/>
<path d="M14937 1604 c-4 -4 -7 -20 -7 -35 0 -40 -46 -192 -77 -252 -86 -170
-220 -304 -390 -390 -60 -31 -212 -77 -252 -77 -58 0 -39 -15 34 -27 289 -49
547 -271 646 -555 15 -45 31 -109 35 -140 4 -32 10 -58 14 -58 4 0 10 26 14
58 4 31 20 95 35 140 99 284 361 509 647 555 41 6 74 14 74 17 0 3 -33 11 -74
17 -332 53 -622 343 -679 678 -7 42 -16 73 -20 69z"/>
<path d="M16626 1553 c-4 -32 -20 -96 -35 -141 -99 -284 -361 -509 -647 -555
-41 -6 -74 -14 -74 -17 0 -3 33 -11 74 -17 286 -46 548 -271 647 -555 15 -45
31 -109 35 -140 4 -32 10 -58 14 -58 4 0 10 26 14 58 4 31 20 95 35 140 99
284 361 509 647 555 41 6 74 14 74 17 0 3 -33 11 -74 17 -286 46 -548 271
-647 555 -15 45 -31 109 -35 141 -4 31 -10 57 -14 57 -4 0 -10 -26 -14 -57z"/>
<path d="M18326 1552 c-4 -31 -20 -95 -35 -140 -99 -284 -361 -509 -647 -555
-41 -6 -74 -14 -74 -17 0 -3 33 -11 74 -17 276 -44 532 -256 637 -528 16 -42
37 -122 47 -178 l17 -102 8 80 c27 274 222 541 481 661 88 40 208 73 275 75
l46 2 -55 9 c-92 16 -227 56 -283 84 -172 87 -304 219 -390 391 -31 60 -77
213 -77 254 0 52 -17 39 -24 -19z"/>
<path d="M26837 1604 c-4 -4 -7 -20 -7 -35 0 -40 -46 -192 -77 -252 -86 -170
-220 -304 -390 -390 -60 -31 -212 -77 -252 -77 -58 0 -39 -15 34 -27 289 -49
547 -271 646 -555 15 -45 31 -109 35 -140 4 -32 10 -58 14 -58 4 0 10 26 14
58 4 31 20 95 35 140 99 284 361 509 647 555 41 6 74 14 74 17 0 3 -33 11 -74
17 -332 53 -622 343 -679 678 -7 42 -16 73 -20 69z"/>
<path d="M28526 1553 c-4 -32 -20 -96 -35 -141 -99 -284 -361 -509 -647 -555
-41 -6 -74 -14 -74 -17 0 -3 33 -11 74 -17 286 -46 548 -271 647 -555 15 -45
31 -109 35 -140 4 -32 10 -58 14 -58 4 0 10 26 14 58 4 31 20 95 35 140 99
284 361 509 647 555 41 6 74 14 74 17 0 3 -33 11 -74 17 -286 46 -548 271
-647 555 -15 45 -31 109 -35 141 -4 31 -10 57 -14 57 -4 0 -10 -26 -14 -57z"/>
<path d="M30226 1552 c-4 -31 -20 -95 -35 -140 -99 -284 -361 -509 -647 -555
-41 -6 -74 -14 -74 -17 0 -3 33 -11 74 -17 286 -46 548 -271 647 -555 15 -45
31 -109 35 -140 7 -58 24 -71 24 -19 0 41 46 194 77 254 86 171 219 304 390
390 61 31 213 77 254 77 16 0 29 5 29 10 0 6 -13 10 -29 10 -41 0 -193 46
-254 77 -171 86 -304 219 -390 390 -31 60 -77 213 -77 254 0 52 -17 39 -24
-19z"/>
<path d="M20030 1571 c0 -41 -46 -193 -77 -254 -132 -262 -375 -433 -668 -473
l-60 -8 70 -8 c99 -12 166 -33 270 -83 164 -81 298 -214 379 -379 54 -108 75
-183 83 -290 7 -91 18 -82 27 24 18 206 152 433 335 569 118 88 302 159 420
162 l46 2 -55 9 c-92 16 -227 56 -283 84 -172 87 -304 219 -390 391 -31 61
-77 213 -77 254 0 16 -4 29 -10 29 -5 0 -10 -13 -10 -29z"/>
<path d="M21730 1571 c0 -41 -46 -193 -77 -254 -132 -262 -375 -433 -668 -473
l-60 -8 70 -8 c99 -12 166 -33 270 -83 164 -81 298 -214 379 -379 54 -108 75
-183 83 -290 7 -91 18 -82 27 24 18 206 152 433 335 569 118 88 302 159 420
162 l46 2 -55 9 c-92 16 -227 56 -283 84 -172 87 -304 219 -390 391 -31 61
-77 213 -77 254 0 16 -4 29 -10 29 -5 0 -10 -13 -10 -29z"/>
<path d="M23430 1571 c0 -41 -46 -193 -77 -254 -132 -262 -375 -433 -668 -473
l-60 -8 70 -8 c99 -12 166 -33 270 -83 261 -128 440 -389 464 -675 l6 -75 13
95 c7 52 26 132 41 178 98 284 357 506 646 555 73 12 92 27 34 27 -40 0 -192
46 -252 77 -171 86 -304 219 -390 390 -31 61 -77 213 -77 254 0 16 -4 29 -10
29 -5 0 -10 -13 -10 -29z"/>
<path d="M25130 1571 c0 -41 -46 -193 -77 -254 -86 -170 -220 -304 -390 -390
-60 -31 -212 -77 -252 -77 -58 0 -39 -15 34 -27 289 -49 547 -271 646 -555 15
-45 31 -109 35 -140 4 -32 10 -58 14 -58 4 0 10 26 14 58 4 31 20 95 35 140
99 284 357 506 646 555 73 12 92 27 34 27 -40 0 -192 46 -252 77 -171 86 -304
219 -390 390 -31 61 -77 213 -77 254 0 16 -4 29 -10 29 -5 0 -10 -13 -10 -29z"/>
<path d="M32715 161 c-22 -10 -50 -29 -62 -42 -22 -24 -53 -88 -53 -109 0 -6
66 -10 190 -10 145 0 190 3 190 13 0 6 -9 30 -19 52 -45 98 -152 140 -246 96z"/>
<path d="M36115 161 c-22 -10 -50 -29 -62 -42 -22 -24 -53 -88 -53 -109 0 -6
66 -10 190 -10 145 0 190 3 190 13 0 6 -9 30 -19 52 -45 98 -152 140 -246 96z"/>
</g>
</svg>
