<?xml version="1.0" standalone="no"?>
<!DOCTYPE svg PUBLIC "-//W3C//DTD SVG 20010904//EN"
 "http://www.w3.org/TR/2001/REC-SVG-20010904/DTD/svg10.dtd">
<svg version="1.0" xmlns="http://www.w3.org/2000/svg"
 width="3840.000000pt" height="2160.000000pt" viewBox="0 0 3840.000000 2160.000000"
 preserveAspectRatio="xMidYMid meet">

<g transform="translate(0.000000,2160.000000) scale(0.100000,-0.100000)"
fill="#000000" stroke="none">
<path d="M0 20900 l0 -700 19200 0 19200 0 0 700 0 700 -19200 0 -19200 0 0
-700z m19307 419 c43 -13 100 -79 109 -124 15 -82 -21 -161 -90 -198 -32 -17
-58 -22 -116 -22 -58 0 -84 5 -116 22 -74 39 -111 135 -85 216 16 48 80 104
128 112 21 4 43 8 48 10 14 5 83 -4 122 -16z m-13907 -64 c382 -43 647 -126
766 -242 53 -51 74 -96 74 -155 0 -156 -195 -279 -560 -352 -202 -40 -377 -57
-675 -63 -901 -19 -1465 142 -1465 417 0 216 341 367 935 414 129 10 787 -3
925 -19z m-3985 -396 c0 -119 -2 -134 -17 -137 -16 -3 -18 8 -18 131 0 73 3
137 7 141 22 21 28 -9 28 -135z m170 36 l70 -99 5 99 c4 80 8 100 20 100 13 0
15 -22 15 -135 0 -176 -7 -178 -107 -38 l-73 102 -3 -102 c-2 -91 -5 -103 -20
-100 -15 3 -17 19 -20 118 -5 197 9 203 113 55z m210 83 c3 -13 4 -75 3 -138
-3 -107 -4 -115 -23 -115 -19 0 -20 8 -23 124 -1 69 0 131 2 138 8 21 35 15
41 -9z m229 12 c14 -5 26 -16 26 -23 0 -11 -15 -14 -61 -13 -55 1 -63 -2 -85
-27 -36 -42 -33 -99 7 -139 28 -29 34 -30 85 -25 48 5 54 4 54 -13 0 -14 -10
-21 -36 -26 -84 -16 -155 24 -175 98 -30 112 78 209 185 168z m111 -130 c0
-128 -1 -135 -20 -135 -19 0 -20 8 -23 115 -3 133 1 163 26 158 15 -3 17 -19
17 -138z m252 120 c86 -52 94 -162 17 -230 -60 -53 -162 -37 -204 33 -26 42
-26 112 0 155 36 59 126 80 187 42z m5118 -10 c19 -18 25 -34 25 -65 0 -58
-30 -84 -104 -92 l-56 -6 0 -44 c0 -37 -3 -44 -17 -41 -16 3 -18 18 -21 128
-1 68 0 130 3 138 9 25 140 11 170 -18z m262 10 c117 -71 80 -245 -55 -258
-89 -8 -152 48 -152 138 0 110 115 177 207 120z m252 9 c76 -27 67 -135 -14
-155 l-25 -6 40 -39 c39 -38 52 -69 28 -69 -7 0 -38 26 -70 57 l-58 57 0 -52
c0 -39 -4 -54 -16 -59 -9 -3 -20 0 -25 8 -14 22 -11 243 3 257 15 15 95 16
137 1z m260 2 c22 -14 3 -31 -34 -31 l-34 0 -3 -117 c-3 -102 -5 -118 -20
-121 -16 -3 -18 9 -20 115 l-3 118 -37 3 c-35 3 -49 18 -31 35 10 10 166 8
182 -2z m200 -4 c17 -21 3 -27 -61 -27 l-58 0 0 -39 0 -40 53 -3 c38 -2 52 -7
52 -18 0 -11 -14 -16 -52 -18 l-52 -3 -3 -57 c-2 -45 -7 -58 -20 -60 -16 -3
-18 8 -18 131 0 73 3 137 7 140 13 13 140 8 152 -6z m226 -1 c46 -19 75 -69
75 -126 0 -57 -16 -88 -60 -118 -50 -34 -128 -28 -170 13 -118 113 5 293 155
231z m159 -2 c3 -9 6 -62 6 -119 l0 -104 58 -3 c43 -2 57 -7 57 -18 0 -12 -16
-15 -80 -15 l-80 0 -3 124 c-1 69 0 131 2 138 7 18 33 16 40 -3z m194 -128 c2
-127 1 -137 -15 -134 -16 3 -18 18 -21 128 -3 131 0 154 21 148 9 -3 13 -43
15 -142z m249 127 c46 -22 73 -67 73 -123 0 -84 -57 -140 -140 -140 -56 0 -96
26 -121 78 -60 123 63 245 188 185z m1767 7 c14 -5 26 -16 26 -25 0 -12 -9
-14 -53 -9 -48 6 -56 4 -85 -21 -28 -23 -32 -33 -32 -76 0 -40 5 -55 26 -76
23 -23 31 -25 85 -20 46 4 59 2 59 -9 0 -37 -104 -46 -158 -14 -43 26 -66 81
-58 137 8 58 24 82 71 104 45 21 81 24 119 9z m253 -10 c67 -40 88 -112 54
-182 -25 -52 -65 -78 -121 -78 -83 0 -140 56 -140 140 0 110 115 177 207 120z
m155 6 c7 -7 40 -52 73 -99 l60 -86 5 97 c4 77 8 97 20 97 13 0 15 -22 15
-135 0 -173 -6 -176 -101 -43 l-69 98 -3 -93 c-2 -73 -6 -94 -18 -99 -27 -10
-34 17 -34 130 0 131 15 171 52 133z m406 -8 c3 -15 -4 -18 -32 -18 l-36 0 0
-107 c0 -113 -7 -140 -34 -130 -13 5 -16 25 -16 122 l0 115 -35 0 c-22 0 -35
5 -35 13 0 25 13 28 99 25 72 -3 86 -6 89 -20z m120 9 c18 -21 93 -240 88
-254 -10 -25 -34 -13 -46 22 l-12 36 -56 -3 c-54 -3 -56 -4 -64 -35 -9 -33
-34 -45 -44 -20 -5 14 71 234 88 254 13 17 33 17 46 0z m297 1 c41 -19 23 -33
-43 -33 -82 0 -107 -23 -107 -96 0 -44 4 -54 29 -76 26 -22 36 -25 83 -20 58
6 78 -7 48 -30 -50 -36 -162 -2 -192 57 -19 38 -16 110 7 148 33 54 115 77
175 50z m233 -10 c3 -15 -4 -18 -32 -18 l-35 0 -3 -117 c-3 -110 -4 -118 -23
-118 -19 0 -20 8 -23 118 l-3 117 -34 0 c-23 0 -35 5 -35 13 0 25 13 28 99 25
72 -3 86 -6 89 -20z m229 -9 c100 -93 45 -249 -88 -249 -109 0 -173 112 -121
209 39 72 151 93 209 40z m17737 17 c41 -17 54 -57 31 -92 -14 -22 -14 -25 5
-44 25 -25 26 -71 1 -101 -17 -22 -27 -24 -98 -24 l-78 0 -3 124 c-1 69 0 131
2 138 7 18 97 17 140 -1z m130 -2 c3 -9 6 -54 6 -102 0 -99 13 -122 66 -122
51 0 64 27 64 138 0 76 3 94 16 99 25 9 34 -15 34 -92 0 -90 -14 -139 -47
-165 -45 -35 -133 -23 -163 23 -14 23 -27 194 -16 222 7 20 32 19 40 -1z m371
-9 c27 -26 32 -50 13 -61 -6 -4 -19 4 -30 19 -24 34 -73 37 -83 7 -9 -28 1
-39 61 -66 77 -34 96 -83 49 -129 -18 -19 -35 -25 -70 -25 -35 0 -52 6 -70 25
-14 13 -25 31 -25 39 0 28 23 30 44 4 27 -32 52 -41 77 -27 33 17 20 51 -32
79 -67 36 -79 49 -79 84 0 36 7 48 35 64 35 20 84 14 110 -13z m249 15 c14 -5
26 -16 26 -23 0 -11 -15 -14 -61 -13 -55 1 -63 -2 -85 -27 -36 -42 -33 -99 7
-139 28 -29 34 -30 85 -25 48 5 54 4 54 -13 0 -14 -10 -21 -36 -26 -114 -21
-199 61 -174 169 18 82 105 128 184 97z m194 -2 c17 -23 93 -241 88 -255 -10
-25 -34 -13 -46 22 -11 34 -13 35 -66 35 -52 0 -54 -1 -68 -35 -15 -34 -46
-49 -46 -21 0 20 79 237 92 253 13 16 33 17 46 1z m304 -16 c25 -24 27 -86 3
-112 -9 -10 -28 -21 -42 -25 l-26 -6 37 -37 c36 -38 47 -72 23 -72 -7 0 -37
25 -67 55 l-55 56 -5 -53 c-4 -40 -9 -54 -22 -56 -16 -3 -18 8 -18 131 0 73 3
137 8 141 4 5 38 6 75 3 51 -3 74 -10 89 -25z m-12443 -157 c14 -7 49 -38 77
-69 52 -56 52 -56 111 -56 62 0 75 6 135 63 96 90 287 65 344 -46 21 -39 21
-125 0 -165 -35 -68 -130 -109 -220 -97 -58 7 -121 37 -136 65 -17 32 -64 50
-129 50 -59 0 -60 0 -118 -59 -65 -66 -117 -87 -192 -77 -43 6 -131 49 -131
64 0 4 -13 22 -29 40 -27 29 -35 32 -91 32 -66 0 -113 -18 -130 -50 -15 -28
-78 -58 -137 -66 -95 -12 -184 30 -223 106 -18 34 -16 120 4 157 56 110 249
136 344 46 60 -57 73 -63 135 -63 l59 0 54 59 c51 55 78 72 129 85 31 7 115
-4 144 -19z m17731 -175 c0 -20 -7 -20 -3360 -20 -3353 0 -3360 0 -3360 20 0
20 7 20 3360 20 3353 0 3360 0 3360 -20z"/>
<path d="M3996 20979 c-29 -23 -34 -63 -12 -95 8 -11 37 -30 65 -43 53 -26 68
-45 50 -67 -19 -23 -67 -17 -85 11 -9 14 -22 25 -29 25 -25 0 -24 -30 1 -60
22 -26 32 -30 75 -30 40 0 55 5 74 25 45 44 26 91 -54 131 -45 24 -56 34 -56
54 0 37 46 40 74 4 13 -16 27 -24 36 -20 22 8 18 34 -10 61 -31 32 -91 34
-129 4z"/>
<path d="M4195 20987 c-3 -7 -4 -69 -3 -138 l3 -124 85 0 c69 0 85 3 85 15 0
11 -15 16 -62 18 l-63 3 0 39 0 40 50 0 c43 0 50 3 50 20 0 17 -7 20 -50 20
l-50 0 0 40 0 39 63 3 c47 2 62 7 62 18 0 21 -163 28 -170 7z"/>
<path d="M4404 20987 c-2 -7 -3 -69 -2 -138 3 -116 4 -124 23 -124 17 0 20 8
23 51 l3 52 51 -54 c28 -30 57 -54 64 -54 30 0 24 24 -16 65 l-42 42 26 7 c38
9 66 42 66 75 0 43 -9 60 -41 76 -36 19 -148 20 -155 2z m139 -46 c5 -5 7 -21
5 -37 -3 -27 -6 -29 -50 -32 l-48 -3 0 47 0 47 43 -7 c23 -4 46 -11 50 -15z"/>
<path d="M4626 20991 c-6 -9 61 -208 84 -251 12 -23 43 -26 57 -7 19 24 95
246 88 257 -19 31 -40 0 -76 -108 l-36 -113 -39 113 c-27 77 -44 114 -56 116
-9 2 -19 -1 -22 -7z"/>
<path d="M4895 20978 c-3 -13 -4 -75 -3 -138 3 -107 4 -115 23 -115 19 0 20 7
20 135 0 119 -2 135 -17 138 -11 2 -19 -5 -23 -20z"/>
<path d="M5055 20986 c-52 -23 -69 -51 -73 -121 -4 -60 -3 -64 30 -101 32 -34
41 -38 94 -42 41 -2 65 1 78 11 30 22 11 37 -37 31 -59 -8 -95 9 -113 53 -13
30 -14 44 -4 76 14 49 60 71 126 61 37 -5 44 -4 44 10 0 34 -89 47 -145 22z"/>
<path d="M5247 20994 c-4 -4 -7 -67 -7 -141 0 -127 1 -133 20 -133 20 0 20 5
18 137 -3 127 -10 158 -31 137z"/>
<path d="M5384 20981 c-60 -37 -83 -136 -44 -198 24 -40 67 -63 120 -63 109 0
172 104 124 206 -33 69 -133 96 -200 55z m144 -57 c15 -18 22 -38 22 -69 0
-36 -5 -47 -31 -69 -17 -15 -43 -26 -59 -26 -16 0 -42 11 -59 26 -26 21 -31
33 -31 68 0 69 43 111 105 101 17 -3 40 -16 53 -31z"/>
<path d="M5656 20979 c-29 -23 -34 -63 -12 -95 8 -11 37 -30 65 -43 53 -26 68
-45 50 -67 -19 -23 -67 -17 -85 11 -28 42 -66 27 -43 -17 19 -36 41 -47 90
-48 53 0 85 20 94 61 8 33 -16 62 -80 97 -39 21 -50 32 -50 52 0 37 47 41 71
6 18 -29 39 -34 48 -11 22 59 -90 100 -148 54z"/>
<path d="M2269 20945 c-56 -31 -63 -125 -12 -165 62 -49 153 -3 153 79 0 75
-77 122 -141 86z"/>
<path d="M7374 20946 c-3 -8 -4 -31 -2 -52 3 -36 6 -39 36 -42 69 -7 110 57
60 92 -28 20 -87 21 -94 2z"/>
<path d="M7649 20945 c-56 -31 -63 -125 -12 -165 62 -49 153 -3 153 79 0 75
-77 122 -141 86z"/>
<path d="M7920 20910 c0 -50 0 -50 33 -50 39 0 77 24 77 50 0 26 -38 50 -77
50 -33 0 -33 0 -33 -50z"/>
<path d="M8604 20950 c-60 -24 -73 -112 -25 -161 79 -79 196 12 149 116 -20
45 -76 65 -124 45z"/>
<path d="M9179 20931 c-23 -23 -29 -38 -29 -71 0 -102 129 -139 175 -50 19 38
19 65 -2 100 -33 56 -99 66 -144 21z"/>
<path d="M11211 20946 c-48 -27 -63 -84 -36 -136 30 -59 98 -68 146 -21 80 80
-12 211 -110 157z"/>
<path d="M11966 20901 c-23 -76 -22 -81 19 -81 41 0 43 9 16 85 l-18 50 -17
-54z"/>
<path d="M12622 20935 c-36 -30 -47 -66 -32 -110 22 -66 95 -85 149 -39 26 22
31 33 31 71 0 36 -6 50 -29 74 -37 37 -79 38 -119 4z"/>
<path d="M30400 20920 l0 -41 41 3 c49 3 71 27 53 56 -7 11 -26 18 -53 20
l-41 3 0 -41z"/>
<path d="M30400 20805 l0 -45 44 0 c45 0 76 18 76 45 0 22 -42 45 -82 45 l-38
0 0 -45z"/>
<path d="M31403 20893 c-12 -34 -19 -64 -15 -67 3 -3 20 -6 39 -6 39 0 40 10
14 85 l-18 50 -20 -62z"/>
<path d="M31620 20910 l0 -53 46 6 c46 5 64 18 64 47 0 29 -18 42 -64 47 l-46
6 0 -53z"/>
<path d="M0 15120 l0 -5040 6400 0 6400 0 0 5040 0 5040 -6400 0 -6400 0 0
-5040z m11511 4051 c49 -49 38 -125 -23 -157 -85 -44 -181 52 -132 135 35 58
108 69 155 22z m-244 -243 c65 -61 20 -167 -70 -168 -29 0 -46 7 -68 29 -90
90 45 227 138 139z m250 -3 c52 -60 16 -151 -63 -162 -36 -5 -46 -1 -75 25
-28 25 -34 37 -34 72 0 35 6 47 34 72 29 26 39 30 75 25 27 -4 49 -15 63 -32z
m208 20 c91 -44 61 -185 -40 -185 -47 0 -71 14 -91 52 -20 38 -12 87 19 115
39 36 64 40 112 18z m-242 -236 c63 -32 77 -111 28 -160 -40 -40 -89 -40 -133
0 -27 24 -33 36 -33 69 0 74 75 123 138 91z m197 -1051 c50 -26 86 -73 96
-125 15 -78 -43 -170 -121 -192 -28 -8 -322 -11 -955 -11 l-916 0 -44 23
c-132 66 -129 248 4 308 39 18 87 19 966 19 l926 0 44 -22z m-6960 -1005 c-1
-22 -23 -53 -39 -53 -14 0 -14 25 -1 51 13 24 40 25 40 2z m4331 -4 c15 -8 24
-7 35 2 21 17 42 -4 25 -25 -17 -20 -128 -15 -123 5 7 28 32 35 63 18z m-5322
-84 c34 -17 45 -39 27 -54 -8 -7 -21 -4 -41 9 -58 39 -127 15 -146 -50 -29
-95 68 -169 145 -109 41 32 34 48 -26 51 -45 3 -53 6 -53 23 0 17 8 20 54 23
86 5 101 -2 101 -44 0 -29 -8 -44 -39 -75 -36 -36 -43 -39 -95 -39 -50 0 -61
4 -92 33 -74 68 -57 201 31 237 32 14 104 11 134 -5z m271 -5 c0 -18 -7 -20
-60 -20 l-60 0 0 -40 0 -40 51 0 c43 0 50 -3 47 -17 -2 -14 -15 -19 -51 -21
l-47 -3 0 -40 0 -39 60 0 c54 0 60 -2 60 -20 0 -20 -5 -21 -82 -18 l-83 3 -3
124 c-1 69 0 131 2 138 4 9 29 13 86 13 73 0 80 -2 80 -20z m165 14 c8 -4 22
-19 30 -34 13 -25 13 -30 -1 -41 -13 -11 -19 -8 -38 15 -28 36 -70 34 -74 -4
-2 -21 6 -29 55 -55 67 -35 86 -63 71 -106 -13 -37 -35 -49 -93 -49 -35 0 -51
6 -70 25 -29 28 -32 53 -9 62 10 4 24 -4 38 -21 16 -21 28 -27 51 -24 24 2 30
8 30 28 0 19 -10 31 -46 50 -68 37 -79 49 -79 86 0 47 29 74 79 74 22 0 47 -3
56 -6z m255 -14 c0 -16 -7 -20 -35 -20 l-34 0 -3 -117 c-3 -110 -4 -118 -23
-118 -19 0 -20 8 -23 118 l-3 117 -34 0 c-35 0 -51 12 -40 30 3 6 48 10 101
10 87 0 94 -1 94 -20z m75 -120 c0 -128 -1 -135 -20 -135 -19 0 -20 8 -23 124
-3 138 0 154 25 149 16 -3 18 -18 18 -138z m260 120 c60 -37 81 -118 48 -187
-23 -49 -66 -73 -131 -73 -45 0 -57 4 -88 33 -74 68 -57 201 31 237 38 16 106
11 140 -10z m212 -76 l68 -97 5 94 c5 86 7 94 25 94 19 0 20 -7 20 -135 0
-129 -1 -135 -21 -138 -16 -2 -36 19 -90 95 l-69 98 -3 -93 c-2 -73 -6 -94
-18 -99 -9 -3 -20 0 -25 8 -10 16 -12 229 -3 253 14 36 43 15 111 -80z m291
-47 c2 -129 2 -137 -17 -137 -27 0 -31 18 -31 140 0 120 5 142 29 138 14 -3
16 -23 19 -141z m167 42 l70 -100 3 100 c2 93 4 101 23 101 19 0 19 -6 17
-137 -3 -129 -4 -138 -22 -138 -14 0 -41 30 -85 92 l-66 91 -5 -91 c-5 -84 -7
-92 -25 -92 -19 0 -20 8 -23 124 -1 69 0 131 2 138 13 33 44 9 111 -88z m345
81 c0 -16 -7 -20 -35 -20 l-34 0 -3 -117 c-3 -110 -4 -118 -23 -118 -19 0 -20
8 -23 118 l-3 117 -34 0 c-35 0 -51 12 -40 30 3 6 48 10 101 10 87 0 94 -1 94
-20z m205 0 c0 -11 -15 -16 -62 -18 l-63 -3 0 -39 0 -40 50 0 c43 0 50 -3 50
-20 0 -17 -7 -20 -50 -20 l-50 0 0 -40 0 -39 63 -3 c47 -2 62 -7 62 -18 0 -12
-16 -15 -85 -15 l-85 0 -3 124 c-1 69 0 131 3 138 7 21 170 14 170 -7z m236 3
c27 -16 37 -41 23 -56 -4 -3 -23 3 -43 15 -28 16 -46 19 -73 14 -52 -9 -73
-38 -73 -98 0 -42 4 -53 28 -74 38 -32 90 -32 122 1 36 35 31 45 -22 45 -61 0
-82 12 -64 34 14 16 111 23 145 10 34 -13 10 -94 -40 -133 -34 -27 -113 -28
-155 -4 -31 19 -69 85 -69 121 0 37 25 86 59 115 26 21 43 27 83 27 29 0 62
-7 79 -17z m252 6 c27 -12 47 -47 47 -80 0 -25 -52 -79 -76 -79 -14 0 -7 -11
25 -44 40 -41 47 -66 18 -66 -6 0 -37 26 -69 57 l-58 57 0 -57 c0 -49 -3 -57
-19 -57 -27 0 -31 18 -31 133 0 149 -1 147 76 147 35 0 74 -5 87 -11z m260
-122 c26 -71 45 -133 42 -138 -14 -21 -42 -8 -51 24 -9 31 -12 32 -66 35 -56
3 -56 3 -63 -28 -7 -34 -30 -49 -47 -32 -8 8 1 44 32 129 48 134 55 145 84
141 17 -2 30 -28 69 -131z m125 11 l3 -117 57 -3 c43 -2 57 -7 57 -18 0 -12
-16 -15 -80 -15 l-80 0 -3 124 c-3 138 0 154 25 149 16 -3 18 -18 21 -120z
m391 104 c41 -22 71 -74 71 -122 0 -87 -63 -140 -167 -140 l-63 0 0 133 c0 74
3 137 7 140 14 15 119 7 152 -11z m281 -2 c0 -16 -8 -19 -62 -22 l-63 -3 0
-35 0 -35 53 -3 c44 -3 53 -6 50 -20 -2 -13 -16 -18 -56 -20 l-53 -3 3 -37 3
-37 63 -3 c54 -3 62 -5 62 -23 0 -18 -6 -20 -82 -17 l-83 3 -3 124 c-1 69 0
131 2 138 4 9 29 13 86 13 73 0 80 -2 80 -20z m307 12 c6 -4 13 -14 15 -22 2
-12 -10 -15 -60 -15 -57 0 -66 -3 -88 -28 -36 -42 -33 -99 7 -139 28 -29 34
-30 84 -25 59 6 74 -2 49 -27 -23 -24 -111 -21 -152 4 -85 52 -80 194 9 242
34 18 114 24 136 10z m229 -116 c49 -134 53 -156 25 -156 -13 0 -23 11 -31 35
-11 34 -13 35 -65 35 -52 0 -54 -1 -65 -35 -8 -24 -18 -35 -31 -35 -27 0 -24
20 15 130 58 160 53 152 82 148 24 -3 31 -14 70 -122z m172 54 l49 -69 49 70
c36 53 53 69 68 67 20 -3 21 -9 21 -138 0 -128 -1 -135 -20 -135 -18 0 -20 8
-25 94 l-5 94 -38 -56 c-20 -31 -43 -57 -50 -57 -6 0 -31 28 -54 62 l-43 62 0
-102 c0 -95 -1 -102 -20 -102 -19 0 -20 7 -20 133 0 74 3 137 7 140 16 17 36
2 81 -63z m395 58 c34 -17 46 -39 47 -80 0 -59 -34 -90 -103 -96 l-57 -4 0
-44 c0 -37 -3 -44 -20 -44 -19 0 -20 7 -20 140 l0 140 66 0 c36 0 75 -5 87
-12z m184 0 c18 -23 94 -248 88 -258 -13 -21 -37 -9 -51 25 -14 33 -17 35 -65
35 -48 0 -51 -2 -65 -35 -14 -33 -36 -45 -48 -26 -6 10 70 237 87 259 5 6 17
12 27 12 10 0 22 -6 27 -12z m241 -90 l72 -102 0 97 c0 80 3 99 16 104 9 3 20
0 25 -8 10 -16 12 -229 3 -253 -14 -37 -44 -15 -111 80 l-68 95 -5 -93 c-5
-85 -7 -93 -25 -93 -19 0 -20 8 -23 124 -1 69 0 131 2 138 13 34 45 9 114 -89z
m339 -18 c48 -131 52 -160 24 -160 -13 0 -23 11 -31 35 -11 34 -13 35 -65 35
-52 0 -54 -1 -65 -35 -8 -24 -18 -35 -31 -35 -25 0 -24 12 5 96 60 175 66 185
94 182 24 -3 31 -14 69 -118z m213 110 c30 -16 44 -48 29 -66 -10 -13 -16 -11
-39 11 -36 34 -75 31 -75 -5 0 -20 11 -30 59 -55 62 -32 80 -59 70 -101 -9
-35 -42 -54 -95 -54 -37 0 -52 5 -73 26 -30 31 -33 52 -10 61 11 4 23 -3 36
-20 22 -30 68 -37 87 -13 18 22 3 41 -50 67 -80 37 -102 89 -57 136 23 25 83
32 118 13z m-5943 -382 c18 -24 95 -247 88 -257 -13 -22 -36 -10 -51 24 -14
33 -17 35 -64 35 -47 0 -50 -2 -64 -35 -14 -33 -38 -46 -50 -26 -6 10 71 237
87 259 5 6 17 12 27 12 10 0 22 -6 27 -12z m292 -53 c24 -36 48 -65 52 -65 4
0 26 29 50 65 32 48 49 64 64 62 19 -2 20 -9 20 -137 0 -128 -1 -135 -20 -135
-18 0 -20 8 -25 92 l-5 93 -35 -55 c-19 -30 -40 -55 -47 -55 -7 0 -30 25 -52
56 l-40 56 -3 -93 c-3 -86 -5 -94 -23 -94 -19 0 -20 8 -23 124 -1 69 0 131 2
138 12 30 43 11 85 -52z m416 45 c0 -11 -15 -16 -62 -18 l-63 -3 0 -39 0 -40
51 0 c43 0 50 -3 47 -17 -2 -14 -15 -19 -51 -21 l-47 -3 0 -39 0 -39 63 -3
c47 -2 62 -7 62 -18 0 -12 -16 -15 -85 -15 l-85 0 -3 124 c-1 69 0 131 3 138
7 21 170 14 170 -7z m190 6 c97 -41 100 -202 5 -251 -21 -11 -51 -15 -93 -13
l-62 3 -3 124 c-1 69 0 131 2 138 7 18 107 17 151 -1z m160 -126 c0 -128 -1
-135 -20 -135 -19 0 -20 8 -23 124 -3 138 0 154 25 149 16 -3 18 -18 18 -138z
m209 125 c39 -19 76 -80 76 -127 0 -85 -64 -138 -166 -138 -74 0 -74 0 -74
140 0 140 0 140 72 140 33 0 74 -7 92 -15z m236 -5 c22 -41 90 -242 84 -251
-12 -20 -36 -7 -50 26 -14 33 -17 35 -65 35 -48 0 -51 -2 -65 -35 -14 -34 -36
-45 -49 -25 -6 10 70 235 88 258 14 18 45 15 57 -8z m168 -233 c4 -20 -25 -34
-40 -19 -15 15 -1 44 19 40 10 -2 19 -11 21 -21z m-2328 -1617 l0 -670 126 0
125 0 -6 -57 c-19 -152 -79 -231 -196 -254 -88 -17 -163 2 -214 55 -67 69 -68
80 -72 464 l-4 343 -97 -3 -97 -3 0 -345 c0 -369 4 -408 52 -503 32 -65 93
-124 162 -156 51 -24 67 -26 176 -26 112 0 124 2 172 27 29 16 68 42 87 58
l34 31 7 -56 7 -55 89 0 89 0 0 240 0 240 95 0 95 0 0 -240 0 -240 90 0 90 0
0 29 c0 15 3 48 6 72 l6 44 47 -46 c27 -25 74 -59 107 -75 56 -27 66 -29 190
-29 l130 0 76 38 c122 60 206 167 243 312 8 32 15 76 15 97 l0 38 65 0 65 0 0
-240 0 -240 95 0 95 0 0 240 0 240 110 0 110 0 0 -240 0 -240 100 0 100 0 0
240 0 240 80 0 80 0 0 -27 c0 -48 29 -152 58 -211 41 -84 125 -165 217 -209
72 -34 87 -37 188 -41 67 -3 131 0 166 8 118 26 257 124 307 215 22 42 23 41
-74 74 l-70 24 -53 -55 c-66 -67 -131 -93 -234 -92 -157 1 -270 103 -291 264
l-7 50 457 0 456 0 0 -240 0 -240 100 0 100 0 0 240 0 240 80 0 80 0 0 -38 c0
-96 55 -232 125 -310 96 -107 196 -146 358 -140 90 3 110 7 167 34 36 17 86
50 111 72 45 40 47 41 53 19 3 -12 6 -43 6 -69 l0 -48 90 0 90 0 0 240 0 240
110 0 110 0 -35 -45 c-38 -50 -50 -94 -48 -173 1 -75 27 -134 79 -182 78 -71
120 -85 264 -85 116 0 129 2 181 28 31 15 75 47 97 71 37 40 41 42 46 22 3
-11 6 -35 6 -53 0 -61 4 -63 101 -63 l89 0 0 240 0 240 54 0 54 0 7 -42 c31
-208 116 -342 264 -412 63 -30 71 -31 196 -31 120 0 134 2 188 27 31 15 82 50
112 79 l55 52 0 -30 c0 -17 3 -51 6 -77 l7 -46 88 0 89 0 0 240 0 240 340 0
c193 0 340 -4 340 -9 0 -5 -9 -39 -20 -75 -125 -402 -470 -698 -888 -761 -82
-13 -365 -15 -1867 -16 -1524 -1 -1758 -3 -1683 -14 302 -48 575 -223 744
-481 243 -369 243 -839 0 -1208 -172 -261 -443 -434 -754 -481 -144 -22 -4578
-22 -4722 0 -241 36 -445 139 -616 309 -181 182 -287 404 -316 667 -36 321 82
651 316 885 169 169 409 288 621 310 36 4 65 10 65 14 0 4 -29 10 -65 14 -35
4 -103 18 -150 31 -361 105 -645 389 -750 750 -56 195 -56 415 0 610 103 355
383 639 734 745 147 45 200 48 889 49 l652 1 0 -670z m8401 -119 c27 -28 29
-34 29 -111 0 -77 -2 -83 -29 -111 -24 -24 -38 -29 -76 -29 -38 0 -52 5 -76
29 -27 28 -29 34 -29 111 0 77 2 83 29 111 24 24 38 29 76 29 38 0 52 -5 76
-29z m157 -93 l3 -117 27 -3 c16 -2 27 -9 27 -18 0 -12 -16 -15 -80 -15 -64 0
-80 3 -80 15 0 9 11 16 28 18 l27 3 0 96 c0 90 -1 95 -20 90 -23 -6 -47 17
-30 28 19 11 64 24 80 22 12 -2 16 -24 18 -119z m130 -136 c3 -17 -2 -22 -17
-22 -14 0 -21 6 -21 18 0 38 33 41 38 4z m-7271 -373 c-8 -69 -63 -166 -116
-206 -57 -44 -139 -67 -204 -58 -145 19 -243 116 -266 265 l-8 50 300 0 300 0
-6 -51z m3392 -1 c-18 -110 -82 -198 -178 -241 -70 -32 -180 -29 -247 5 -89
46 -149 135 -161 238 l-6 50 300 0 300 0 -8 -52z m2116 5 c-14 -101 -85 -202
-168 -242 -130 -61 -292 -19 -366 97 -26 42 -61 143 -61 179 0 10 62 13 301
13 l301 0 -7 -47z m-1118 -27 c-7 -70 -39 -147 -79 -183 -87 -82 -276 -93
-344 -22 -25 26 -29 39 -29 84 0 46 4 58 29 84 16 17 48 37 70 46 32 12 253
46 345 54 11 1 13 -12 8 -63z"/>
<path d="M9739 17638 c-74 -42 -101 -143 -56 -208 12 -18 35 -43 50 -54 28
-21 30 -21 977 -21 947 0 949 0 977 21 15 11 38 36 51 54 44 66 17 167 -58
209 -38 21 -39 21 -971 21 -932 0 -934 -1 -970 -22z m1698 -39 c7 -6 13 -18
13 -25 0 -17 -22 -18 -37 -3 -6 6 -23 9 -39 7 -49 -5 -37 -36 26 -66 48 -23
55 -31 58 -59 4 -44 -26 -73 -76 -73 -53 0 -106 49 -68 63 8 3 22 -3 32 -14
21 -23 47 -25 65 -3 19 23 1 45 -50 62 -51 17 -70 49 -53 87 7 14 22 30 34 35
26 11 75 5 95 -11z m-1586 -78 l37 -85 30 67 c17 36 33 75 37 87 4 13 15 20
31 20 l24 0 0 -115 c0 -108 -1 -115 -20 -115 -18 0 -20 7 -21 73 l-1 72 -34
-72 c-18 -40 -39 -73 -47 -73 -7 0 -27 33 -44 73 l-32 72 -1 -72 c0 -66 -2
-73 -20 -73 -19 0 -20 7 -20 116 0 113 0 115 22 112 16 -2 30 -23 59 -87z
m339 74 c0 -12 -13 -15 -60 -15 l-60 0 0 -30 c0 -29 2 -30 45 -30 38 0 45 -3
45 -20 0 -17 -7 -20 -46 -20 -45 0 -45 0 -42 -32 3 -33 4 -33 61 -36 42 -2 57
-7 57 -17 0 -12 -16 -15 -75 -15 l-75 0 0 115 0 115 75 0 c60 0 75 -3 75 -15z
m140 -100 c0 -108 -1 -115 -20 -115 -19 0 -20 7 -20 115 0 108 1 115 20 115
19 0 20 -7 20 -115z m118 40 c26 -41 50 -75 55 -75 4 0 7 34 7 75 0 60 3 75
15 75 12 0 15 -19 15 -115 0 -147 -12 -151 -87 -32 l-52 82 -1 -82 c0 -76 -2
-83 -20 -83 -19 0 -20 7 -20 115 0 109 1 115 20 115 15 0 34 -21 68 -75z m292
60 c0 -10 -11 -15 -35 -15 l-35 0 0 -100 c0 -93 -1 -100 -20 -100 -19 0 -20 7
-20 100 l0 100 -35 0 c-24 0 -35 5 -35 15 0 12 17 15 90 15 73 0 90 -3 90 -15z
m178 3 c-3 -8 -27 -14 -61 -16 -55 -3 -57 -4 -57 -32 0 -27 3 -29 43 -32 29
-2 42 -8 42 -18 0 -10 -13 -16 -42 -18 -42 -3 -43 -4 -43 -38 l0 -34 61 0 c44
0 60 -3 57 -12 -3 -9 -31 -14 -81 -16 l-77 -3 0 116 0 115 81 0 c60 0 80 -3
77 -12z m172 -15 c25 -32 20 -68 -11 -95 -20 -17 -20 -17 6 -57 30 -49 30 -51
5 -51 -12 0 -29 16 -46 45 -16 28 -33 45 -45 45 -16 0 -19 -7 -19 -45 0 -38
-3 -45 -20 -45 -19 0 -20 7 -20 115 l0 115 64 0 c58 0 67 -3 86 -27z m198 15
c-3 -8 -27 -14 -61 -16 -55 -3 -57 -4 -57 -32 0 -27 3 -29 43 -32 29 -2 42 -8
42 -18 0 -10 -13 -16 -42 -18 -42 -3 -43 -4 -43 -38 l0 -34 61 0 c44 0 60 -3
57 -12 -3 -9 -31 -14 -81 -16 l-77 -3 0 116 0 115 81 0 c60 0 80 -3 77 -12z
m354 -98 c21 -58 38 -108 38 -112 0 -5 -9 -8 -19 -8 -13 0 -21 9 -26 30 -6 29
-8 30 -65 30 -57 0 -59 -1 -65 -30 -5 -21 -13 -30 -26 -30 -24 0 -24 -4 10 93
52 146 47 139 83 135 30 -3 33 -7 70 -108z"/>
<path d="M10980 17545 c0 -34 1 -35 39 -35 31 0 41 4 46 20 9 30 -12 50 -51
50 -32 0 -34 -2 -34 -35z"/>
<path d="M11551 17539 c-7 -23 -15 -47 -18 -55 -4 -11 5 -14 37 -14 32 0 41 3
37 14 -3 8 -11 32 -18 55 -7 23 -15 41 -19 41 -4 0 -12 -18 -19 -41z"/>
<path d="M4628 16525 c-59 -32 -58 -139 2 -170 44 -23 78 -19 111 14 81 82
-12 211 -113 156z"/>
<path d="M6350 16495 l0 -45 43 0 c48 0 67 13 67 47 0 26 -32 43 -81 43 -28 0
-29 -2 -29 -45z"/>
<path d="M6631 16486 c-6 -24 -13 -51 -17 -60 -5 -13 1 -16 34 -16 l41 0 -21
60 c-11 33 -21 60 -23 60 -1 0 -8 -20 -14 -44z"/>
<path d="M7125 16528 c-3 -8 -5 -53 -3 -99 l3 -84 44 1 c121 3 124 175 4 191
-32 4 -44 2 -48 -9z"/>
<path d="M7967 16478 c-10 -31 -17 -59 -17 -62 0 -3 16 -6 35 -6 40 0 41 4 16
75 l-18 50 -16 -57z"/>
<path d="M8517 16533 c-4 -3 -7 -26 -7 -50 l0 -43 50 0 c39 0 51 4 60 20 15
28 3 59 -27 71 -28 11 -67 12 -76 2z"/>
<path d="M8761 16479 c-7 -23 -15 -47 -18 -55 -4 -11 5 -14 35 -14 l39 0 -16
55 c-9 30 -19 55 -22 55 -3 0 -11 -18 -18 -41z"/>
<path d="M9297 16478 c-9 -30 -17 -58 -17 -61 0 -4 16 -7 35 -7 40 0 41 4 16
73 l-17 49 -17 -54z"/>
<path d="M3620 16133 c0 -5 -7 -29 -15 -55 l-14 -48 38 0 38 0 -16 55 c-9 30
-19 55 -23 55 -5 0 -8 -3 -8 -7z"/>
<path d="M4450 16061 c0 -99 0 -101 24 -101 37 0 86 20 96 40 6 10 10 38 10
63 0 54 -30 86 -89 94 l-41 6 0 -102z"/>
<path d="M4810 16060 l0 -103 47 6 c60 7 93 41 93 97 0 56 -33 90 -93 97 l-47
6 0 -103z"/>
<path d="M5113 16108 c-7 -24 -15 -51 -18 -60 -6 -15 -1 -18 33 -18 l41 0 -21
60 c-11 33 -21 60 -22 60 -1 0 -7 -19 -13 -42z"/>
<path d="M1420 13901 l0 -721 105 0 105 0 0 290 0 290 198 0 c108 0 226 5 262
11 142 22 264 108 323 228 31 63 32 70 32 186 0 109 -2 125 -27 177 -37 79
-73 123 -142 168 -114 78 -147 83 -523 88 l-333 4 0 -721z m670 523 c127 -38
188 -175 145 -322 -20 -67 -62 -114 -127 -142 -49 -22 -71 -24 -265 -28 l-213
-4 0 256 0 256 203 0 c158 0 216 -4 257 -16z"/>
<path d="M3880 11860 l0 -740 95 0 95 0 0 740 0 740 -95 0 -95 0 0 -740z"/>
<path d="M4356 12580 c-98 -30 -123 -158 -45 -225 56 -46 162 -28 194 35 53
103 -40 223 -149 190z"/>
<path d="M1825 12556 c-150 -35 -283 -111 -380 -219 -64 -70 -135 -206 -162
-307 -27 -100 -24 -301 6 -405 71 -253 255 -432 512 -497 120 -30 311 -23 424
16 206 70 373 235 440 434 33 96 48 220 40 316 -27 314 -208 551 -490 643 -99
32 -293 41 -390 19z m317 -186 c234 -72 371 -295 354 -575 -10 -161 -61 -279
-163 -376 -68 -65 -142 -103 -238 -124 -88 -18 -132 -18 -220 0 -206 44 -352
197 -390 410 -57 320 78 581 344 666 80 26 229 25 313 -1z"/>
<path d="M3187 12141 c-56 -18 -108 -51 -146 -92 -19 -20 -19 -20 -26 40 l-7
61 -89 0 -89 0 0 -515 0 -515 100 0 100 0 0 323 c0 357 5 392 60 459 83 100
263 107 352 12 61 -65 63 -77 66 -451 l3 -343 95 0 94 0 0 353 c0 382 -3 410
-56 507 -35 64 -91 115 -162 148 -76 34 -211 41 -295 13z"/>
<path d="M5069 12142 c-60 -20 -142 -72 -158 -100 -7 -13 -11 -2 -17 46 l-7
62 -88 0 -89 0 0 -515 0 -515 95 0 95 0 0 283 c0 378 12 448 87 519 92 87 267
76 344 -22 52 -65 59 -122 59 -467 l0 -313 95 0 95 0 0 348 c0 280 -3 359 -15
407 -32 123 -98 205 -203 253 -75 34 -212 41 -293 14z"/>
<path d="M6063 12145 c-170 -46 -301 -182 -348 -362 -18 -67 -20 -200 -4 -275
16 -77 72 -188 124 -246 94 -105 207 -152 363 -152 149 0 240 30 344 113 49
39 115 134 102 147 -5 5 -43 21 -84 35 -57 19 -76 22 -79 13 -9 -31 -92 -97
-142 -114 -69 -23 -199 -24 -251 -2 -83 37 -156 130 -172 221 l-7 37 379 0
380 0 6 31 c17 88 -5 232 -49 319 -57 112 -171 201 -300 235 -73 18 -192 18
-262 0z m243 -185 c85 -37 137 -103 158 -202 l6 -28 -279 0 -280 0 14 47 c50
167 225 250 381 183z"/>
<path d="M4297 12143 c-4 -3 -7 -235 -7 -515 l0 -508 100 0 100 0 0 515 0 515
-93 0 c-52 0 -97 -3 -100 -7z"/>
<path d="M11280 14180 c-16 -16 -20 -33 -20 -80 0 -67 21 -100 63 -100 48 0
62 22 62 100 0 59 -3 74 -19 86 -28 20 -63 17 -86 -6z"/>
<path d="M25600 15120 l0 -5040 6400 0 6400 0 0 5040 0 5040 -6400 0 -6400 0
0 -5040z m11511 4051 c49 -49 38 -125 -23 -157 -85 -44 -181 52 -132 135 35
58 108 69 155 22z m-244 -243 c65 -61 20 -167 -70 -168 -29 0 -46 7 -68 29
-90 90 45 227 138 139z m250 -3 c52 -60 16 -151 -63 -162 -36 -5 -46 -1 -75
25 -28 25 -34 37 -34 72 0 35 6 47 34 72 29 26 39 30 75 25 27 -4 49 -15 63
-32z m208 20 c91 -44 61 -185 -40 -185 -47 0 -71 14 -91 52 -20 38 -12 87 19
115 39 36 64 40 112 18z m-235 -240 c59 -31 69 -107 21 -156 -67 -67 -184 -7
-167 85 13 69 84 103 146 71z m190 -1047 c50 -26 86 -73 96 -125 15 -78 -43
-170 -121 -192 -28 -8 -322 -11 -955 -11 l-916 0 -44 23 c-132 66 -129 248 4
308 39 18 87 19 966 19 l926 0 44 -22z m-7990 -1093 c49 -25 58 -101 17 -143
-18 -18 -40 -26 -76 -30 -48 -4 -51 -6 -51 -32 0 -41 -10 -60 -31 -60 -18 0
-19 9 -19 133 0 74 3 137 7 140 12 13 124 7 153 -8z m239 0 c67 -34 51 -132
-25 -151 l-26 -7 42 -42 c39 -40 46 -65 17 -65 -6 0 -38 26 -70 58 l-59 57 6
-38 c9 -49 0 -77 -25 -77 -18 0 -19 8 -19 133 0 74 3 137 7 140 12 13 124 7
152 -8z m286 -5 c60 -37 81 -118 48 -187 -23 -49 -66 -73 -131 -73 -45 0 -57
4 -88 33 -74 68 -57 201 31 237 38 16 106 11 140 -10z m301 6 c28 -21 10 -31
-58 -31 -53 0 -62 -3 -84 -28 -36 -42 -33 -99 7 -139 28 -29 34 -30 84 -25 59
6 81 -7 50 -30 -28 -20 -114 -16 -151 6 -86 52 -82 195 7 243 40 21 117 24
145 4z m222 -8 c3 -16 -5 -18 -62 -18 l-66 0 0 -39 0 -40 53 -3 c38 -2 52 -7
52 -18 0 -11 -14 -16 -52 -18 l-53 -3 0 -39 0 -39 63 -3 c47 -2 62 -7 62 -18
0 -12 -16 -15 -85 -15 l-85 0 -3 124 c-1 69 0 131 3 138 3 10 25 13 87 11 70
-3 83 -6 86 -20z m176 1 c27 -21 34 -53 14 -65 -6 -4 -20 4 -33 20 -17 21 -29
27 -51 24 -23 -2 -29 -8 -29 -28 0 -20 10 -30 54 -51 84 -40 104 -87 56 -134
-19 -20 -34 -25 -74 -25 -43 0 -53 4 -75 30 -25 30 -26 60 -1 60 7 0 20 -12
29 -26 14 -21 24 -25 54 -22 32 3 37 6 37 28 0 20 -10 30 -55 53 -62 31 -80
50 -80 84 0 63 98 96 154 52z m248 -113 c26 -70 45 -132 42 -137 -13 -22 -43
-8 -54 26 -11 34 -13 35 -65 35 -52 0 -54 -1 -65 -35 -8 -24 -18 -35 -31 -35
-10 0 -19 6 -19 14 0 12 57 178 85 249 5 12 16 17 34 15 23 -3 30 -15 73 -132z
m166 66 c24 -34 47 -62 51 -62 4 0 28 29 52 65 33 49 49 65 64 63 19 -3 20
-11 20 -138 0 -128 -1 -135 -20 -135 -18 0 -20 8 -23 94 l-3 93 -37 -53 c-21
-30 -44 -55 -52 -57 -9 -1 -31 23 -54 58 -21 33 -39 60 -40 60 0 0 -1 -44 -1
-97 0 -94 -1 -98 -22 -101 -23 -3 -23 -3 -23 131 0 73 3 137 7 141 16 16 40
-3 81 -62z m287 -72 c0 -128 -1 -135 -20 -135 -19 0 -20 8 -23 124 -3 138 0
154 25 149 16 -3 18 -18 18 -138z m223 118 c3 -16 -5 -18 -62 -18 l-66 0 0
-39 0 -40 53 -3 c38 -2 52 -7 52 -18 0 -11 -14 -16 -52 -18 l-53 -3 0 -40 0
-39 66 0 c57 0 65 -2 62 -17 -3 -15 -16 -18 -82 -21 -57 -2 -82 1 -87 10 -10
15 -12 229 -3 253 10 24 167 18 172 -7z m149 -75 l68 -98 5 95 c5 87 7 95 25
95 19 0 20 -7 20 -135 0 -130 -1 -135 -21 -138 -17 -2 -36 17 -90 94 l-69 97
-5 -94 c-5 -86 -7 -94 -25 -94 -19 0 -20 8 -23 115 -1 63 0 125 3 138 11 45
41 25 112 -75z m348 77 c0 -10 -12 -16 -37 -18 l-37 -3 -3 -117 c-3 -109 -4
-117 -23 -117 -19 0 -20 8 -23 118 l-3 117 -33 0 c-38 0 -47 6 -39 26 8 22
198 16 198 -6z m212 0 c47 -28 66 -72 61 -138 -4 -48 -10 -60 -41 -89 -32 -28
-44 -33 -87 -33 -28 0 -64 7 -81 15 -88 46 -92 193 -7 245 43 26 113 26 155 0z
m342 2 c93 -50 93 -194 0 -244 -25 -13 -50 -18 -94 -16 l-60 3 -3 124 c-1 69
0 131 2 138 8 20 114 17 155 -5z m281 -2 c0 -18 -7 -20 -60 -20 l-60 0 0 -40
0 -40 51 0 c43 0 50 -3 47 -17 -2 -14 -15 -19 -51 -21 l-47 -3 0 -40 0 -39 60
0 c54 0 60 -2 60 -20 0 -20 -5 -21 -82 -18 l-83 3 -3 124 c-1 69 0 131 2 138
4 9 29 13 86 13 73 0 80 -2 80 -20z m326 -3 c19 -16 25 -29 21 -41 -7 -16 -9
-16 -41 3 -48 30 -91 27 -127 -8 -41 -42 -41 -101 1 -143 27 -27 36 -30 73
-25 39 5 77 34 77 58 0 5 -25 9 -55 9 -42 0 -57 4 -62 16 -3 9 0 20 8 25 16
10 119 12 143 3 34 -13 10 -94 -40 -133 -33 -26 -111 -28 -155 -5 -33 16 -68
81 -69 123 0 38 36 104 67 123 43 27 125 24 159 -5z m265 -6 c16 -17 29 -40
29 -54 0 -32 -33 -73 -66 -81 l-27 -7 43 -44 c39 -40 46 -65 17 -65 -7 0 -37
25 -67 55 l-55 56 -5 -53 c-4 -45 -8 -53 -25 -53 -19 0 -20 8 -23 115 -4 165
-6 160 79 160 65 0 73 -2 100 -29z m239 -102 c26 -69 44 -131 42 -137 -8 -26
-41 -12 -52 23 -11 34 -13 35 -65 35 -52 0 -54 -1 -65 -35 -8 -24 -18 -35 -31
-35 -25 0 -24 12 5 96 60 175 66 185 94 182 24 -3 31 -14 72 -129z m191 33
c36 -51 69 -95 71 -98 3 -3 4 35 1 83 -4 92 4 120 31 110 14 -6 16 -24 14
-139 -3 -124 -4 -133 -23 -135 -15 -2 -37 22 -90 96 l-70 99 -3 -99 c-2 -91
-4 -99 -22 -99 -19 0 -20 7 -20 133 0 74 3 137 7 141 17 16 41 -5 104 -92z
m324 84 c97 -41 100 -202 5 -251 -21 -11 -51 -15 -93 -13 l-62 3 -3 124 c-1
69 0 131 2 138 7 18 107 17 151 -1z m290 -6 c0 -11 -15 -16 -62 -18 l-63 -3 0
-39 0 -40 50 0 c43 0 50 -3 50 -20 0 -17 -7 -20 -50 -20 l-50 0 0 -40 0 -39
63 -3 c47 -2 62 -7 62 -18 0 -12 -16 -15 -85 -15 l-85 0 -3 124 c-1 69 0 131
3 138 7 21 170 14 170 -7z m180 -5 c28 -27 32 -50 10 -59 -9 -3 -21 4 -31 20
-13 19 -24 24 -48 22 -26 -2 -31 -7 -31 -28 0 -20 10 -30 54 -51 84 -40 104
-87 56 -134 -19 -20 -34 -25 -72 -25 -51 1 -73 12 -92 48 -23 44 15 59 43 17
28 -43 107 -26 90 19 -4 10 -30 28 -60 41 -54 24 -74 47 -74 86 0 65 105 95
155 44z m-4570 -375 c8 -13 -24 -60 -41 -60 -18 0 -18 20 2 48 16 24 29 28 39
12z m-818 -195 l38 -116 38 116 c31 93 42 115 58 115 27 0 24 -19 -25 -155
-42 -115 -44 -120 -72 -120 -28 0 -31 5 -71 115 -48 131 -52 160 -24 160 16 0
27 -21 58 -115z m380 95 c87 -52 83 -198 -6 -245 -98 -50 -211 16 -211 123 0
85 56 142 140 142 27 0 58 -8 77 -20z m147 4 c3 -9 6 -62 6 -119 l0 -104 58
-3 c43 -2 57 -7 57 -18 0 -12 -16 -15 -80 -15 l-80 0 -3 124 c-1 69 0 131 2
138 7 18 33 16 40 -3z m178 -83 c3 -111 18 -141 69 -141 54 0 68 29 71 155 3
67 6 80 21 83 15 3 17 -7 17 -108 0 -110 0 -112 -29 -141 -25 -25 -37 -29 -81
-29 -44 0 -56 4 -81 29 -29 29 -29 31 -29 140 0 103 1 111 19 111 17 0 19 -9
23 -99z m299 52 c70 -104 60 -102 113 -23 31 47 53 70 66 70 27 0 31 -25 28
-160 -3 -107 -4 -115 -23 -115 -18 0 -20 8 -25 94 l-5 94 -39 -57 c-21 -31
-44 -56 -51 -56 -7 0 -31 28 -54 63 l-41 62 0 -102 c0 -94 -2 -103 -19 -103
-27 0 -31 18 -31 136 0 154 23 182 81 97z m427 25 c3 -16 -5 -18 -62 -18 l-66
0 0 -39 0 -40 53 -3 c38 -2 52 -7 52 -18 0 -11 -14 -16 -52 -18 l-53 -3 0 -40
0 -39 66 0 c57 0 65 -2 62 -17 -3 -15 -16 -18 -82 -21 -57 -2 -82 1 -87 10
-10 15 -12 229 -3 253 10 24 167 18 172 -7z m149 -75 l68 -98 5 95 c5 87 7 95
25 95 19 0 20 -7 20 -135 0 -129 -1 -135 -21 -138 -16 -2 -36 19 -90 95 l-69
98 -5 -95 c-5 -87 -7 -95 -25 -95 -19 0 -20 8 -23 115 -1 63 0 125 3 138 11
46 42 25 112 -75z m343 77 c0 -16 -8 -19 -62 -22 l-63 -3 0 -35 c0 -35 0 -35
50 -40 36 -4 50 -9 50 -20 0 -11 -14 -16 -53 -18 l-53 -3 3 -37 3 -37 63 -3
c54 -3 62 -6 62 -22 0 -18 -7 -20 -85 -20 l-85 0 0 133 c0 74 3 137 7 140 3 4
42 7 85 7 71 0 78 -2 78 -20z m178 0 c24 -22 29 -55 10 -66 -6 -4 -19 4 -30
19 -21 29 -58 36 -77 13 -17 -21 -4 -42 41 -62 65 -29 88 -52 88 -87 0 -49
-34 -77 -92 -77 -39 0 -54 5 -74 25 -27 27 -29 58 -3 63 9 1 21 -8 27 -23 10
-22 17 -26 50 -23 32 3 37 6 37 28 0 19 -12 31 -55 55 -80 45 -98 95 -48 138
29 24 98 23 126 -3z m112 -225 c15 -18 5 -35 -21 -35 -12 0 -19 7 -19 18 0 33
20 42 40 17z m-2810 -1272 l0 -418 -40 -32 c-21 -18 -41 -33 -44 -33 -3 0 -6
18 -6 39 0 69 -3 71 -96 71 l-84 0 0 -515 0 -515 95 0 95 0 0 313 c0 178 5
331 11 357 5 25 22 65 37 90 l27 45 3 -162 2 -163 200 0 200 0 0 -240 0 -240
100 0 100 0 0 240 0 240 102 0 101 0 -21 -22 c-56 -61 -79 -185 -50 -280 16
-56 79 -122 146 -155 53 -26 65 -28 182 -28 110 0 131 3 177 24 29 13 72 45
97 71 25 26 47 45 50 42 3 -3 6 -20 6 -37 0 -18 3 -47 6 -64 l7 -31 88 0 89 0
0 240 0 240 85 0 85 0 0 -240 0 -240 100 0 100 0 0 240 0 240 110 0 110 0 0
-240 0 -240 95 0 95 0 0 240 0 240 200 0 c198 0 201 0 328 -35 162 -45 174
-50 208 -86 53 -55 32 -133 -47 -174 -41 -22 -121 -28 -180 -16 -72 16 -124
52 -150 104 -12 23 -23 44 -25 46 -2 2 -39 -9 -84 -25 -53 -19 -80 -34 -80
-44 1 -31 43 -107 83 -148 83 -86 183 -117 354 -110 95 4 117 8 174 35 85 39
132 82 165 149 45 91 32 217 -28 281 l-21 23 121 0 122 0 0 -240 0 -240 95 0
95 0 0 240 0 240 200 0 c199 0 201 0 328 -36 70 -20 141 -42 157 -49 104 -44
106 -157 4 -210 -41 -22 -121 -28 -180 -16 -72 16 -124 52 -150 104 -12 23
-23 44 -25 46 -2 2 -39 -9 -84 -25 -91 -33 -94 -38 -56 -112 34 -67 91 -120
166 -156 64 -30 68 -31 210 -31 141 0 147 1 210 31 86 41 133 83 166 150 45
91 32 217 -28 281 l-21 23 381 0 c218 0 382 -4 382 -9 0 -5 -9 -39 -20 -75
-123 -397 -469 -697 -878 -761 -79 -12 -42 -13 433 -14 402 -1 542 -4 617 -16
311 -47 582 -220 754 -481 287 -436 229 -1012 -139 -1378 -180 -179 -397 -285
-647 -315 -71 -9 -968 -11 -3480 -9 l-3385 3 -100 28 c-120 33 -295 117 -386
186 -82 62 -193 179 -248 260 -64 93 -128 235 -158 346 -24 90 -27 117 -27
275 0 158 3 185 27 275 49 181 141 346 270 482 175 185 387 292 672 339 38 7
36 8 -41 19 -231 35 -442 142 -610 309 -181 182 -287 404 -316 667 -15 132 -1
281 37 414 103 355 383 639 734 745 147 45 200 48 889 49 l652 1 0 -417z
m8383 -334 c12 -6 32 -22 43 -36 20 -24 22 -24 28 -6 9 28 59 53 106 53 33 0
48 -6 71 -30 26 -26 30 -36 29 -82 0 -29 2 -72 6 -95 5 -38 8 -41 25 -32 32
16 61 -6 57 -44 -2 -25 -8 -33 -26 -35 -29 -4 -52 14 -52 42 -1 19 -2 19 -11
3 -15 -25 -63 -47 -104 -47 -41 0 -89 22 -105 47 -10 17 -10 17 -20 0 -27 -44
-115 -60 -170 -32 -43 22 -60 63 -60 145 0 81 16 122 58 144 32 18 95 20 125
5z m-7003 -642 c0 -119 -74 -228 -175 -258 -74 -21 -172 -18 -215 6 -101 59
-82 197 33 239 32 12 239 45 345 55 8 1 12 -14 12 -42z"/>
<path d="M35339 17638 c-74 -42 -101 -143 -56 -208 12 -18 35 -43 50 -54 28
-21 30 -21 977 -21 947 0 949 0 977 21 15 11 38 36 51 54 44 66 17 167 -58
209 -38 21 -39 21 -971 21 -932 0 -934 -1 -970 -22z m1698 -39 c7 -6 13 -18
13 -25 0 -17 -22 -18 -37 -3 -6 6 -23 9 -39 7 -49 -5 -37 -36 26 -66 48 -23
55 -31 58 -59 4 -44 -26 -73 -76 -73 -53 0 -106 49 -68 63 8 3 22 -3 32 -14
21 -23 47 -25 65 -3 19 23 1 45 -50 62 -51 17 -70 49 -53 87 7 14 22 30 34 35
26 11 75 5 95 -11z m-1586 -78 l37 -85 30 67 c17 36 33 75 37 87 4 13 15 20
31 20 l24 0 0 -115 c0 -108 -1 -115 -20 -115 -18 0 -20 7 -21 73 l-1 72 -34
-72 c-18 -40 -39 -73 -47 -73 -7 0 -27 33 -44 73 l-32 72 -1 -72 c0 -66 -2
-73 -20 -73 -19 0 -20 7 -20 116 0 113 0 115 22 112 16 -2 30 -23 59 -87z
m339 74 c0 -12 -13 -15 -55 -15 -54 0 -55 0 -55 -30 0 -28 2 -30 40 -30 33 0
40 -3 40 -20 0 -17 -7 -20 -40 -20 -39 0 -40 -1 -40 -35 l0 -35 55 0 c42 0 55
-3 55 -15 0 -12 -15 -15 -75 -15 l-75 0 0 115 0 115 75 0 c60 0 75 -3 75 -15z
m140 -100 c0 -108 -1 -115 -20 -115 -19 0 -20 7 -20 115 0 108 1 115 20 115
19 0 20 -7 20 -115z m118 40 c26 -41 50 -75 55 -75 4 0 7 34 7 75 0 60 3 75
15 75 12 0 15 -19 15 -115 0 -147 -12 -151 -87 -32 l-52 82 -1 -82 c0 -76 -2
-83 -20 -83 -19 0 -20 7 -20 115 0 109 1 115 20 115 15 0 34 -21 68 -75z m292
60 c0 -10 -11 -15 -35 -15 l-35 0 0 -100 c0 -93 -1 -100 -20 -100 -19 0 -20 7
-20 100 l0 100 -35 0 c-24 0 -35 5 -35 15 0 12 17 15 90 15 73 0 90 -3 90 -15z
m178 3 c-3 -8 -27 -14 -61 -16 -55 -3 -57 -4 -57 -32 0 -27 3 -29 43 -32 29
-2 42 -8 42 -18 0 -10 -13 -16 -42 -18 -42 -3 -43 -4 -43 -38 l0 -34 61 0 c44
0 60 -3 57 -12 -3 -9 -31 -14 -81 -16 l-77 -3 0 116 0 115 81 0 c60 0 80 -3
77 -12z m172 -15 c25 -32 20 -68 -11 -95 -20 -17 -20 -17 6 -57 30 -49 30 -51
5 -51 -12 0 -29 16 -46 45 -16 28 -33 45 -45 45 -16 0 -19 -7 -19 -45 0 -38
-3 -45 -20 -45 -19 0 -20 7 -20 115 l0 115 64 0 c58 0 67 -3 86 -27z m198 15
c-3 -8 -27 -14 -61 -16 -55 -3 -57 -4 -57 -32 0 -27 3 -29 43 -32 29 -2 42 -8
42 -18 0 -10 -13 -16 -42 -18 -42 -3 -43 -4 -43 -38 l0 -34 61 0 c44 0 60 -3
57 -12 -3 -9 -31 -14 -81 -16 l-77 -3 0 116 0 115 81 0 c60 0 80 -3 77 -12z
m354 -97 c21 -57 38 -108 38 -113 0 -4 -9 -8 -19 -8 -13 0 -21 9 -26 30 -6 29
-8 30 -65 30 -57 0 -59 -1 -65 -30 -5 -21 -13 -30 -26 -30 -24 0 -24 -4 10 93
52 146 47 139 83 135 30 -3 33 -7 70 -107z"/>
<path d="M36580 17545 c0 -34 1 -35 39 -35 31 0 41 4 46 20 9 30 -12 50 -51
50 -32 0 -34 -2 -34 -35z"/>
<path d="M37151 17539 c-7 -23 -15 -47 -18 -55 -4 -11 5 -14 37 -14 32 0 41 3
37 14 -3 8 -11 32 -18 55 -7 23 -15 41 -19 41 -4 0 -12 -18 -19 -41z"/>
<path d="M29180 16490 l0 -50 45 0 c43 0 65 16 65 49 0 24 -41 51 -75 51 l-35
0 0 -50z"/>
<path d="M29420 16494 l0 -45 48 3 c44 3 47 5 50 33 4 36 -18 55 -65 55 -33 0
-33 -1 -33 -46z"/>
<path d="M29688 16525 c-59 -32 -58 -139 2 -170 44 -23 78 -19 111 14 81 82
-12 211 -113 156z"/>
<path d="M30667 16478 c-9 -30 -17 -58 -17 -61 0 -4 16 -7 35 -7 40 0 41 4 16
73 l-17 49 -17 -54z"/>
<path d="M32009 16511 c-23 -23 -29 -38 -29 -71 0 -105 131 -137 175 -43 21
44 12 85 -27 118 -40 34 -82 33 -119 -4z"/>
<path d="M32375 16528 c-3 -8 -5 -53 -3 -99 l3 -84 44 1 c121 3 124 175 4 191
-32 4 -44 2 -48 -9z"/>
<path d="M33230 16495 l0 -45 44 0 c50 0 71 18 62 54 -6 24 -30 36 -78 36 -26
0 -28 -3 -28 -45z"/>
<path d="M33507 16478 c-9 -30 -17 -58 -17 -61 0 -4 16 -7 35 -7 40 0 41 4 16
73 l-17 49 -17 -54z"/>
<path d="M34010 16440 l0 -100 30 0 c37 0 85 23 94 45 9 25 7 94 -4 115 -10
20 -59 40 -96 40 -24 0 -24 -2 -24 -100z"/>
<path d="M29439 16031 c-23 -23 -29 -38 -29 -71 0 -33 6 -48 29 -71 39 -38 80
-39 122 -1 26 24 32 36 32 72 0 36 -6 48 -32 72 -42 38 -83 37 -122 -1z"/>
<path d="M27140 13914 c-140 -389 -256 -713 -258 -720 -3 -11 18 -14 101 -14
l104 0 64 180 64 180 356 0 357 0 41 -117 c23 -64 52 -145 64 -180 l22 -63
102 0 c57 0 103 4 103 9 0 5 -115 327 -255 716 -140 390 -255 710 -255 712 0
2 -80 3 -178 3 l-178 0 -254 -706z m596 171 c68 -192 124 -353 124 -357 0 -5
-131 -8 -291 -8 -160 0 -289 4 -287 9 2 4 59 166 128 360 l125 352 38 -3 39
-3 124 -350z"/>
<path d="M27680 12304 l0 -297 -44 41 c-90 83 -197 118 -335 109 -193 -11
-328 -114 -398 -303 -34 -92 -43 -275 -19 -377 42 -178 156 -308 310 -352 44
-13 85 -16 165 -13 93 3 113 8 165 33 33 17 80 49 107 72 52 47 59 44 59 -27
0 -68 3 -70 96 -70 l84 0 0 740 0 740 -95 0 -95 0 0 -296z m-184 -348 c135
-63 203 -216 176 -392 -28 -177 -136 -278 -297 -278 -124 0 -209 55 -262 168
-26 56 -28 70 -28 181 0 108 3 125 26 175 52 111 143 170 264 170 53 0 83 -6
121 -24z"/>
<path d="M29608 12554 c-5 -4 -8 -328 -8 -721 l0 -713 294 0 c386 0 493 18
647 110 175 104 284 281 310 505 40 348 -125 649 -420 765 -117 46 -171 52
-501 57 -173 3 -318 1 -322 -3z m660 -189 c182 -43 309 -166 358 -346 23 -86
28 -223 11 -316 -38 -205 -155 -335 -352 -389 -42 -11 -122 -18 -267 -21
l-208 -6 0 547 0 546 198 0 c139 0 216 -5 260 -15z"/>
<path d="M32030 12290 l0 -140 -75 0 -75 0 0 -90 0 -90 74 0 75 0 3 -317 c3
-311 4 -319 27 -365 33 -68 93 -123 158 -148 45 -17 74 -20 157 -18 l101 3 3
83 3 82 -73 0 c-87 0 -133 20 -163 71 -19 32 -20 55 -23 322 l-3 287 130 0
131 0 0 90 0 90 -130 0 -130 0 0 140 0 140 -95 0 -95 0 0 -140z"/>
<path d="M28361 12145 c-124 -35 -232 -124 -293 -242 -47 -91 -63 -159 -62
-273 1 -153 48 -278 142 -374 100 -104 204 -146 361 -146 109 0 175 16 264 63
86 45 211 189 175 202 -7 2 -44 16 -83 30 l-70 26 -15 -23 c-40 -61 -103 -99
-194 -118 -153 -32 -305 46 -350 178 -9 25 -16 56 -16 69 l0 23 381 0 381 0
-4 123 c-4 95 -9 134 -27 179 -49 125 -150 224 -276 269 -79 29 -237 35 -314
14z m266 -196 c84 -40 141 -119 143 -196 l0 -23 -275 0 c-170 0 -275 4 -275
10 0 38 46 123 88 163 58 53 80 66 135 76 61 12 114 3 184 -30z"/>
<path d="M31253 12145 c-119 -32 -217 -110 -264 -209 -16 -33 -27 -61 -26 -62
4 -4 172 -63 172 -61 0 1 12 25 26 52 46 89 156 134 279 114 97 -15 150 -75
150 -170 0 -68 21 -59 -205 -84 -217 -24 -307 -57 -384 -140 -57 -62 -74 -105
-74 -190 0 -88 24 -146 83 -199 75 -68 117 -81 260 -81 110 0 131 3 177 24 29
13 72 44 97 71 40 43 45 46 50 26 3 -11 6 -35 6 -53 0 -61 4 -63 102 -63 l89
0 -3 388 c-3 374 -4 389 -26 443 -26 66 -93 138 -154 167 -92 43 -251 55 -355
27z m334 -619 c-15 -160 -113 -248 -277 -250 -88 -1 -124 13 -158 64 -48 71
-10 161 82 195 32 12 253 46 345 54 11 1 13 -12 8 -63z"/>
<path d="M32910 12144 c-194 -51 -325 -192 -365 -393 -59 -290 90 -558 349
-627 68 -18 228 -18 299 1 166 43 295 167 348 334 29 93 29 259 0 352 -68 216
-261 350 -501 348 -41 0 -100 -7 -130 -15z m243 -180 c142 -48 227 -221 198
-403 -19 -120 -79 -203 -180 -250 -73 -33 -183 -35 -252 -4 -125 56 -190 193
-175 370 12 145 83 248 201 291 45 16 156 14 208 -4z"/>
<path d="M33913 12145 c-166 -46 -253 -146 -253 -287 0 -82 20 -128 80 -182
52 -47 96 -66 262 -112 200 -55 238 -80 238 -158 0 -31 -7 -45 -35 -72 -70
-66 -236 -69 -314 -6 -30 24 -44 44 -78 110 -4 9 -173 -53 -173 -63 0 -31 66
-138 107 -174 78 -69 135 -86 298 -86 166 0 222 17 305 92 75 67 95 111 95
208 0 69 -4 86 -27 126 -54 91 -149 140 -415 209 -102 27 -133 53 -133 110 0
23 5 50 11 62 17 32 86 58 159 58 93 0 139 -16 183 -62 l38 -39 79 26 c44 15
80 32 80 39 0 23 -66 106 -109 137 -69 51 -134 71 -246 75 -68 3 -117 -1 -152
-11z"/>
<path d="M36890 14161 c-5 -11 -10 -38 -10 -61 0 -54 15 -80 45 -80 30 0 45
26 45 80 0 54 -15 80 -45 80 -14 0 -29 -8 -35 -19z"/>
<path d="M37116 14155 c-13 -20 -24 -26 -42 -22 -22 4 -24 1 -24 -29 0 -29 3
-34 25 -34 15 0 31 -10 41 -26 12 -18 24 -24 43 -22 37 4 32 28 -9 42 -30 9
-35 16 -35 41 0 25 5 31 30 35 35 6 41 33 9 38 -14 2 -27 -6 -38 -23z"/>
<path d="M16334 16567 c-2 -7 -3 -69 -2 -138 l3 -124 83 -3 c77 -3 82 -2 82
18 0 18 -6 20 -60 20 l-60 0 0 39 0 40 48 3 c34 2 47 7 47 18 0 11 -13 16 -47
18 l-48 3 0 40 0 39 60 0 c53 0 60 2 60 20 0 18 -7 20 -80 20 -57 0 -82 -4
-86 -13z"/>
<path d="M16550 16560 c-25 -25 -27 -81 -2 -102 9 -9 37 -26 62 -38 53 -27 62
-38 49 -62 -15 -28 -64 -23 -87 9 -13 17 -25 24 -36 20 -23 -9 -20 -34 9 -62
19 -20 34 -25 73 -25 60 0 92 25 92 74 0 37 -15 54 -80 86 -53 27 -62 38 -49
62 14 26 52 22 78 -8 18 -20 25 -23 36 -14 13 10 12 16 0 40 -17 32 -33 40
-86 40 -26 0 -46 -7 -59 -20z"/>
<path d="M16803 16560 c-41 -25 -63 -68 -63 -122 0 -55 17 -87 59 -115 54 -36
161 -28 161 13 0 12 -9 13 -48 8 -92 -12 -149 49 -122 131 16 48 58 69 122 61
39 -5 48 -4 48 8 0 39 -103 49 -157 16z"/>
<path d="M16996 16565 c-10 -26 -7 -146 4 -187 14 -51 52 -78 107 -78 90 0
113 36 113 175 0 78 -3 97 -16 102 -26 10 -34 -16 -34 -113 0 -100 -12 -124
-61 -124 -53 0 -64 19 -69 132 -4 84 -8 103 -21 106 -9 2 -19 -4 -23 -13z"/>
<path d="M17321 16562 c-40 -22 -71 -73 -71 -120 0 -84 57 -142 142 -142 59 0
78 7 78 30 0 16 -6 18 -54 13 -51 -5 -57 -4 -85 25 -44 43 -44 101 0 144 28
29 33 30 85 24 49 -6 54 -4 54 13 0 35 -94 43 -149 13z"/>
<path d="M17515 16568 c-3 -8 -4 -70 -3 -139 3 -116 4 -124 23 -124 17 0 20 8
23 58 l3 57 64 0 64 0 3 -57 c3 -50 6 -58 23 -58 19 0 20 7 20 135 0 128 -1
135 -20 135 -17 0 -20 -8 -23 -57 l-3 -58 -64 0 -64 0 -3 57 c-2 46 -7 59 -21
61 -9 2 -19 -3 -22 -10z"/>
<path d="M17863 16568 c-5 -7 -29 -66 -52 -132 -29 -80 -40 -121 -33 -128 17
-17 40 -2 47 31 6 30 8 31 61 31 52 0 54 -1 68 -35 14 -33 38 -46 51 -26 3 5
-16 67 -42 138 -39 103 -52 129 -69 131 -11 2 -25 -3 -31 -10z m45 -98 l21
-60 -41 0 c-34 0 -39 3 -33 18 3 9 11 36 18 60 6 23 12 42 13 42 1 0 11 -27
22 -60z"/>
<path d="M18191 16561 c-22 -40 -90 -244 -85 -252 12 -19 35 -7 48 26 14 34
17 35 66 35 49 0 52 -1 66 -35 14 -34 36 -45 49 -25 6 10 -70 235 -88 258 -14
18 -45 15 -56 -7z m51 -93 l15 -53 -35 -3 c-19 -2 -36 -2 -38 0 -5 6 29 108
37 108 3 0 13 -24 21 -52z"/>
<path d="M18413 16564 c-48 -24 -67 -60 -67 -124 0 -62 21 -103 65 -126 38
-19 123 -18 143 2 25 25 10 33 -49 27 -50 -5 -56 -4 -84 25 -44 43 -44 101 0
144 28 29 33 30 84 24 30 -3 56 -2 59 2 21 35 -95 55 -151 26z"/>
<path d="M18585 16570 c-11 -18 5 -30 40 -30 l34 0 3 -117 c3 -110 4 -118 23
-118 19 0 20 8 23 118 l3 117 34 0 c28 0 35 4 35 20 0 19 -7 20 -94 20 -53 0
-98 -4 -101 -10z"/>
<path d="M18815 16568 c-3 -8 -4 -70 -3 -139 3 -116 4 -124 23 -124 19 0 20 7
20 135 0 120 -2 135 -18 138 -9 2 -19 -3 -22 -10z"/>
<path d="M18901 16558 c0 -13 19 -75 42 -138 38 -104 45 -115 69 -118 24 -3
28 2 48 55 70 185 78 223 46 223 -10 0 -27 -36 -51 -112 -20 -62 -38 -114 -39
-116 -2 -1 -20 50 -40 113 -30 95 -40 115 -56 115 -14 0 -20 -7 -19 -22z"/>
<path d="M19180 16523 c-38 -98 -70 -196 -70 -210 0 -7 9 -13 19 -13 13 0 23
11 31 35 11 34 13 35 65 35 52 0 54 -1 65 -35 8 -24 18 -35 31 -35 28 0 24 29
-25 160 -38 103 -45 115 -68 118 -23 3 -28 -3 -48 -55z m79 -100 c1 -8 -12
-13 -34 -13 -19 0 -35 3 -35 7 0 3 8 31 17 61 l17 54 17 -49 c10 -26 18 -54
18 -60z"/>
<path d="M19460 16561 c-11 -21 -14 -201 -3 -240 6 -22 9 -23 79 -19 64 3 77
7 103 32 56 54 64 134 20 190 -31 39 -71 56 -133 56 -44 0 -57 -4 -66 -19z
m157 -56 c15 -17 23 -39 23 -65 0 -56 -33 -90 -93 -97 l-47 -6 0 103 0 103 47
-6 c35 -4 53 -12 70 -32z"/>
<path d="M19737 16574 c-4 -4 -7 -68 -7 -141 l0 -134 82 3 c70 3 83 6 86 21 3
15 -5 17 -62 17 l-66 0 0 39 0 40 53 3 c38 2 52 7 52 18 0 11 -14 16 -52 18
l-53 3 0 40 0 39 66 0 c57 0 65 2 62 18 -3 14 -16 17 -79 20 -41 1 -78 0 -82
-4z"/>
<path d="M19995 16570 c-11 -18 5 -30 40 -30 l34 0 3 -117 c3 -110 4 -118 23
-118 19 0 20 8 23 118 l3 117 34 0 c28 0 35 4 35 20 0 19 -7 20 -94 20 -53 0
-98 -4 -101 -10z"/>
<path d="M20225 16567 c-3 -7 -4 -69 -3 -138 l3 -124 85 0 c69 0 85 3 85 15 0
11 -15 16 -62 18 l-63 3 0 39 0 40 50 0 c43 0 50 3 50 20 0 17 -7 20 -50 20
l-50 0 0 40 0 39 63 3 c47 2 62 7 62 18 0 21 -163 28 -170 7z"/>
<path d="M20434 16567 c-2 -7 -3 -69 -2 -138 3 -116 4 -124 23 -124 18 0 20 8
25 93 l5 93 68 -95 c46 -66 74 -96 87 -96 19 0 20 8 20 141 0 128 -2 140 -17
137 -15 -3 -19 -18 -23 -101 l-5 -97 -70 100 c-67 96 -98 121 -111 87z"/>
<path d="M20715 16558 c-3 -13 -4 -75 -3 -138 l3 -115 65 -3 c106 -4 162 44
162 138 0 91 -55 140 -159 140 -57 0 -63 -2 -68 -22z m159 -47 c16 -16 21 -34
21 -71 0 -63 -24 -90 -89 -97 l-46 -6 0 103 0 103 46 -6 c29 -3 54 -13 68 -26z"/>
<path d="M20986 16565 c-9 -24 -7 -238 3 -253 12 -20 166 -12 166 8 0 11 -15
16 -62 18 l-63 3 0 39 0 39 53 3 c38 2 52 7 52 18 0 11 -14 16 -52 18 l-53 3
0 40 0 39 66 0 c57 0 65 2 62 18 -5 25 -162 31 -172 7z"/>
<path d="M21195 16558 c-3 -13 -4 -75 -3 -138 3 -107 4 -115 23 -115 18 0 20
8 25 94 l5 94 69 -97 c103 -142 119 -133 114 64 -3 107 -4 115 -23 115 -18 0
-20 -8 -23 -99 l-3 -99 -71 101 c-73 105 -102 125 -113 80z"/>
<path d="M21531 16563 c-36 -18 -71 -78 -71 -123 0 -42 36 -107 69 -124 37
-20 121 -21 146 -3 31 23 9 36 -50 30 -50 -5 -56 -4 -84 25 -43 43 -44 101 -1
144 28 27 35 29 87 26 62 -3 84 15 38 32 -39 15 -95 12 -134 -7z"/>
<path d="M21725 16568 c-3 -8 -4 -70 -3 -139 3 -116 4 -124 23 -124 19 0 20 7
20 135 0 120 -2 135 -18 138 -9 2 -19 -3 -22 -10z"/>
<path d="M21895 16570 c-17 -27 -94 -254 -89 -261 12 -20 36 -7 50 26 14 33
17 35 65 35 48 0 51 -2 65 -35 14 -34 36 -45 49 -25 7 11 -70 235 -87 258 -13
15 -44 16 -53 2z m44 -91 c7 -23 15 -47 18 -55 4 -11 -5 -14 -35 -14 l-39 0
15 55 c8 30 18 55 22 55 4 0 12 -18 19 -41z"/>
<path d="M22092 16563 c-53 -45 -34 -94 53 -141 39 -21 50 -32 50 -52 0 -22
-5 -25 -37 -28 -33 -3 -40 1 -50 23 -6 15 -18 24 -27 23 -26 -5 -24 -36 3 -63
54 -54 166 -21 166 49 0 39 -18 57 -81 84 -53 23 -63 34 -54 62 10 30 59 27
83 -7 20 -28 42 -25 42 7 0 50 -105 80 -148 43z"/>
<path d="M16314 16086 c-3 -8 13 -43 35 -79 33 -52 41 -73 41 -113 0 -57 11
-79 34 -71 12 5 16 20 16 59 0 46 7 63 45 122 46 71 50 89 23 94 -10 2 -29
-19 -53 -58 l-38 -62 -34 61 c-33 59 -58 76 -69 47z"/>
<path d="M16647 16093 c-4 -3 -7 -66 -7 -140 0 -126 1 -133 20 -133 19 0 20 7
20 102 l0 102 43 -62 c23 -34 48 -62 54 -62 7 0 30 26 50 57 l38 56 5 -94 c5
-86 7 -94 25 -94 19 0 20 8 23 115 1 63 0 125 -3 138 -10 41 -40 25 -89 -49
l-47 -71 -50 71 c-47 66 -66 81 -82 64z"/>
<path d="M16975 16087 c-3 -7 -4 -69 -3 -138 l3 -124 80 0 c68 0 80 3 83 18 3
15 -5 17 -62 17 l-66 0 0 39 0 40 53 3 c38 2 52 7 52 18 0 11 -14 16 -52 18
l-53 3 0 40 0 39 66 0 c57 0 65 2 62 18 -3 14 -16 17 -81 20 -58 2 -79 -1 -82
-11z"/>
<path d="M17180 16081 c-12 -24 -13 -230 -1 -250 5 -8 16 -11 25 -8 13 5 16
24 16 103 l0 98 71 -100 c52 -74 76 -99 92 -99 22 0 22 3 22 135 0 128 -1 135
-20 135 -18 0 -20 -8 -25 -94 l-5 -94 -68 97 c-38 53 -75 96 -82 96 -8 0 -19
-9 -25 -19z"/>
<path d="M17513 16080 c-53 -32 -69 -70 -65 -153 1 -16 16 -43 36 -64 30 -33
39 -37 92 -41 41 -2 65 1 78 11 31 23 11 36 -47 30 -47 -5 -57 -2 -83 20 -25
22 -29 32 -29 76 0 72 26 96 105 96 66 0 84 10 56 31 -29 20 -105 18 -143 -6z"/>
<path d="M17710 15961 c0 -135 1 -141 20 -141 20 0 20 5 18 137 -3 122 -5 138
-20 141 -16 3 -18 -9 -18 -137z"/>
<path d="M17852 16080 c-85 -52 -81 -199 7 -245 66 -34 155 -11 191 48 24 39
26 107 5 148 -35 66 -135 90 -203 49z m136 -45 c39 -33 48 -74 27 -118 -28
-60 -93 -74 -144 -31 -26 22 -31 33 -31 71 0 36 6 50 29 74 37 37 79 38 119 4z"/>
<path d="M18115 16088 c-3 -8 -4 -70 -3 -138 3 -109 5 -125 20 -128 15 -3 18
9 20 97 l3 101 70 -97 c48 -68 77 -98 90 -98 19 0 20 7 20 135 0 119 -2 135
-17 138 -15 3 -18 -9 -20 -98 l-3 -102 -71 98 c-67 95 -98 121 -109 92z"/>
<path d="M18395 16087 c-3 -7 -4 -69 -3 -138 l3 -124 85 0 c69 0 85 3 85 15 0
11 -15 16 -62 18 l-63 3 0 39 0 39 47 3 c36 2 49 7 51 21 3 14 -4 17 -47 17
l-51 0 0 40 0 39 63 3 c47 2 62 7 62 18 0 21 -163 28 -170 7z"/>
<path d="M18612 16077 c-44 -47 -24 -99 52 -132 30 -13 56 -31 60 -41 17 -45
-62 -62 -90 -19 -28 42 -66 27 -43 -17 19 -36 40 -47 87 -48 53 0 80 13 93 47
16 43 -5 76 -69 109 -46 24 -57 34 -57 54 0 21 5 26 31 28 24 2 35 -3 48 -23
14 -21 20 -24 32 -14 20 16 18 26 -11 54 -33 34 -102 35 -133 2z"/>
<path d="M18943 16080 c-87 -52 -83 -198 6 -245 71 -36 169 -6 197 60 29 70 8
150 -48 185 -43 26 -113 26 -155 0z m138 -49 c23 -24 29 -38 29 -74 0 -38 -5
-49 -31 -71 -51 -43 -116 -29 -144 31 -21 44 -12 85 27 118 40 34 82 33 119
-4z"/>
<path d="M19207 16093 c-4 -3 -7 -66 -7 -140 0 -126 1 -133 20 -133 18 0 20 8
22 99 l3 100 70 -100 c53 -75 75 -99 90 -97 19 3 20 12 23 136 2 115 0 133
-14 139 -27 10 -35 -18 -32 -110 2 -48 2 -87 1 -87 0 0 -33 45 -73 100 -66 93
-86 111 -103 93z"/>
<path d="M19484 16087 c-2 -7 -3 -69 -2 -138 l3 -124 80 0 c64 0 80 3 80 15 0
11 -14 16 -57 18 l-58 3 0 104 c0 57 -3 110 -6 119 -7 19 -33 21 -40 3z"/>
<path d="M19687 16093 c-4 -3 -7 -66 -7 -140 0 -126 1 -133 20 -133 19 0 20 7
20 140 0 110 -3 140 -13 140 -8 0 -17 -3 -20 -7z"/>
<path d="M19775 16078 c-3 -13 -4 -75 -3 -138 3 -107 4 -115 23 -115 18 0 20
8 25 95 l5 95 69 -97 c103 -145 119 -136 114 62 -3 107 -4 115 -23 115 -18 0
-20 -8 -23 -98 l-3 -99 -71 101 c-73 104 -102 124 -113 79z"/>
<path d="M20067 16094 c-4 -4 -7 -68 -7 -141 l0 -134 82 3 c70 3 83 6 86 21 3
15 -5 17 -62 17 l-66 0 0 39 0 40 53 3 c38 2 52 7 52 18 0 11 -14 16 -52 18
l-53 3 0 40 0 39 66 0 c57 0 65 2 62 18 -3 14 -16 17 -79 20 -41 1 -78 0 -82
-4z"/>
<path d="M20271 15856 c-16 -19 -6 -36 20 -36 15 0 20 6 17 22 -4 27 -21 33
-37 14z"/>
<path d="M24075 9381 c-201 -57 -368 -228 -419 -427 -9 -34 -16 -101 -16 -149
0 -166 57 -302 175 -420 118 -118 254 -175 420 -175 166 0 302 57 420 175 118
118 175 254 175 420 0 48 -7 115 -16 149 -52 203 -227 378 -430 430 -82 21
-231 20 -309 -3z m236 -270 c20 -20 29 -40 29 -61 0 -107 -119 -147 -178 -60
-30 44 -24 84 18 123 42 38 92 37 131 -2z m-246 -241 c23 -19 37 -74 26 -102
-12 -33 -57 -68 -87 -68 -79 0 -131 87 -88 149 33 47 106 57 149 21z m220 15
c73 -36 73 -135 -2 -170 -43 -21 -86 -12 -113 22 -38 48 -19 132 34 153 31 13
44 12 81 -5z m275 -32 c49 -62 -2 -153 -85 -153 -30 0 -82 46 -90 80 -3 15 2
40 12 60 33 64 118 70 163 13z m-247 -234 c15 -16 27 -41 27 -55 0 -82 -91
-132 -153 -84 -57 45 -51 130 13 163 44 22 77 15 113 -24z"/>
<path d="M15800 6041 l0 -1878 -79 -6 c-89 -6 -153 -30 -217 -82 -41 -34 -42
-34 -48 -12 -3 12 -6 37 -6 55 l0 32 -90 0 -90 0 0 -515 0 -515 95 0 95 0 0
293 c0 169 5 318 11 352 26 143 107 215 238 215 97 0 91 13 91 -196 l0 -184
75 0 75 0 0 -240 0 -240 95 0 95 0 0 240 0 240 59 0 58 0 6 -59 c18 -166 117
-312 262 -385 71 -35 125 -45 236 -46 103 0 170 15 253 57 92 47 221 191 189
211 -6 4 -44 18 -83 32 l-72 25 -31 -39 c-41 -51 -94 -83 -169 -102 -183 -47
-353 69 -375 256 l-6 50 430 0 430 0 6 -87 c14 -208 89 -325 246 -383 46 -18
73 -21 156 -18 113 3 185 30 240 86 36 38 45 39 45 8 0 -13 3 -38 6 -55 l7
-31 88 0 89 0 0 240 0 240 65 0 c64 0 65 0 65 -28 0 -89 60 -228 133 -308 99
-109 207 -154 365 -154 112 1 163 10 239 46 90 43 232 190 207 214 -10 9 -156
62 -158 58 -24 -44 -67 -82 -122 -109 -60 -30 -76 -33 -153 -33 -66 0 -97 4
-132 21 -85 38 -147 120 -164 216 l-7 37 381 0 c374 0 381 0 381 20 0 19 7 20
156 20 148 0 163 -2 287 -35 72 -20 146 -43 164 -52 48 -22 73 -59 73 -105 0
-139 -278 -173 -384 -48 -14 17 -29 42 -32 56 -3 13 -9 24 -13 24 -15 0 -155
-50 -163 -58 -13 -13 28 -100 68 -149 23 -28 60 -55 111 -80 72 -36 83 -38
187 -42 122 -4 195 8 268 45 154 78 214 259 131 393 l-32 51 133 0 134 0 4
-127 c5 -154 25 -208 97 -276 65 -61 123 -79 247 -75 l99 3 3 83 3 82 -71 0
c-91 0 -145 25 -167 78 -8 20 -18 80 -21 134 l-5 98 203 0 203 0 -21 -23 c-64
-69 -82 -208 -38 -303 53 -113 172 -170 344 -162 118 5 179 29 243 94 24 24
47 44 51 44 4 0 8 -15 8 -34 0 -18 3 -48 6 -65 l7 -31 88 0 89 0 0 240 0 240
175 0 c170 0 179 -1 303 -35 162 -45 174 -50 208 -86 53 -55 32 -133 -47 -174
-41 -22 -121 -28 -180 -16 -72 16 -124 52 -150 104 -12 23 -23 44 -25 46 -2 2
-39 -9 -84 -25 -53 -19 -80 -34 -80 -44 1 -31 43 -107 83 -148 83 -86 183
-117 354 -110 95 4 117 8 174 35 85 39 132 82 165 149 45 91 32 217 -28 281
l-21 23 1111 0 1112 0 0 2160 0 2160 -4520 0 -4520 0 0 -1879z m8673 1565 c18
-7 47 -29 64 -49 76 -86 45 -220 -61 -268 -39 -18 -84 -19 -966 -19 -878 0
-927 1 -965 19 -114 52 -141 185 -57 275 54 58 8 55 1020 56 761 0 939 -2 965
-14z m-7938 -1106 c60 -37 81 -118 48 -187 -25 -54 -66 -75 -136 -70 -49 3
-63 8 -89 34 -39 40 -50 120 -24 172 35 67 134 93 201 51z m212 -77 l68 -98 5
95 c5 87 7 95 25 95 19 0 20 -7 20 -135 0 -132 0 -135 -22 -135 -16 0 -40 25
-92 99 l-70 98 -3 -98 c-3 -85 -5 -99 -20 -102 -16 -3 -18 8 -18 131 0 186 9
190 107 50z m213 -23 l0 -120 60 0 c53 0 60 -2 60 -20 0 -18 -7 -20 -80 -20
l-80 0 0 133 c0 74 3 137 7 140 3 4 12 7 20 7 10 0 13 -27 13 -120z m200 -20
c0 -133 -1 -140 -20 -140 -19 0 -20 7 -20 140 0 133 1 140 20 140 19 0 20 -7
20 -140z m165 40 l70 -100 5 97 c4 83 8 98 23 101 15 3 17 -9 17 -137 0 -132
-1 -141 -19 -141 -13 0 -42 32 -88 96 l-68 97 -5 -94 c-5 -86 -7 -94 -25 -94
-19 0 -20 8 -23 115 -5 198 11 207 113 60z m343 78 c3 -16 -5 -18 -62 -18
l-66 0 0 -39 0 -40 53 -3 c38 -2 52 -7 52 -18 0 -11 -14 -16 -52 -18 l-53 -3
0 -39 0 -39 63 -3 c47 -2 62 -7 62 -18 0 -20 -154 -28 -166 -8 -10 15 -12 229
-3 253 10 24 167 18 172 -7z m-1147 -468 c10 -6 19 -18 19 -26 0 -13 -8 -15
-49 -9 -64 9 -105 -11 -121 -60 -27 -82 30 -143 122 -131 39 5 48 4 48 -8 0
-23 -33 -36 -87 -36 -71 0 -114 33 -133 103 -19 65 21 148 80 170 26 9 101 7
121 -3z m99 -98 c5 -111 16 -132 65 -132 49 0 60 21 65 132 5 95 7 103 25 103
18 0 20 -8 23 -94 4 -142 -20 -181 -111 -181 -92 0 -117 39 -117 180 0 90 4
103 30 98 12 -3 16 -24 20 -106z m395 88 c0 -11 -15 -16 -62 -18 l-63 -3 0
-39 0 -40 50 0 c43 0 50 -3 50 -20 0 -17 -7 -20 -50 -20 l-50 0 0 -40 0 -39
63 -3 c47 -2 62 -7 62 -18 0 -12 -16 -15 -85 -15 l-85 0 -3 124 c-1 69 0 131
3 138 7 21 170 14 170 -7z m180 -5 c47 -46 22 -85 -25 -40 -36 34 -75 32 -75
-5 0 -20 10 -30 54 -51 84 -40 104 -87 56 -134 -19 -20 -34 -25 -75 -25 -42 0
-55 5 -75 26 -29 31 -32 52 -9 61 11 4 23 -3 36 -20 22 -30 68 -37 87 -13 18
22 3 41 -50 67 -58 26 -79 51 -79 91 0 65 104 95 155 43z m240 5 c0 -10 -12
-16 -37 -18 l-37 -3 -3 -117 c-3 -109 -4 -117 -23 -117 -19 0 -20 8 -23 118
l-3 117 -33 0 c-38 0 -47 6 -39 26 8 22 198 16 198 -6z m75 -121 c0 -140 0
-140 -22 -137 -22 3 -23 7 -26 127 -1 69 0 131 2 138 3 7 15 13 26 13 19 0 20
-6 20 -141z m257 121 c82 -49 85 -177 7 -239 -20 -16 -41 -21 -84 -21 -43 0
-64 5 -84 21 -36 29 -56 70 -56 119 0 83 57 140 140 140 27 0 58 -8 77 -20z
m213 -77 l65 -91 5 88 c5 94 10 106 35 96 13 -5 15 -25 13 -138 -3 -124 -4
-133 -23 -136 -15 -2 -37 22 -90 97 l-70 100 -3 -100 c-2 -91 -4 -99 -22 -99
-19 0 -20 7 -20 133 0 74 3 137 7 141 17 17 42 -5 103 -91z m320 40 c47 -122
70 -198 66 -210 -10 -24 -36 -13 -50 22 -14 33 -17 35 -65 35 -48 0 -51 -2
-65 -35 -14 -33 -38 -46 -50 -26 -3 5 10 52 29 104 58 160 61 167 89 167 21 0
28 -9 46 -57z m281 28 c17 -18 29 -40 29 -56 0 -31 -49 -85 -76 -85 -14 0 -7
-11 25 -44 40 -41 47 -66 18 -66 -6 0 -37 26 -69 57 l-58 57 0 -58 c0 -54 -1
-57 -22 -54 -22 3 -23 7 -26 127 -1 69 0 131 2 138 4 9 27 13 76 13 66 0 74
-2 101 -29z m107 -114 l3 -138 -23 3 c-22 3 -23 7 -26 127 -3 138 0 154 25
149 16 -3 18 -19 21 -141z m259 123 c87 -52 83 -198 -6 -245 -17 -8 -53 -15
-82 -15 -46 0 -55 4 -90 39 -36 35 -39 43 -39 93 0 61 27 113 70 135 38 19
110 16 147 -7z m368 -22 c45 -48 53 -97 29 -156 -26 -62 -68 -83 -154 -80
l-65 3 -3 124 c-1 69 0 131 3 139 4 11 22 13 81 10 73 -3 77 -5 109 -40z m253
20 c3 -16 -5 -18 -62 -18 l-66 0 0 -39 0 -40 53 -3 c38 -2 52 -7 52 -18 0 -11
-14 -16 -52 -18 l-53 -3 0 -40 0 -39 65 0 c58 0 65 -2 65 -20 0 -18 -7 -20
-84 -20 -67 0 -85 3 -90 16 -8 21 -8 228 0 249 10 24 167 18 172 -7z m270 -75
c2 -85 4 -93 22 -93 11 0 20 -7 20 -15 0 -8 -9 -15 -19 -15 -14 0 -21 -8 -23
-27 -2 -20 -9 -28 -23 -28 -14 0 -21 8 -23 28 -3 26 -5 27 -69 27 -81 0 -81 1
8 129 48 69 69 91 84 89 18 -3 20 -12 23 -95z m243 68 c27 -28 29 -34 29 -113
0 -79 -2 -86 -28 -111 -22 -22 -38 -27 -76 -27 -39 0 -53 5 -77 29 -27 28 -29
34 -29 111 0 77 2 83 29 111 24 24 38 29 76 29 38 0 52 -5 76 -29z m309 14
c34 -18 55 -71 41 -106 -15 -40 -47 -62 -100 -67 l-50 -4 -3 -42 c-2 -34 -7
-42 -25 -44 -23 -3 -23 -3 -23 137 l0 141 65 0 c39 0 78 -6 95 -15z m255 -10
c25 -24 32 -65 18 -100 -3 -10 -23 -25 -44 -34 l-38 -18 39 -38 c22 -22 40
-45 40 -52 0 -28 -37 -11 -91 43 -55 54 -56 55 -51 25 7 -47 -5 -81 -28 -81
-19 0 -20 7 -20 140 l0 140 75 0 c67 0 79 -3 100 -25z m238 11 c9 -22 -2 -26
-65 -26 l-58 0 0 -40 0 -40 51 0 c43 0 50 -3 47 -17 -2 -14 -15 -19 -51 -21
l-47 -3 0 -40 0 -39 58 0 c63 0 74 -4 65 -26 -4 -10 -26 -14 -89 -14 l-84 0 0
133 c0 74 3 137 7 140 3 4 41 7 84 7 57 0 78 -4 82 -14z m241 -7 c49 -38 27
-72 -26 -39 -47 28 -84 26 -119 -9 -23 -23 -29 -38 -29 -71 0 -33 6 -48 29
-71 41 -40 83 -39 124 4 l32 32 -60 5 c-52 4 -60 8 -60 25 0 18 8 20 71 23 88
4 103 -8 85 -68 -23 -79 -123 -115 -202 -75 -89 47 -93 193 -6 245 44 28 125
27 161 -1z m126 -63 c0 -119 16 -156 69 -156 48 0 61 25 61 121 0 101 5 119
31 119 18 0 19 -9 19 -111 0 -109 0 -111 -29 -140 -25 -24 -38 -29 -79 -29
-89 0 -122 49 -122 182 0 79 6 98 31 98 17 0 19 -8 19 -84z m337 -13 l68 -98
5 95 c5 87 7 95 25 95 19 0 20 -7 20 -135 0 -130 -1 -135 -21 -138 -17 -2 -36
17 -90 94 l-69 97 -5 -94 c-5 -86 -7 -94 -25 -94 -19 0 -20 8 -23 115 -1 63 0
125 3 138 11 46 42 25 112 -75z m348 77 c0 -10 -12 -16 -37 -18 l-37 -3 -3
-117 c-3 -109 -4 -117 -23 -117 -19 0 -20 8 -23 118 l-3 117 -33 0 c-38 0 -47
6 -39 26 8 22 198 16 198 -6z m122 8 c18 -23 94 -248 88 -258 -14 -22 -42 -10
-51 23 -9 30 -12 32 -62 35 -52 3 -53 3 -67 -32 -15 -35 -37 -46 -50 -26 -7
11 70 235 87 258 6 6 18 12 28 12 10 0 22 -6 27 -12z m267 -9 c27 -21 34 -53
14 -65 -6 -4 -20 4 -33 20 -17 21 -29 27 -51 24 -23 -2 -29 -8 -29 -28 0 -20
10 -30 54 -51 84 -40 104 -87 56 -134 -19 -20 -34 -25 -74 -25 -43 0 -53 4
-75 30 -25 30 -26 60 -1 60 7 0 20 -11 29 -25 19 -29 66 -34 86 -10 20 24 4
43 -54 69 -78 34 -99 86 -54 133 29 30 94 32 132 2z m-5134 -386 c-1 -28 -27
-56 -45 -49 -14 5 -14 8 0 36 17 33 45 41 45 13z m-652 -93 c36 -22 62 -72 62
-120 0 -85 -58 -140 -147 -140 -44 0 -58 5 -88 31 -43 38 -60 93 -45 148 6 24
24 52 45 70 30 26 44 31 88 31 35 0 63 -7 85 -20z m268 -50 l47 -70 44 65 c48
71 65 84 88 65 12 -10 15 -38 15 -125 0 -127 -4 -145 -31 -145 -16 0 -19 10
-21 98 l-3 97 -39 -57 c-21 -32 -45 -58 -52 -58 -8 0 -31 26 -51 57 l-38 56
-5 -94 c-5 -86 -7 -94 -25 -94 -19 0 -20 8 -23 124 -1 69 0 131 2 138 3 7 14
13 26 13 14 0 34 -22 66 -70z m411 -50 c48 -131 52 -160 24 -160 -13 0 -23 11
-31 35 -11 34 -13 35 -65 35 -52 0 -54 -1 -65 -35 -8 -24 -18 -35 -31 -35 -27
0 -24 20 15 130 58 160 53 152 83 148 26 -3 31 -12 70 -118z m228 95 c29 -28
31 -38 9 -56 -13 -11 -19 -8 -38 15 -28 36 -71 34 -71 -4 0 -20 10 -30 57 -53
64 -32 85 -66 69 -110 -13 -34 -39 -47 -96 -47 -35 0 -51 6 -70 25 -29 28 -32
53 -9 62 10 4 24 -4 38 -21 16 -21 28 -27 51 -24 24 2 30 8 30 28 0 19 -10 31
-46 50 -68 37 -79 49 -79 86 0 49 29 74 85 74 35 0 52 -6 70 -25z m113 -233
c3 -18 -1 -22 -22 -22 -19 0 -26 5 -26 18 0 39 43 43 48 4z m6643 -1151 c27
-28 29 -34 29 -111 0 -77 -2 -83 -29 -111 -24 -24 -38 -29 -76 -29 -38 0 -52
5 -76 29 -27 28 -29 34 -29 111 0 77 2 83 29 111 24 24 38 29 76 29 38 0 52
-5 76 -29z m234 9 c0 -11 -14 -16 -57 -18 -32 -2 -58 -6 -58 -10 0 -4 -3 -16
-6 -28 -5 -19 -1 -20 44 -20 59 1 88 -20 98 -69 7 -37 -15 -89 -45 -105 -11
-5 -38 -10 -61 -10 -31 0 -47 6 -65 26 -28 31 -32 52 -10 60 9 4 23 -4 36 -20
34 -43 99 -26 99 26 0 47 -62 77 -90 43 -14 -16 -46 -20 -54 -6 -6 9 11 129
20 143 3 5 38 8 77 6 56 -2 72 -6 72 -18z m103 -239 c-2 -9 -11 -17 -21 -19
-21 -4 -35 27 -17 38 19 12 42 0 38 -19z m-6528 -369 c0 -189 -149 -309 -322
-258 -98 28 -158 124 -158 253 l0 53 240 0 240 0 0 -48z m3560 -12 c0 -115
-75 -221 -177 -251 -72 -21 -171 -18 -213 6 -101 59 -82 197 33 239 32 12 239
45 345 55 8 1 12 -15 12 -49z"/>
<path d="M22555 7586 c-42 -18 -83 -69 -91 -112 -14 -77 44 -166 118 -179 18
-3 448 -4 955 -3 913 3 922 3 949 24 51 38 69 71 69 129 0 58 -18 91 -69 129
-27 21 -35 21 -964 23 -764 2 -943 0 -967 -11z m92 -123 c19 -46 38 -83 42
-83 3 0 22 37 42 83 21 50 42 83 52 85 15 3 17 -9 17 -113 0 -89 -3 -116 -12
-113 -8 3 -15 32 -18 79 l-5 74 -31 -75 c-18 -41 -37 -76 -43 -78 -6 -2 -28
34 -50 80 l-39 83 -1 -83 c-1 -62 -4 -83 -13 -80 -9 3 -14 38 -16 117 -3 110
-2 112 18 109 16 -2 30 -24 57 -85z m343 72 c0 -12 -13 -15 -60 -15 l-60 0 0
-35 c0 -35 0 -35 45 -35 57 0 59 -18 3 -22 -42 -3 -43 -4 -46 -40 l-3 -38 60
0 c48 0 61 -3 61 -15 0 -12 -15 -15 -75 -15 l-75 0 0 115 0 115 75 0 c60 0 75
-3 75 -15z m138 -97 c-2 -93 -6 -113 -18 -113 -12 0 -16 20 -18 113 -3 107 -2
112 18 112 20 0 21 -5 18 -112z m126 25 l56 -88 0 88 c0 71 3 87 15 87 12 0
15 -19 15 -115 0 -90 -3 -115 -13 -115 -8 0 -41 39 -73 88 l-59 87 -3 -88 c-2
-64 -6 -87 -15 -84 -8 2 -13 39 -15 115 -2 105 -1 112 17 112 13 0 36 -27 75
-87z m284 75 c-3 -7 -19 -14 -36 -16 l-31 -3 -3 -97 c-2 -78 -6 -97 -18 -97
-12 0 -16 19 -18 97 l-3 97 -31 3 c-17 2 -33 9 -36 16 -3 9 19 12 88 12 69 0
91 -3 88 -12z m172 -3 c0 -12 -13 -15 -61 -15 l-60 0 3 -32 c3 -31 6 -33 46
-36 23 -2 42 -7 42 -12 0 -5 -19 -10 -42 -12 -42 -3 -43 -4 -46 -40 l-3 -38
60 0 c48 0 61 -3 61 -15 0 -12 -15 -15 -75 -15 l-75 0 0 115 0 115 75 0 c60 0
75 -3 75 -15z m168 -1 c31 -21 30 -77 -2 -101 l-23 -18 23 -37 c27 -42 30 -58
11 -58 -7 0 -26 23 -42 50 -22 38 -35 50 -50 48 -16 -2 -21 -12 -23 -50 -2
-34 -7 -48 -18 -48 -11 0 -14 21 -14 115 l0 115 58 0 c36 0 66 -6 80 -16z
m202 1 c0 -12 -13 -15 -61 -15 l-60 0 3 -32 c3 -31 6 -33 46 -36 23 -2 42 -7
42 -12 0 -5 -19 -10 -42 -12 -42 -3 -43 -4 -46 -40 l-3 -38 60 0 c48 0 61 -3
61 -15 0 -13 -13 -15 -72 -13 l-73 3 -3 113 -3 112 76 0 c60 0 75 -3 75 -15z
m156 1 c14 -11 16 -18 8 -26 -9 -9 -18 -8 -37 5 -20 13 -30 14 -46 5 -35 -18
-26 -48 19 -61 78 -24 100 -69 55 -114 -30 -31 -73 -32 -109 -4 -34 27 -20 50
15 25 31 -21 66 -20 78 2 13 25 3 38 -51 61 -26 11 -51 29 -57 40 -13 23 0 66
21 74 26 11 85 7 104 -7z m169 -3 c14 -37 75 -206 75 -209 0 -2 -7 -4 -16 -4
-8 0 -20 14 -25 30 -10 29 -13 30 -69 30 -56 0 -58 -1 -69 -31 -6 -18 -16 -29
-23 -26 -16 6 -15 9 29 130 33 91 37 97 63 97 17 0 31 -7 35 -17z"/>
<path d="M23772 7483 c3 -33 7 -38 30 -41 42 -5 70 15 66 46 -3 25 -7 27 -51
30 l-48 3 3 -38z"/>
<path d="M24346 7473 c-22 -63 -22 -63 24 -63 22 0 40 4 40 8 0 19 -33 102
-40 102 -4 0 -15 -21 -24 -47z"/>
<path d="M16411 6466 c-90 -50 -50 -186 55 -186 15 0 38 12 55 29 80 80 -12
211 -110 157z"/>
<path d="M17629 5971 c-23 -23 -29 -38 -29 -71 0 -53 42 -100 90 -100 48 0 90
47 90 100 0 53 -42 100 -90 100 -22 0 -41 -9 -61 -29z"/>
<path d="M18246 5970 c-3 -8 -12 -34 -20 -57 l-15 -43 40 0 c44 0 44 -4 14 80
-9 24 -15 30 -19 20z"/>
<path d="M18450 5955 l0 -45 43 0 c24 0 48 5 55 12 32 32 -6 78 -65 78 -32 0
-33 -1 -33 -45z"/>
<path d="M18810 5973 c-28 -25 -33 -36 -33 -73 0 -36 6 -48 32 -72 42 -38 83
-37 122 1 58 58 28 155 -52 167 -30 5 -42 1 -69 -23z"/>
<path d="M19170 5899 l0 -102 46 6 c55 6 83 30 90 78 11 69 -36 119 -111 119
l-25 0 0 -101z"/>
<path d="M19756 5915 c-20 -30 -36 -57 -36 -60 0 -3 15 -5 34 -5 l34 0 4 60
c1 33 3 60 2 60 -1 0 -18 -25 -38 -55z"/>
<path d="M19972 5984 c-19 -13 -22 -24 -22 -83 0 -73 16 -101 58 -101 38 0 52
26 52 99 0 92 -33 124 -88 85z"/>
<path d="M20280 5950 l0 -50 45 0 c34 0 47 5 55 20 23 42 -13 80 -76 80 -22 0
-24 -4 -24 -50z"/>
<path d="M20520 5955 l0 -45 38 0 c44 0 62 14 62 47 0 25 -31 43 -76 43 -22 0
-24 -4 -24 -45z"/>
<path d="M22013 5948 c-7 -24 -15 -51 -18 -60 -6 -15 -1 -18 33 -18 l41 0 -21
60 c-11 33 -21 60 -22 60 -1 0 -7 -19 -13 -42z"/>
<path d="M16403 5496 c-37 -31 -48 -67 -33 -112 22 -65 102 -84 151 -35 85 85
-27 224 -118 147z"/>
<path d="M17127 5458 c-9 -30 -17 -58 -17 -61 0 -4 16 -7 35 -7 40 0 41 4 16
73 l-17 49 -17 -54z"/>
<path d="M24085 4126 c-22 -16 -32 -107 -16 -148 12 -32 52 -46 87 -29 22 10
24 16 24 85 0 54 -4 79 -16 90 -19 20 -54 21 -79 2z"/>
<path d="M29134 6507 c-2 -7 -3 -69 -2 -138 l3 -124 83 -3 c76 -3 82 -1 82 17
0 18 -8 20 -62 23 l-63 3 -3 37 -3 37 53 3 c39 2 53 7 53 18 0 11 -14 16 -50
20 -50 5 -50 5 -50 40 l0 35 63 3 c54 3 62 6 62 22 0 18 -7 20 -80 20 -57 0
-82 -4 -86 -13z"/>
<path d="M29344 6507 c-2 -7 -3 -69 -2 -137 3 -109 5 -125 20 -128 15 -3 18 9
20 97 l3 101 70 -97 c48 -68 77 -98 90 -98 19 0 20 8 23 133 2 113 0 133 -13
138 -26 10 -30 -4 -28 -102 1 -52 0 -94 -2 -94 -2 0 -35 45 -75 100 -67 95
-94 117 -106 87z"/>
<path d="M29673 6500 c-41 -25 -63 -68 -63 -122 0 -55 17 -87 59 -115 39 -26
116 -31 146 -10 31 23 9 36 -49 30 -49 -5 -57 -3 -80 20 -44 44 -46 100 -7
148 17 21 27 24 85 23 48 -1 66 3 66 12 0 37 -105 46 -157 14z"/>
<path d="M29866 6505 c-10 -26 -7 -146 4 -187 15 -52 52 -78 109 -78 86 1 111
40 111 175 0 78 -3 97 -16 102 -26 10 -34 -16 -34 -113 0 -102 -12 -124 -67
-124 -47 0 -57 21 -63 134 -4 83 -8 101 -21 104 -9 2 -19 -4 -23 -13z"/>
<path d="M30135 6507 c-3 -7 -4 -69 -3 -138 l3 -124 85 0 c69 0 85 3 85 15 0
11 -15 16 -62 18 l-63 3 0 39 0 39 47 3 c36 2 49 7 51 21 3 14 -4 17 -47 17
l-51 0 0 40 0 39 63 3 c47 2 62 7 62 18 0 21 -163 28 -170 7z"/>
<path d="M30355 6495 c-25 -25 -32 -59 -16 -84 5 -8 35 -28 67 -45 48 -25 59
-36 59 -56 0 -22 -5 -25 -37 -28 -30 -3 -40 1 -54 22 -21 33 -44 34 -44 2 0
-62 116 -91 165 -41 26 25 32 59 15 85 -5 8 -35 29 -67 45 -47 24 -58 35 -58
55 0 21 5 26 31 28 24 2 35 -3 48 -22 17 -26 46 -26 46 1 0 30 -47 63 -90 63
-30 0 -47 -6 -65 -25z"/>
<path d="M30537 6514 c-18 -18 -5 -34 28 -34 l35 0 0 -107 c0 -113 7 -140 34
-130 13 5 16 25 16 121 l0 115 38 3 c25 2 37 8 37 18 0 12 -18 16 -90 18 -50
1 -94 0 -98 -4z"/>
<path d="M30772 6500 c-14 -14 -22 -33 -22 -55 0 -38 21 -59 88 -89 67 -30 64
-76 -4 -76 -27 0 -37 5 -46 25 -7 15 -18 24 -27 23 -26 -5 -24 -36 3 -63 20
-20 35 -25 74 -25 58 0 92 28 92 77 0 35 -18 53 -82 83 -50 23 -65 44 -47 66
18 22 53 16 77 -11 24 -28 42 -25 42 5 0 32 -39 60 -85 60 -28 0 -48 -7 -63
-20z"/>
<path d="M31057 6514 c-4 -4 -7 -67 -7 -141 0 -126 1 -133 20 -133 18 0 20 7
20 60 l0 60 56 0 c47 0 55 3 52 18 -2 13 -15 18 -56 20 l-52 3 0 39 0 39 63 3
c47 2 62 7 62 18 0 12 -16 16 -75 18 -42 1 -79 0 -83 -4z"/>
<path d="M31303 6508 c-22 -28 -94 -251 -84 -261 16 -16 39 0 46 32 6 30 8 31
61 31 52 0 54 -1 68 -35 14 -33 38 -46 51 -26 3 5 -16 67 -42 138 -39 103 -52
129 -69 131 -11 2 -25 -3 -31 -10z m48 -103 l17 -55 -40 0 c-33 0 -39 3 -34
16 4 9 11 36 17 61 7 24 14 41 17 38 3 -3 14 -30 23 -60z"/>
<path d="M31521 6502 c-122 -66 -74 -262 64 -262 59 0 85 10 85 31 0 17 -5 18
-40 13 -84 -14 -130 21 -130 97 0 41 4 51 32 74 29 25 37 27 85 21 43 -5 53
-3 53 9 0 37 -93 47 -149 17z"/>
<path d="M31715 6507 c-3 -7 -4 -69 -3 -138 l3 -124 85 0 c69 0 85 3 85 15 0
11 -15 16 -62 18 l-63 3 0 39 0 39 47 3 c36 2 49 7 51 21 3 14 -4 17 -47 17
l-51 0 0 40 0 39 63 3 c47 2 62 7 62 18 0 21 -163 28 -170 7z"/>
<path d="M31987 6514 c-18 -18 -5 -34 27 -34 l34 0 4 -114 c1 -63 6 -118 10
-121 4 -4 14 -5 23 -2 12 5 15 27 15 121 l0 115 38 3 c25 2 37 8 37 18 0 12
-18 16 -90 18 -50 1 -94 0 -98 -4z"/>
<path d="M32229 6493 c-34 -29 -59 -78 -59 -115 0 -39 39 -104 74 -123 24 -13
46 -17 86 -13 46 5 59 11 87 42 32 35 39 58 34 121 -8 98 -145 153 -222 88z
m137 -28 c51 -35 55 -127 7 -165 -63 -49 -153 -3 -153 80 0 78 86 128 146 85z"/>
<path d="M32577 6514 c-4 -4 -7 -65 -7 -136 0 -109 2 -130 16 -135 23 -8 34
14 34 70 l0 47 51 0 c43 0 50 3 47 18 -2 13 -15 18 -51 20 l-47 3 0 39 0 39
58 3 c43 2 57 7 57 18 0 12 -16 16 -75 18 -42 1 -79 0 -83 -4z"/>
<path d="M32825 6511 c-15 -25 -93 -256 -89 -263 12 -19 35 -6 48 27 15 34 17
35 70 35 53 0 55 -1 61 -31 7 -33 30 -48 47 -31 7 7 -4 48 -33 128 -23 66 -47
125 -52 132 -11 14 -43 16 -52 3z m49 -105 c9 -27 16 -51 16 -53 0 -2 -18 -3
-41 -3 -35 0 -40 3 -34 18 3 9 11 36 18 59 13 49 18 46 41 -21z"/>
<path d="M33054 6511 c-32 -14 -73 -68 -80 -108 -10 -52 21 -120 66 -144 43
-24 122 -25 144 -3 25 25 10 33 -49 27 -50 -5 -56 -4 -84 25 -25 24 -31 39
-31 72 0 33 6 48 31 72 28 29 34 30 84 25 57 -6 70 -1 55 23 -10 16 -106 24
-136 11z"/>
<path d="M33236 6505 c-9 -24 -7 -238 3 -253 12 -20 166 -12 166 8 0 11 -15
16 -62 18 l-63 3 0 39 0 40 50 0 c43 0 50 3 50 20 0 17 -7 20 -50 20 l-50 0 0
40 0 39 63 3 c47 2 62 7 62 18 0 23 -160 27 -169 5z"/>
<path d="M33573 6500 c-87 -52 -83 -198 6 -245 54 -27 151 -15 151 20 0 11
-12 12 -55 8 -66 -7 -98 10 -115 62 -27 82 30 143 122 131 39 -5 48 -4 48 8 0
39 -103 49 -157 16z"/>
<path d="M33813 6500 c-87 -52 -83 -198 6 -245 41 -21 109 -19 147 4 35 22 64
75 64 120 0 44 -32 103 -68 124 -40 23 -109 22 -149 -3z m138 -49 c23 -23 29
-38 29 -71 0 -105 -131 -137 -179 -43 -49 96 74 189 150 114z"/>
<path d="M34077 6513 c-4 -3 -7 -67 -7 -140 0 -123 2 -134 18 -131 15 3 17 17
20 102 l3 98 70 -98 c52 -74 76 -99 92 -99 22 0 22 3 22 135 0 128 -1 135 -20
135 -18 0 -20 -8 -25 -95 l-5 -95 -68 98 c-63 90 -83 108 -100 90z"/>
<path d="M3534 6027 c-2 -7 -3 -69 -2 -137 3 -110 5 -125 21 -128 14 -3 17 5
17 52 0 31 3 56 8 56 4 0 29 -25 55 -55 27 -30 54 -55 62 -55 31 0 25 24 -15
65 -42 42 -42 43 -19 50 78 24 95 116 28 150 -36 19 -148 20 -155 2z m130 -40
c12 -9 17 -23 14 -42 -3 -29 -6 -30 -55 -33 l-53 -3 0 39 c0 21 3 42 7 45 11
12 68 8 87 -6z"/>
<path d="M3774 6027 c-2 -7 -3 -69 -2 -138 l3 -124 83 -3 c76 -3 82 -1 82 17
0 18 -8 20 -62 23 l-63 3 -3 37 -3 37 53 3 c39 2 53 7 53 18 0 11 -14 16 -50
20 -50 5 -50 5 -50 40 l0 35 63 3 c54 3 62 6 62 22 0 18 -7 20 -80 20 -57 0
-82 -4 -86 -13z"/>
<path d="M3992 6020 c-27 -26 -29 -80 -4 -102 9 -9 38 -26 64 -38 25 -12 49
-28 52 -37 10 -24 -13 -43 -50 -43 -27 0 -37 5 -46 25 -7 15 -18 24 -27 23
-26 -5 -24 -36 3 -63 20 -20 35 -25 74 -25 58 0 92 28 92 77 0 35 -18 53 -82
83 -50 23 -65 44 -47 66 18 22 53 16 77 -11 24 -28 42 -25 42 5 0 32 -39 60
-85 60 -28 0 -48 -7 -63 -20z"/>
<path d="M4190 5930 c0 -110 0 -112 29 -141 40 -39 115 -42 158 -5 28 24 28
26 28 138 0 94 -3 113 -15 113 -12 0 -16 -17 -18 -80 -3 -125 -17 -155 -71
-155 -56 0 -66 18 -71 132 -4 88 -8 103 -22 106 -16 3 -18 -7 -18 -108z"/>
<path d="M4456 6025 c-9 -24 -7 -238 3 -253 5 -9 29 -12 82 -10 61 2 74 6 77
21 3 15 -5 17 -57 17 l-60 0 -3 117 c-3 99 -6 118 -19 121 -9 2 -19 -4 -23
-13z"/>
<path d="M4597 6026 c-8 -20 1 -26 39 -26 l33 0 3 -117 c3 -110 4 -118 23
-118 19 0 20 8 23 118 l3 117 34 0 c28 0 35 4 35 20 0 19 -7 20 -94 20 -71 0
-95 -3 -99 -14z"/>
<path d="M4863 6028 c-18 -24 -95 -247 -88 -257 13 -22 34 -10 45 24 11 34 13
35 66 35 52 0 54 -1 68 -35 17 -40 46 -48 45 -12 0 12 -19 74 -42 137 -34 92
-46 116 -63 118 -11 2 -25 -3 -31 -10z m45 -98 l21 -60 -40 0 c-21 0 -39 3
-39 7 0 9 33 113 36 113 1 0 11 -27 22 -60z"/>
<path d="M5044 6027 c-2 -7 -3 -69 -2 -138 l3 -124 60 -3 c75 -3 123 19 147
68 36 71 12 157 -53 192 -41 22 -147 25 -155 5z m135 -42 c33 -17 41 -33 41
-85 0 -21 -3 -46 -6 -55 -9 -22 -57 -45 -94 -45 l-30 0 0 100 0 100 30 0 c17
0 44 -7 59 -15z"/>
<path d="M5363 6020 c-87 -52 -83 -198 6 -245 42 -21 109 -19 149 5 82 50 80
191 -2 241 -41 25 -112 25 -153 -1z m138 -48 c26 -24 32 -36 32 -72 0 -36 -6
-48 -32 -72 -52 -47 -129 -29 -151 36 -14 45 -4 80 32 111 39 33 80 32 119 -3z"/>
<path d="M5635 6015 c-48 -47 -27 -96 58 -133 51 -23 61 -34 52 -62 -10 -31
-70 -28 -91 5 -19 28 -39 32 -48 9 -4 -10 5 -27 23 -45 49 -48 140 -38 162 18
16 43 -5 76 -69 109 -46 24 -57 34 -57 54 0 21 5 26 31 28 24 2 35 -3 48 -23
14 -21 20 -24 32 -14 20 16 18 26 -11 54 -18 19 -35 25 -65 25 -30 0 -47 -6
-65 -25z"/>
<path d="M5914 6027 c-2 -7 -3 -69 -2 -138 l3 -124 57 -3 c34 -2 71 3 92 12
101 42 101 210 1 252 -44 18 -144 19 -151 1z m136 -42 c41 -21 57 -78 36 -128
-16 -39 -46 -57 -97 -57 l-29 0 0 100 0 100 30 0 c17 0 44 -7 60 -15z"/>
<path d="M6185 6028 c-3 -8 -4 -70 -3 -139 3 -116 4 -124 23 -124 19 0 20 7
20 135 0 120 -2 135 -18 138 -9 2 -19 -3 -22 -10z"/>
<path d="M6295 6015 c-26 -25 -32 -59 -15 -85 5 -8 35 -28 67 -45 47 -24 58
-35 58 -55 0 -22 -5 -25 -37 -28 -30 -3 -40 1 -54 22 -19 29 -39 34 -48 10 -4
-10 5 -27 23 -45 40 -39 109 -41 146 -4 46 45 29 88 -51 129 -48 25 -59 36
-59 56 0 21 5 26 31 28 24 2 35 -3 48 -23 14 -21 20 -24 32 -14 20 16 18 26
-11 54 -18 19 -35 25 -65 25 -30 0 -47 -6 -65 -25z"/>
<path d="M6496 6025 c-9 -25 -7 -238 3 -254 17 -27 41 -4 41 39 0 39 1 40 34
40 105 0 162 87 102 157 -21 25 -32 28 -98 31 -63 3 -76 1 -82 -13z m135 -35
c27 -15 25 -64 -3 -84 -12 -9 -37 -16 -55 -16 l-33 0 0 55 0 55 36 0 c19 0 44
-5 55 -10z"/>
<path d="M6786 6020 c-37 -24 -65 -75 -66 -118 0 -45 34 -109 70 -127 37 -19
103 -19 141 0 89 47 93 193 6 245 -42 26 -113 26 -151 0z m123 -34 c48 -25 63
-83 36 -136 -46 -89 -175 -52 -175 50 0 33 6 48 29 71 33 32 67 37 110 15z"/>
<path d="M7047 6034 c-4 -4 -7 -65 -7 -136 0 -109 2 -130 16 -135 28 -10 35
18 29 110 -4 48 -4 87 -2 87 3 0 37 -45 77 -101 98 -137 105 -134 105 41 0
113 -2 135 -15 135 -12 0 -16 -20 -20 -98 l-5 -97 -70 97 c-65 91 -91 114
-108 97z"/>
<path d="M7325 6028 c-3 -8 -4 -70 -3 -139 3 -116 4 -124 23 -124 19 0 20 7
20 135 0 120 -2 135 -18 138 -9 2 -19 -3 -22 -10z"/>
<path d="M7424 6027 c-2 -7 -3 -69 -2 -138 l3 -124 73 -3 c69 -3 74 -1 102 27
36 36 38 60 6 98 -20 24 -21 30 -10 41 23 22 17 68 -12 91 -21 16 -41 21 -91
21 -43 0 -65 -4 -69 -13z m136 -46 c20 -39 -14 -67 -71 -59 -20 2 -25 10 -27
41 l-3 37 45 0 c34 0 48 -5 56 -19z m1 -101 c21 -12 25 -50 7 -68 -7 -7 -34
-12 -60 -12 l-48 0 0 38 c0 21 3 42 7 45 10 11 72 8 94 -3z"/>
<path d="M7665 6028 c-3 -8 -4 -70 -3 -139 l3 -124 80 0 c64 0 80 3 80 15 0
11 -14 16 -57 18 l-57 3 -3 117 c-3 102 -5 117 -21 120 -9 2 -19 -3 -22 -10z"/>
<path d="M7865 6027 c-3 -7 -4 -69 -3 -138 l3 -124 85 0 c69 0 85 3 85 15 0
11 -15 16 -62 18 l-63 3 0 39 0 39 47 3 c36 2 49 7 51 21 3 14 -4 17 -47 17
l-51 0 0 40 0 39 63 3 c47 2 62 7 62 18 0 21 -163 28 -170 7z"/>
<path d="M8085 6015 c-48 -47 -27 -96 58 -133 51 -23 61 -34 52 -62 -10 -31
-70 -28 -91 5 -19 28 -39 32 -48 9 -4 -10 5 -27 23 -45 40 -39 109 -41 146 -4
46 45 29 88 -51 129 -48 25 -59 36 -59 56 0 21 5 26 31 28 24 2 35 -3 48 -23
14 -21 20 -24 32 -14 20 16 18 26 -11 54 -18 19 -35 25 -65 25 -30 0 -47 -6
-65 -25z"/>
<path d="M8365 6027 c-3 -7 -4 -69 -3 -138 l3 -124 85 0 c69 0 85 3 85 15 0
11 -15 16 -62 18 l-63 3 0 39 0 39 47 3 c36 2 49 7 51 21 3 14 -4 17 -47 17
l-51 0 0 40 0 39 63 3 c47 2 62 7 62 18 0 21 -163 28 -170 7z"/>
<path d="M8577 6034 c-4 -4 -7 -65 -7 -136 0 -109 2 -130 16 -135 27 -10 34
18 27 110 -3 48 -3 87 0 87 3 0 37 -45 77 -101 98 -137 105 -134 105 41 0 113
-2 135 -15 135 -12 0 -16 -20 -20 -98 l-5 -97 -70 97 c-65 91 -91 114 -108 97z"/>
<path d="M29205 6030 c-17 -27 -94 -254 -89 -261 12 -19 35 -7 48 26 14 34 17
35 66 35 49 0 52 -1 66 -35 14 -33 36 -45 48 -26 6 10 -70 237 -87 259 -12 15
-43 16 -52 2z m49 -104 c9 -27 16 -51 16 -53 0 -2 -18 -3 -41 -3 -35 0 -40 3
-34 18 3 9 11 36 18 59 13 49 18 46 41 -21z"/>
<path d="M29385 6028 c-3 -8 -4 -70 -3 -139 l3 -124 80 0 c64 0 80 3 80 15 0
11 -14 16 -57 18 l-57 3 -3 117 c-3 102 -5 117 -21 120 -9 2 -19 -3 -22 -10z"/>
<path d="M29623 6020 c-87 -52 -83 -198 6 -245 54 -27 151 -15 151 20 0 11
-12 12 -55 8 -66 -7 -98 10 -115 62 -27 82 30 143 122 131 39 -5 48 -4 48 8 0
39 -103 49 -157 16z"/>
<path d="M29895 6031 c-15 -25 -93 -256 -89 -263 12 -19 35 -6 48 27 15 34 17
35 70 35 53 0 55 -1 61 -31 7 -33 30 -48 47 -31 7 7 -4 48 -33 128 -23 66 -47
125 -52 132 -11 14 -43 16 -52 3z m49 -105 c9 -27 16 -51 16 -53 0 -2 -18 -3
-41 -3 -35 0 -40 3 -34 18 3 9 11 36 18 59 13 49 18 46 41 -21z"/>
<path d="M30075 6018 c-3 -13 -4 -75 -3 -138 3 -107 4 -115 23 -115 18 0 20 8
25 95 l5 95 69 -97 c68 -96 96 -117 110 -82 9 24 7 237 -3 253 -5 8 -16 11
-25 8 -12 -5 -16 -26 -18 -101 l-3 -95 -69 99 c-71 102 -100 122 -111 78z"/>
<path d="M30430 6032 c-53 -25 -90 -81 -90 -134 1 -45 36 -104 73 -121 45 -22
120 -22 141 -1 25 25 10 33 -49 27 -50 -5 -56 -4 -84 25 -25 24 -31 39 -31 72
0 33 6 48 31 72 28 29 34 30 84 25 57 -6 70 -1 55 23 -9 15 -106 24 -130 12z"/>
<path d="M30606 6025 c-9 -24 -7 -238 3 -253 12 -20 166 -12 166 8 0 11 -15
16 -62 18 l-63 3 0 39 0 40 50 0 c43 0 50 3 50 20 0 17 -7 20 -50 20 l-50 0 0
40 0 39 63 3 c47 2 62 7 62 18 0 23 -160 27 -169 5z"/>
<path d="M30895 6027 c-3 -7 -4 -69 -3 -138 3 -116 4 -124 23 -124 17 0 20 8
23 58 l3 57 49 0 c43 0 50 3 50 20 0 17 -7 20 -50 20 l-50 0 0 40 0 40 61 0
c52 0 60 2 57 18 -3 14 -16 17 -81 20 -58 2 -79 -1 -82 -11z"/>
<path d="M31095 6027 c-3 -7 -4 -69 -3 -138 l3 -124 85 0 c69 0 85 3 85 15 0
11 -15 16 -62 18 l-63 3 0 39 0 39 47 3 c36 2 49 7 51 21 3 14 -4 17 -47 17
l-51 0 0 40 0 39 63 3 c47 2 62 7 62 18 0 21 -163 28 -170 7z"/>
<path d="M31304 6027 c-2 -7 -3 -69 -2 -138 l3 -124 57 -3 c71 -4 121 17 148
60 41 67 16 168 -50 200 -42 22 -148 25 -156 5z m136 -42 c17 -9 33 -28 40
-50 24 -71 -23 -135 -100 -135 l-30 0 0 100 0 100 30 0 c17 0 44 -7 60 -15z"/>
<path d="M31575 6027 c-3 -7 -4 -69 -3 -138 l3 -124 85 0 c69 0 85 3 85 15 0
11 -15 16 -62 18 l-63 3 0 39 0 39 47 3 c36 2 49 7 51 21 3 14 -4 17 -47 17
l-51 0 0 40 0 39 63 3 c47 2 62 7 62 18 0 21 -163 28 -170 7z"/>
<path d="M31787 6033 c-4 -3 -7 -64 -7 -135 0 -109 2 -130 16 -135 24 -9 35
16 31 65 -3 23 -1 42 4 42 4 0 29 -25 55 -55 26 -30 53 -55 60 -55 30 0 24 25
-16 65 l-42 42 26 7 c38 9 66 42 66 75 0 43 -9 60 -41 76 -28 15 -140 21 -152
8z m117 -39 c26 -10 38 -41 26 -64 -8 -15 -21 -20 -55 -20 l-45 0 0 45 c0 43
1 45 29 45 16 0 37 -3 45 -6z"/>
<path d="M32095 6031 c-15 -25 -93 -260 -88 -265 15 -15 34 -3 47 29 15 34 17
35 70 35 53 0 55 -1 61 -31 7 -33 30 -48 47 -31 8 8 -2 45 -32 129 -24 65 -47
124 -53 131 -11 14 -43 16 -52 3z m65 -158 c0 -2 -18 -3 -39 -3 l-39 0 14 48
c24 80 25 80 45 17 10 -33 19 -61 19 -62z"/>
<path d="M32276 6025 c-9 -24 -7 -238 3 -253 5 -9 29 -12 82 -10 61 2 74 6 77
21 3 15 -5 17 -57 17 l-60 0 -3 117 c-3 99 -6 118 -19 121 -9 2 -19 -4 -23
-13z"/>
<path d="M32480 5795 c-15 -18 -5 -35 21 -35 12 0 19 7 19 19 0 24 -25 34 -40
16z"/>
<path d="M3505 5550 c-13 -21 8 -30 71 -30 76 0 74 9 18 -123 -39 -89 -43
-120 -16 -115 21 4 118 237 109 262 -5 13 -22 16 -91 16 -47 0 -88 -4 -91 -10z"/>
<path d="M3736 5535 c-14 -13 -26 -31 -26 -40 0 -19 32 -33 38 -17 13 39 68
56 92 27 22 -27 3 -59 -59 -98 -66 -42 -93 -86 -71 -112 19 -22 185 -17 185 5
0 11 -17 16 -72 20 -83 6 -84 12 -5 60 60 36 72 54 72 104 0 70 -98 103 -154
51z"/>
<path d="M4014 5547 c-2 -7 -3 -69 -2 -137 3 -110 5 -125 21 -128 15 -3 17 5
17 57 l0 61 70 0 69 0 3 -57 c2 -46 7 -59 21 -61 15 -3 17 9 17 138 0 129 -2
141 -17 138 -14 -2 -19 -15 -21 -61 l-3 -57 -69 0 -70 0 0 60 c0 47 -3 60 -15
60 -9 0 -18 -6 -21 -13z"/>
<path d="M4336 5540 c-84 -55 -85 -190 -2 -241 38 -23 106 -25 147 -4 89 47
93 193 6 245 -42 26 -113 26 -151 0z m123 -34 c45 -24 63 -83 40 -129 -48 -94
-179 -62 -179 43 0 33 6 48 29 71 33 32 67 37 110 15z"/>
<path d="M4597 5553 c-4 -3 -7 -64 -7 -135 0 -109 2 -130 16 -135 24 -9 35 16
31 65 -3 23 -1 42 4 42 4 0 29 -25 56 -55 26 -30 53 -55 60 -55 29 0 22 25
-17 65 l-42 42 26 7 c38 9 66 42 66 75 0 43 -9 60 -41 76 -28 15 -140 21 -152
8z m117 -39 c26 -10 38 -41 26 -64 -8 -15 -21 -20 -55 -20 l-45 0 0 45 c0 43
1 45 29 45 16 0 37 -3 45 -6z"/>
<path d="M4905 5551 c-15 -25 -93 -260 -88 -265 15 -15 34 -3 47 29 15 34 17
35 70 35 53 0 55 -1 61 -31 7 -33 30 -48 47 -31 8 8 -2 45 -32 129 -24 65 -47
124 -53 131 -11 14 -43 16 -52 3z m65 -158 c0 -2 -18 -3 -39 -3 l-39 0 14 48
c24 80 25 80 45 17 10 -33 19 -61 19 -62z"/>
<path d="M5101 5542 c-27 -21 -31 -76 -8 -99 9 -9 38 -28 64 -42 38 -20 48
-31 48 -51 0 -22 -5 -25 -37 -28 -33 -3 -40 1 -50 23 -6 15 -18 24 -27 23 -26
-5 -24 -36 3 -63 50 -50 166 -21 166 41 0 42 -19 65 -75 89 -60 27 -69 37 -60
65 10 30 59 27 83 -7 20 -28 42 -25 42 7 0 50 -104 79 -149 42z"/>
<path d="M5444 5550 c-31 -12 -72 -66 -80 -105 -9 -47 11 -99 52 -135 30 -25
43 -30 89 -30 46 0 59 4 90 31 101 89 41 251 -92 248 -21 0 -47 -4 -59 -9z
m107 -40 c25 -14 49 -62 49 -100 0 -46 -47 -90 -95 -90 -53 0 -95 44 -95 100
0 75 77 124 141 90z"/>
<path d="M5767 5553 c-4 -3 -7 -64 -7 -135 0 -109 2 -130 16 -135 27 -10 35
18 31 110 -2 48 -2 87 0 87 1 0 21 -27 43 -60 22 -33 45 -60 50 -60 4 0 25 24
46 53 21 28 41 56 45 60 3 5 5 -31 2 -80 -4 -92 4 -120 31 -110 14 6 16 24 14
139 -3 125 -4 133 -23 133 -13 0 -35 -23 -66 -68 l-47 -68 -24 33 c-13 18 -37
50 -52 71 -26 35 -45 45 -59 30z"/>
<path d="M6094 5547 c-2 -7 -3 -69 -2 -138 l3 -124 79 -3 c55 -2 82 1 87 10
13 21 -1 28 -62 28 l-59 0 0 39 0 40 47 3 c36 2 49 7 51 21 3 14 -4 17 -47 17
l-51 0 0 40 0 40 58 0 c63 0 74 4 65 26 -7 19 -161 20 -169 1z"/>
<path d="M6305 5548 c-3 -8 -4 -70 -3 -138 3 -109 5 -125 20 -128 15 -3 18 9
20 98 l3 102 71 -98 c47 -67 76 -99 90 -99 18 0 19 8 19 135 0 119 -2 135 -17
138 -15 3 -18 -9 -20 -98 l-3 -102 -71 98 c-67 95 -98 121 -109 92z"/>
<path d="M6632 5540 c-85 -52 -81 -199 7 -245 66 -34 155 -11 191 48 24 39 26
107 5 148 -35 66 -135 90 -203 49z m136 -45 c39 -33 48 -74 27 -118 -29 -61
-95 -74 -146 -29 -26 24 -32 36 -32 72 0 36 6 48 32 72 39 35 80 36 119 3z"/>
<path d="M6905 5535 c-47 -47 -30 -86 60 -134 40 -21 50 -31 50 -51 0 -22 -5
-25 -37 -28 -30 -3 -40 1 -54 22 -21 33 -44 34 -44 2 0 -62 116 -91 165 -41
26 25 32 59 15 85 -5 8 -35 29 -67 45 -47 24 -58 35 -58 55 0 21 5 26 31 28
24 2 35 -3 48 -22 17 -26 46 -26 46 1 0 30 -47 63 -90 63 -30 0 -47 -6 -65
-25z"/>
<path d="M7111 5316 c-16 -19 -6 -36 20 -36 15 0 20 6 17 22 -4 27 -21 33 -37
14z"/>
<path d="M14140 3840 l0 -720 480 0 480 0 0 85 0 85 -375 0 -375 0 0 235 0
235 280 0 280 0 0 90 0 90 -280 0 -280 0 0 220 0 220 375 0 375 0 0 90 0 90
-480 0 -480 0 0 -720z"/>
<path d="M17292 2523 c-69 -21 -133 -78 -162 -145 -19 -42 -24 -76 -28 -170
l-4 -118 -64 0 -64 0 0 -90 0 -90 65 0 65 0 0 -425 0 -425 95 0 95 0 0 425 0
425 105 0 105 0 0 90 0 90 -106 0 -107 0 7 92 c7 105 25 144 76 170 19 10 54
18 78 18 l43 0 -3 83 -3 82 -70 2 c-40 1 -92 -5 -123 -14z"/>
<path d="M20460 2244 l0 -296 -39 35 c-181 164 -486 154 -640 -20 -90 -101
-131 -224 -131 -393 0 -211 74 -367 218 -459 74 -47 148 -63 265 -59 90 3 110
7 167 34 36 17 86 50 111 72 45 40 47 41 53 19 3 -12 6 -43 6 -69 l0 -48 90 0
90 0 0 740 0 740 -95 0 -95 0 0 -296z m-190 -345 c160 -72 231 -290 159 -485
-44 -116 -148 -188 -273 -188 -163 0 -270 101 -295 280 -27 186 52 349 192
401 53 19 166 15 217 -8z"/>
<path d="M22040 2244 l0 -297 -46 43 c-73 67 -159 102 -268 108 -155 8 -257
-29 -356 -130 -92 -93 -139 -229 -140 -399 0 -221 94 -395 258 -476 l76 -38
130 0 c123 0 134 2 188 28 31 15 79 48 106 72 27 24 52 42 56 38 3 -3 6 -25 6
-47 0 -85 1 -86 101 -86 l89 0 -2 738 -3 737 -97 3 -98 3 0 -297z m-202 -339
c140 -59 212 -193 199 -368 -15 -192 -130 -310 -302 -311 -124 -1 -208 55
-264 174 -24 50 -26 67 -26 175 0 101 4 127 21 166 30 65 90 128 149 155 60
29 165 32 223 9z"/>
<path d="M24157 2533 c-4 -3 -7 -134 -7 -290 l0 -284 -42 34 c-96 76 -181 107
-298 107 -182 0 -333 -93 -409 -253 -76 -162 -74 -403 6 -561 38 -75 126 -161
202 -199 64 -31 70 -32 196 -32 127 0 132 1 197 33 37 18 87 52 112 76 l45 44
6 -74 7 -74 89 0 89 0 0 740 0 740 -93 0 c-52 0 -97 -3 -100 -7z m-165 -646
c56 -32 104 -87 131 -146 33 -71 36 -237 7 -314 -31 -84 -76 -137 -144 -172
-51 -26 -70 -30 -135 -29 -89 0 -131 16 -191 70 -139 126 -145 410 -11 544 62
62 114 80 217 77 66 -3 89 -8 126 -30z"/>
<path d="M20936 2520 c-77 -23 -117 -111 -81 -180 25 -48 62 -70 118 -70 44 0
53 4 88 39 34 34 39 45 39 84 0 37 -6 53 -31 81 -39 45 -84 60 -133 46z"/>
<path d="M14140 1781 l0 -721 105 0 105 0 0 290 0 290 198 0 c108 0 226 5 262
11 142 22 264 108 323 228 31 63 32 70 32 186 0 109 -2 125 -27 177 -37 79
-73 123 -142 168 -114 78 -147 83 -523 88 l-333 4 0 -721z m670 523 c127 -38
188 -175 145 -322 -20 -67 -62 -114 -127 -142 -49 -22 -71 -24 -265 -28 l-213
-4 0 256 0 256 203 0 c158 0 216 -4 257 -16z"/>
<path d="M15705 2086 c-68 -17 -126 -48 -174 -94 l-39 -37 -7 67 -7 68 -89 0
-89 0 0 -515 0 -515 95 0 95 0 0 258 c1 289 8 371 40 438 49 101 127 149 242
149 l78 0 0 91 0 91 -37 7 c-46 7 -46 7 -108 -8z"/>
<path d="M16300 2093 c-51 -8 -147 -47 -198 -80 -142 -94 -215 -245 -215 -443
0 -165 43 -279 143 -381 97 -98 205 -139 365 -139 163 0 280 46 380 151 189
198 191 546 4 745 -60 63 -181 128 -268 144 -52 10 -160 11 -211 3z m214 -193
c61 -23 126 -80 155 -137 28 -56 45 -154 38 -227 -15 -164 -96 -266 -238 -302
-115 -30 -215 0 -293 87 -60 67 -80 129 -80 249 0 164 51 262 165 319 78 39
168 42 253 11z"/>
<path d="M19037 2089 c-51 -12 -109 -43 -151 -80 l-35 -30 -5 23 c-3 13 -7 37
-8 53 l-3 30 -87 3 -88 3 0 -516 0 -515 94 0 95 0 3 333 c3 322 4 334 26 382
46 100 114 144 220 145 133 0 205 -63 231 -205 6 -34 11 -184 11 -357 l0 -298
96 0 95 0 -3 368 c-3 347 -4 370 -24 424 -46 121 -121 194 -236 230 -63 19
-166 22 -231 7z"/>
<path d="M22690 2082 c-36 -9 -86 -29 -111 -44 -61 -36 -133 -117 -155 -174
-21 -54 -22 -52 83 -88 l72 -24 11 32 c13 41 74 100 124 121 47 20 157 23 209
6 19 -7 52 -30 71 -52 33 -36 36 -44 36 -104 l0 -64 -32 -5 c-18 -3 -96 -13
-173 -21 -208 -24 -286 -50 -367 -123 -120 -108 -119 -311 3 -415 66 -57 155
-81 282 -75 118 6 175 28 242 97 21 23 43 41 47 41 4 0 8 -15 8 -34 0 -18 3
-48 6 -65 l7 -31 89 0 89 0 -3 393 -3 392 -33 67 c-38 78 -94 129 -174 160
-75 29 -239 35 -328 10z m340 -602 c0 -115 -75 -221 -177 -251 -72 -21 -171
-18 -213 6 -101 59 -82 197 33 239 32 12 239 45 345 55 8 1 12 -15 12 -49z"/>
<path d="M17597 2083 c-11 -11 -8 -605 4 -690 12 -89 50 -181 98 -236 18 -20
63 -51 99 -69 64 -32 71 -33 187 -33 112 0 124 2 172 27 29 16 68 41 86 58
l35 30 7 -55 6 -55 90 0 89 0 0 515 0 515 -95 0 -95 0 0 -267 c0 -401 -12
-468 -98 -545 -36 -33 -105 -58 -157 -58 -51 0 -121 25 -155 57 -70 63 -74 84
-78 471 l-3 342 -93 0 c-51 0 -96 -3 -99 -7z"/>
<path d="M20870 1575 l0 -515 100 0 100 0 0 515 0 515 -100 0 -100 0 0 -515z"/>
</g>
</svg>
