<?xml version="1.0" standalone="no"?>
<!DOCTYPE svg PUBLIC "-//W3C//DTD SVG 20010904//EN"
 "http://www.w3.org/TR/2001/REC-SVG-20010904/DTD/svg10.dtd">
<svg version="1.0" xmlns="http://www.w3.org/2000/svg"
 width="3840.000000pt" height="2160.000000pt" viewBox="0 0 3840.000000 2160.000000"
 preserveAspectRatio="xMidYMid meet">

<g transform="translate(0.000000,2160.000000) scale(0.100000,-0.100000)"
fill="#000000" stroke="none">
<path d="M0 20900 l0 -700 19200 0 19200 0 0 700 0 700 -19200 0 -19200 0 0
-700z m19307 419 c43 -13 100 -79 109 -124 15 -82 -21 -161 -90 -198 -32 -17
-58 -22 -116 -22 -58 0 -84 5 -116 22 -74 39 -111 135 -85 216 16 48 80 104
128 112 21 4 43 8 48 10 14 5 83 -4 122 -16z m-10447 -64 c382 -43 647 -126
766 -242 53 -51 74 -96 74 -155 0 -156 -195 -279 -560 -352 -202 -40 -377 -57
-675 -63 -901 -19 -1465 142 -1465 417 0 216 341 367 935 414 129 10 787 -3
925 -19z m-7445 -396 c0 -119 -2 -134 -17 -137 -16 -3 -18 8 -18 131 0 73 3
137 7 141 22 21 28 -9 28 -135z m170 36 l70 -99 5 99 c4 80 8 100 20 100 13 0
15 -22 15 -135 0 -176 -7 -178 -107 -38 l-73 102 -3 -102 c-2 -91 -5 -103 -20
-100 -15 3 -17 19 -20 118 -5 197 9 203 113 55z m210 83 c3 -13 4 -75 3 -138
-3 -107 -4 -115 -23 -115 -19 0 -20 8 -23 124 -1 69 0 131 2 138 8 21 35 15
41 -9z m229 12 c14 -5 26 -16 26 -23 0 -11 -15 -14 -61 -13 -55 1 -63 -2 -85
-27 -36 -42 -33 -99 7 -139 28 -29 34 -30 85 -25 48 5 54 4 54 -13 0 -14 -10
-21 -36 -26 -84 -16 -155 24 -175 98 -30 112 78 209 185 168z m111 -130 c0
-128 -1 -135 -20 -135 -19 0 -20 8 -23 115 -3 133 1 163 26 158 15 -3 17 -19
17 -138z m252 120 c86 -52 94 -162 17 -230 -60 -53 -162 -37 -204 33 -26 42
-26 112 0 155 36 59 126 80 187 42z m1716 9 c35 -16 51 -47 35 -66 -11 -13
-15 -12 -34 12 -28 36 -79 33 -79 -5 0 -19 12 -31 55 -55 68 -38 87 -72 66
-113 -18 -34 -33 -42 -85 -42 -44 0 -91 31 -91 60 0 32 19 33 49 1 33 -35 31
-34 66 -21 44 17 30 50 -35 83 -30 15 -61 35 -67 44 -48 64 40 139 120 102z
m256 -2 c17 -21 3 -27 -61 -27 l-58 0 0 -40 0 -40 51 0 c43 0 50 -3 47 -17 -2
-14 -15 -19 -51 -21 l-47 -3 0 -40 0 -39 59 0 c61 0 75 -7 62 -28 -5 -9 -32
-12 -87 -10 l-79 3 -3 124 c-2 82 1 128 9 137 16 19 142 19 158 1z m218 -21
c42 -49 19 -116 -43 -132 l-26 -7 42 -42 c40 -41 46 -65 16 -65 -8 0 -35 25
-61 55 -25 30 -51 55 -56 55 -5 0 -9 -25 -9 -56 0 -47 -3 -55 -17 -52 -16 3
-18 18 -21 128 -1 68 0 130 3 138 4 12 21 14 77 10 62 -5 75 -9 95 -32z m126
-89 l39 -119 40 121 c36 113 55 141 72 112 6 -9 -62 -210 -84 -252 -7 -13 -19
-19 -33 -17 -18 2 -30 25 -68 128 -46 125 -50 154 -21 148 10 -2 29 -45 55
-121z m235 -16 c2 -112 0 -132 -13 -137 -9 -4 -19 -3 -23 1 -13 12 -15 232 -2
255 25 47 35 16 38 -119z m237 127 c14 -6 25 -17 25 -25 0 -11 -11 -12 -48 -7
-87 11 -143 -41 -128 -120 10 -54 49 -79 114 -74 57 5 76 -7 47 -29 -25 -18
-99 -17 -136 2 -93 49 -91 209 4 250 39 17 88 19 122 3z m100 -129 c0 -119 -2
-134 -17 -137 -16 -3 -18 8 -18 131 0 73 3 137 7 141 22 21 28 -9 28 -135z
m271 110 c55 -51 68 -112 37 -176 -46 -98 -207 -97 -249 2 -30 73 -6 153 57
187 46 26 120 20 155 -13z m236 1 c25 -25 28 -33 17 -46 -11 -13 -15 -12 -39
11 -36 34 -74 31 -78 -6 -3 -23 4 -29 45 -49 67 -31 83 -48 83 -86 0 -47 -32
-74 -88 -74 -35 0 -49 6 -73 29 -18 18 -27 35 -23 45 9 23 23 20 55 -15 22
-24 33 -29 51 -23 56 17 47 52 -22 87 -30 15 -61 35 -67 44 -35 46 8 113 72
113 27 0 44 -8 67 -30z m5292 20 c14 -5 26 -16 26 -25 0 -12 -9 -14 -53 -9
-48 6 -56 4 -85 -21 -28 -23 -32 -33 -32 -76 0 -40 5 -55 26 -76 23 -23 31
-25 85 -20 46 4 59 2 59 -9 0 -37 -104 -46 -158 -14 -43 26 -66 81 -58 137 8
58 24 82 71 104 45 21 81 24 119 9z m253 -10 c67 -40 88 -112 54 -182 -25 -52
-65 -78 -121 -78 -83 0 -140 56 -140 140 0 110 115 177 207 120z m155 6 c7 -7
40 -52 73 -99 l60 -86 5 97 c4 77 8 97 20 97 13 0 15 -22 15 -135 0 -173 -6
-176 -101 -43 l-69 98 -3 -93 c-2 -73 -6 -94 -18 -99 -27 -10 -34 17 -34 130
0 131 15 171 52 133z m406 -8 c3 -15 -4 -18 -32 -18 l-36 0 0 -107 c0 -113 -7
-140 -34 -130 -13 5 -16 25 -16 122 l0 115 -35 0 c-22 0 -35 5 -35 13 0 25 13
28 99 25 72 -3 86 -6 89 -20z m120 9 c18 -21 93 -240 88 -254 -10 -25 -34 -13
-46 22 l-12 36 -56 -3 c-54 -3 -56 -4 -64 -35 -9 -33 -34 -45 -44 -20 -5 14
71 234 88 254 13 17 33 17 46 0z m297 1 c41 -19 23 -33 -43 -33 -82 0 -107
-23 -107 -96 0 -44 4 -54 29 -76 26 -22 36 -25 83 -20 58 6 78 -7 48 -30 -50
-36 -162 -2 -192 57 -19 38 -16 110 7 148 33 54 115 77 175 50z m233 -10 c3
-15 -4 -18 -32 -18 l-35 0 -3 -117 c-3 -110 -4 -118 -23 -118 -19 0 -20 8 -23
118 l-3 117 -34 0 c-23 0 -35 5 -35 13 0 25 13 28 99 25 72 -3 86 -6 89 -20z
m229 -9 c100 -93 45 -249 -88 -249 -109 0 -173 112 -121 209 39 72 151 93 209
40z m17737 17 c41 -17 54 -57 31 -92 -14 -22 -14 -25 5 -44 25 -25 26 -71 1
-101 -17 -22 -27 -24 -98 -24 l-78 0 -3 124 c-1 69 0 131 2 138 7 18 97 17
140 -1z m130 -2 c3 -9 6 -54 6 -102 0 -99 13 -122 66 -122 51 0 64 27 64 138
0 76 3 94 16 99 25 9 34 -15 34 -92 0 -90 -14 -139 -47 -165 -45 -35 -133 -23
-163 23 -14 23 -27 194 -16 222 7 20 32 19 40 -1z m371 -9 c27 -26 32 -50 13
-61 -6 -4 -19 4 -30 19 -24 34 -73 37 -83 7 -9 -28 1 -39 61 -66 77 -34 96
-83 49 -129 -18 -19 -35 -25 -70 -25 -35 0 -52 6 -70 25 -14 13 -25 31 -25 39
0 28 23 30 44 4 27 -32 52 -41 77 -27 33 17 20 51 -32 79 -67 36 -79 49 -79
84 0 36 7 48 35 64 35 20 84 14 110 -13z m249 15 c14 -5 26 -16 26 -23 0 -11
-15 -14 -61 -13 -55 1 -63 -2 -85 -27 -36 -42 -33 -99 7 -139 28 -29 34 -30
85 -25 48 5 54 4 54 -13 0 -14 -10 -21 -36 -26 -114 -21 -199 61 -174 169 18
82 105 128 184 97z m194 -2 c17 -23 93 -241 88 -255 -10 -25 -34 -13 -46 22
-11 34 -13 35 -66 35 -52 0 -54 -1 -68 -35 -15 -34 -46 -49 -46 -21 0 20 79
237 92 253 13 16 33 17 46 1z m304 -16 c25 -24 27 -86 3 -112 -9 -10 -28 -21
-42 -25 l-26 -6 37 -37 c36 -38 47 -72 23 -72 -7 0 -37 25 -67 55 l-55 56 -5
-53 c-4 -40 -9 -54 -22 -56 -16 -3 -18 8 -18 131 0 73 3 137 8 141 4 5 38 6
75 3 51 -3 74 -10 89 -25z m-12443 -157 c14 -7 49 -38 77 -69 52 -56 52 -56
111 -56 62 0 75 6 135 63 96 90 287 65 344 -46 21 -39 21 -125 0 -165 -35 -68
-130 -109 -220 -97 -58 7 -121 37 -136 65 -17 32 -64 50 -129 50 -59 0 -60 0
-118 -59 -65 -66 -117 -87 -192 -77 -43 6 -131 49 -131 64 0 4 -13 22 -29 40
-27 29 -35 32 -91 32 -66 0 -113 -18 -130 -50 -15 -28 -78 -58 -137 -66 -95
-12 -184 30 -223 106 -18 34 -16 120 4 157 56 110 249 136 344 46 60 -57 73
-63 135 -63 l59 0 54 59 c51 55 78 72 129 85 31 7 115 -4 144 -19z m17731
-175 c0 -20 -7 -20 -3360 -20 -3353 0 -3360 0 -3360 20 0 20 7 20 3360 20
3353 0 3360 0 3360 -20z"/>
<path d="M7335 20988 c-3 -8 -4 -70 -3 -139 3 -116 4 -124 23 -124 16 0 21 8
23 41 l3 42 50 4 c67 7 99 37 99 93 0 64 -32 88 -120 93 -54 3 -71 1 -75 -10z
m142 -54 c28 -38 4 -73 -55 -81 l-42 -6 0 58 0 58 42 -6 c23 -3 48 -14 55 -23z"/>
<path d="M7625 20982 c-40 -25 -51 -40 -63 -84 -15 -54 0 -107 42 -145 31 -28
43 -33 87 -33 30 0 63 7 80 17 31 19 69 85 69 121 0 34 -24 84 -54 111 -36 33
-118 40 -161 13z m110 -34 c59 -27 73 -112 26 -159 -82 -82 -211 34 -140 125
34 43 70 54 114 34z"/>
<path d="M7875 20988 c-3 -8 -4 -70 -3 -139 3 -116 4 -124 23 -124 17 0 21 8
25 53 l5 53 55 -56 c30 -30 60 -55 67 -55 24 0 13 34 -24 72 -25 25 -32 38
-21 38 8 0 27 9 42 21 34 27 37 96 5 125 -27 25 -166 34 -174 12z m140 -48
c18 -15 19 -42 3 -58 -7 -7 -31 -12 -55 -12 l-43 0 0 46 0 47 40 -6 c23 -3 47
-11 55 -17z"/>
<path d="M8097 20994 c-18 -18 -5 -34 28 -34 l35 0 0 -107 c0 -113 7 -140 34
-130 12 5 16 27 18 119 l3 113 35 5 c22 3 35 10 35 20 0 12 -18 16 -90 18 -50
1 -94 0 -98 -4z"/>
<path d="M8327 20994 c-4 -4 -7 -67 -7 -141 0 -125 1 -133 20 -133 16 0 19 8
22 58 l3 57 53 3 c44 3 53 6 50 20 -2 13 -16 18 -56 20 l-53 3 3 37 3 37 60 5
c44 4 60 9 60 20 0 12 -16 16 -75 18 -42 1 -79 0 -83 -4z"/>
<path d="M8585 20990 c-43 -17 -85 -83 -85 -132 0 -36 38 -102 69 -121 17 -10
50 -17 80 -17 149 0 189 199 54 269 -25 13 -89 14 -118 1z m104 -44 c90 -47
51 -186 -53 -186 -86 0 -115 143 -37 185 33 18 55 18 90 1z"/>
<path d="M8825 20988 c-3 -8 -4 -70 -3 -139 l3 -124 80 0 c64 0 80 3 80 15 0
11 -14 16 -57 18 l-57 3 -3 117 c-3 102 -5 117 -21 120 -9 2 -19 -3 -22 -10z"/>
<path d="M9027 20993 c-4 -3 -7 -66 -7 -140 0 -126 1 -133 20 -133 19 0 20 7
20 140 0 110 -3 140 -13 140 -8 0 -17 -3 -20 -7z"/>
<path d="M9190 20993 c-23 -9 -60 -45 -76 -75 -19 -36 -18 -82 3 -125 23 -49
66 -73 131 -73 45 0 57 4 89 33 31 29 37 41 41 89 5 66 -14 110 -61 138 -31
19 -93 25 -127 13z m116 -64 c65 -61 19 -169 -71 -169 -40 0 -85 50 -85 95 0
46 13 71 48 90 33 19 78 12 108 -16z"/>
<path d="M2269 20945 c-56 -31 -63 -125 -12 -165 62 -49 153 -3 153 79 0 75
-77 122 -141 86z"/>
<path d="M4444 20946 c-3 -8 -4 -29 -2 -48 3 -30 6 -33 40 -36 27 -2 43 3 57
17 26 26 26 36 1 61 -24 24 -88 28 -96 6z"/>
<path d="M5402 20935 c-36 -30 -47 -66 -32 -110 29 -87 147 -86 180 1 14 36 1
82 -32 109 -38 32 -78 32 -116 0z"/>
<path d="M11211 20946 c-48 -27 -63 -84 -36 -136 30 -59 98 -68 146 -21 80 80
-12 211 -110 157z"/>
<path d="M11966 20901 c-23 -76 -22 -81 19 -81 41 0 43 9 16 85 l-18 50 -17
-54z"/>
<path d="M12622 20935 c-36 -30 -47 -66 -32 -110 22 -66 95 -85 149 -39 26 22
31 33 31 71 0 36 -6 50 -29 74 -37 37 -79 38 -119 4z"/>
<path d="M30400 20920 l0 -41 41 3 c49 3 71 27 53 56 -7 11 -26 18 -53 20
l-41 3 0 -41z"/>
<path d="M30400 20805 l0 -45 44 0 c45 0 76 18 76 45 0 22 -42 45 -82 45 l-38
0 0 -45z"/>
<path d="M31403 20893 c-12 -34 -19 -64 -15 -67 3 -3 20 -6 39 -6 39 0 40 10
14 85 l-18 50 -20 -62z"/>
<path d="M31620 20910 l0 -53 46 6 c46 5 64 18 64 47 0 29 -18 42 -64 47 l-46
6 0 -53z"/>
<path d="M0 10080 l0 -10080 19200 0 19200 0 0 10080 0 10080 -19200 0 -19200
0 0 -10080z m24186 8567 c114 -24 202 -98 247 -209 20 -49 21 -75 25 -365 l4
-312 711 -3 c707 -3 712 -3 759 -25 66 -30 143 -105 175 -172 l28 -56 3 -551
3 -552 92 -4 c71 -3 104 -10 147 -29 70 -33 136 -99 169 -169 l26 -55 0 -6685
0 -6685 -26 -55 c-33 -70 -99 -136 -169 -169 l-55 -26 -5935 0 -5935 0 -55 26
c-70 33 -136 99 -169 169 -24 50 -26 68 -29 207 l-4 153 5834 2 5833 3 53 29
c60 33 101 76 134 139 22 41 23 50 26 407 2 243 0 362 -7 355 -6 -6 -11 -145
-13 -360 -3 -346 -3 -351 -27 -395 -32 -61 -67 -97 -126 -128 l-50 -27 -345
-3 -345 -3 45 29 c59 37 117 103 143 161 16 36 22 72 25 172 l4 126 35 12 c47
17 110 75 135 125 23 46 37 156 19 156 -7 0 -11 -19 -11 -49 0 -70 -42 -147
-104 -188 -63 -43 -76 -42 -76 2 0 25 4 35 16 35 14 0 14 2 0 22 -18 26 -22
129 -6 159 7 13 7 19 0 19 -7 0 -11 2013 -12 6413 l-3 6412 -26 55 c-34 72
-97 136 -167 168 l-57 27 -5927 3 -5927 2 -58 -22 c-79 -29 -162 -112 -191
-191 l-22 -58 0 -5666 0 -5666 -62 7 c-95 10 -152 33 -205 80 -55 50 -89 110
-103 186 -14 73 -14 12107 0 12180 21 111 99 208 198 247 45 17 228 18 5417
21 3578 1 5388 -1 5424 -8 149 -27 231 -115 266 -282 8 -40 25 -35 25 7 0 106
-102 242 -213 283 l-58 22 -5409 0 -5409 0 -58 -22 c-41 -15 -74 -38 -114 -77
-39 -40 -62 -73 -77 -114 l-22 -58 0 -6109 0 -6109 22 -58 c15 -41 38 -74 77
-114 69 -69 141 -99 236 -99 l65 0 0 -280 0 -280 -282 0 c-156 0 -312 5 -347
10 -149 25 -253 126 -280 274 -16 85 -16 13228 0 13311 26 142 122 242 259
271 83 18 11750 19 11836 1z m515 -2273 c66 -31 114 -78 146 -142 l28 -57 0
-6155 0 -6155 -21 -46 c-31 -66 -78 -114 -142 -146 l-57 -28 -5455 0 -5455 0
-57 28 c-64 32 -111 80 -142 146 l-21 46 -3 6125 c-2 4411 0 6139 8 6176 22
101 93 181 193 216 50 17 290 17 5492 15 l5440 -2 46 -21z m4520 -4677 c61
-41 77 -113 39 -175 -43 -70 -136 -78 -197 -17 -28 28 -33 40 -33 82 0 55 17
85 64 114 41 25 86 24 127 -4z m224 -280 c61 -61 53 -154 -17 -197 -67 -40
-155 -13 -184 57 -21 50 -10 99 31 140 29 29 39 33 85 33 46 0 56 -4 85 -33z
m195 -232 c56 -29 78 -117 44 -175 -64 -108 -234 -61 -234 65 0 99 100 157
190 110z m177 -270 c12 -3 36 -22 54 -42 28 -33 31 -41 26 -86 -4 -42 -10 -56
-41 -84 -30 -28 -43 -33 -85 -33 -54 0 -91 22 -116 70 -36 69 4 157 81 180 29
8 38 7 81 -5z m-1556 -18 c19 -13 40 -39 48 -61 31 -80 -33 -166 -124 -166
-91 0 -152 99 -110 180 36 71 120 92 186 47z m309 8 c36 -19 60 -62 60 -110 0
-75 -51 -125 -127 -125 -71 1 -123 53 -123 123 0 101 99 159 190 112z m324 -6
c53 -42 69 -104 41 -159 -37 -71 -120 -92 -186 -47 -102 69 -49 227 76 227 28
0 51 -7 69 -21z m317 -2 c102 -69 49 -227 -76 -227 -91 0 -152 99 -110 180 37
71 119 92 186 47z m309 7 c108 -64 61 -234 -65 -234 -99 0 -157 100 -110 190
29 56 117 78 175 44z m120 -280 c79 -47 80 -178 0 -219 -90 -47 -190 11 -190
110 0 97 107 158 190 109z m-212 -254 c70 -43 78 -136 17 -197 -29 -29 -39
-33 -85 -33 -46 0 -56 4 -85 33 -19 19 -36 48 -40 69 -14 74 48 148 125 148
19 0 50 -9 68 -20z m-223 -254 c63 -27 94 -114 62 -176 -17 -33 -74 -70 -109
-70 -137 0 -179 191 -54 246 40 17 59 17 101 0z"/>
<path d="M13720 16363 c-61 -22 -142 -104 -163 -167 -16 -46 -17 -470 -17
-6176 0 -5706 1 -6130 17 -6176 22 -66 101 -145 167 -167 46 -16 425 -17 5476
-17 5051 0 5430 1 5476 17 66 22 145 101 167 167 16 46 17 470 17 6176 0 5706
-1 6130 -17 6176 -22 66 -101 145 -167 167 -46 16 -424 17 -5480 16 -4921 -1
-5435 -2 -5476 -16z m8098 -565 c23 -23 13 -47 -24 -63 -64 -26 -63 -25 -64
-296 l0 -246 26 -26 c14 -14 35 -27 47 -29 26 -4 35 -39 14 -56 -16 -13 -65
-2 -104 23 -48 32 -53 64 -53 336 0 304 5 322 97 355 47 16 47 16 61 2z m421
-2 c9 -11 11 -79 9 -253 -3 -217 -5 -241 -23 -272 -32 -54 -67 -75 -128 -75
-64 -1 -117 31 -117 70 0 31 23 40 52 20 36 -26 93 -21 117 10 20 25 21 39 21
258 0 167 3 235 12 244 16 16 43 15 57 -2z m2015 -15 c16 -9 37 -32 47 -51 17
-31 19 -60 19 -288 0 -273 -5 -305 -53 -337 -33 -21 -84 -35 -103 -28 -24 9
-14 57 13 61 12 2 33 15 47 29 l26 26 0 246 c-1 271 0 270 -64 296 -22 9 -36
22 -36 33 0 43 42 48 104 13z m-926 7 c7 -7 12 -21 12 -33 0 -12 -5 -26 -12
-33 -7 -7 -21 -12 -33 -12 -12 0 -26 5 -33 12 -7 7 -12 21 -12 33 0 12 5 26
12 33 7 7 21 12 33 12 12 0 26 -5 33 -12z m-211 -164 c68 -51 82 -98 83 -267
0 -123 -8 -157 -38 -157 -37 0 -42 20 -42 158 0 163 -10 193 -74 217 -70 27
-144 -4 -171 -70 -5 -11 -11 -83 -14 -160 l-6 -140 -27 -3 c-37 -4 -39 7 -36
238 l3 195 30 0 c26 0 31 -4 35 -33 l5 -34 25 27 c14 15 39 34 55 41 43 20
138 13 172 -12z m575 11 c148 -51 198 -254 90 -368 -89 -94 -246 -99 -336 -11
-49 48 -69 95 -69 165 -1 163 155 268 315 214z m-1302 -150 c5 -156 12 -181
52 -209 34 -24 119 -21 152 5 44 35 50 57 56 209 l5 145 30 0 30 0 0 -215 0
-215 -30 0 c-27 0 -30 4 -33 33 l-3 33 -39 -35 c-84 -75 -227 -51 -274 48 -13
27 -16 67 -16 188 0 85 3 158 7 162 4 4 19 6 33 4 l25 -3 5 -150z m935 -65 l0
-215 -30 0 -30 0 -3 205 c-1 112 0 211 3 218 3 8 16 12 32 10 l28 -3 0 -215z
m-6085 -975 c329 -50 599 -151 851 -317 122 -81 324 -281 401 -398 154 -232
245 -489 279 -780 15 -131 6 -442 -15 -558 -91 -491 -311 -874 -814 -1416
-195 -209 -362 -367 -957 -906 l-469 -425 1197 -3 1197 -2 0 -500 0 -500 -345
0 -346 0 15 -27 c20 -39 65 -79 108 -97 86 -36 225 -6 276 59 l22 28 98 -28
c53 -15 101 -32 106 -36 16 -14 -63 -117 -122 -159 -81 -58 -151 -82 -263 -87
-147 -8 -256 25 -351 106 -51 44 -111 135 -128 195 l-13 46 -53 0 -54 0 0
-170 0 -170 -109 0 c-116 0 -121 2 -121 54 0 37 -10 37 -57 1 -66 -51 -130
-68 -227 -63 -96 5 -163 31 -220 86 -48 46 -93 138 -102 208 l-6 54 -349 0
c-192 0 -349 -3 -349 -6 0 -4 9 -22 21 -40 42 -68 138 -103 231 -83 41 9 62
22 100 60 l49 49 100 -29 c55 -16 103 -32 107 -36 11 -11 -32 -80 -85 -131
-59 -59 -149 -108 -230 -124 -83 -18 -225 -8 -296 20 -113 43 -216 152 -251
265 l-18 55 -44 0 -44 0 0 -170 0 -170 -125 0 -125 0 0 170 0 170 -175 0 -175
0 0 -170 0 -170 -120 0 -120 0 0 170 0 170 -150 0 -150 0 0 115 0 115 -250 0
-250 0 2 -177 3 -178 338 -3 337 -2 0 -105 0 -105 -465 0 -465 0 0 665 0 665
450 0 449 0 733 686 c982 920 1416 1356 1606 1612 114 155 203 336 244 497 20
77 23 116 23 270 0 208 -15 279 -88 419 -85 164 -218 266 -412 317 -115 29
-331 37 -447 15 -196 -37 -368 -143 -473 -290 -119 -169 -185 -380 -201 -648
l-7 -108 -565 0 -565 0 6 153 c10 241 55 490 123 691 47 137 150 341 231 456
93 131 312 349 433 429 274 183 606 296 985 335 96 10 544 -3 645 -19z m2197
-102 c13 -9 33 -32 43 -52 11 -20 19 -29 20 -19 0 28 50 77 89 89 52 15 122
-14 142 -60 14 -32 29 -41 29 -17 0 20 64 73 98 80 15 4 42 2 58 -4 35 -13 84
-58 84 -77 0 -23 15 -14 29 18 20 46 90 75 142 60 39 -12 89 -61 89 -89 1 -10
9 -1 20 19 52 98 181 99 231 1 l16 -31 16 34 c22 45 59 68 112 68 53 0 90 -23
112 -68 l16 -34 16 31 c24 47 65 73 115 72 52 -1 91 -26 116 -73 11 -20 19
-29 20 -19 0 28 50 77 89 89 52 15 122 -14 142 -60 8 -17 16 -31 19 -31 3 1
14 15 25 33 26 42 85 71 126 62 35 -8 99 -60 99 -81 0 -24 15 -15 29 17 20 46
90 75 142 60 39 -12 89 -61 89 -89 1 -10 9 -1 20 19 52 98 181 99 231 1 l16
-31 16 34 c22 46 59 68 113 68 53 0 92 -25 113 -71 l14 -31 16 31 c49 97 191
96 231 -2 l12 -30 17 32 c47 93 168 99 222 11 l21 -33 22 32 c11 18 39 41 60
52 32 16 44 17 76 7 111 -33 133 -168 38 -230 l-37 -24 31 -17 c87 -46 85
-190 -3 -223 -16 -6 -29 -14 -29 -17 0 -3 13 -11 29 -17 89 -33 90 -177 2
-224 l-31 -17 35 -21 c69 -41 83 -136 28 -193 -65 -68 -172 -50 -208 36 l-13
29 -17 -37 c-44 -93 -178 -92 -226 2 l-16 31 -17 -35 c-23 -50 -90 -79 -145
-64 -41 11 -91 59 -91 88 -1 9 -10 0 -21 -20 -25 -49 -61 -71 -113 -71 -51 0
-91 24 -116 72 -11 20 -19 29 -20 19 0 -29 -50 -77 -91 -88 -55 -15 -122 14
-145 64 l-17 35 -16 -31 c-23 -45 -63 -71 -108 -71 -52 0 -98 26 -115 63 -13
31 -28 40 -28 17 0 -20 -53 -66 -88 -76 -44 -13 -95 3 -126 40 -14 17 -26 35
-26 40 0 19 -16 8 -28 -21 -17 -37 -63 -63 -115 -63 -45 0 -85 26 -108 71
l-16 31 -17 -35 c-23 -50 -90 -79 -145 -64 -41 11 -91 59 -91 88 -1 9 -10 0
-21 -20 -26 -50 -61 -71 -114 -71 -53 0 -88 21 -114 71 -11 20 -20 29 -21 20
0 -29 -50 -77 -91 -88 -56 -15 -120 14 -148 67 -13 24 -20 31 -21 20 0 -25
-63 -87 -86 -87 -12 0 -4 -8 21 -23 98 -55 93 -188 -9 -233 -21 -9 -25 -13
-13 -14 30 0 85 -62 92 -103 10 -50 -19 -106 -66 -131 l-36 -20 30 -15 c96
-50 94 -191 -3 -231 l-30 -12 32 -17 c93 -48 98 -183 7 -223 -16 -7 -29 -15
-29 -18 0 -3 13 -11 29 -18 90 -40 86 -175 -6 -223 l-30 -15 35 -20 c19 -10
43 -34 53 -53 l18 -34 10 24 c39 101 187 104 232 4 10 -22 19 -32 19 -23 0 23
48 78 79 90 l26 10 -31 13 c-99 41 -101 180 -4 230 61 32 138 3 171 -63 16
-31 17 -32 22 -9 4 12 20 35 36 51 61 58 161 39 198 -39 l16 -34 18 38 c11 24
28 43 48 52 17 8 31 16 31 19 0 3 -14 11 -31 19 -46 20 -75 90 -60 142 14 45
59 86 105 95 46 8 103 -20 129 -63 l19 -33 17 31 c20 36 73 69 111 69 38 0 91
-33 111 -69 l17 -31 19 33 c26 44 83 71 131 62 40 -7 102 -63 102 -91 0 -12 8
-4 23 21 55 98 189 93 232 -9 l13 -31 7 28 c9 33 54 73 95 82 41 9 94 -11 125
-46 19 -24 25 -42 25 -81 0 -43 -4 -54 -32 -82 -18 -18 -40 -36 -48 -39 -13
-6 -13 -8 0 -14 27 -12 80 -71 80 -89 1 -13 5 -9 14 11 35 78 121 107 186 63
19 -13 40 -35 47 -48 31 -61 1 -149 -60 -175 l-32 -13 26 -10 c28 -11 79 -66
79 -85 0 -7 8 3 17 22 33 66 116 90 180 51 87 -53 81 -179 -11 -221 -23 -10
-33 -19 -24 -19 23 0 78 -48 90 -79 l10 -26 13 32 c26 61 114 91 175 60 34
-17 70 -74 70 -112 0 -41 -36 -96 -76 -115 l-30 -14 30 -16 c17 -8 40 -29 51
-47 21 -34 35 -42 35 -19 0 8 16 28 35 45 30 26 44 31 86 31 44 0 55 -4 84
-33 65 -65 52 -158 -30 -204 -25 -15 -33 -23 -21 -23 28 0 84 -62 91 -103 10
-51 -19 -106 -70 -134 -25 -15 -33 -23 -21 -23 29 0 84 -62 91 -103 9 -48 -20
-105 -63 -126 -17 -9 -32 -18 -32 -21 0 -3 15 -12 32 -21 43 -21 72 -78 63
-126 -7 -41 -62 -103 -91 -103 -12 0 -5 -8 20 -23 51 -29 81 -84 71 -134 -7
-41 -62 -103 -91 -103 -12 0 -4 -8 21 -23 98 -55 93 -188 -9 -233 -21 -9 -25
-13 -12 -14 28 0 84 -62 91 -102 15 -78 -48 -148 -133 -148 -36 0 -50 6 -76
33 -18 17 -36 39 -39 47 -5 12 -8 12 -13 2 -14 -31 -56 -70 -81 -77 l-28 -7
30 -13 c70 -30 100 -100 72 -168 -41 -97 -191 -101 -231 -6 l-13 31 -21 -35
c-11 -20 -35 -43 -53 -52 l-32 -17 33 -16 c65 -32 89 -116 50 -179 -53 -87
-180 -81 -221 11 l-18 40 -6 -27 c-7 -25 -46 -67 -77 -81 -10 -5 -10 -7 1 -12
7 -4 27 -19 44 -33 40 -37 48 -110 17 -159 -21 -34 -72 -62 -113 -62 -35 0
-89 40 -109 80 -10 19 -18 28 -18 19 0 -25 -40 -70 -74 -84 l-31 -13 26 -10
c14 -6 38 -25 53 -43 25 -29 28 -39 24 -86 -5 -63 -33 -98 -88 -113 -64 -17
-126 12 -150 71 l-12 29 -17 -32 c-24 -47 -65 -73 -115 -72 -52 1 -91 26 -116
73 -11 20 -19 29 -20 19 0 -28 -50 -77 -89 -89 -52 -15 -122 14 -142 60 -14
32 -29 41 -29 17 0 -21 -64 -73 -99 -81 -41 -9 -100 20 -126 62 -11 18 -22 32
-25 33 -3 0 -11 -14 -19 -31 -10 -23 -28 -38 -62 -52 l-49 -21 0 -188 0 -188
-109 0 -110 0 -7 48 c-3 26 -9 50 -11 55 -2 4 -27 -13 -55 -38 -66 -60 -133
-79 -243 -72 -186 11 -295 118 -282 276 3 36 8 77 12 91 5 21 0 27 -27 41 -18
8 -42 31 -52 51 l-20 35 -15 -30 c-22 -42 -64 -70 -106 -71 l-35 -1 0 -52 c0
-44 5 -58 29 -85 28 -31 33 -33 100 -33 l71 0 0 -101 c0 -84 -3 -103 -16 -108
-31 -12 -181 -6 -233 10 -74 21 -143 88 -172 163 -27 73 -46 298 -33 408 6 51
6 51 -30 68 -20 10 -44 30 -53 46 -10 16 -23 29 -30 29 -10 0 -13 27 -13 110
0 103 1 110 20 110 22 0 23 4 11 35 -7 18 -9 17 -25 -13 -33 -64 -105 -88
-171 -56 -94 44 -93 176 2 225 l30 15 -35 20 c-19 10 -43 34 -53 53 l-18 34
-10 -24 c-16 -41 -56 -71 -105 -76 -140 -16 -194 174 -68 238 l31 16 -34 16
c-91 43 -87 189 5 227 l30 12 -32 18 c-46 24 -69 60 -70 106 -1 81 51 134 131
134 45 0 96 -36 113 -79 l10 -26 13 32 c21 48 69 75 128 70 51 -4 80 -24 104
-71 l15 -30 14 32 c16 39 68 72 114 72 46 0 98 -33 114 -72 l14 -32 15 30 c24
47 53 67 104 71 147 13 195 -184 59 -243 -17 -7 -24 -13 -15 -14 24 0 70 -39
83 -71 l12 -28 18 33 c60 112 236 74 238 -53 1 -52 -25 -97 -70 -120 -24 -13
-31 -20 -18 -21 23 0 86 -63 86 -87 1 -12 8 -5 21 19 26 50 61 71 114 71 53 0
88 -21 114 -71 11 -20 20 -29 21 -20 0 29 50 77 91 88 55 15 122 -14 145 -64
l17 -35 16 31 c23 45 63 71 108 71 52 0 98 -26 115 -63 12 -29 28 -40 28 -21
0 5 12 23 26 40 31 37 82 53 126 40 35 -10 88 -56 88 -76 0 -23 15 -14 28 17
17 37 63 63 115 63 45 0 85 -26 108 -71 l16 -31 17 35 c23 50 90 79 145 64 41
-11 91 -59 91 -88 0 -9 10 1 23 22 12 21 36 46 54 56 l31 16 -32 18 c-61 33
-84 112 -51 176 43 83 189 77 225 -9 l12 -31 18 32 c9 18 33 42 53 53 l36 21
-30 13 c-91 40 -94 185 -4 228 l34 16 -31 16 c-94 48 -93 183 1 227 l34 16
-29 13 c-58 25 -89 88 -73 149 9 33 56 86 76 86 7 0 13 5 13 10 0 6 -6 10 -13
10 -20 0 -67 53 -76 86 -4 16 -4 45 0 64 9 38 59 90 87 90 10 0 0 10 -24 25
-91 54 -89 179 4 226 l31 16 -34 16 c-20 10 -42 31 -53 53 l-19 36 -12 -31
c-26 -62 -120 -91 -181 -55 -84 50 -78 188 10 224 l32 13 -36 19 c-20 10 -44
34 -55 56 -14 25 -20 31 -21 18 0 -10 -16 -34 -36 -52 -30 -29 -43 -34 -82
-34 -59 1 -89 17 -118 66 -16 26 -24 33 -24 21 0 -11 -15 -34 -34 -53 -30 -30
-40 -34 -85 -34 -42 0 -56 5 -86 31 -19 17 -35 37 -35 45 0 21 -18 17 -25 -6
-3 -10 -20 -31 -36 -45 -62 -51 -163 -26 -194 49 l-13 31 -10 -26 c-6 -14 -25
-38 -42 -52 -25 -21 -42 -27 -82 -27 -44 0 -54 4 -84 34 -19 19 -34 42 -34 53
0 12 -8 5 -24 -21 -28 -47 -59 -65 -111 -66 -50 0 -102 31 -119 71 l-13 31
-13 -32 c-38 -92 -192 -92 -230 -1 l-12 31 -17 -32 c-9 -18 -33 -42 -53 -54
l-38 -20 35 -17 c44 -21 66 -55 67 -104 1 -115 -122 -176 -206 -102 -19 16
-38 39 -41 50 -6 18 -9 17 -23 -13 -10 -18 -33 -42 -53 -52 l-36 -20 30 -15
c120 -62 79 -241 -55 -241 -43 0 -93 31 -114 71 l-16 33 -14 -32 c-16 -39 -68
-72 -114 -72 -46 0 -98 33 -114 72 l-14 32 -16 -33 c-48 -93 -184 -93 -229 0
l-16 34 -9 -25 c-17 -42 -57 -72 -106 -77 -140 -16 -194 174 -68 238 l31 16
-34 16 c-41 20 -67 67 -67 120 1 49 23 83 68 104 l35 17 -35 18 c-46 24 -67
57 -68 105 0 53 26 100 67 120 l34 16 -31 16 c-93 47 -95 172 -4 226 24 15 34
25 24 25 -28 0 -78 52 -87 90 -4 19 -4 48 0 64 9 33 56 86 76 86 7 0 13 5 13
10 0 6 -6 10 -13 10 -20 0 -67 53 -76 86 -4 16 -4 45 0 64 9 38 59 90 87 90
10 0 0 10 -24 25 -91 54 -89 179 4 226 l31 16 -34 16 c-41 20 -67 67 -67 120
1 49 22 81 68 105 l36 19 -31 13 c-93 38 -97 183 -6 227 l34 16 -31 16 c-45
23 -69 61 -70 107 0 54 23 96 65 119 l35 18 -31 16 c-17 9 -39 28 -49 42 -40
54 -15 155 44 182 29 13 37 27 15 27 -21 0 -66 53 -76 88 -17 59 14 122 73
147 l29 13 -37 17 c-44 21 -69 64 -68 119 2 98 114 154 199 99z m3841 -100 c2
-24 -2 -34 -18 -43 -29 -15 -59 -4 -66 26 -9 34 12 56 50 52 27 -3 31 -7 34
-35z m260 4 c6 -51 -33 -74 -70 -40 -36 33 -14 76 37 71 25 -2 31 -8 33 -31z
m-270 -239 c17 -17 15 -53 -3 -68 -38 -31 -96 27 -65 65 15 18 51 20 68 3z
m270 -24 c4 -38 -18 -59 -53 -50 -15 4 -27 16 -31 31 -9 35 12 57 50 53 27 -3
31 -7 34 -34z m-4657 -474 c27 -15 26 -66 -2 -80 -16 -9 -26 -8 -45 5 -28 18
-31 41 -7 67 19 21 27 22 54 8z m269 -10 c11 -11 20 -24 20 -30 0 -5 -9 -19
-20 -30 -11 -11 -24 -20 -30 -20 -5 0 -19 9 -30 20 -11 11 -20 25 -20 30 0 6
9 19 20 30 11 11 25 20 30 20 6 0 19 -9 30 -20z m-269 -250 c29 -16 26 -67 -6
-82 -21 -9 -28 -8 -45 7 -26 24 -25 50 2 69 27 19 24 19 49 6z m269 -10 c11
-11 20 -24 20 -30 0 -5 -9 -19 -20 -30 -11 -11 -24 -20 -30 -20 -5 0 -19 9
-30 20 -11 11 -20 25 -20 30 0 6 9 19 20 30 11 11 25 20 30 20 6 0 19 -9 30
-20z m1262 8 c26 -22 29 -47 8 -68 -24 -24 -38 -25 -62 -3 -23 21 -23 38 2 63
23 23 31 24 52 8z m-1513 -280 c19 -49 -39 -87 -74 -48 -15 17 -16 24 -7 45
16 34 69 36 81 3z m261 1 c14 -26 -11 -69 -40 -69 -11 0 -27 11 -35 24 -23 34
-5 66 35 66 19 0 33 -7 40 -21z m1269 -1 c19 -49 -39 -87 -74 -48 -15 17 -16
24 -7 45 16 34 69 36 81 3z m-948 -3737 c30 -12 74 -37 97 -57 42 -35 99 -120
89 -130 -3 -3 -50 -19 -104 -34 l-98 -29 -20 23 c-11 13 -29 28 -40 34 -66 31
-165 20 -202 -23 -52 -60 -22 -86 152 -136 77 -22 163 -51 192 -65 107 -51
160 -142 150 -254 -9 -106 -64 -177 -181 -231 -60 -28 -83 -33 -173 -37 -125
-6 -200 8 -280 52 -63 35 -128 115 -139 171 l-6 30 106 32 106 31 16 -34 c9
-19 31 -43 49 -54 70 -43 194 -34 234 17 54 67 10 108 -164 152 -71 19 -155
46 -186 61 -126 64 -176 177 -133 302 30 90 123 165 239 195 74 19 227 11 296
-16z m-4151 -2091 l0 -680 -125 0 -125 0 0 680 0 680 125 0 125 0 0 -680z
m2110 430 c0 -137 4 -250 8 -250 5 0 17 9 27 20 33 37 123 71 200 77 197 15
343 -104 375 -307 5 -36 10 -197 10 -357 l0 -293 -129 0 -130 0 -3 313 c-3
291 -4 314 -23 346 -32 55 -67 75 -138 78 -51 3 -69 0 -101 -19 -81 -48 -95
-117 -96 -475 l0 -243 -120 0 -120 0 0 680 0 680 120 0 120 0 0 -250z m2023
193 c152 -53 271 -150 346 -284 l31 -56 -107 -31 c-59 -18 -107 -31 -108 -29
-47 83 -155 174 -238 199 -23 7 -91 13 -152 13 -99 0 -116 -3 -168 -27 -66
-31 -155 -115 -186 -176 -74 -145 -69 -378 12 -514 106 -180 342 -246 545
-153 61 28 151 113 181 172 l20 41 93 -25 c51 -14 99 -28 106 -32 25 -14 -55
-148 -138 -232 -86 -87 -158 -127 -290 -160 -108 -27 -288 -23 -390 10 -192
61 -354 222 -417 416 -35 107 -43 279 -19 388 43 192 176 363 346 445 117 56
199 73 336 68 90 -3 128 -10 197 -33z m-4463 -83 l0 -110 -340 0 -340 0 2
-167 3 -168 253 -3 252 -2 0 -100 0 -100 -255 0 -255 0 0 -285 0 -285 -125 0
-125 0 0 665 0 665 465 0 465 0 0 -110z m5900 0 l0 -110 -335 0 -335 0 0 -170
0 -170 250 0 250 0 0 -100 0 -100 -250 0 -250 0 0 -285 0 -285 -130 0 -130 0
0 665 0 665 465 0 465 0 0 -110z m350 -165 l0 -275 43 1 42 0 230 272 231 272
152 3 c84 1 152 -1 152 -5 0 -5 -122 -152 -270 -328 -226 -268 -267 -322 -257
-335 11 -14 502 -604 535 -642 14 -17 6 -18 -149 -18 l-164 0 -235 286 c-232
282 -235 285 -270 282 l-35 -3 -3 -282 -2 -283 -125 0 -125 0 0 665 0 665 125
0 125 0 0 -275z m-5209 -124 c72 -27 127 -75 164 -142 l30 -54 3 -367 3 -368
-110 0 -110 0 -7 48 c-3 26 -8 50 -11 54 -2 5 -20 -8 -40 -27 -53 -51 -115
-77 -197 -83 -144 -9 -252 37 -311 132 -27 44 -30 58 -30 130 0 98 20 143 91
205 59 51 164 85 314 101 180 19 170 14 170 71 0 40 -5 55 -29 81 -27 30 -34
33 -102 36 -93 4 -151 -22 -184 -84 l-22 -41 -94 34 c-52 19 -98 38 -102 42
-13 13 37 102 84 149 82 81 182 113 334 108 71 -2 116 -9 156 -25z m850 0 c68
-26 142 -88 170 -143 11 -22 18 -42 16 -45 -3 -3 -50 -18 -104 -33 l-98 -29
-20 23 c-11 13 -29 28 -40 34 -118 57 -276 -26 -201 -106 7 -7 75 -31 152 -53
76 -22 163 -51 192 -65 107 -52 160 -141 149 -254 -9 -106 -64 -177 -181 -231
-61 -28 -83 -33 -174 -37 -212 -10 -349 56 -408 197 -8 18 -14 39 -14 45 0 7
47 26 105 43 l105 31 16 -34 c9 -19 31 -43 49 -54 70 -43 194 -34 234 17 54
67 10 108 -164 152 -152 39 -227 74 -277 129 -57 63 -71 136 -43 228 27 92
112 164 236 199 76 21 226 14 300 -14z m-2653 -1488 c3 -10 -14 -13 -62 -13
l-66 0 0 -45 0 -45 50 0 c38 0 50 -4 50 -15 0 -11 -12 -15 -50 -15 l-50 0 0
-50 0 -50 66 0 c48 0 65 -3 62 -12 -3 -9 -29 -13 -84 -13 l-79 0 -3 124 c-1
69 0 131 3 138 6 18 156 14 163 -4z m138 -95 l79 -113 3 113 c2 84 6 112 15
109 9 -3 12 -41 12 -138 0 -111 -3 -134 -15 -136 -9 -2 -44 39 -90 105 l-75
107 -5 -104 c-3 -71 -9 -106 -17 -109 -10 -3 -13 29 -13 137 0 113 3 141 14
141 7 0 49 -51 92 -112z m338 102 c47 -17 29 -30 -32 -24 -55 6 -61 5 -93 -24
-30 -27 -34 -36 -34 -82 0 -46 4 -55 34 -82 32 -29 38 -30 93 -24 59 6 75 -4
39 -24 -29 -15 -98 -12 -132 5 -93 49 -91 209 4 250 38 17 86 19 121 5z m86
-104 c6 -120 15 -136 76 -136 60 0 73 27 76 159 2 57 7 86 16 89 9 3 12 -23
12 -108 0 -110 0 -112 -29 -141 -24 -24 -38 -29 -76 -29 -38 0 -52 5 -76 29
-29 29 -29 31 -29 141 0 85 3 111 13 108 8 -3 14 -39 17 -112z m385 99 c0 -5
-30 -11 -67 -13 l-68 -3 0 -44 0 -44 52 -3 c74 -4 77 -28 4 -28 l-56 0 0 -50
0 -49 65 -3 c95 -4 86 -22 -12 -26 l-83 -3 0 134 c0 73 3 137 7 141 11 11 158
2 158 -9z m159 -6 c27 -21 36 -59 13 -59 -8 0 -19 11 -25 25 -9 20 -19 25 -46
25 -24 0 -38 -6 -45 -18 -15 -28 11 -58 70 -83 53 -23 69 -42 69 -83 0 -52
-104 -89 -151 -53 -15 11 -39 49 -39 61 0 16 30 3 44 -19 11 -17 26 -25 45
-25 47 0 61 10 61 42 0 26 -6 32 -55 54 -59 27 -85 55 -85 90 0 30 45 64 85
64 18 0 44 -9 59 -21z m224 4 c2 -9 -9 -13 -37 -13 l-41 0 0 -125 c0 -104 -2
-125 -15 -125 -13 0 -15 21 -15 125 l0 125 -40 0 c-29 0 -40 4 -40 15 0 13 15
15 92 13 62 -2 93 -7 96 -15z m99 5 c11 -15 93 -240 93 -257 0 -26 -29 -8 -40
24 -11 35 -12 35 -71 35 -58 0 -59 -1 -73 -35 -16 -37 -36 -47 -36 -17 0 9 18
67 40 127 22 61 43 116 45 123 2 6 11 12 18 12 8 0 19 -6 24 -12z m258 -13
c27 -26 31 -40 15 -50 -6 -4 -20 5 -31 19 -36 46 -110 27 -94 -25 4 -13 27
-30 60 -44 84 -38 106 -85 60 -130 -18 -19 -35 -25 -70 -25 -35 0 -52 6 -70
25 -25 24 -32 49 -17 59 5 3 19 -8 31 -25 19 -25 28 -30 58 -27 72 6 70 57 -3
91 -57 27 -84 56 -84 89 0 66 95 94 145 43z m333 5 c18 -11 40 -36 48 -55 43
-103 -18 -205 -124 -205 -56 0 -99 25 -123 72 -35 68 -15 148 47 188 39 26
109 26 152 0z m202 -92 l75 -106 5 106 c3 72 9 107 18 110 9 3 12 -29 12 -137
0 -116 -3 -141 -14 -141 -8 0 -50 50 -93 111 l-78 110 -3 -111 c-2 -82 -6
-110 -15 -107 -12 4 -23 236 -12 265 9 25 30 6 105 -100z m190 -13 l0 -125 60
0 c47 0 60 -3 60 -15 0 -12 -15 -15 -75 -15 l-75 0 0 140 c0 118 2 140 15 140
13 0 15 -21 15 -125z m180 -15 c0 -118 -2 -140 -15 -140 -13 0 -15 22 -15 140
0 118 2 140 15 140 13 0 15 -22 15 -140z m154 30 c42 -60 80 -110 82 -110 3 0
3 44 -1 98 -6 98 2 139 25 116 7 -7 10 -57 8 -140 -2 -105 -6 -129 -18 -131
-9 -2 -44 38 -90 104 l-75 108 -5 -104 c-3 -71 -9 -106 -17 -109 -10 -3 -13
29 -13 137 0 112 3 141 14 141 7 0 48 -49 90 -110z m324 93 c3 -10 -14 -13
-62 -13 l-66 0 0 -45 0 -45 50 0 c38 0 50 -4 50 -15 0 -11 -12 -15 -50 -15
l-50 0 0 -50 0 -50 65 0 c52 0 65 -3 65 -15 0 -13 -14 -15 -82 -13 l-83 3 -3
124 c-1 69 0 131 3 138 6 18 156 14 163 -4z m242 4 c74 -37 49 -146 -35 -147
l-29 0 53 -54 c36 -36 49 -56 41 -61 -7 -5 -36 17 -76 56 l-64 63 0 -62 c0
-48 -3 -62 -15 -62 -13 0 -15 22 -15 140 l0 140 58 0 c31 0 68 -6 82 -13z
m214 -54 c59 -159 66 -179 66 -195 0 -31 -27 -20 -36 15 -9 31 -11 32 -71 35
l-61 3 -12 -36 c-11 -32 -40 -50 -40 -24 0 6 21 69 46 140 56 156 69 164 108
62z m245 52 c33 -17 41 -33 41 -84 0 -52 -27 -75 -99 -81 l-56 -5 -3 -48 c-2
-32 -7 -47 -15 -44 -12 4 -23 236 -13 264 7 18 109 17 145 -2z m105 -1 c9 -24
7 -237 -3 -253 -5 -7 -14 -10 -20 -7 -12 8 -16 258 -4 269 11 11 20 8 27 -9z
m191 2 c100 -42 100 -210 -1 -252 -21 -9 -57 -14 -87 -12 l-52 3 -3 124 c-1
69 0 131 2 138 7 18 97 17 141 -1z m266 -121 c25 -71 45 -133 42 -137 -9 -17
-25 -6 -39 27 -14 34 -15 35 -73 35 -59 0 -60 0 -71 -35 -10 -31 -40 -50 -40
-26 0 15 83 245 93 259 23 30 42 4 88 -123z m206 113 c23 -21 32 -58 14 -58
-5 0 -16 11 -25 25 -28 43 -101 30 -94 -16 2 -18 19 -32 62 -55 65 -35 76 -47
76 -86 0 -36 -42 -68 -90 -68 -43 0 -90 32 -90 60 0 31 18 32 32 3 11 -23 21
-29 55 -31 33 -2 44 1 52 17 17 31 3 50 -60 81 -83 42 -99 80 -54 125 32 33
89 34 122 3z m5458 -1265 c47 -25 96 -74 121 -123 26 -49 26 -171 0 -220 -25
-49 -74 -98 -121 -123 l-40 -22 -1335 0 -1335 0 -40 22 c-47 25 -96 74 -121
123 -13 25 -19 56 -19 110 0 83 15 121 69 178 32 34 71 59 116 73 14 4 619 7
1345 6 l1320 -2 40 -22z m-9698 -85 c27 -22 43 -74 43 -143 0 -118 -40 -169
-132 -168 -82 1 -118 53 -118 168 0 69 16 121 44 144 37 31 126 30 163 -1z
m-347 -143 l0 -165 -35 0 -35 0 0 140 c0 133 -1 140 -20 140 -15 0 -20 7 -20
25 0 24 3 25 55 25 l55 0 0 -165z m640 140 c0 -24 -2 -25 -75 -25 l-75 0 0
-40 c0 -37 2 -40 19 -30 87 46 187 -49 148 -142 -20 -48 -58 -71 -113 -71 -56
0 -89 17 -108 57 l-15 31 30 3 c23 3 35 -2 46 -17 17 -25 65 -28 87 -5 9 8 16
28 16 44 0 55 -62 81 -97 40 -10 -11 -30 -20 -45 -20 l-28 0 0 100 0 100 105
0 105 0 0 -25z m295 -95 c28 -66 52 -120 55 -120 3 0 28 53 56 118 l50 117 37
3 37 3 0 -165 0 -166 -30 0 -30 0 0 102 c0 56 -4 98 -8 92 -5 -5 -26 -51 -47
-101 -34 -85 -40 -93 -65 -93 -24 0 -30 8 -65 96 -21 52 -42 97 -47 100 -4 3
-8 -40 -8 -95 l0 -101 -30 0 -30 0 0 165 0 165 38 0 38 0 49 -120z m516 94
c32 -33 29 -92 -7 -121 -17 -13 -23 -23 -15 -23 26 0 51 -32 51 -66 0 -77 -31
-94 -170 -94 l-100 0 0 166 0 166 110 -4 c96 -3 112 -6 131 -24z m-1353 -246
c32 -32 -8 -80 -48 -58 -34 18 -19 70 20 70 9 0 21 -5 28 -12z"/>
<path d="M23530 15561 c-53 -27 -80 -74 -80 -135 0 -104 69 -170 168 -163 85
6 141 61 150 146 12 127 -123 213 -238 152z"/>
<path d="M14322 9243 l3 -168 248 -3 247 -2 0 170 0 170 -250 0 -250 0 2 -167z"/>
<path d="M17270 8630 c0 -26 41 -87 70 -104 41 -24 133 -25 177 -3 32 17 74
66 86 100 6 16 -6 17 -163 17 -111 0 -170 -4 -170 -10z"/>
<path d="M20507 14180 c-11 -25 -30 -44 -54 -55 l-36 -17 30 -13 c33 -14 73
-59 74 -84 0 -10 4 -6 10 9 14 35 39 61 74 76 l30 12 -25 10 c-29 12 -65 48
-77 78 -7 20 -9 19 -26 -16z"/>
<path d="M20780 14208 c0 -23 -48 -78 -79 -90 l-26 -10 31 -13 c34 -14 74 -59
75 -84 0 -10 4 -6 10 9 14 35 39 61 73 75 l29 13 -38 18 c-26 12 -43 30 -56
58 -10 23 -19 33 -19 24z"/>
<path d="M22059 14181 c-11 -26 -28 -43 -54 -55 l-38 -18 30 -13 c33 -14 73
-59 74 -84 0 -10 5 -6 12 10 18 39 39 61 72 75 l30 12 -25 10 c-30 12 -66 48
-77 79 -7 20 -9 19 -24 -16z"/>
<path d="M22330 14208 c0 -23 -48 -78 -79 -90 l-26 -10 31 -13 c34 -14 74 -59
75 -84 0 -10 4 -6 10 9 14 35 39 61 73 75 l29 13 -36 17 c-24 11 -43 31 -56
58 -12 23 -21 34 -21 25z"/>
<path d="M22586 14200 c-11 -33 -45 -70 -75 -81 l-24 -10 34 -17 c19 -9 43
-33 53 -53 l20 -36 15 31 c9 17 31 41 49 53 l33 22 -29 15 c-31 16 -57 49 -64
81 -4 18 -5 17 -12 -5z"/>
<path d="M19478 14184 c-7 -16 -30 -40 -50 -53 l-37 -24 32 -16 c18 -9 41 -32
51 -52 l20 -36 15 31 c9 17 31 40 49 52 l32 22 -33 20 c-18 10 -40 34 -49 52
l-16 32 -14 -28z"/>
<path d="M19736 14181 c-10 -18 -33 -42 -52 -53 l-35 -21 32 -15 c18 -9 41
-31 52 -49 l19 -33 17 31 c10 18 32 40 50 50 l31 17 -35 21 c-20 11 -42 35
-49 53 l-14 32 -16 -33z"/>
<path d="M19993 14180 c-6 -16 -27 -39 -47 -51 l-36 -21 31 -17 c18 -10 40
-32 50 -50 l17 -31 19 33 c11 18 34 40 52 49 l32 15 -35 21 c-19 11 -42 34
-51 51 -8 17 -17 31 -18 31 -1 0 -8 -13 -14 -30z"/>
<path d="M20251 14178 c-8 -16 -29 -39 -47 -50 l-34 -20 32 -22 c18 -12 40
-35 49 -52 l15 -31 20 36 c10 20 33 43 51 52 l32 16 -37 24 c-20 13 -42 34
-48 47 -17 34 -18 34 -33 0z"/>
<path d="M21028 14184 c-7 -16 -30 -40 -50 -53 l-37 -24 32 -16 c18 -9 41 -32
51 -52 l20 -36 15 31 c9 17 31 40 49 52 l32 22 -33 20 c-18 10 -40 34 -49 52
l-16 32 -14 -28z"/>
<path d="M21286 14181 c-10 -18 -33 -42 -52 -53 l-35 -21 32 -15 c18 -9 41
-31 52 -49 l19 -33 17 31 c10 18 32 40 50 50 l31 17 -35 21 c-20 11 -42 35
-49 53 l-14 32 -16 -33z"/>
<path d="M21543 14180 c-6 -16 -27 -39 -47 -51 l-36 -21 31 -17 c18 -10 40
-32 50 -50 l17 -31 19 33 c11 18 34 40 52 49 l32 15 -35 21 c-19 11 -42 34
-51 51 -8 17 -17 31 -18 31 -1 0 -8 -13 -14 -30z"/>
<path d="M21801 14178 c-8 -16 -29 -39 -47 -50 l-34 -20 32 -22 c18 -12 40
-35 49 -52 l15 -31 20 36 c10 20 33 43 51 52 l32 16 -37 24 c-20 13 -42 34
-48 47 -17 34 -18 34 -33 0z"/>
<path d="M22836 14181 c-10 -18 -33 -42 -53 -53 l-35 -21 31 -13 c17 -7 41
-29 52 -49 l21 -35 17 31 c10 18 32 40 50 50 l31 17 -35 21 c-20 11 -42 35
-49 53 l-14 32 -16 -33z"/>
<path d="M19475 13922 c-11 -21 -35 -44 -53 -53 l-33 -17 35 -20 c19 -11 44
-38 55 -59 16 -30 20 -33 21 -16 0 24 54 83 76 83 24 0 16 14 -17 29 -20 9
-37 28 -48 51 l-17 38 -19 -36z"/>
<path d="M20249 13921 c-11 -25 -27 -43 -48 -52 -32 -15 -41 -29 -17 -29 22 0
76 -59 76 -83 1 -17 5 -14 21 16 11 21 34 46 50 55 16 10 29 19 29 22 0 3 -13
12 -29 22 -16 9 -38 32 -48 52 l-18 35 -16 -38z"/>
<path d="M20520 13948 c0 -22 -57 -88 -76 -88 -8 0 -14 -4 -14 -10 0 -5 6 -10
14 -10 19 0 76 -66 76 -88 0 -9 8 -1 18 18 9 19 31 44 49 55 18 11 32 22 32
25 0 3 -14 14 -32 25 -18 11 -40 36 -49 55 -10 19 -18 27 -18 18z"/>
<path d="M20770 13926 c-8 -17 -29 -40 -47 -51 -18 -11 -32 -22 -32 -25 0 -3
14 -14 32 -25 18 -11 40 -36 49 -55 10 -19 18 -27 18 -18 0 22 57 88 76 88 8
0 14 5 14 10 0 6 -6 10 -13 10 -17 0 -63 48 -74 76 -8 21 -9 20 -23 -10z"/>
<path d="M21027 13924 c-10 -19 -31 -43 -47 -52 -16 -9 -30 -19 -30 -22 0 -3
14 -13 30 -22 16 -9 37 -33 47 -52 l16 -35 18 38 c11 24 28 43 48 52 17 8 31
16 31 19 0 3 -14 11 -31 19 -20 9 -37 28 -48 52 l-18 38 -16 -35z"/>
<path d="M21799 13920 c-11 -24 -27 -42 -48 -51 -32 -15 -41 -29 -17 -29 22 0
76 -59 76 -83 1 -17 5 -14 21 16 11 21 36 48 55 59 l35 20 -33 17 c-18 9 -42
32 -53 52 l-20 37 -16 -38z"/>
<path d="M22070 13948 c0 -22 -57 -88 -76 -88 -8 0 -14 -4 -14 -10 0 -5 6 -10
14 -10 19 0 76 -66 76 -88 0 -9 8 -1 18 18 9 19 31 44 49 55 18 11 32 22 32
25 0 3 -14 14 -32 25 -18 11 -40 36 -49 55 -10 19 -18 27 -18 18z"/>
<path d="M22320 13926 c-8 -17 -29 -40 -47 -51 -34 -21 -42 -35 -19 -35 18 0
76 -66 77 -88 0 -11 4 -9 10 8 13 32 59 80 76 80 7 0 13 5 13 10 0 6 -6 10
-13 10 -17 0 -63 48 -74 76 -8 21 -9 20 -23 -10z"/>
<path d="M22579 13927 c-8 -17 -28 -41 -46 -52 -18 -11 -32 -22 -32 -25 0 -3
14 -14 32 -25 18 -11 38 -35 46 -52 l14 -33 18 39 c11 24 28 43 48 52 17 8 31
16 31 19 0 3 -14 11 -31 19 -20 9 -37 28 -48 52 l-18 39 -14 -33z"/>
<path d="M19731 13915 c-11 -20 -35 -42 -52 -49 l-31 -13 35 -21 c20 -11 43
-35 52 -52 l17 -32 16 34 c9 18 32 40 49 48 18 8 33 17 33 20 0 3 -15 12 -32
20 -17 8 -39 30 -49 48 l-17 32 -21 -35z"/>
<path d="M19989 13917 c-8 -17 -29 -39 -47 -47 -17 -8 -32 -17 -32 -20 0 -3
15 -12 33 -20 17 -8 39 -30 48 -48 l17 -33 20 35 c11 19 35 42 53 52 l33 16
-32 14 c-18 7 -42 29 -53 49 -12 19 -22 35 -22 35 -1 0 -9 -15 -18 -33z"/>
<path d="M21281 13915 c-11 -20 -35 -42 -52 -49 l-31 -13 35 -21 c20 -11 43
-35 52 -52 l16 -32 18 34 c10 18 32 40 49 48 17 8 32 17 32 20 0 3 -15 12 -32
20 -17 9 -39 30 -48 48 l-18 32 -21 -35z"/>
<path d="M21540 13917 c-8 -18 -29 -39 -47 -47 -18 -8 -33 -17 -33 -20 0 -3
15 -12 33 -20 17 -8 39 -30 48 -48 l17 -33 20 35 c11 19 35 42 53 52 l33 16
-32 14 c-18 7 -42 29 -53 49 -12 19 -22 35 -22 35 -1 0 -9 -15 -17 -33z"/>
<path d="M22831 13915 c-11 -20 -35 -42 -52 -49 l-31 -13 35 -21 c20 -11 43
-35 52 -52 l16 -32 18 34 c10 18 32 40 49 48 17 8 32 17 32 20 0 3 -15 12 -32
20 -17 9 -39 30 -48 48 l-18 32 -21 -35z"/>
<path d="M19475 13662 c-11 -21 -35 -45 -54 -54 l-34 -17 24 -10 c27 -10 63
-47 73 -75 6 -17 9 -15 25 15 10 19 36 44 57 56 21 13 32 23 23 23 -24 0 -70
39 -83 71 l-12 28 -19 -37z"/>
<path d="M20260 13687 c0 -11 -15 -34 -34 -53 -19 -19 -42 -34 -52 -34 -13 0
-5 -8 20 -23 21 -12 47 -37 57 -56 16 -30 19 -32 25 -15 10 28 46 65 73 75
l24 10 -34 17 c-19 9 -44 35 -56 57 -15 25 -23 33 -23 22z"/>
<path d="M20521 13687 c-1 -25 -64 -87 -87 -87 -12 0 -4 -9 22 -25 27 -16 47
-38 57 -62 9 -21 16 -31 16 -22 1 23 39 68 75 90 19 11 25 19 15 19 -25 0 -68
38 -84 74 -9 21 -14 25 -14 13z"/>
<path d="M20775 13677 c-8 -31 -58 -77 -83 -77 -11 0 -6 -7 14 -19 36 -22 74
-67 75 -90 0 -9 7 1 16 22 10 24 30 46 57 62 22 14 34 25 25 25 -25 0 -70 40
-84 74 l-13 31 -7 -28z"/>
<path d="M21025 13662 c-11 -21 -35 -45 -54 -54 l-34 -17 24 -10 c27 -10 63
-47 73 -75 6 -17 9 -15 25 15 10 19 36 44 57 56 21 13 32 23 23 23 -24 0 -70
39 -83 71 l-12 28 -19 -37z"/>
<path d="M21810 13687 c0 -24 -63 -87 -86 -87 -13 0 -5 -8 20 -23 21 -12 47
-37 57 -56 16 -30 19 -32 25 -15 10 28 46 65 73 75 l24 10 -34 17 c-19 9 -44
35 -56 57 -15 25 -23 33 -23 22z"/>
<path d="M22070 13687 c0 -25 -63 -87 -86 -87 -12 0 -4 -9 22 -25 27 -16 47
-38 57 -62 9 -21 16 -30 16 -21 1 22 56 85 82 93 18 6 17 9 -13 23 -18 10 -43
35 -55 57 -15 25 -23 33 -23 22z"/>
<path d="M22330 13687 c0 -25 -63 -87 -86 -87 -14 0 -11 -5 12 -19 36 -22 74
-67 75 -90 0 -9 7 1 16 22 10 24 30 46 57 62 22 14 34 25 25 25 -25 0 -70 40
-85 74 -9 21 -13 25 -14 13z"/>
<path d="M22575 13662 c-11 -21 -35 -45 -54 -54 l-34 -17 25 -10 c27 -10 78
-65 78 -84 0 -6 8 4 19 23 10 19 36 45 57 57 21 13 32 23 23 23 -24 0 -70 39
-83 71 l-12 28 -19 -37z"/>
<path d="M19730 13658 c-8 -17 -30 -39 -48 -49 l-32 -17 34 -20 c19 -11 42
-35 52 -53 l16 -33 14 32 c7 18 29 42 49 53 l35 21 -32 18 c-18 9 -39 31 -48
48 -8 17 -17 32 -20 32 -3 0 -12 -15 -20 -32z"/>
<path d="M20000 13676 c0 -22 -59 -76 -83 -76 -17 0 -13 -5 18 -23 22 -12 47
-37 56 -55 l17 -33 20 35 c11 19 35 42 52 51 l32 16 -34 18 c-18 10 -40 32
-48 49 -16 33 -30 42 -30 18z"/>
<path d="M21280 13658 c-8 -17 -30 -39 -48 -49 l-32 -17 34 -20 c19 -11 42
-35 51 -52 l17 -32 16 33 c9 19 35 44 57 56 31 18 35 23 18 23 -24 0 -83 54
-83 76 0 24 -14 15 -30 -18z"/>
<path d="M21540 13658 c-9 -17 -30 -39 -48 -48 l-32 -18 35 -21 c20 -11 42
-35 49 -52 l13 -31 21 35 c11 20 35 43 52 52 l32 16 -34 18 c-18 10 -40 32
-48 49 -8 17 -17 32 -20 32 -3 0 -12 -15 -20 -32z"/>
<path d="M22833 13658 c-11 -19 -34 -41 -52 -50 l-32 -15 35 -21 c19 -11 42
-35 51 -52 l17 -32 16 33 c9 19 33 43 53 54 l36 20 -37 18 c-22 10 -44 31 -53
48 l-14 30 -20 -33z"/>
<path d="M19477 13405 c-10 -21 -31 -42 -51 -52 l-35 -16 32 -21 c17 -12 41
-35 52 -52 l20 -30 15 30 c8 17 33 41 55 53 22 13 33 23 24 23 -24 0 -70 39
-83 72 l-12 28 -17 -35z"/>
<path d="M19731 13399 c-9 -20 -27 -37 -51 -47 l-37 -16 31 -16 c17 -8 42 -32
55 -53 l25 -37 11 27 c14 33 41 58 73 68 23 7 23 7 -10 23 -18 10 -42 31 -53
49 -11 18 -22 32 -25 33 -3 0 -11 -14 -19 -31z"/>
<path d="M19985 13397 c-11 -18 -35 -39 -53 -49 -33 -16 -33 -16 -10 -23 32
-10 59 -35 73 -68 l11 -27 25 37 c13 21 38 45 55 53 l31 16 -37 16 c-24 10
-42 27 -51 47 -8 17 -16 31 -19 31 -3 -1 -14 -15 -25 -33z"/>
<path d="M19476 13145 c-11 -19 -35 -42 -56 -53 l-38 -19 34 -12 c22 -8 42
-27 59 -54 13 -23 25 -35 25 -26 0 25 40 70 74 85 17 7 24 13 15 14 -24 0 -70
39 -83 71 l-12 28 -18 -34z"/>
<path d="M19740 13156 c0 -18 -66 -76 -88 -77 -11 0 -9 -4 8 -10 32 -13 80
-59 80 -76 0 -22 14 -14 35 20 11 18 34 39 51 47 l30 16 -30 14 c-17 8 -40 29
-51 47 -21 34 -35 42 -35 19z"/>
<path d="M19985 13137 c-11 -18 -34 -39 -51 -47 l-30 -14 30 -16 c17 -8 40
-29 51 -47 21 -34 35 -42 35 -20 0 17 48 63 80 76 17 6 19 10 8 10 -22 1 -88
59 -88 77 0 23 -14 15 -35 -19z"/>
<path d="M19481 12899 c-11 -29 -47 -64 -81 -78 -19 -7 -21 -10 -7 -10 29 -1
73 -37 87 -72 l13 -31 12 30 c14 32 60 72 84 72 9 0 -2 10 -24 23 -22 12 -48
37 -57 56 l-17 34 -10 -24z"/>
<path d="M19729 12882 c-13 -20 -38 -44 -55 -52 l-31 -16 37 -16 c24 -10 42
-27 51 -47 14 -32 29 -41 29 -17 0 19 66 76 88 76 9 0 -1 10 -23 23 -22 12
-47 37 -56 54 l-16 32 -24 -37z"/>
<path d="M19990 12887 c-9 -18 -32 -42 -55 -54 -22 -13 -32 -23 -23 -23 22 0
88 -57 88 -76 0 -24 15 -15 29 17 9 20 28 38 55 50 23 10 33 19 23 19 -19 0
-72 48 -92 83 -9 15 -12 13 -25 -16z"/>
<path d="M19478 12633 c-7 -15 -30 -39 -50 -52 l-37 -24 32 -16 c17 -9 42 -34
54 -56 15 -25 23 -33 23 -21 0 10 15 33 34 52 19 19 42 34 53 34 12 0 4 8 -21
23 -21 12 -47 37 -57 55 l-17 33 -14 -28z"/>
<path d="M19736 12631 c-10 -18 -33 -42 -52 -53 l-35 -21 32 -15 c18 -9 41
-31 52 -49 l19 -33 17 31 c10 18 32 40 50 50 l31 17 -35 21 c-20 11 -42 35
-49 53 l-14 32 -16 -33z"/>
<path d="M19993 12630 c-6 -16 -27 -39 -47 -51 l-36 -21 31 -17 c18 -10 40
-32 50 -50 l17 -31 19 33 c11 18 34 40 52 49 l32 15 -35 21 c-19 11 -42 34
-51 51 -8 17 -17 31 -18 31 -1 0 -8 -13 -14 -30z"/>
<path d="M19477 12376 c-9 -20 -31 -45 -47 -54 -16 -9 -30 -19 -30 -22 0 -3
13 -12 29 -22 16 -9 39 -34 50 -55 16 -30 20 -33 21 -16 0 24 54 83 76 83 8 0
14 5 14 10 0 6 -6 10 -14 10 -21 0 -74 56 -78 82 -3 18 -6 15 -21 -16z"/>
<path d="M21810 12393 c0 -24 -54 -83 -76 -83 -8 0 -14 -4 -14 -10 0 -5 6 -10
14 -10 22 0 76 -59 76 -83 1 -17 5 -14 21 16 11 21 34 46 50 55 16 10 29 19
29 22 0 3 -13 12 -29 22 -16 9 -39 34 -50 55 -16 30 -20 33 -21 16z"/>
<path d="M22070 12398 c0 -22 -57 -88 -76 -88 -8 0 -14 -4 -14 -10 0 -5 6 -10
14 -10 19 0 76 -66 76 -88 0 -9 8 -1 18 18 9 19 31 44 49 55 18 11 32 22 32
25 0 3 -14 14 -32 25 -18 11 -40 36 -49 55 -10 19 -18 27 -18 18z"/>
<path d="M19731 12364 c-12 -20 -35 -41 -51 -47 -17 -6 -30 -14 -30 -17 0 -3
13 -11 30 -17 16 -6 39 -27 51 -47 l21 -37 17 33 c9 18 31 40 48 48 18 8 33
17 33 20 0 3 -15 12 -33 20 -17 8 -39 30 -48 48 l-17 33 -21 -37z"/>
<path d="M19990 12367 c-8 -18 -29 -39 -47 -47 -18 -8 -33 -17 -33 -20 0 -3
15 -12 33 -20 17 -8 39 -30 48 -48 l17 -33 21 37 c12 20 35 41 51 47 17 6 30
14 30 17 0 3 -13 11 -30 17 -16 6 -39 27 -51 47 -11 20 -22 36 -22 36 -1 0 -9
-15 -17 -33z"/>
<path d="M21281 12364 c-12 -20 -35 -41 -51 -47 -17 -6 -30 -14 -30 -17 0 -3
13 -11 30 -17 16 -6 39 -27 51 -47 l21 -36 18 32 c9 18 31 39 48 48 17 8 32
17 32 20 0 3 -15 12 -32 20 -17 9 -39 30 -48 48 l-18 32 -21 -36z"/>
<path d="M21540 12367 c-8 -18 -29 -39 -47 -47 -18 -8 -33 -17 -33 -20 0 -3
15 -12 33 -20 17 -8 39 -30 48 -48 l17 -33 21 37 c12 20 35 41 51 47 17 6 30
14 30 17 0 3 -13 11 -30 17 -16 6 -39 27 -51 47 -11 20 -22 36 -22 36 -1 0 -9
-15 -17 -33z"/>
<path d="M19475 12112 c-11 -21 -35 -45 -54 -54 l-34 -17 24 -10 c27 -10 63
-47 73 -75 6 -17 9 -15 25 15 10 19 36 44 57 56 21 13 32 23 23 23 -24 0 -70
39 -83 71 l-12 28 -19 -37z"/>
<path d="M20781 12139 c-1 -25 -41 -70 -75 -84 l-31 -13 26 -10 c31 -12 79
-67 79 -90 0 -9 9 1 19 24 13 28 30 46 56 58 l38 18 -29 13 c-34 14 -59 40
-73 75 -6 15 -10 19 -10 9z"/>
<path d="M21025 12112 c-11 -21 -35 -45 -54 -54 l-34 -17 24 -10 c27 -10 63
-47 73 -75 6 -17 9 -15 25 15 10 19 36 44 57 56 21 13 32 23 23 23 -24 0 -70
39 -83 71 l-12 28 -19 -37z"/>
<path d="M21810 12137 c0 -24 -63 -87 -86 -87 -13 0 -5 -8 20 -23 21 -12 47
-37 57 -56 16 -30 19 -32 25 -15 10 28 46 65 73 75 l24 10 -34 17 c-19 9 -44
35 -56 57 -15 25 -23 33 -23 22z"/>
<path d="M22071 12137 c-1 -25 -64 -87 -87 -87 -12 0 -4 -9 22 -25 27 -16 47
-38 57 -62 9 -21 16 -30 16 -21 1 23 49 78 80 90 l26 10 -30 12 c-33 14 -54
36 -72 75 -9 20 -12 22 -12 8z"/>
<path d="M22331 12139 c-1 -25 -41 -70 -75 -84 l-31 -13 26 -10 c31 -12 79
-67 79 -90 0 -9 9 1 19 24 13 28 30 46 56 58 l38 18 -29 13 c-34 14 -59 40
-73 75 -6 15 -10 19 -10 9z"/>
<path d="M19733 12107 c-11 -18 -34 -40 -52 -49 l-32 -15 35 -21 c19 -11 42
-35 52 -53 l16 -33 14 32 c7 18 29 42 49 53 l35 21 -31 17 c-18 10 -40 32 -50
50 l-17 31 -19 -33z"/>
<path d="M19990 12108 c-9 -17 -30 -39 -48 -48 l-32 -18 35 -21 c20 -11 42
-35 49 -52 l13 -31 21 35 c11 20 35 43 53 52 l32 17 -33 16 c-18 9 -42 31 -52
49 -11 18 -21 33 -21 33 -1 0 -9 -15 -17 -32z"/>
<path d="M21283 12107 c-11 -18 -34 -40 -52 -49 l-32 -15 35 -21 c19 -11 42
-35 52 -53 l16 -33 14 32 c7 18 29 42 49 53 l35 21 -31 17 c-18 10 -40 32 -50
50 l-17 31 -19 -33z"/>
<path d="M21540 12108 c-9 -17 -30 -39 -48 -48 l-32 -18 35 -21 c20 -11 42
-35 49 -52 l13 -31 21 35 c11 20 35 43 53 52 l32 17 -33 16 c-18 9 -42 31 -52
49 -11 18 -21 33 -21 33 -1 0 -9 -15 -17 -32z"/>
<path d="M19477 11855 c-10 -20 -32 -42 -54 -54 -21 -11 -33 -20 -26 -21 19 0
74 -51 84 -78 l10 -25 17 34 c9 19 35 44 57 56 22 13 33 23 24 23 -24 0 -70
39 -83 72 l-12 28 -17 -35z"/>
<path d="M20260 11877 c0 -25 -63 -87 -86 -87 -12 0 -4 -8 21 -23 22 -12 47
-36 55 -53 l15 -30 20 30 c11 17 35 40 52 52 l32 21 -34 16 c-20 10 -42 32
-54 54 -13 25 -20 31 -21 20z"/>
<path d="M20520 11877 c0 -24 -62 -87 -86 -87 -13 -1 -6 -8 18 -21 22 -11 46
-35 56 -55 l19 -36 13 31 c7 18 29 41 50 53 l37 22 -31 15 c-17 9 -41 34 -53
56 -15 25 -23 33 -23 22z"/>
<path d="M20765 11852 c-11 -20 -34 -44 -51 -53 l-31 -15 37 -22 c21 -12 43
-35 50 -53 l13 -31 19 36 c10 20 34 44 56 55 20 11 30 20 21 21 -24 0 -70 39
-83 71 l-12 28 -19 -37z"/>
<path d="M21025 11853 c-11 -20 -34 -44 -51 -52 l-30 -15 30 -21 c17 -11 40
-34 51 -51 l20 -30 15 30 c8 17 33 41 55 53 22 13 33 23 24 23 -24 0 -70 39
-83 71 l-12 28 -19 -36z"/>
<path d="M21810 11877 c0 -25 -63 -87 -86 -87 -12 0 -4 -8 21 -23 22 -12 48
-37 57 -56 l17 -34 10 25 c10 27 65 78 84 78 7 1 -5 10 -25 21 -22 11 -46 35
-57 57 -13 24 -20 31 -21 19z"/>
<path d="M22070 11877 c0 -24 -63 -87 -86 -87 -13 0 -5 -8 20 -23 21 -12 46
-36 56 -54 l16 -31 18 33 c10 18 33 41 51 51 l33 18 -31 16 c-18 10 -42 35
-54 56 -15 25 -23 33 -23 21z"/>
<path d="M22315 11852 c-11 -20 -34 -44 -51 -53 l-31 -15 37 -22 c21 -12 43
-35 50 -53 l13 -31 19 36 c10 20 34 44 56 55 20 11 30 20 21 21 -24 0 -70 39
-83 71 l-12 28 -19 -37z"/>
<path d="M22575 11853 c-11 -20 -34 -44 -51 -52 l-30 -15 30 -21 c17 -11 40
-34 51 -51 l20 -30 15 30 c8 17 33 41 55 53 22 13 33 23 24 23 -24 0 -70 39
-83 71 l-12 28 -19 -36z"/>
<path d="M19731 11849 c-9 -20 -27 -37 -51 -47 l-37 -16 31 -16 c17 -8 42 -32
55 -52 l24 -37 16 32 c9 17 34 42 56 54 22 13 32 23 23 23 -22 0 -88 57 -88
76 0 24 -15 15 -29 -17z"/>
<path d="M20000 11866 c0 -19 -66 -76 -88 -76 -9 0 1 -10 23 -23 22 -12 47
-37 56 -54 l16 -32 24 37 c13 20 38 44 55 52 l31 16 -37 16 c-24 10 -42 27
-51 47 -14 32 -29 41 -29 17z"/>
<path d="M21281 11849 c-9 -20 -28 -38 -55 -50 -22 -10 -33 -19 -24 -19 23 0
78 -48 89 -78 l10 -25 17 34 c9 19 33 43 53 53 l36 20 -31 15 c-17 9 -40 30
-51 48 -11 18 -22 32 -25 33 -3 0 -11 -14 -19 -31z"/>
<path d="M21550 11866 c0 -18 -66 -76 -88 -76 -10 -1 -2 -8 18 -18 19 -9 44
-31 55 -49 11 -18 22 -32 25 -32 3 0 14 14 25 32 11 18 34 39 51 47 l31 16
-37 16 c-24 10 -42 27 -51 47 -14 32 -29 41 -29 17z"/>
<path d="M19475 11593 c-12 -22 -34 -42 -57 -53 l-37 -16 34 -13 c23 -8 43
-26 60 -54 13 -23 25 -35 25 -26 0 25 40 70 74 85 17 7 24 13 15 14 -24 0 -70
39 -83 71 l-12 28 -19 -36z"/>
<path d="M20260 11617 c0 -24 -62 -87 -86 -87 -13 -1 -9 -5 12 -14 34 -15 74
-60 74 -85 0 -9 12 3 25 26 17 28 37 46 60 54 l35 13 -35 14 c-22 9 -44 29
-60 56 -16 26 -25 34 -25 23z"/>
<path d="M22317 11595 c-9 -20 -31 -42 -52 -53 l-36 -18 36 -17 c21 -10 42
-30 52 -51 l16 -35 17 32 c9 18 33 41 53 52 l36 21 -36 19 c-20 11 -44 34 -53
52 l-17 32 -16 -34z"/>
<path d="M22577 11595 c-10 -20 -31 -42 -53 -53 l-36 -19 31 -13 c18 -7 42
-30 56 -54 14 -22 25 -34 25 -25 0 25 40 70 74 85 17 7 24 13 15 14 -24 0 -70
40 -83 72 l-12 28 -17 -35z"/>
<path d="M22842 11609 c-12 -31 -67 -79 -90 -80 -11 0 -8 -4 8 -10 34 -14 70
-49 82 -79 l10 -25 13 31 c14 34 59 74 84 74 9 1 3 7 -14 14 -35 16 -60 42
-73 76 l-10 25 -10 -26z"/>
<path d="M19740 11606 c0 -18 -66 -76 -88 -77 -11 0 -9 -4 8 -10 32 -13 80
-59 80 -76 0 -22 14 -14 35 20 11 18 34 39 51 47 l30 16 -30 14 c-17 8 -40 29
-51 47 -21 34 -35 42 -35 19z"/>
<path d="M19985 11587 c-11 -18 -34 -39 -51 -47 l-30 -14 30 -16 c17 -8 40
-29 51 -47 21 -34 35 -42 35 -20 0 17 48 63 80 76 17 6 19 10 8 10 -22 1 -88
59 -88 77 0 23 -14 15 -35 -19z"/>
<path d="M19481 11348 c-11 -30 -66 -78 -89 -78 -9 0 2 -9 25 -19 28 -13 48
-32 62 -58 13 -24 20 -31 21 -19 0 24 63 86 87 86 11 0 3 8 -22 23 -22 12 -48
37 -57 56 l-17 34 -10 -25z"/>
<path d="M19729 11333 c-13 -21 -38 -45 -55 -53 l-31 -16 37 -16 c24 -10 42
-27 51 -47 14 -32 29 -41 29 -17 0 18 66 76 88 77 12 0 9 4 -9 12 -38 17 -61
38 -74 70 l-11 27 -25 -37z"/>
<path d="M20001 11359 c-1 -25 -40 -68 -75 -84 -18 -8 -24 -14 -14 -14 22 -1
88 -59 88 -77 0 -24 15 -15 29 17 9 20 28 38 55 50 23 10 33 19 23 19 -19 0
-71 48 -94 85 -10 16 -12 17 -12 4z"/>
<path d="M22590 11363 c0 -20 -52 -75 -85 -89 -20 -9 -24 -13 -12 -14 29 0 73
-36 87 -71 l13 -31 12 30 c14 32 60 72 84 72 9 0 -2 10 -24 23 -23 13 -48 37
-57 57 -10 19 -18 30 -18 23z"/>
<path d="M22842 11349 c-12 -31 -67 -79 -90 -79 -9 0 2 -9 24 -19 27 -12 46
-30 55 -50 8 -17 16 -31 19 -31 3 1 14 15 25 33 11 18 35 39 53 49 33 16 33
16 10 23 -32 10 -59 35 -74 70 l-12 30 -10 -26z"/>
<path d="M23085 11327 c-11 -18 -36 -40 -55 -49 -20 -10 -28 -17 -18 -18 22 0
88 -58 88 -76 0 -24 14 -16 28 15 8 18 29 37 51 48 l37 18 -31 15 c-16 8 -39
29 -50 47 -11 18 -22 32 -25 32 -3 0 -14 -14 -25 -32z"/>
<path d="M22590 11103 c0 -19 -51 -74 -78 -84 l-25 -10 34 -17 c19 -9 44 -35
56 -57 15 -25 23 -33 23 -21 0 23 63 86 87 86 12 0 4 8 -21 23 -21 12 -47 38
-57 57 -11 19 -19 29 -19 23z"/>
<path d="M22836 11081 c-10 -18 -33 -42 -52 -53 l-35 -21 32 -15 c18 -9 41
-31 52 -49 l19 -34 15 27 c13 27 43 53 72 65 10 4 3 12 -23 27 -20 12 -43 36
-50 54 l-14 32 -16 -33z"/>
<path d="M23093 11080 c-6 -16 -27 -39 -47 -51 l-36 -21 32 -18 c18 -9 39 -31
48 -48 8 -17 17 -32 20 -32 3 0 12 15 20 32 8 17 30 39 48 49 l32 17 -34 20
c-19 11 -42 34 -51 51 -8 17 -17 31 -18 31 -1 0 -8 -13 -14 -30z"/>
<path d="M22579 10827 c-8 -17 -28 -41 -46 -52 -18 -11 -32 -22 -32 -25 0 -3
14 -14 32 -25 18 -11 38 -35 46 -52 l14 -33 18 39 c11 24 28 43 48 52 17 8 31
16 31 19 0 3 -14 11 -31 19 -20 9 -37 28 -48 52 l-18 39 -14 -33z"/>
<path d="M22835 10820 c-9 -17 -32 -41 -52 -52 l-35 -21 31 -13 c17 -7 41 -29
52 -49 l21 -35 18 32 c9 18 31 39 48 48 17 8 32 17 32 20 0 3 -15 12 -32 20
-17 8 -39 30 -49 48 l-18 34 -16 -32z"/>
<path d="M23090 10817 c-8 -18 -29 -39 -47 -47 -18 -8 -33 -17 -33 -20 0 -3
15 -12 33 -20 17 -8 39 -30 48 -48 l17 -33 21 36 c11 20 35 42 52 49 l31 13
-35 21 c-20 11 -43 34 -52 51 -8 17 -17 31 -18 31 -1 0 -9 -15 -17 -33z"/>
<path d="M22575 10562 c-11 -21 -35 -45 -54 -54 l-34 -17 24 -9 c29 -11 59
-44 76 -80 8 -20 12 -22 12 -9 2 29 32 67 70 87 20 11 29 19 20 20 -24 0 -70
39 -83 71 l-12 28 -19 -37z"/>
<path d="M22831 10555 c-11 -20 -35 -42 -52 -49 l-31 -13 35 -21 c20 -11 43
-35 53 -53 l16 -33 14 32 c7 18 29 42 49 53 l35 21 -31 17 c-18 10 -40 32 -50
50 l-17 31 -21 -35z"/>
<path d="M23090 10558 c-9 -17 -30 -39 -48 -48 l-32 -18 35 -21 c20 -11 42
-35 49 -52 l13 -31 21 35 c11 20 35 43 52 52 l32 16 -34 18 c-18 10 -40 32
-48 49 -8 17 -17 32 -20 32 -3 0 -12 -15 -20 -32z"/>
<path d="M22575 10303 c-11 -20 -34 -44 -51 -52 l-30 -15 30 -21 c17 -11 40
-34 51 -51 l20 -30 15 30 c8 17 33 41 55 53 22 13 33 23 24 23 -24 0 -70 39
-83 71 l-12 28 -19 -36z"/>
<path d="M22835 10302 c-23 -36 -55 -61 -80 -63 -17 0 -16 -2 7 -12 36 -17 69
-47 80 -76 l9 -24 17 34 c9 19 33 43 53 53 l36 20 -31 15 c-17 9 -40 31 -52
48 l-22 33 -17 -28z"/>
<path d="M23100 10316 c0 -18 -66 -76 -88 -76 -10 -1 -2 -8 18 -18 19 -9 44
-31 55 -49 11 -18 22 -32 25 -32 3 0 14 14 25 32 11 18 35 38 52 46 l33 14
-39 18 c-24 11 -43 28 -52 48 -14 32 -29 41 -29 17z"/>
<path d="M19472 10040 c-14 -25 -34 -43 -56 -51 l-34 -12 37 -19 c21 -10 47
-35 59 -56 12 -20 22 -30 22 -21 0 25 40 70 74 85 17 7 24 13 15 14 -24 0 -70
39 -83 71 l-12 27 -22 -38z"/>
<path d="M22577 10045 c-11 -24 -30 -42 -55 -53 l-38 -17 36 -17 c20 -10 45
-34 58 -55 12 -21 22 -31 22 -22 0 25 40 70 74 85 17 7 24 13 15 14 -24 0 -70
40 -83 72 l-12 28 -17 -35z"/>
<path d="M22836 10048 c-12 -25 -32 -44 -59 -57 -23 -12 -34 -21 -25 -21 23 0
78 -48 90 -79 l10 -26 13 31 c14 34 59 74 84 74 9 1 3 7 -14 14 -35 16 -60 42
-73 76 -9 24 -9 24 -26 -12z"/>
<path d="M19740 10056 c0 -18 -66 -76 -88 -77 -11 0 -9 -4 8 -10 32 -13 80
-59 80 -76 0 -22 14 -14 35 20 11 18 34 39 51 47 l30 16 -30 14 c-17 8 -40 29
-51 47 -21 34 -35 42 -35 19z"/>
<path d="M19985 10037 c-11 -18 -34 -39 -51 -47 l-30 -14 30 -16 c17 -8 40
-29 51 -47 21 -34 35 -42 35 -19 0 19 66 76 88 76 9 0 -2 9 -25 21 -25 12 -47
32 -55 50 -7 16 -15 29 -18 29 -3 -1 -14 -15 -25 -33z"/>
<path d="M23085 10037 c-11 -18 -34 -39 -51 -47 l-30 -14 30 -16 c17 -8 40
-29 51 -47 21 -34 35 -42 35 -20 0 17 48 63 80 76 17 6 19 10 8 10 -22 1 -88
59 -88 77 0 23 -14 15 -35 -19z"/>
<path d="M19475 9786 c-11 -17 -34 -40 -52 -52 l-32 -21 34 -16 c20 -10 42
-32 54 -54 13 -25 20 -31 21 -19 0 24 63 86 87 86 11 0 3 8 -22 23 -22 12 -47
36 -55 53 l-15 30 -20 -30z"/>
<path d="M19729 9783 c-13 -21 -38 -45 -55 -53 l-31 -16 37 -16 c24 -10 42
-27 51 -47 8 -17 16 -31 19 -31 3 1 14 15 25 33 11 18 35 39 53 49 33 16 33
16 10 23 -32 10 -59 35 -73 68 l-11 27 -25 -37z"/>
<path d="M20001 9808 c-1 -25 -48 -75 -77 -82 l-27 -7 34 -17 c19 -9 43 -31
54 -49 11 -18 22 -32 25 -33 3 0 11 14 19 31 9 20 28 38 55 50 23 10 33 19 23
19 -19 0 -71 48 -94 85 -10 17 -12 17 -12 3z"/>
<path d="M20250 9786 c-8 -17 -33 -41 -55 -53 -25 -15 -33 -23 -21 -23 23 0
86 -62 86 -86 1 -12 8 -6 21 19 12 22 34 44 54 54 l34 16 -32 21 c-17 12 -41
35 -52 52 l-20 30 -15 -30z"/>
<path d="M22317 9785 c-10 -21 -30 -42 -51 -52 l-35 -16 32 -16 c17 -9 42 -34
54 -56 15 -25 23 -33 23 -21 0 23 62 86 87 86 12 1 5 8 -19 21 -22 11 -46 35
-56 55 l-18 35 -17 -36z"/>
<path d="M22575 9786 c-11 -17 -34 -40 -52 -52 l-32 -21 34 -16 c20 -10 42
-32 54 -54 13 -25 20 -31 21 -19 0 24 63 86 87 86 11 0 3 8 -22 23 -22 12 -47
36 -55 53 l-15 30 -20 -30z"/>
<path d="M22842 9799 c-12 -31 -67 -79 -90 -79 -9 0 1 -9 24 -19 28 -13 46
-30 58 -56 l18 -38 13 30 c14 33 59 73 84 74 10 0 6 5 -10 12 -39 18 -61 39
-75 72 l-12 30 -10 -26z"/>
<path d="M20511 9535 c-8 -23 -26 -43 -54 -60 -23 -13 -35 -25 -26 -25 25 0
70 -40 84 -74 l13 -31 7 28 c8 30 58 77 83 77 14 1 13 3 -3 12 -34 19 -67 52
-79 80 l-12 28 -13 -35z"/>
<path d="M20781 9559 c-1 -23 -39 -68 -75 -90 -20 -12 -25 -19 -14 -19 25 0
75 -46 83 -77 l7 -28 13 31 c14 34 59 74 84 74 9 0 -3 11 -25 25 -27 16 -47
38 -57 62 -9 21 -16 31 -16 22z"/>
<path d="M22061 9535 c-8 -23 -26 -43 -54 -60 -27 -16 -35 -25 -23 -25 23 0
86 -62 86 -86 0 -12 8 -4 23 21 13 23 37 48 57 57 19 10 30 18 23 18 -19 0
-75 52 -87 82 l-12 28 -13 -35z"/>
<path d="M22331 9559 c-1 -23 -39 -68 -75 -90 -19 -11 -25 -19 -15 -19 25 0
70 -40 85 -74 9 -21 13 -25 14 -12 0 24 63 86 87 86 11 0 3 9 -23 25 -27 16
-47 38 -57 62 -9 21 -16 31 -16 22z"/>
<path d="M19735 9530 c-9 -17 -32 -41 -51 -52 l-34 -20 32 -17 c18 -10 40 -32
48 -49 8 -17 17 -32 20 -32 3 0 11 14 19 31 9 21 27 37 51 48 l38 16 -37 20
c-20 11 -44 35 -53 54 l-16 33 -17 -32z"/>
<path d="M20000 9553 c0 -6 -3 -18 -6 -27 -4 -12 0 -16 15 -16 12 0 21 4 21 8
0 13 -29 48 -30 35z"/>
<path d="M20249 9526 c-9 -17 -33 -41 -55 -53 -25 -15 -32 -23 -20 -23 23 0
86 -63 86 -86 0 -12 8 -4 23 21 12 22 37 48 56 57 30 15 32 18 15 24 -26 9
-74 55 -74 70 0 26 -15 21 -31 -10z"/>
<path d="M21034 9544 c-10 -28 -46 -65 -73 -75 l-24 -10 34 -17 c19 -9 44 -35
56 -57 15 -25 23 -33 23 -21 0 23 63 86 87 86 12 0 4 8 -21 23 -21 12 -47 37
-57 56 -16 30 -19 32 -25 15z"/>
<path d="M21285 9530 c-9 -17 -32 -41 -51 -52 l-34 -20 32 -17 c18 -10 40 -32
48 -49 8 -17 17 -32 20 -32 3 0 11 14 19 31 9 21 27 37 51 48 l38 16 -37 20
c-20 11 -44 35 -53 54 l-16 33 -17 -32z"/>
<path d="M21540 9527 c-8 -17 -31 -41 -51 -52 l-37 -20 38 -16 c24 -11 42 -27
51 -48 8 -17 16 -31 19 -31 3 0 12 15 20 32 8 17 30 39 48 49 l32 17 -34 20
c-19 11 -42 34 -51 51 -8 17 -17 31 -18 31 -1 0 -9 -15 -17 -33z"/>
<path d="M21799 9526 c-9 -17 -33 -41 -55 -53 -25 -15 -32 -23 -20 -23 23 0
86 -63 86 -86 0 -12 8 -4 23 21 12 22 37 48 56 57 30 15 32 18 15 24 -26 9
-74 55 -74 70 0 26 -15 21 -31 -10z"/>
<path d="M22590 9553 c0 -19 -51 -74 -78 -84 l-25 -10 34 -17 c19 -9 44 -35
56 -57 15 -25 23 -33 23 -21 0 23 63 86 87 86 12 0 4 8 -21 23 -21 12 -47 38
-57 57 -11 19 -19 29 -19 23z"/>
<path d="M20260 9292 c0 -10 -5 -23 -12 -30 -9 -9 -6 -12 14 -12 26 0 26 2 17
30 -12 34 -19 38 -19 12z"/>
<path d="M20521 9298 c-1 -22 -59 -88 -77 -88 -8 0 -14 -4 -14 -10 0 -5 5 -10
12 -10 6 0 19 -7 29 -16 15 -14 21 -12 63 17 46 33 46 33 27 53 -11 12 -24 32
-30 46 -6 17 -10 19 -10 8z"/>
<path d="M20781 9303 c-1 -6 -4 -18 -7 -27 -4 -11 -1 -16 10 -16 18 0 19 6 6
35 -5 11 -9 15 -9 8z"/>
<path d="M21035 9288 c-4 -15 -15 -34 -26 -44 -18 -16 -17 -18 27 -46 42 -26
49 -28 75 -16 36 16 36 20 -2 37 -20 9 -38 28 -49 54 -18 40 -19 41 -25 15z"/>
<path d="M21810 9293 c0 -24 -54 -83 -76 -83 -24 0 -15 -14 17 -29 21 -9 37
-27 48 -51 l16 -38 20 37 c11 20 35 43 53 52 l33 17 -35 20 c-19 11 -44 38
-55 59 -16 30 -20 33 -21 16z"/>
<path d="M22057 9269 c-11 -22 -30 -43 -48 -51 -31 -14 -39 -28 -15 -28 19 0
76 -66 76 -88 0 -9 8 -1 18 18 9 19 31 44 49 55 18 11 32 22 32 25 0 3 -14 14
-32 25 -18 11 -39 34 -47 50 l-15 31 -18 -37z"/>
<path d="M22331 9298 c-1 -22 -59 -88 -77 -88 -23 0 -15 -14 19 -35 18 -11 40
-36 49 -55 10 -19 18 -27 18 -18 0 22 57 88 76 88 8 0 14 5 14 10 0 6 -6 10
-13 10 -17 0 -63 48 -76 80 -6 17 -10 19 -10 8z"/>
<path d="M21285 9270 c-9 -17 -32 -41 -52 -52 l-35 -21 31 -13 c17 -7 41 -29
52 -49 l21 -35 18 32 c9 18 31 39 48 48 17 8 32 17 32 20 0 3 -15 12 -33 20
-17 8 -40 30 -49 48 l-16 34 -17 -32z"/>
<path d="M21540 9267 c-8 -18 -29 -39 -47 -47 -18 -8 -33 -17 -33 -20 0 -3 15
-12 32 -20 17 -9 39 -30 48 -48 l18 -32 21 35 c11 20 35 42 52 49 l31 13 -35
21 c-20 11 -43 34 -52 51 -8 17 -17 31 -18 31 -1 0 -9 -15 -17 -33z"/>
<path d="M20310 9200 c0 -22 16 -26 40 -10 13 9 13 11 0 20 -24 16 -40 12 -40
-10z"/>
<path d="M20780 9039 c0 -25 -40 -70 -74 -84 l-31 -13 26 -10 c14 -6 38 -25
53 -42 l27 -32 35 36 c19 20 41 36 49 36 24 0 17 13 -18 35 -18 11 -40 36 -49
55 -10 19 -18 28 -18 19z"/>
<path d="M21810 9038 c0 -21 -47 -78 -73 -87 -18 -7 -16 -9 15 -28 19 -11 41
-35 50 -53 l16 -32 14 28 c7 16 30 40 50 53 l37 24 -32 16 c-17 9 -42 34 -54
56 -13 22 -23 32 -23 23z"/>
<path d="M22060 9017 c-8 -18 -29 -41 -47 -52 -18 -11 -32 -22 -33 -25 0 -3
14 -11 31 -19 20 -9 38 -28 50 -55 10 -22 19 -33 19 -24 0 23 48 78 79 90 l26
10 -30 12 c-33 14 -55 36 -70 72 -10 23 -10 23 -25 -9z"/>
<path d="M21281 9005 c-11 -20 -35 -42 -52 -49 l-31 -13 35 -21 c20 -11 43
-35 53 -53 l16 -33 14 32 c7 18 29 42 49 53 l35 21 -31 17 c-18 10 -40 32 -50
50 l-17 31 -21 -35z"/>
<path d="M21540 9008 c-9 -17 -30 -39 -48 -48 l-32 -18 35 -21 c20 -11 42 -35
49 -52 l13 -31 21 35 c11 20 35 43 53 53 l33 16 -32 14 c-18 7 -42 29 -53 49
-12 19 -22 35 -22 35 -1 0 -9 -15 -17 -32z"/>
<path d="M20246 9005 c-10 -14 -31 -34 -47 -44 l-30 -18 34 -20 c18 -11 40
-35 49 -53 l16 -32 14 28 c7 16 30 40 51 53 l37 25 -30 12 c-17 7 -38 27 -48
44 -21 36 -25 37 -46 5z"/>
<path d="M20443 8953 c-20 -8 -15 -17 16 -31 18 -8 38 -30 50 -55 12 -23 21
-34 21 -25 0 10 13 32 29 51 l29 33 -48 17 c-48 17 -74 20 -97 10z"/>
<path d="M20600 8940 c0 -5 4 -10 9 -10 6 0 13 5 16 10 3 6 -1 10 -9 10 -9 0
-16 -4 -16 -10z"/>
<path d="M20755 8689 c-77 -11 -111 -25 -135 -57 -29 -36 -25 -76 9 -114 28
-31 33 -33 98 -33 110 1 184 56 198 150 l7 40 -46 13 c-26 6 -52 11 -59 11 -6
-1 -39 -5 -72 -10z"/>
<path d="M15860 6854 c-112 -16 -144 -28 -170 -62 -29 -36 -25 -76 9 -114 28
-31 33 -33 98 -33 56 0 76 5 115 27 54 33 88 92 88 156 0 49 8 47 -140 26z"/>
<path d="M15626 5822 c-10 -31 -21 -63 -23 -69 -4 -9 8 -13 41 -13 25 0 46 3
46 8 0 12 -36 121 -41 127 -3 2 -14 -21 -23 -53z"/>
<path d="M16123 5870 c-59 -36 -63 -135 -6 -180 80 -63 194 20 164 120 -22 74
-92 101 -158 60z"/>
<path d="M17440 5835 l0 -55 38 0 c47 0 82 24 82 55 0 31 -35 55 -82 55 l-38
0 0 -55z"/>
<path d="M17694 5810 l-22 -70 48 0 48 0 -22 70 c-11 38 -23 70 -26 70 -3 0
-15 -32 -26 -70z"/>
<path d="M17897 5883 c-4 -3 -7 -30 -7 -60 l0 -53 48 0 c35 0 54 5 65 18 24
26 21 68 -5 86 -22 16 -89 22 -101 9z"/>
<path d="M18190 5781 l0 -111 40 0 c77 0 120 41 120 115 0 55 -43 96 -108 103
l-52 5 0 -112z"/>
<path d="M18496 5870 c-17 -45 -36 -104 -36 -116 0 -10 14 -14 46 -14 51 0 50
-8 14 95 -11 32 -20 45 -24 35z"/>
<path d="M21510 4624 c-59 -26 -101 -65 -126 -118 -63 -136 6 -296 145 -337
24 -7 464 -9 1352 -7 l1316 3 49 30 c30 19 60 49 79 79 27 44 30 58 30 126 0
68 -3 82 -30 126 -19 30 -49 60 -79 79 l-49 30 -1326 2 c-1162 2 -1330 0
-1361 -13z m819 -91 l24 -27 -27 -9 c-20 -7 -32 -5 -45 7 -38 35 -119 7 -94
-32 5 -9 36 -27 69 -39 73 -29 96 -51 97 -96 1 -49 -25 -84 -74 -97 -64 -18
-135 5 -159 50 -9 17 -7 22 16 30 22 9 30 7 46 -10 39 -42 131 -8 102 38 -6 9
-36 26 -66 37 -76 27 -98 49 -98 97 0 44 24 74 67 84 16 3 33 7 38 8 26 7 82
-16 104 -41z m309 10 c14 -10 32 -28 39 -40 14 -21 13 -23 -11 -29 -19 -4 -33
0 -57 20 -61 52 -147 25 -170 -53 -34 -114 87 -198 174 -121 23 20 40 27 55
23 30 -7 28 -19 -11 -58 -81 -81 -218 -61 -266 39 -65 134 37 271 183 245 21
-4 50 -15 64 -26z m937 14 c24 -11 75 -58 75 -68 0 -4 -12 -10 -26 -13 -19 -5
-33 0 -57 20 -26 22 -38 25 -74 21 -53 -6 -79 -28 -94 -77 -23 -76 27 -150
101 -150 43 0 90 32 90 61 0 16 -7 19 -45 19 -41 0 -45 2 -45 25 0 25 1 25 81
25 l82 0 -5 -52 c-5 -43 -11 -57 -41 -84 -87 -80 -218 -60 -267 40 -72 150 77
306 225 233z m-1819 -13 c47 -35 67 -70 72 -128 3 -44 0 -62 -19 -95 -33 -60
-83 -81 -192 -81 l-87 0 0 166 0 166 99 -4 c82 -2 105 -7 127 -24z m334 1 c0
-25 -1 -25 -85 -25 l-85 0 0 -45 0 -45 65 0 c63 0 65 -1 65 -25 0 -24 -2 -25
-65 -25 l-65 0 0 -45 0 -45 85 0 c84 0 85 0 85 -25 l0 -25 -115 0 -115 0 0
165 0 165 115 0 115 0 0 -25z m846 -15 c6 -19 32 -92 58 -162 l45 -128 -33 0
c-29 0 -34 4 -42 33 l-10 32 -85 3 -86 3 -9 -33 c-8 -27 -15 -34 -42 -36 -18
-2 -32 0 -32 3 0 4 26 78 57 166 l58 160 54 -3 c52 -3 55 -4 67 -38z m319 28
c32 -14 55 -56 55 -99 0 -23 -9 -40 -34 -64 l-35 -33 34 -53 c19 -30 35 -57
35 -61 0 -5 -15 -8 -32 -8 -30 0 -37 7 -71 65 -30 52 -43 65 -62 65 -24 0 -25
-3 -25 -65 l0 -65 -35 0 -35 0 0 165 0 165 90 0 c49 0 101 -5 115 -12z m682
-138 c29 -80 55 -153 58 -162 5 -15 0 -18 -28 -18 -30 0 -35 4 -43 33 l-10 32
-82 3 -83 3 -14 -36 c-13 -29 -20 -35 -46 -35 -21 0 -30 4 -27 13 3 6 29 81
59 165 l54 153 55 -3 54 -3 53 -145z m283 135 c37 -19 50 -43 50 -91 0 -29 -7
-43 -34 -69 l-34 -32 34 -54 c18 -30 34 -57 34 -61 0 -5 -15 -8 -32 -8 -30 0
-36 6 -68 63 -28 49 -41 63 -63 65 -27 3 -27 3 -27 -62 l0 -66 -30 0 -30 0 0
165 0 165 85 0 c57 0 96 -5 115 -15z"/>
<path d="M21590 4404 l0 -116 60 4 c69 5 95 23 111 78 25 83 -30 150 -123 150
l-48 0 0 -116z"/>
<path d="M22855 4508 c-12 -32 -45 -132 -45 -135 0 -1 27 -3 59 -3 l60 0 -26
75 c-24 71 -38 90 -48 63z"/>
<path d="M23120 4470 l0 -50 49 0 c72 0 98 31 65 78 -12 18 -25 22 -65 22
l-49 0 0 -50z"/>
<path d="M23802 4468 c-39 -106 -42 -98 28 -98 55 0 61 2 55 18 -4 9 -16 43
-27 75 -11 31 -24 57 -28 57 -5 0 -17 -24 -28 -52z"/>
<path d="M24080 4470 l0 -50 49 0 c53 0 81 17 81 49 0 31 -33 51 -83 51 l-47
0 0 -50z"/>
<path d="M14423 4512 c-33 -21 -44 -127 -19 -187 13 -31 19 -35 51 -35 32 0
38 4 51 35 25 60 14 166 -19 187 -7 4 -21 8 -32 8 -11 0 -25 -4 -32 -8z"/>
<path d="M15470 4475 l0 -45 46 0 c58 0 84 14 84 45 0 31 -26 45 -84 45 l-46
0 0 -45z"/>
<path d="M15470 4335 l0 -45 51 0 c63 0 89 13 89 45 0 32 -26 45 -89 45 l-51
0 0 -45z"/>
</g>
</svg>
