<?xml version="1.0" standalone="no"?>
<!DOCTYPE svg PUBLIC "-//W3C//DTD SVG 20010904//EN"
 "http://www.w3.org/TR/2001/REC-SVG-20010904/DTD/svg10.dtd">
<svg version="1.0" xmlns="http://www.w3.org/2000/svg"
 width="3840.000000pt" height="2160.000000pt" viewBox="0 0 3840.000000 2160.000000"
 preserveAspectRatio="xMidYMid meet">

<g transform="translate(0.000000,2160.000000) scale(0.100000,-0.100000)"
fill="#000000" stroke="none">
<path d="M0 20900 l0 -700 19200 0 19200 0 0 700 0 700 -19200 0 -19200 0 0
-700z m19307 419 c43 -13 100 -79 109 -124 15 -82 -21 -161 -90 -198 -32 -17
-58 -22 -116 -22 -58 0 -84 5 -116 22 -74 39 -111 135 -85 216 16 48 80 104
128 112 21 4 43 8 48 10 14 5 83 -4 122 -16z m-13907 -64 c382 -43 647 -126
766 -242 53 -51 74 -96 74 -155 0 -156 -195 -279 -560 -352 -202 -40 -377 -57
-675 -63 -901 -19 -1465 142 -1465 417 0 216 341 367 935 414 129 10 787 -3
925 -19z m-3985 -396 c0 -119 -2 -134 -17 -137 -16 -3 -18 8 -18 131 0 73 3
137 7 141 22 21 28 -9 28 -135z m170 36 l70 -99 5 99 c4 80 8 100 20 100 13 0
15 -22 15 -135 0 -176 -7 -178 -107 -38 l-73 102 -3 -102 c-2 -91 -5 -103 -20
-100 -15 3 -17 19 -20 118 -5 197 9 203 113 55z m210 83 c3 -13 4 -75 3 -138
-3 -107 -4 -115 -23 -115 -19 0 -20 8 -23 124 -1 69 0 131 2 138 8 21 35 15
41 -9z m229 12 c14 -5 26 -16 26 -23 0 -11 -15 -14 -61 -13 -55 1 -63 -2 -85
-27 -36 -42 -33 -99 7 -139 28 -29 34 -30 85 -25 48 5 54 4 54 -13 0 -14 -10
-21 -36 -26 -84 -16 -155 24 -175 98 -30 112 78 209 185 168z m111 -130 c0
-128 -1 -135 -20 -135 -19 0 -20 8 -23 115 -3 133 1 163 26 158 15 -3 17 -19
17 -138z m252 120 c86 -52 94 -162 17 -230 -60 -53 -162 -37 -204 33 -26 42
-26 112 0 155 36 59 126 80 187 42z m5118 -10 c19 -18 25 -34 25 -65 0 -58
-30 -84 -104 -92 l-56 -6 0 -44 c0 -37 -3 -44 -17 -41 -16 3 -18 18 -21 128
-1 68 0 130 3 138 9 25 140 11 170 -18z m262 10 c117 -71 80 -245 -55 -258
-89 -8 -152 48 -152 138 0 110 115 177 207 120z m252 9 c76 -27 67 -135 -14
-155 l-25 -6 40 -39 c39 -38 52 -69 28 -69 -7 0 -38 26 -70 57 l-58 57 0 -52
c0 -39 -4 -54 -16 -59 -9 -3 -20 0 -25 8 -14 22 -11 243 3 257 15 15 95 16
137 1z m260 2 c22 -14 3 -31 -34 -31 l-34 0 -3 -117 c-3 -102 -5 -118 -20
-121 -16 -3 -18 9 -20 115 l-3 118 -37 3 c-35 3 -49 18 -31 35 10 10 166 8
182 -2z m200 -4 c17 -21 3 -27 -61 -27 l-58 0 0 -39 0 -40 53 -3 c38 -2 52 -7
52 -18 0 -11 -14 -16 -52 -18 l-52 -3 -3 -57 c-2 -45 -7 -58 -20 -60 -16 -3
-18 8 -18 131 0 73 3 137 7 140 13 13 140 8 152 -6z m226 -1 c46 -19 75 -69
75 -126 0 -57 -16 -88 -60 -118 -50 -34 -128 -28 -170 13 -118 113 5 293 155
231z m159 -2 c3 -9 6 -62 6 -119 l0 -104 58 -3 c43 -2 57 -7 57 -18 0 -12 -16
-15 -80 -15 l-80 0 -3 124 c-1 69 0 131 2 138 7 18 33 16 40 -3z m194 -128 c2
-127 1 -137 -15 -134 -16 3 -18 18 -21 128 -3 131 0 154 21 148 9 -3 13 -43
15 -142z m249 127 c46 -22 73 -67 73 -123 0 -84 -57 -140 -140 -140 -56 0 -96
26 -121 78 -60 123 63 245 188 185z m1767 7 c14 -5 26 -16 26 -25 0 -12 -9
-14 -53 -9 -48 6 -56 4 -85 -21 -28 -23 -32 -33 -32 -76 0 -40 5 -55 26 -76
23 -23 31 -25 85 -20 46 4 59 2 59 -9 0 -37 -104 -46 -158 -14 -43 26 -66 81
-58 137 8 58 24 82 71 104 45 21 81 24 119 9z m253 -10 c67 -40 88 -112 54
-182 -25 -52 -65 -78 -121 -78 -83 0 -140 56 -140 140 0 110 115 177 207 120z
m155 6 c7 -7 40 -52 73 -99 l60 -86 5 97 c4 77 8 97 20 97 13 0 15 -22 15
-135 0 -173 -6 -176 -101 -43 l-69 98 -3 -93 c-2 -73 -6 -94 -18 -99 -27 -10
-34 17 -34 130 0 131 15 171 52 133z m406 -8 c3 -15 -4 -18 -32 -18 l-36 0 0
-107 c0 -113 -7 -140 -34 -130 -13 5 -16 25 -16 122 l0 115 -35 0 c-22 0 -35
5 -35 13 0 25 13 28 99 25 72 -3 86 -6 89 -20z m120 9 c18 -21 93 -240 88
-254 -10 -25 -34 -13 -46 22 l-12 36 -56 -3 c-54 -3 -56 -4 -64 -35 -9 -33
-34 -45 -44 -20 -5 14 71 234 88 254 13 17 33 17 46 0z m297 1 c41 -19 23 -33
-43 -33 -82 0 -107 -23 -107 -96 0 -44 4 -54 29 -76 26 -22 36 -25 83 -20 58
6 78 -7 48 -30 -50 -36 -162 -2 -192 57 -19 38 -16 110 7 148 33 54 115 77
175 50z m233 -10 c3 -15 -4 -18 -32 -18 l-35 0 -3 -117 c-3 -110 -4 -118 -23
-118 -19 0 -20 8 -23 118 l-3 117 -34 0 c-23 0 -35 5 -35 13 0 25 13 28 99 25
72 -3 86 -6 89 -20z m229 -9 c100 -93 45 -249 -88 -249 -109 0 -173 112 -121
209 39 72 151 93 209 40z m17737 17 c41 -17 54 -57 31 -92 -14 -22 -14 -25 5
-44 25 -25 26 -71 1 -101 -17 -22 -27 -24 -98 -24 l-78 0 -3 124 c-1 69 0 131
2 138 7 18 97 17 140 -1z m130 -2 c3 -9 6 -54 6 -102 0 -99 13 -122 66 -122
51 0 64 27 64 138 0 76 3 94 16 99 25 9 34 -15 34 -92 0 -90 -14 -139 -47
-165 -45 -35 -133 -23 -163 23 -14 23 -27 194 -16 222 7 20 32 19 40 -1z m371
-9 c27 -26 32 -50 13 -61 -6 -4 -19 4 -30 19 -24 34 -73 37 -83 7 -9 -28 1
-39 61 -66 77 -34 96 -83 49 -129 -18 -19 -35 -25 -70 -25 -35 0 -52 6 -70 25
-14 13 -25 31 -25 39 0 28 23 30 44 4 27 -32 52 -41 77 -27 33 17 20 51 -32
79 -67 36 -79 49 -79 84 0 36 7 48 35 64 35 20 84 14 110 -13z m249 15 c14 -5
26 -16 26 -23 0 -11 -15 -14 -61 -13 -55 1 -63 -2 -85 -27 -36 -42 -33 -99 7
-139 28 -29 34 -30 85 -25 48 5 54 4 54 -13 0 -14 -10 -21 -36 -26 -114 -21
-199 61 -174 169 18 82 105 128 184 97z m194 -2 c17 -23 93 -241 88 -255 -10
-25 -34 -13 -46 22 -11 34 -13 35 -66 35 -52 0 -54 -1 -68 -35 -15 -34 -46
-49 -46 -21 0 20 79 237 92 253 13 16 33 17 46 1z m304 -16 c25 -24 27 -86 3
-112 -9 -10 -28 -21 -42 -25 l-26 -6 37 -37 c36 -38 47 -72 23 -72 -7 0 -37
25 -67 55 l-55 56 -5 -53 c-4 -40 -9 -54 -22 -56 -16 -3 -18 8 -18 131 0 73 3
137 8 141 4 5 38 6 75 3 51 -3 74 -10 89 -25z m-12443 -157 c14 -7 49 -38 77
-69 52 -56 52 -56 111 -56 62 0 75 6 135 63 96 90 287 65 344 -46 21 -39 21
-125 0 -165 -35 -68 -130 -109 -220 -97 -58 7 -121 37 -136 65 -17 32 -64 50
-129 50 -59 0 -60 0 -118 -59 -65 -66 -117 -87 -192 -77 -43 6 -131 49 -131
64 0 4 -13 22 -29 40 -27 29 -35 32 -91 32 -66 0 -113 -18 -130 -50 -15 -28
-78 -58 -137 -66 -95 -12 -184 30 -223 106 -18 34 -16 120 4 157 56 110 249
136 344 46 60 -57 73 -63 135 -63 l59 0 54 59 c51 55 78 72 129 85 31 7 115
-4 144 -19z m17731 -175 c0 -20 -7 -20 -3360 -20 -3353 0 -3360 0 -3360 20 0
20 7 20 3360 20 3353 0 3360 0 3360 -20z"/>
<path d="M3996 20979 c-29 -23 -34 -63 -12 -95 8 -11 37 -30 65 -43 53 -26 68
-45 50 -67 -19 -23 -67 -17 -85 11 -9 14 -22 25 -29 25 -25 0 -24 -30 1 -60
22 -26 32 -30 75 -30 40 0 55 5 74 25 45 44 26 91 -54 131 -45 24 -56 34 -56
54 0 37 46 40 74 4 13 -16 27 -24 36 -20 22 8 18 34 -10 61 -31 32 -91 34
-129 4z"/>
<path d="M4195 20987 c-3 -7 -4 -69 -3 -138 l3 -124 85 0 c69 0 85 3 85 15 0
11 -15 16 -62 18 l-63 3 0 39 0 40 50 0 c43 0 50 3 50 20 0 17 -7 20 -50 20
l-50 0 0 40 0 39 63 3 c47 2 62 7 62 18 0 21 -163 28 -170 7z"/>
<path d="M4404 20987 c-2 -7 -3 -69 -2 -138 3 -116 4 -124 23 -124 17 0 20 8
23 51 l3 52 51 -54 c28 -30 57 -54 64 -54 30 0 24 24 -16 65 l-42 42 26 7 c38
9 66 42 66 75 0 43 -9 60 -41 76 -36 19 -148 20 -155 2z m139 -46 c5 -5 7 -21
5 -37 -3 -27 -6 -29 -50 -32 l-48 -3 0 47 0 47 43 -7 c23 -4 46 -11 50 -15z"/>
<path d="M4626 20991 c-6 -9 61 -208 84 -251 12 -23 43 -26 57 -7 19 24 95
246 88 257 -19 31 -40 0 -76 -108 l-36 -113 -39 113 c-27 77 -44 114 -56 116
-9 2 -19 -1 -22 -7z"/>
<path d="M4895 20978 c-3 -13 -4 -75 -3 -138 3 -107 4 -115 23 -115 19 0 20 7
20 135 0 119 -2 135 -17 138 -11 2 -19 -5 -23 -20z"/>
<path d="M5055 20986 c-52 -23 -69 -51 -73 -121 -4 -60 -3 -64 30 -101 32 -34
41 -38 94 -42 41 -2 65 1 78 11 30 22 11 37 -37 31 -59 -8 -95 9 -113 53 -13
30 -14 44 -4 76 14 49 60 71 126 61 37 -5 44 -4 44 10 0 34 -89 47 -145 22z"/>
<path d="M5247 20994 c-4 -4 -7 -67 -7 -141 0 -127 1 -133 20 -133 20 0 20 5
18 137 -3 127 -10 158 -31 137z"/>
<path d="M5384 20981 c-60 -37 -83 -136 -44 -198 24 -40 67 -63 120 -63 109 0
172 104 124 206 -33 69 -133 96 -200 55z m144 -57 c15 -18 22 -38 22 -69 0
-36 -5 -47 -31 -69 -17 -15 -43 -26 -59 -26 -16 0 -42 11 -59 26 -26 21 -31
33 -31 68 0 69 43 111 105 101 17 -3 40 -16 53 -31z"/>
<path d="M5656 20979 c-29 -23 -34 -63 -12 -95 8 -11 37 -30 65 -43 53 -26 68
-45 50 -67 -19 -23 -67 -17 -85 11 -28 42 -66 27 -43 -17 19 -36 41 -47 90
-48 53 0 85 20 94 61 8 33 -16 62 -80 97 -39 21 -50 32 -50 52 0 37 47 41 71
6 18 -29 39 -34 48 -11 22 59 -90 100 -148 54z"/>
<path d="M2269 20945 c-56 -31 -63 -125 -12 -165 62 -49 153 -3 153 79 0 75
-77 122 -141 86z"/>
<path d="M7374 20946 c-3 -8 -4 -31 -2 -52 3 -36 6 -39 36 -42 69 -7 110 57
60 92 -28 20 -87 21 -94 2z"/>
<path d="M7649 20945 c-56 -31 -63 -125 -12 -165 62 -49 153 -3 153 79 0 75
-77 122 -141 86z"/>
<path d="M7920 20910 c0 -50 0 -50 33 -50 39 0 77 24 77 50 0 26 -38 50 -77
50 -33 0 -33 0 -33 -50z"/>
<path d="M8604 20950 c-60 -24 -73 -112 -25 -161 79 -79 196 12 149 116 -20
45 -76 65 -124 45z"/>
<path d="M9179 20931 c-23 -23 -29 -38 -29 -71 0 -102 129 -139 175 -50 19 38
19 65 -2 100 -33 56 -99 66 -144 21z"/>
<path d="M11211 20946 c-48 -27 -63 -84 -36 -136 30 -59 98 -68 146 -21 80 80
-12 211 -110 157z"/>
<path d="M11966 20901 c-23 -76 -22 -81 19 -81 41 0 43 9 16 85 l-18 50 -17
-54z"/>
<path d="M12622 20935 c-36 -30 -47 -66 -32 -110 22 -66 95 -85 149 -39 26 22
31 33 31 71 0 36 -6 50 -29 74 -37 37 -79 38 -119 4z"/>
<path d="M30400 20920 l0 -41 41 3 c49 3 71 27 53 56 -7 11 -26 18 -53 20
l-41 3 0 -41z"/>
<path d="M30400 20805 l0 -45 44 0 c45 0 76 18 76 45 0 22 -42 45 -82 45 l-38
0 0 -45z"/>
<path d="M31403 20893 c-12 -34 -19 -64 -15 -67 3 -3 20 -6 39 -6 39 0 40 10
14 85 l-18 50 -20 -62z"/>
<path d="M31620 20910 l0 -53 46 6 c46 5 64 18 64 47 0 29 -18 42 -64 47 l-46
6 0 -53z"/>
<path d="M0 15120 l0 -5040 6400 0 6400 0 0 5040 0 5040 -6400 0 -6400 0 0
-5040z m11511 4051 c49 -49 38 -125 -23 -157 -85 -44 -181 52 -132 135 35 58
108 69 155 22z m-244 -243 c65 -61 20 -167 -70 -168 -29 0 -46 7 -68 29 -90
90 45 227 138 139z m250 -3 c52 -60 16 -151 -63 -162 -36 -5 -46 -1 -75 25
-28 25 -34 37 -34 72 0 35 6 47 34 72 29 26 39 30 75 25 27 -4 49 -15 63 -32z
m208 20 c91 -44 61 -185 -40 -185 -47 0 -71 14 -91 52 -20 38 -12 87 19 115
39 36 64 40 112 18z m-242 -236 c63 -32 77 -111 28 -160 -40 -40 -89 -40 -133
0 -27 24 -33 36 -33 69 0 74 75 123 138 91z m-1581 -3724 c311 -47 582 -220
754 -481 243 -369 243 -839 0 -1208 -172 -261 -443 -434 -754 -481 -82 -13
-365 -15 -1867 -16 -1524 -1 -1758 -3 -1683 -14 302 -48 575 -223 744 -481
243 -369 243 -839 0 -1208 -172 -261 -443 -434 -754 -481 -144 -22 -4578 -22
-4722 0 -241 36 -445 139 -616 309 -181 182 -287 404 -316 667 -36 321 82 651
316 885 169 169 409 288 621 310 36 4 65 10 65 14 0 4 -29 10 -65 14 -35 4
-103 18 -150 31 -361 105 -645 389 -750 750 -111 383 -4 798 279 1081 168 167
376 273 610 309 64 10 931 13 4136 14 3519 1 4068 -1 4152 -14z"/>
<path d="M3630 13920 l0 -740 90 0 90 0 0 29 c0 15 3 48 6 72 l6 44 47 -46
c27 -25 74 -59 107 -75 56 -27 66 -29 190 -29 l130 0 76 38 c172 85 259 247
259 482 0 165 -40 285 -129 385 -155 175 -464 189 -638 28 l-44 -41 0 297 0
296 -95 0 -95 0 0 -740z m593 108 c56 -17 139 -96 168 -160 21 -47 24 -68 24
-178 0 -125 0 -125 -36 -190 -79 -144 -228 -194 -381 -128 -196 84 -237 430
-71 590 55 53 115 78 192 78 35 0 82 -5 104 -12z"/>
<path d="M4760 13920 l0 -740 95 0 95 0 0 740 0 740 -95 0 -95 0 0 -740z"/>
<path d="M7820 14364 l0 -296 -39 35 c-181 164 -486 154 -640 -20 -90 -101
-131 -224 -131 -393 0 -165 38 -282 125 -378 96 -107 196 -146 358 -140 90 3
110 7 167 34 36 17 86 50 111 72 45 40 47 41 53 19 3 -12 6 -43 6 -69 l0 -48
90 0 90 0 0 740 0 740 -95 0 -95 0 0 -296z m-190 -345 c96 -43 161 -135 180
-255 19 -121 -10 -245 -75 -322 -110 -128 -325 -131 -435 -6 -44 51 -68 107
-79 190 -27 186 52 349 192 401 53 19 166 15 217 -8z"/>
<path d="M9930 14365 l0 -296 -37 37 c-61 60 -167 105 -262 111 -240 17 -417
-107 -487 -342 -22 -74 -25 -264 -5 -345 35 -145 130 -267 250 -324 63 -30 71
-31 196 -31 120 0 134 2 188 27 31 15 82 50 112 79 l55 52 0 -30 c0 -17 3 -51
6 -77 l7 -46 88 0 89 0 0 740 0 740 -100 0 -100 0 0 -295z m-198 -341 c67 -22
122 -75 160 -152 32 -64 33 -72 33 -182 0 -134 -15 -178 -85 -254 -72 -78
-168 -108 -273 -86 -155 32 -247 179 -234 377 9 154 86 267 207 304 43 13 145
10 192 -7z"/>
<path d="M5233 14639 c-35 -10 -80 -58 -89 -95 -11 -44 5 -91 42 -123 29 -26
43 -31 84 -31 43 0 56 5 88 34 34 32 37 39 37 89 0 45 -5 60 -25 82 -42 45
-85 58 -137 44z"/>
<path d="M6695 14630 c-49 -24 -75 -65 -75 -115 0 -134 183 -175 245 -55 20
39 19 79 -5 117 -38 64 -103 84 -165 53z"/>
<path d="M1420 13901 l0 -721 105 0 105 0 0 290 0 290 198 0 c108 0 226 5 262
11 142 22 264 108 323 228 31 63 32 70 32 186 0 109 -2 125 -27 177 -37 79
-73 123 -142 168 -114 78 -147 83 -523 88 l-333 4 0 -721z m670 523 c127 -38
188 -175 145 -322 -20 -67 -62 -114 -127 -142 -49 -22 -71 -24 -265 -28 l-213
-4 0 256 0 256 203 0 c158 0 216 -4 257 -16z"/>
<path d="M5911 14209 c-78 -15 -169 -65 -230 -127 -101 -101 -151 -230 -151
-392 0 -224 97 -392 275 -477 72 -34 87 -37 188 -41 67 -3 131 0 166 8 118 26
257 124 307 215 22 42 23 41 -74 74 l-70 24 -53 -55 c-66 -67 -131 -93 -234
-92 -124 1 -217 61 -268 172 -18 40 -21 66 -22 172 0 110 3 131 23 175 51 112
148 175 268 175 95 0 156 -22 214 -79 26 -25 49 -53 52 -61 4 -12 19 -9 91 15
48 16 87 34 87 40 0 23 -74 118 -123 156 -117 94 -283 130 -446 98z"/>
<path d="M8473 14205 c-119 -32 -217 -110 -264 -209 -16 -33 -27 -61 -26 -62
4 -4 172 -63 172 -61 0 1 12 25 26 52 46 88 156 134 277 114 99 -15 152 -76
152 -173 0 -64 20 -56 -205 -81 -217 -24 -307 -57 -384 -140 -57 -62 -74 -105
-74 -190 0 -88 24 -146 83 -199 75 -68 117 -81 260 -81 116 0 129 2 181 28 31
15 75 47 97 71 37 40 41 42 46 22 3 -11 6 -35 6 -53 0 -61 4 -63 102 -63 l89
0 -3 388 c-3 373 -4 389 -26 442 -40 100 -133 174 -250 199 -71 15 -195 13
-259 -4z m334 -619 c-7 -70 -39 -147 -79 -183 -87 -82 -276 -93 -344 -22 -25
26 -29 39 -29 84 0 46 4 58 29 84 16 17 48 37 70 46 32 12 253 46 345 54 11 1
13 -12 8 -63z"/>
<path d="M2564 14195 c-4 -8 -4 -169 -1 -357 5 -361 8 -393 56 -486 31 -60 93
-120 160 -151 51 -24 67 -26 176 -26 112 0 124 2 172 27 29 16 68 42 87 58
l34 31 7 -56 7 -55 89 0 89 0 0 515 0 515 -94 0 -94 0 -4 -327 c-4 -350 -7
-371 -59 -447 -51 -74 -149 -108 -255 -86 -48 10 -66 20 -99 54 -67 69 -68 80
-72 464 l-4 342 -95 0 c-75 0 -96 -3 -100 -15z"/>
<path d="M5170 13695 l0 -515 100 0 100 0 0 515 0 515 -100 0 -100 0 0 -515z"/>
<path d="M6650 13695 l0 -515 100 0 100 0 -2 513 -3 512 -97 3 -98 3 0 -516z"/>
<path d="M3880 11860 l0 -740 95 0 95 0 0 740 0 740 -95 0 -95 0 0 -740z"/>
<path d="M4356 12580 c-98 -30 -123 -158 -45 -225 56 -46 162 -28 194 35 53
103 -40 223 -149 190z"/>
<path d="M1825 12556 c-150 -35 -283 -111 -380 -219 -64 -70 -135 -206 -162
-307 -27 -100 -24 -301 6 -405 71 -253 255 -432 512 -497 120 -30 311 -23 424
16 206 70 373 235 440 434 33 96 48 220 40 316 -27 314 -208 551 -490 643 -99
32 -293 41 -390 19z m317 -186 c234 -72 371 -295 354 -575 -10 -161 -61 -279
-163 -376 -68 -65 -142 -103 -238 -124 -88 -18 -132 -18 -220 0 -206 44 -352
197 -390 410 -57 320 78 581 344 666 80 26 229 25 313 -1z"/>
<path d="M3187 12141 c-56 -18 -108 -51 -146 -92 -19 -20 -19 -20 -26 40 l-7
61 -89 0 -89 0 0 -515 0 -515 100 0 100 0 0 323 c0 357 5 392 60 459 83 100
263 107 352 12 61 -65 63 -77 66 -451 l3 -343 95 0 94 0 0 353 c0 382 -3 410
-56 507 -35 64 -91 115 -162 148 -76 34 -211 41 -295 13z"/>
<path d="M5069 12142 c-60 -20 -142 -72 -158 -100 -7 -13 -11 -2 -17 46 l-7
62 -88 0 -89 0 0 -515 0 -515 95 0 95 0 0 283 c0 378 12 448 87 519 92 87 267
76 344 -22 52 -65 59 -122 59 -467 l0 -313 95 0 95 0 0 348 c0 280 -3 359 -15
407 -32 123 -98 205 -203 253 -75 34 -212 41 -293 14z"/>
<path d="M6063 12145 c-170 -46 -301 -182 -348 -362 -18 -67 -20 -200 -4 -275
16 -77 72 -188 124 -246 94 -105 207 -152 363 -152 149 0 240 30 344 113 49
39 115 134 102 147 -5 5 -43 21 -84 35 -57 19 -76 22 -79 13 -9 -31 -92 -97
-142 -114 -69 -23 -199 -24 -251 -2 -83 37 -156 130 -172 221 l-7 37 379 0
380 0 6 31 c17 88 -5 232 -49 319 -57 112 -171 201 -300 235 -73 18 -192 18
-262 0z m243 -185 c85 -37 137 -103 158 -202 l6 -28 -279 0 -280 0 14 47 c50
167 225 250 381 183z"/>
<path d="M4297 12143 c-4 -3 -7 -235 -7 -515 l0 -508 100 0 100 0 0 515 0 515
-93 0 c-52 0 -97 -3 -100 -7z"/>
<path d="M25600 15120 l0 -5040 6400 0 6400 0 0 5040 0 5040 -6400 0 -6400 0
0 -5040z m11511 4051 c49 -49 38 -125 -23 -157 -85 -44 -181 52 -132 135 35
58 108 69 155 22z m-244 -243 c65 -61 20 -167 -70 -168 -29 0 -46 7 -68 29
-90 90 45 227 138 139z m250 -3 c52 -60 16 -151 -63 -162 -36 -5 -46 -1 -75
25 -28 25 -34 37 -34 72 0 35 6 47 34 72 29 26 39 30 75 25 27 -4 49 -15 63
-32z m208 20 c91 -44 61 -185 -40 -185 -47 0 -71 14 -91 52 -20 38 -12 87 19
115 39 36 64 40 112 18z m-235 -240 c59 -31 69 -107 21 -156 -67 -67 -184 -7
-167 85 13 69 84 103 146 71z m-4048 -3720 c311 -47 582 -220 754 -481 243
-369 243 -839 0 -1208 -169 -258 -442 -433 -744 -481 -79 -12 -42 -13 433 -14
402 -1 542 -4 617 -16 311 -47 582 -220 754 -481 287 -436 229 -1012 -139
-1378 -180 -179 -397 -285 -647 -315 -71 -9 -968 -11 -3480 -9 l-3385 3 -100
28 c-120 33 -295 117 -386 186 -82 62 -193 179 -248 260 -64 93 -128 235 -158
346 -24 90 -27 117 -27 275 0 158 3 185 27 275 49 181 141 346 270 482 175
185 387 292 672 339 38 7 36 8 -41 19 -231 35 -442 142 -610 309 -181 182
-287 404 -316 667 -36 321 82 651 316 885 168 167 376 273 610 309 64 10 689
13 2906 14 2437 1 2838 -1 2922 -14z"/>
<path d="M30350 13920 l0 -740 100 0 100 0 0 740 0 740 -100 0 -100 0 0 -740z"/>
<path d="M30835 14643 c-57 -15 -95 -66 -95 -128 0 -78 51 -125 134 -125 37 0
51 6 79 33 46 43 56 92 31 143 -29 59 -93 91 -149 77z"/>
<path d="M32165 14643 c-57 -15 -95 -67 -95 -128 0 -77 51 -125 131 -125 84 0
141 76 119 159 -10 38 -58 91 -83 91 -7 0 -21 2 -32 4 -11 2 -29 2 -40 -1z"/>
<path d="M27140 13914 c-140 -389 -256 -713 -258 -720 -3 -11 18 -14 101 -14
l104 0 64 180 64 180 356 0 357 0 41 -117 c23 -64 52 -145 64 -180 l22 -63
102 0 c57 0 103 4 103 9 0 5 -115 327 -255 716 -140 390 -255 710 -255 712 0
2 -80 3 -178 3 l-178 0 -254 -706z m596 171 c68 -192 124 -353 124 -357 0 -5
-131 -8 -291 -8 -160 0 -289 4 -287 9 2 4 59 166 128 360 l125 352 38 -3 39
-3 124 -350z"/>
<path d="M28693 14206 c-53 -17 -122 -57 -147 -85 -28 -30 -36 -26 -36 18 0
69 -3 71 -96 71 l-84 0 0 -515 0 -515 95 0 95 0 0 310 c0 180 4 330 11 359 26
122 111 191 238 191 79 0 138 -26 176 -77 51 -66 55 -98 55 -455 l0 -328 100
0 100 0 0 323 c0 177 -5 351 -11 387 -22 139 -97 243 -214 297 -49 22 -77 28
-150 30 -57 2 -106 -2 -132 -11z"/>
<path d="M29640 14202 c-36 -9 -86 -29 -111 -44 -61 -36 -133 -117 -155 -174
-21 -54 -22 -52 83 -88 l72 -24 11 32 c13 41 74 100 124 121 47 20 157 23 207
6 20 -6 51 -27 69 -46 31 -32 35 -42 38 -105 l4 -69 -33 -5 c-19 -3 -97 -13
-174 -21 -207 -23 -286 -50 -367 -123 -78 -71 -109 -194 -76 -304 16 -56 79
-122 146 -155 53 -26 65 -28 182 -28 110 0 131 3 177 24 29 13 72 45 97 71 25
26 47 45 50 42 3 -3 6 -20 6 -37 0 -18 3 -47 6 -64 l7 -31 89 0 89 0 -3 393
c-3 379 -4 394 -25 439 -48 104 -120 164 -228 193 -77 20 -203 18 -285 -3z
m340 -595 c0 -119 -74 -228 -175 -258 -74 -21 -172 -18 -215 6 -101 59 -82
197 33 239 32 12 239 45 345 55 8 1 12 -14 12 -42z"/>
<path d="M31403 14205 c-212 -57 -318 -239 -234 -403 42 -82 104 -117 316
-177 171 -48 180 -52 215 -90 49 -52 25 -131 -51 -170 -41 -22 -121 -28 -180
-16 -72 16 -124 52 -150 104 -12 23 -23 44 -25 46 -2 2 -39 -9 -84 -25 -53
-19 -80 -34 -80 -44 1 -31 43 -107 83 -148 83 -86 183 -117 354 -110 95 4 117
8 174 35 128 60 192 148 191 266 0 169 -95 244 -425 332 -133 36 -167 66 -153
139 13 66 87 101 200 94 66 -5 155 -36 156 -56 0 -4 7 -15 15 -26 13 -17 17
-17 97 9 46 15 85 29 87 31 8 7 -51 93 -84 123 -102 90 -276 125 -422 86z"/>
<path d="M32733 14205 c-212 -57 -318 -239 -234 -403 42 -81 102 -115 317
-178 176 -50 179 -52 214 -89 49 -52 25 -131 -51 -170 -41 -22 -121 -28 -180
-16 -72 16 -124 52 -150 104 -12 23 -23 44 -25 46 -2 2 -39 -9 -84 -25 -91
-33 -94 -38 -56 -112 34 -67 91 -120 166 -156 64 -30 68 -31 210 -31 141 0
147 1 210 31 130 61 193 149 193 267 0 169 -98 244 -427 332 -132 36 -166 66
-152 139 13 66 87 101 201 94 50 -3 84 -12 113 -28 23 -13 42 -26 42 -29 0 -3
7 -14 15 -25 13 -17 17 -17 97 9 46 15 85 29 87 31 8 7 -51 93 -84 123 -102
90 -276 125 -422 86z"/>
<path d="M30770 13695 l0 -515 95 0 95 0 0 515 0 515 -95 0 -95 0 0 -515z"/>
<path d="M32100 13695 l0 -515 95 0 95 0 0 515 0 515 -95 0 -95 0 0 -515z"/>
<path d="M27680 12304 l0 -297 -44 41 c-90 83 -197 118 -335 109 -193 -11
-328 -114 -398 -303 -34 -92 -43 -275 -19 -377 42 -178 156 -308 310 -352 44
-13 85 -16 165 -13 93 3 113 8 165 33 33 17 80 49 107 72 52 47 59 44 59 -27
0 -68 3 -70 96 -70 l84 0 0 740 0 740 -95 0 -95 0 0 -296z m-184 -348 c135
-63 203 -216 176 -392 -28 -177 -136 -278 -297 -278 -124 0 -209 55 -262 168
-26 56 -28 70 -28 181 0 108 3 125 26 175 52 111 143 170 264 170 53 0 83 -6
121 -24z"/>
<path d="M29608 12554 c-5 -4 -8 -328 -8 -721 l0 -713 294 0 c386 0 493 18
647 110 175 104 284 281 310 505 40 348 -125 649 -420 765 -117 46 -171 52
-501 57 -173 3 -318 1 -322 -3z m660 -189 c182 -43 309 -166 358 -346 23 -86
28 -223 11 -316 -38 -205 -155 -335 -352 -389 -42 -11 -122 -18 -267 -21
l-208 -6 0 547 0 546 198 0 c139 0 216 -5 260 -15z"/>
<path d="M32030 12290 l0 -140 -75 0 -75 0 0 -90 0 -90 74 0 75 0 3 -317 c3
-311 4 -319 27 -365 33 -68 93 -123 158 -148 45 -17 74 -20 157 -18 l101 3 3
83 3 82 -73 0 c-87 0 -133 20 -163 71 -19 32 -20 55 -23 322 l-3 287 130 0
131 0 0 90 0 90 -130 0 -130 0 0 140 0 140 -95 0 -95 0 0 -140z"/>
<path d="M28361 12145 c-124 -35 -232 -124 -293 -242 -47 -91 -63 -159 -62
-273 1 -153 48 -278 142 -374 100 -104 204 -146 361 -146 109 0 175 16 264 63
86 45 211 189 175 202 -7 2 -44 16 -83 30 l-70 26 -15 -23 c-40 -61 -103 -99
-194 -118 -153 -32 -305 46 -350 178 -9 25 -16 56 -16 69 l0 23 381 0 381 0
-4 123 c-4 95 -9 134 -27 179 -49 125 -150 224 -276 269 -79 29 -237 35 -314
14z m266 -196 c84 -40 141 -119 143 -196 l0 -23 -275 0 c-170 0 -275 4 -275
10 0 38 46 123 88 163 58 53 80 66 135 76 61 12 114 3 184 -30z"/>
<path d="M31253 12145 c-119 -32 -217 -110 -264 -209 -16 -33 -27 -61 -26 -62
4 -4 172 -63 172 -61 0 1 12 25 26 52 46 89 156 134 279 114 97 -15 150 -75
150 -170 0 -68 21 -59 -205 -84 -217 -24 -307 -57 -384 -140 -57 -62 -74 -105
-74 -190 0 -88 24 -146 83 -199 75 -68 117 -81 260 -81 110 0 131 3 177 24 29
13 72 44 97 71 40 43 45 46 50 26 3 -11 6 -35 6 -53 0 -61 4 -63 102 -63 l89
0 -3 388 c-3 374 -4 389 -26 443 -26 66 -93 138 -154 167 -92 43 -251 55 -355
27z m334 -619 c-15 -160 -113 -248 -277 -250 -88 -1 -124 13 -158 64 -48 71
-10 161 82 195 32 12 253 46 345 54 11 1 13 -12 8 -63z"/>
<path d="M32910 12144 c-194 -51 -325 -192 -365 -393 -59 -290 90 -558 349
-627 68 -18 228 -18 299 1 166 43 295 167 348 334 29 93 29 259 0 352 -68 216
-261 350 -501 348 -41 0 -100 -7 -130 -15z m243 -180 c142 -48 227 -221 198
-403 -19 -120 -79 -203 -180 -250 -73 -33 -183 -35 -252 -4 -125 56 -190 193
-175 370 12 145 83 248 201 291 45 16 156 14 208 -4z"/>
<path d="M33913 12145 c-166 -46 -253 -146 -253 -287 0 -82 20 -128 80 -182
52 -47 96 -66 262 -112 200 -55 238 -80 238 -158 0 -31 -7 -45 -35 -72 -70
-66 -236 -69 -314 -6 -30 24 -44 44 -78 110 -4 9 -173 -53 -173 -63 0 -31 66
-138 107 -174 78 -69 135 -86 298 -86 166 0 222 17 305 92 75 67 95 111 95
208 0 69 -4 86 -27 126 -54 91 -149 140 -415 209 -102 27 -133 53 -133 110 0
23 5 50 11 62 17 32 86 58 159 58 93 0 139 -16 183 -62 l38 -39 79 26 c44 15
80 32 80 39 0 23 -66 106 -109 137 -69 51 -134 71 -246 75 -68 3 -117 -1 -152
-11z"/>
<path d="M24075 9381 c-201 -57 -368 -228 -419 -427 -9 -34 -16 -101 -16 -149
0 -166 57 -302 175 -420 118 -118 254 -175 420 -175 166 0 302 57 420 175 118
118 175 254 175 420 0 48 -7 115 -16 149 -52 203 -227 378 -430 430 -82 21
-231 20 -309 -3z m236 -270 c20 -20 29 -40 29 -61 0 -107 -119 -147 -178 -60
-30 44 -24 84 18 123 42 38 92 37 131 -2z m-246 -241 c23 -19 37 -74 26 -102
-12 -33 -57 -68 -87 -68 -79 0 -131 87 -88 149 33 47 106 57 149 21z m220 15
c73 -36 73 -135 -2 -170 -43 -21 -86 -12 -113 22 -38 48 -19 132 34 153 31 13
44 12 81 -5z m275 -32 c49 -62 -2 -153 -85 -153 -30 0 -82 46 -90 80 -3 15 2
40 12 60 33 64 118 70 163 13z m-247 -234 c15 -16 27 -41 27 -55 0 -82 -91
-132 -153 -84 -57 45 -51 130 13 163 44 22 77 15 113 -24z"/>
<path d="M14140 3840 l0 -720 480 0 480 0 0 85 0 85 -375 0 -375 0 0 235 0
235 280 0 280 0 0 90 0 90 -280 0 -280 0 0 220 0 220 375 0 375 0 0 90 0 90
-480 0 -480 0 0 -720z"/>
<path d="M20400 4290 l0 -140 -75 0 -75 0 0 -90 0 -90 74 0 75 0 3 -312 c3
-304 4 -315 27 -365 13 -29 44 -72 70 -96 65 -61 123 -79 247 -75 l99 3 3 83
3 82 -71 0 c-52 0 -82 6 -111 21 -69 35 -73 53 -77 377 l-4 282 131 0 131 0 0
90 0 90 -130 0 -130 0 0 140 0 140 -95 0 -95 0 0 -140z"/>
<path d="M15647 4150 c-51 -13 -94 -36 -143 -76 -41 -33 -42 -33 -48 -11 -3
12 -6 37 -6 55 l0 32 -90 0 -90 0 0 -515 0 -515 95 0 95 0 0 293 c0 169 5 318
11 352 26 144 107 215 241 215 106 -1 166 -39 210 -135 22 -49 23 -60 26 -387
l3 -338 95 0 94 0 0 340 c0 211 -4 359 -11 392 -27 127 -103 229 -207 275 -44
20 -77 26 -147 29 -49 2 -107 -1 -128 -6z"/>
<path d="M16623 4145 c-170 -46 -301 -182 -348 -362 -8 -31 -15 -100 -15 -153
0 -167 44 -285 144 -384 100 -100 193 -135 357 -136 103 0 170 15 253 57 92
47 221 191 189 211 -6 4 -44 18 -83 32 l-72 25 -31 -39 c-111 -138 -348 -151
-463 -24 -66 73 -79 116 -79 258 0 114 2 130 26 180 54 114 143 170 269 170
62 0 86 -5 135 -28 55 -27 116 -81 127 -113 4 -11 23 -7 89 15 46 16 85 30 87
32 10 7 -48 96 -92 139 -92 89 -217 136 -361 134 -44 0 -104 -7 -132 -14z"/>
<path d="M18701 4144 c-169 -45 -300 -179 -346 -355 -19 -71 -19 -229 0 -304
44 -172 168 -307 326 -356 42 -13 90 -19 157 -19 112 1 163 10 239 46 90 43
232 190 207 214 -10 9 -156 62 -158 58 -24 -44 -67 -82 -122 -109 -60 -30 -76
-33 -153 -33 -66 0 -97 4 -132 21 -85 38 -147 120 -164 216 l-7 37 380 0 380
0 7 63 c21 201 -80 398 -247 483 -105 53 -254 69 -367 38z m244 -184 c22 -9
55 -30 74 -46 38 -32 81 -115 81 -156 l0 -28 -275 0 -275 0 6 28 c11 45 44
105 78 140 79 85 202 110 311 62z"/>
<path d="M19659 4142 c-159 -43 -249 -148 -249 -291 1 -147 90 -219 360 -291
181 -49 220 -76 220 -152 0 -139 -278 -173 -384 -48 -14 17 -29 42 -32 56 -3
13 -9 24 -13 24 -15 0 -155 -50 -163 -58 -13 -13 28 -100 68 -149 23 -28 60
-55 111 -80 72 -36 83 -38 187 -42 122 -4 195 8 268 45 145 73 208 239 142
372 -50 100 -139 148 -419 222 -98 26 -135 56 -135 111 0 74 64 119 172 119
91 0 137 -16 181 -62 l38 -39 79 26 c44 15 80 32 80 39 0 24 -62 106 -103 136
-99 73 -272 99 -408 62z"/>
<path d="M21230 4142 c-36 -9 -86 -29 -111 -44 -61 -36 -133 -117 -155 -174
-21 -54 -22 -52 83 -88 l72 -24 11 32 c13 41 74 100 124 121 47 20 157 23 209
6 19 -7 52 -30 71 -52 33 -36 36 -44 36 -104 l0 -64 -32 -5 c-18 -3 -96 -13
-173 -21 -208 -24 -286 -50 -367 -123 -59 -53 -88 -120 -88 -207 0 -187 138
-293 368 -283 118 5 179 29 243 94 24 24 47 44 51 44 4 0 8 -15 8 -34 0 -18 3
-48 6 -65 l7 -31 89 0 89 0 -3 393 -3 392 -33 67 c-38 78 -94 129 -174 160
-75 29 -239 35 -328 10z m340 -602 c0 -115 -75 -221 -177 -251 -72 -21 -171
-18 -213 6 -101 59 -82 197 33 239 32 12 239 45 345 55 8 1 12 -15 12 -49z"/>
<path d="M22163 4145 c-212 -57 -318 -239 -234 -403 42 -82 104 -117 316 -177
171 -48 180 -52 215 -90 49 -52 25 -131 -51 -170 -41 -22 -121 -28 -180 -16
-72 16 -124 52 -150 104 -12 23 -23 44 -25 46 -2 2 -39 -9 -84 -25 -53 -19
-80 -34 -80 -44 1 -31 43 -107 83 -148 83 -86 183 -117 354 -110 95 4 117 8
174 35 128 60 192 148 191 266 0 169 -95 244 -425 332 -133 36 -167 66 -153
139 13 66 87 101 200 94 66 -5 155 -36 156 -56 0 -4 7 -15 15 -26 13 -17 17
-17 97 9 46 15 85 29 87 31 8 7 -51 93 -84 123 -102 90 -276 125 -422 86z"/>
<path d="M17330 3818 c0 -255 4 -349 15 -403 30 -139 90 -220 204 -274 50 -23
68 -26 171 -26 103 0 121 3 170 26 30 14 69 40 85 57 36 38 45 39 45 8 0 -13
3 -38 6 -55 l7 -31 88 0 89 0 0 515 0 515 -100 0 -100 0 0 -323 c0 -359 -5
-398 -62 -463 -90 -102 -265 -110 -351 -15 -62 69 -67 102 -67 473 l0 328
-100 0 -100 0 0 -332z"/>
<path d="M17292 2523 c-69 -21 -133 -78 -162 -145 -19 -42 -24 -76 -28 -170
l-4 -118 -64 0 -64 0 0 -90 0 -90 65 0 65 0 0 -425 0 -425 95 0 95 0 0 425 0
425 105 0 105 0 0 90 0 90 -106 0 -107 0 7 92 c7 105 25 144 76 170 19 10 54
18 78 18 l43 0 -3 83 -3 82 -70 2 c-40 1 -92 -5 -123 -14z"/>
<path d="M20460 2244 l0 -296 -39 35 c-181 164 -486 154 -640 -20 -90 -101
-131 -224 -131 -393 0 -211 74 -367 218 -459 74 -47 148 -63 265 -59 90 3 110
7 167 34 36 17 86 50 111 72 45 40 47 41 53 19 3 -12 6 -43 6 -69 l0 -48 90 0
90 0 0 740 0 740 -95 0 -95 0 0 -296z m-190 -345 c160 -72 231 -290 159 -485
-44 -116 -148 -188 -273 -188 -163 0 -270 101 -295 280 -27 186 52 349 192
401 53 19 166 15 217 -8z"/>
<path d="M22040 2244 l0 -297 -46 43 c-73 67 -159 102 -268 108 -155 8 -257
-29 -356 -130 -92 -93 -139 -229 -140 -399 0 -221 94 -395 258 -476 l76 -38
130 0 c123 0 134 2 188 28 31 15 79 48 106 72 27 24 52 42 56 38 3 -3 6 -25 6
-47 0 -85 1 -86 101 -86 l89 0 -2 738 -3 737 -97 3 -98 3 0 -297z m-202 -339
c140 -59 212 -193 199 -368 -15 -192 -130 -310 -302 -311 -124 -1 -208 55
-264 174 -24 50 -26 67 -26 175 0 101 4 127 21 166 30 65 90 128 149 155 60
29 165 32 223 9z"/>
<path d="M24157 2533 c-4 -3 -7 -134 -7 -290 l0 -284 -42 34 c-96 76 -181 107
-298 107 -182 0 -333 -93 -409 -253 -76 -162 -74 -403 6 -561 38 -75 126 -161
202 -199 64 -31 70 -32 196 -32 127 0 132 1 197 33 37 18 87 52 112 76 l45 44
6 -74 7 -74 89 0 89 0 0 740 0 740 -93 0 c-52 0 -97 -3 -100 -7z m-165 -646
c56 -32 104 -87 131 -146 33 -71 36 -237 7 -314 -31 -84 -76 -137 -144 -172
-51 -26 -70 -30 -135 -29 -89 0 -131 16 -191 70 -139 126 -145 410 -11 544 62
62 114 80 217 77 66 -3 89 -8 126 -30z"/>
<path d="M20936 2520 c-77 -23 -117 -111 -81 -180 25 -48 62 -70 118 -70 44 0
53 4 88 39 34 34 39 45 39 84 0 37 -6 53 -31 81 -39 45 -84 60 -133 46z"/>
<path d="M14140 1781 l0 -721 105 0 105 0 0 290 0 290 198 0 c108 0 226 5 262
11 142 22 264 108 323 228 31 63 32 70 32 186 0 109 -2 125 -27 177 -37 79
-73 123 -142 168 -114 78 -147 83 -523 88 l-333 4 0 -721z m670 523 c127 -38
188 -175 145 -322 -20 -67 -62 -114 -127 -142 -49 -22 -71 -24 -265 -28 l-213
-4 0 256 0 256 203 0 c158 0 216 -4 257 -16z"/>
<path d="M15705 2086 c-68 -17 -126 -48 -174 -94 l-39 -37 -7 67 -7 68 -89 0
-89 0 0 -515 0 -515 95 0 95 0 0 258 c1 289 8 371 40 438 49 101 127 149 242
149 l78 0 0 91 0 91 -37 7 c-46 7 -46 7 -108 -8z"/>
<path d="M16300 2093 c-51 -8 -147 -47 -198 -80 -142 -94 -215 -245 -215 -443
0 -165 43 -279 143 -381 97 -98 205 -139 365 -139 163 0 280 46 380 151 189
198 191 546 4 745 -60 63 -181 128 -268 144 -52 10 -160 11 -211 3z m214 -193
c61 -23 126 -80 155 -137 28 -56 45 -154 38 -227 -15 -164 -96 -266 -238 -302
-115 -30 -215 0 -293 87 -60 67 -80 129 -80 249 0 164 51 262 165 319 78 39
168 42 253 11z"/>
<path d="M19037 2089 c-51 -12 -109 -43 -151 -80 l-35 -30 -5 23 c-3 13 -7 37
-8 53 l-3 30 -87 3 -88 3 0 -516 0 -515 94 0 95 0 3 333 c3 322 4 334 26 382
46 100 114 144 220 145 133 0 205 -63 231 -205 6 -34 11 -184 11 -357 l0 -298
96 0 95 0 -3 368 c-3 347 -4 370 -24 424 -46 121 -121 194 -236 230 -63 19
-166 22 -231 7z"/>
<path d="M22690 2082 c-36 -9 -86 -29 -111 -44 -61 -36 -133 -117 -155 -174
-21 -54 -22 -52 83 -88 l72 -24 11 32 c13 41 74 100 124 121 47 20 157 23 209
6 19 -7 52 -30 71 -52 33 -36 36 -44 36 -104 l0 -64 -32 -5 c-18 -3 -96 -13
-173 -21 -208 -24 -286 -50 -367 -123 -120 -108 -119 -311 3 -415 66 -57 155
-81 282 -75 118 6 175 28 242 97 21 23 43 41 47 41 4 0 8 -15 8 -34 0 -18 3
-48 6 -65 l7 -31 89 0 89 0 -3 393 -3 392 -33 67 c-38 78 -94 129 -174 160
-75 29 -239 35 -328 10z m340 -602 c0 -115 -75 -221 -177 -251 -72 -21 -171
-18 -213 6 -101 59 -82 197 33 239 32 12 239 45 345 55 8 1 12 -15 12 -49z"/>
<path d="M17597 2083 c-11 -11 -8 -605 4 -690 12 -89 50 -181 98 -236 18 -20
63 -51 99 -69 64 -32 71 -33 187 -33 112 0 124 2 172 27 29 16 68 41 86 58
l35 30 7 -55 6 -55 90 0 89 0 0 515 0 515 -95 0 -95 0 0 -267 c0 -401 -12
-468 -98 -545 -36 -33 -105 -58 -157 -58 -51 0 -121 25 -155 57 -70 63 -74 84
-78 471 l-3 342 -93 0 c-51 0 -96 -3 -99 -7z"/>
<path d="M20870 1575 l0 -515 100 0 100 0 0 515 0 515 -100 0 -100 0 0 -515z"/>
</g>
</svg>
